<svg viewBox="0 0 22 22" fill="none" xmlns="http://www.w3.org/2000/svg">
<path d="M17.3876 6.80432C17.3739 6.69982 17.3223 6.60394 17.2427 6.53476C17.163 6.46558 17.0607 6.42788 16.9551 6.42878H14.5722V5.56547C14.5722 4.61985 14.1959 3.71296 13.5259 3.0443C12.856 2.37565 11.9474 2 11 2C10.0526 2 9.14398 2.37565 8.47406 3.0443C7.80413 3.71296 7.42778 4.61985 7.42777 5.56547V6.42878H5.04053C4.93493 6.42788 4.83266 6.46558 4.753 6.53476C4.67333 6.60394 4.62178 6.69982 4.60805 6.80432L3.00358 18.9511C2.99541 19.014 3.00126 19.078 3.02069 19.1384C3.04013 19.1989 3.07268 19.2543 3.11602 19.3007C3.29766 19.495 3.4966 19.6935 3.71283 19.8878C3.79215 19.9597 3.89541 19.9997 4.00259 20H17.9974C18.1046 19.9997 18.2078 19.9597 18.2872 19.8878C18.4991 19.6935 18.7196 19.495 18.884 19.3007C18.9273 19.2543 18.9599 19.1989 18.9793 19.1384C18.9987 19.078 19.0046 19.014 18.9964 18.9511L17.3876 6.80432ZM8.3057 5.55683C8.3057 4.84018 8.59093 4.15287 9.09864 3.64612C9.60635 3.13937 10.295 2.85468 11.013 2.85468C11.731 2.85468 12.4196 3.13937 12.9273 3.64612C13.435 4.15287 13.7203 4.84018 13.7203 5.55683V6.42014H8.29272L8.3057 5.55683ZM17.8201 19.1367H4.17126L3.88582 18.8604L5.41678 7.29209H16.5789L18.1098 18.8604L17.8201 19.1367Z" fill="currentColor"/>
</svg>
