<svg viewBox="0 0 12 15" fill="none" xmlns="http://www.w3.org/2000/svg">
<path d="M10.6454 4.44864C10.6354 4.37264 10.5979 4.30291 10.54 4.2526C10.482 4.20228 10.4076 4.17487 10.3308 4.17552H8.5978V3.54766C8.5978 2.85993 8.32409 2.20038 7.83687 1.71408C7.34966 1.22779 6.68885 0.95459 5.99982 0.95459C5.3108 0.95459 4.64999 1.22779 4.16277 1.71408C3.67556 2.20038 3.40184 2.85993 3.40184 3.54766V4.17552H1.66566C1.58887 4.17487 1.51449 4.20228 1.45655 4.2526C1.39861 4.30291 1.36111 4.37264 1.35113 4.44864L0.184244 13.2826C0.178306 13.3284 0.182556 13.3749 0.19669 13.4189C0.210825 13.4629 0.234498 13.5032 0.266021 13.5369C0.398122 13.6782 0.542803 13.8226 0.700066 13.9639C0.757749 14.0162 0.832847 14.0453 0.910798 14.0455H11.0888C11.1668 14.0453 11.2419 14.0162 11.2996 13.9639C11.4537 13.8226 11.6141 13.6782 11.7336 13.5369C11.7651 13.5032 11.7888 13.4629 11.803 13.4189C11.8171 13.3749 11.8213 13.3284 11.8154 13.2826L10.6454 4.44864ZM4.04033 3.54138C4.04033 3.02017 4.24777 2.52032 4.61701 2.15177C4.98626 1.78322 5.48706 1.57617 6.00926 1.57617C6.53145 1.57617 7.03226 1.78322 7.4015 2.15177C7.77075 2.52032 7.97819 3.02017 7.97819 3.54138V4.16924H4.03089L4.04033 3.54138ZM10.9599 13.4176H1.03346L0.825876 13.2167L1.9393 4.80338H10.0572L11.1706 13.2167L10.9599 13.4176Z" fill="black"/>
<path d="M2 4.5L1.5 5L0.5 13L1 13.5H11L11.5 13L10 4.5H2Z"/>
</svg>
