<svg viewBox="0 0 21 21" fill="none" xmlns="http://www.w3.org/2000/svg">
<g clip-path="url(#clip0_66_11)">
<path d="M20.904 16.7274L16.3758 12.1993C16.3983 12.1817 16.4218 12.1656 16.4464 12.1511L17.6532 11.5089C17.9619 11.3467 18.1949 11.0703 18.3026 10.7386C18.4103 10.407 18.3841 10.0464 18.2297 9.73378L17.6286 8.50429C17.5825 8.41058 17.5585 8.30753 17.5585 8.20307C17.5585 8.09862 17.5825 7.99556 17.6286 7.90186L18.2297 6.67237C18.3841 6.35974 18.4103 5.99915 18.3026 5.66752C18.1949 5.33589 17.9619 5.05947 17.6532 4.89721L16.4451 4.25573C16.3527 4.20707 16.2728 4.13781 16.2114 4.05332C16.1501 3.96883 16.109 3.87137 16.0914 3.76846L15.8548 2.42053C15.7959 2.07694 15.6052 1.76994 15.3232 1.56496C15.0413 1.35999 14.6904 1.27327 14.3454 1.32328L12.9902 1.51523C12.8869 1.52962 12.7816 1.52035 12.6824 1.48812C12.5831 1.4559 12.4925 1.40155 12.4173 1.32918L11.433 0.377621C11.1834 0.134144 10.8485 -0.00213623 10.4998 -0.00213623C10.1511 -0.00213623 9.8162 0.134144 9.56659 0.377621L8.58221 1.32918C8.50704 1.40155 8.41641 1.4559 8.31717 1.48812C8.21792 1.52035 8.11266 1.52962 8.00931 1.51523L6.65382 1.32328C6.30887 1.27344 5.95808 1.36023 5.67616 1.56517C5.39424 1.77012 5.20346 2.07702 5.14445 2.42053L4.90787 3.76846C4.89023 3.87141 4.84912 3.96892 4.78772 4.05342C4.72632 4.13792 4.64629 4.20715 4.55382 4.25573L3.34698 4.89721C3.03835 5.05947 2.80534 5.33589 2.69764 5.66752C2.58993 5.99915 2.61607 6.35974 2.77047 6.67237L3.37159 7.90186C3.41773 7.99556 3.44173 8.09862 3.44173 8.20307C3.44173 8.30753 3.41773 8.41058 3.37159 8.50429L2.76915 9.73378C2.61476 10.0464 2.58862 10.407 2.69632 10.7386C2.80403 11.0703 3.03704 11.3467 3.34567 11.5089L4.55514 12.1504C4.57953 12.165 4.60298 12.1811 4.62536 12.1987L0.0972313 16.7268C0.0557713 16.7682 0.0261556 16.8199 0.0114614 16.8767C-0.00323274 16.9334 -0.00246932 16.993 0.0136724 17.0493C0.0298141 17.1057 0.0607451 17.1566 0.103252 17.197C0.145758 17.2373 0.19829 17.2655 0.255388 17.2787L3.07168 17.9287L3.7217 20.745C3.73486 20.8021 3.76308 20.8546 3.80341 20.8971C3.84374 20.9396 3.89472 20.9706 3.95105 20.9867C4.00738 21.0029 4.067 21.0036 4.12372 20.9889C4.18045 20.9742 4.2322 20.9446 4.27361 20.9032L9.35396 15.8225L9.56692 16.0289C9.81657 16.2723 10.1514 16.4085 10.5001 16.4085C10.8488 16.4085 11.1836 16.2723 11.4333 16.0289L11.6462 15.8225L16.7276 20.9038C16.769 20.9453 16.8207 20.9749 16.8775 20.9896C16.9342 21.0043 16.9938 21.0035 17.0501 20.9874C17.1065 20.9712 17.1575 20.9403 17.1978 20.8978C17.2381 20.8553 17.2663 20.8028 17.2795 20.7457L17.9295 17.9294L20.7458 17.2793C20.8029 17.2662 20.8554 17.238 20.8979 17.1976C20.9405 17.1573 20.9714 17.1063 20.9875 17.05C21.0037 16.9937 21.0044 16.934 20.9897 16.8773C20.975 16.8206 20.9454 16.7688 20.904 16.7274ZM4.22701 20.0212L3.66428 17.5819C3.65046 17.5219 3.62006 17.467 3.57655 17.4235C3.53303 17.38 3.47815 17.3496 3.41818 17.3358L0.978903 16.773L4.9397 12.8122L5.14543 13.9856C5.2046 14.3291 5.39542 14.6359 5.6773 14.8408C5.95917 15.0457 6.30988 15.1325 6.65481 15.0829L8.00996 14.8909C8.11331 14.8767 8.21854 14.886 8.31776 14.9182C8.41698 14.9505 8.50761 15.0047 8.58287 15.077L8.88179 15.366L4.22701 20.0212ZM10.0233 15.557L9.58201 15.1305L9.03929 14.6055C8.79029 14.3631 8.45654 14.2275 8.10906 14.2275C8.04528 14.2276 7.98158 14.2321 7.91842 14.2409L6.56261 14.4329C6.38624 14.4588 6.20673 14.4146 6.06254 14.3098C5.91835 14.205 5.82094 14.0479 5.79118 13.8721L5.55461 12.5242C5.52558 12.3711 5.47006 12.2243 5.39054 12.0904C5.38312 12.0744 5.37445 12.059 5.36462 12.0444C5.24212 11.8451 5.06917 11.6817 4.86325 11.5706L3.65411 10.9291C3.49627 10.8464 3.37703 10.7052 3.32185 10.5358C3.26667 10.3663 3.27993 10.182 3.35879 10.0222L3.95992 8.7937C4.0501 8.61022 4.09699 8.4085 4.09699 8.20406C4.09699 7.99962 4.0501 7.7979 3.95992 7.61442L3.35879 6.38493C3.27993 6.22512 3.26667 6.04081 3.32185 5.87136C3.37703 5.7019 3.49627 5.56073 3.65411 5.478L4.86292 4.83651C5.04381 4.74135 5.20039 4.60586 5.32056 4.44052C5.44072 4.27518 5.52125 4.08441 5.55592 3.88298L5.7925 2.53504C5.82172 2.35921 5.91876 2.20186 6.06277 2.09681C6.20678 1.99177 6.38625 1.94742 6.56261 1.97329L7.91809 2.16525C8.12036 2.19429 8.3266 2.17652 8.52092 2.11332C8.71525 2.05012 8.89248 1.94317 9.03897 1.8007L10.0233 0.849136C10.1508 0.724674 10.3219 0.655002 10.5001 0.655002C10.6783 0.655002 10.8494 0.724674 10.9769 0.849136L11.9612 1.8007C12.1077 1.9432 12.2848 2.0502 12.4791 2.11346C12.6734 2.17671 12.8795 2.19454 13.0818 2.16557L14.4376 1.97329C14.614 1.94728 14.7935 1.99143 14.9377 2.09626C15.082 2.20109 15.1793 2.35826 15.209 2.53406L15.4456 3.882C15.4803 4.08338 15.5608 4.27411 15.6809 4.43944C15.801 4.60477 15.9575 4.74029 16.1383 4.83553L17.3474 5.47701C17.5053 5.55975 17.6245 5.70092 17.6797 5.87037C17.7348 6.03983 17.7216 6.22414 17.6427 6.38395L17.0403 7.61245C16.9501 7.79593 16.9032 7.99765 16.9032 8.20209C16.9032 8.40653 16.9501 8.60825 17.0403 8.79173L17.6414 10.0212C17.7203 10.181 17.7335 10.3653 17.6784 10.5348C17.6232 10.7042 17.5039 10.8454 17.3461 10.9282L16.1373 11.5696C15.9564 11.6648 15.7998 11.8003 15.6797 11.9656C15.5595 12.131 15.479 12.3217 15.4443 12.5232L15.2077 13.8711C15.1781 14.0467 15.081 14.2038 14.9371 14.3088C14.7932 14.4138 14.6139 14.4583 14.4376 14.4329L13.0815 14.2406C12.8792 14.2116 12.673 14.2293 12.4786 14.2925C12.2843 14.3557 12.1071 14.4627 11.9606 14.6051L10.9762 15.5567C10.8488 15.681 10.6779 15.7506 10.4998 15.7507C10.3218 15.7507 10.1508 15.6812 10.0233 15.557ZM17.582 17.3358C17.5221 17.3496 17.4672 17.38 17.4237 17.4235C17.3801 17.467 17.3497 17.5219 17.3359 17.5819L16.7732 20.0212L12.1181 15.366L12.4167 15.077C12.492 15.0048 12.5826 14.9506 12.6818 14.9184C12.781 14.8862 12.8862 14.8768 12.9896 14.8909L14.3451 15.0829C14.69 15.1326 15.0408 15.0458 15.3227 14.8409C15.6046 14.6359 15.7954 14.3291 15.8544 13.9856L16.0602 12.8122L20.0213 16.773L17.582 17.3358Z" fill="black"/>
<path d="M15.4219 8.20313C15.4221 7.02469 14.9992 5.88535 14.2301 4.99242C14.2032 4.95645 14.1692 4.9264 14.1301 4.90413C14.0911 4.88185 14.0479 4.86783 14.0033 4.86293C13.9586 4.85803 13.9134 4.86235 13.8705 4.87564C13.8276 4.88892 13.7878 4.91088 13.7537 4.94015C13.7196 4.96942 13.6919 5.00539 13.6723 5.04581C13.6527 5.08623 13.6416 5.13025 13.6397 5.17515C13.6377 5.22004 13.6451 5.26485 13.6612 5.30679C13.6773 5.34874 13.7019 5.38692 13.7334 5.41899C14.4375 6.23803 14.8043 7.29392 14.7595 8.3731C14.7147 9.45227 14.2618 10.4742 13.4923 11.2321C12.7228 11.99 11.6941 12.4274 10.6144 12.4558C9.53464 12.4842 8.48443 12.1014 7.67617 11.3849C6.86791 10.6685 6.36192 9.67175 6.26055 8.59642C6.15919 7.52109 6.47 6.44739 7.13014 5.5925C7.79028 4.7376 8.75046 4.16533 9.81647 3.99144C10.8825 3.81754 11.9748 4.05499 12.8724 4.65577C12.9081 4.68128 12.9485 4.69937 12.9914 4.70896C13.0342 4.71855 13.0785 4.71944 13.1217 4.71159C13.1649 4.70375 13.2061 4.68731 13.2428 4.66327C13.2795 4.63922 13.3111 4.60805 13.3355 4.5716C13.36 4.53515 13.3769 4.49417 13.3852 4.45107C13.3936 4.40797 13.3932 4.36364 13.3841 4.3207C13.3749 4.27776 13.3573 4.23708 13.3322 4.20107C13.3071 4.16507 13.275 4.13447 13.2379 4.11108C12.326 3.50066 11.2362 3.21249 10.1418 3.29236C9.04732 3.37223 8.01096 3.81555 7.19733 4.5519C6.38371 5.28825 5.83949 6.27539 5.65116 7.35646C5.46283 8.43754 5.64118 9.55055 6.15787 10.5187C6.67456 11.4868 7.49997 12.2544 8.50293 12.6997C9.5059 13.1449 10.6289 13.2423 11.6935 12.9762C12.7581 12.7101 13.7033 12.0958 14.3788 11.231C15.0543 10.3662 15.4214 9.30049 15.4219 8.20313Z" fill="black"/>
<path d="M12.3949 6.66489L9.83817 9.35748L8.61361 7.96229C8.58608 7.92713 8.55167 7.89795 8.51247 7.87655C8.47327 7.85515 8.43012 7.84198 8.38566 7.83783C8.34119 7.83369 8.29635 7.83867 8.25387 7.85246C8.2114 7.86626 8.17219 7.88858 8.13864 7.91805C8.10509 7.94753 8.07792 7.98355 8.05877 8.02389C8.03963 8.06424 8.02893 8.10807 8.02731 8.1527C8.0257 8.19733 8.03322 8.24181 8.0494 8.28344C8.06558 8.32506 8.09009 8.36294 8.12142 8.39476L9.58125 10.06C9.6113 10.0943 9.64819 10.122 9.68954 10.1413C9.7309 10.1605 9.77582 10.171 9.82143 10.1719H9.828C9.87252 10.1719 9.91657 10.1628 9.95747 10.1452C9.99837 10.1276 10.0353 10.1018 10.0659 10.0695L12.8697 7.11639C12.901 7.08548 12.9257 7.04859 12.9425 7.00793C12.9592 6.96726 12.9676 6.92365 12.9672 6.87967C12.9667 6.8357 12.9575 6.79226 12.9399 6.75195C12.9223 6.71163 12.8968 6.67525 12.8649 6.64498C12.833 6.61471 12.7954 6.59116 12.7542 6.57573C12.713 6.5603 12.6692 6.55331 12.6252 6.55516C12.5813 6.55702 12.5382 6.56769 12.4984 6.58654C12.4587 6.60539 12.4232 6.63203 12.3939 6.66489H12.3949Z" fill="black"/>
</g>
</svg>
