<svg viewBox="0 0 27 27" fill="none" xmlns="http://www.w3.org/2000/svg">
<path d="M7.00032 8.80664C7.53062 8.80575 8.03894 8.5947 8.41392 8.21972C8.7889 7.84474 8.99996 7.33641 9.00085 6.80611C9.00085 5.82842 7.57745 3.93968 7.29226 3.57097C7.25638 3.52854 7.21168 3.49445 7.16128 3.47107C7.11088 3.44769 7.05599 3.43558 7.00043 3.43558C6.94487 3.43558 6.88997 3.44769 6.83957 3.47107C6.78917 3.49445 6.74447 3.52854 6.70859 3.57097C6.4232 3.93968 5 5.828 5 6.80611C5.00089 7.33638 5.21192 7.84467 5.58685 8.21964C5.96179 8.59462 6.47006 8.8057 7.00032 8.80664ZM7.00032 4.41514C7.59685 5.24623 8.26257 6.34859 8.26257 6.80611C8.25828 7.13808 8.12339 7.455 7.88712 7.68824C7.65085 7.92148 7.33221 8.05226 7.00021 8.05226C6.66822 8.05226 6.34958 7.92148 6.11331 7.68824C5.87704 7.455 5.74215 7.13808 5.73786 6.80611C5.73723 6.32813 6.42488 5.21565 7.00032 4.41514ZM6.70754 19.7438C6.50462 20.0057 5.49317 21.349 5.49317 22.0668C5.49081 22.2661 5.52803 22.4639 5.60267 22.6487C5.6773 22.8335 5.78787 23.0017 5.92797 23.1434C6.06807 23.2852 6.23491 23.3977 6.41882 23.4746C6.60273 23.5514 6.80006 23.5909 6.99937 23.5909C7.19868 23.5909 7.39601 23.5514 7.57992 23.4746C7.76384 23.3977 7.93068 23.2852 8.07077 23.1434C8.21087 23.0017 8.32144 22.8335 8.39608 22.6487C8.47071 22.4639 8.50793 22.2661 8.50557 22.0668C8.50557 21.3496 7.49307 20.0057 7.2912 19.7438C7.25532 19.7013 7.21063 19.6672 7.16023 19.6439C7.10982 19.6205 7.05493 19.6084 6.99937 19.6084C6.94381 19.6084 6.88892 19.6205 6.83852 19.6439C6.78812 19.6672 6.74342 19.7013 6.70754 19.7438ZM6.99948 22.8348C6.79585 22.8346 6.60063 22.7536 6.45665 22.6096C6.31266 22.4657 6.23168 22.2704 6.23145 22.0668C6.23145 21.8164 6.59173 21.1775 6.99948 20.5934C7.40701 21.1771 7.76729 21.8168 7.76729 22.0668C7.7669 22.2701 7.68597 22.465 7.54223 22.6088C7.39849 22.7526 7.20363 22.8335 7.00032 22.834L6.99948 22.8348ZM20.37 10.1866C20.8021 10.1862 21.2164 10.0143 21.522 9.70871C21.8276 9.40314 21.9994 8.98883 21.9999 8.55668C21.9999 7.77389 20.8853 6.29438 20.6619 6.00561C20.626 5.96318 20.5813 5.9291 20.5309 5.90571C20.4805 5.88233 20.4256 5.87022 20.3701 5.87022C20.3145 5.87022 20.2596 5.88233 20.2092 5.90571C20.1588 5.9291 20.1141 5.96318 20.0782 6.00561C19.8546 6.29438 18.7403 7.77389 18.7403 8.55668C18.7407 8.98879 18.9125 9.40307 19.2181 9.70864C19.5236 10.0142 19.9379 10.1861 20.37 10.1866ZM20.37 6.85379C20.8049 7.47099 21.2616 8.23796 21.2616 8.55668C21.2634 8.67491 21.2417 8.79233 21.1977 8.90209C21.1537 9.01184 21.0883 9.11176 21.0054 9.19601C20.9224 9.28026 20.8235 9.34717 20.7144 9.39284C20.6054 9.43851 20.4883 9.46203 20.3701 9.46203C20.2518 9.46203 20.1348 9.43851 20.0257 9.39284C19.9166 9.34717 19.8177 9.28026 19.7348 9.19601C19.6518 9.11176 19.5864 9.01184 19.5424 8.90209C19.4984 8.79233 19.4767 8.67491 19.4785 8.55668C19.4785 8.23796 19.9352 7.47099 20.37 6.85379ZM13.3778 19.4484C12.2411 19.4473 11.1514 18.9952 10.3477 18.1914C9.544 17.3876 9.09208 16.2978 9.09113 15.1611C9.09113 15.0632 9.05224 14.9693 8.98301 14.9001C8.91379 14.8309 8.81989 14.792 8.72199 14.792C8.62409 14.792 8.5302 14.8309 8.46097 14.9001C8.39174 14.9693 8.35285 15.0632 8.35285 15.1611C8.35402 16.4935 8.88379 17.771 9.82588 18.7132C10.768 19.6555 12.0454 20.1854 13.3778 20.1867C13.4757 20.1867 13.5696 20.1478 13.6388 20.0786C13.7081 20.0094 13.7469 19.9155 13.7469 19.8176C13.7469 19.7197 13.7081 19.6258 13.6388 19.5566C13.5696 19.4873 13.4757 19.4484 13.3778 19.4484Z" fill="black"/>
<path d="M19.8137 15.6619C19.8341 15.4576 19.845 15.2524 19.8462 15.047C19.8462 11.5919 13.9218 3.89686 13.6697 3.57201C13.6338 3.52959 13.5891 3.4955 13.5387 3.47211C13.4883 3.44873 13.4334 3.43661 13.3778 3.43661C13.3222 3.43661 13.2673 3.44873 13.2169 3.47211C13.1665 3.4955 13.1218 3.52959 13.0859 3.57201C12.8327 3.89791 6.90918 11.5929 6.90918 15.0481C6.90968 16.0832 7.15849 17.1032 7.63473 18.0223C8.11096 18.9414 8.80072 19.7329 9.64612 20.3303C10.4915 20.9277 11.4679 21.3135 12.4933 21.4555C13.5187 21.5975 14.5631 21.4915 15.5391 21.1463C15.8723 21.5847 16.3019 21.9408 16.7945 22.187C17.2871 22.4332 17.8297 22.5629 18.3805 22.5663C18.9312 22.5696 19.4753 22.4464 19.9709 22.2062C20.4665 21.966 20.9003 21.6151 21.2389 21.1808C21.5774 20.7464 21.8117 20.2401 21.9237 19.7008C22.0356 19.1616 22.0222 18.6038 21.8845 18.0706C21.7468 17.5374 21.4885 17.0429 21.1294 16.6252C20.7704 16.2076 20.3203 15.878 19.8137 15.6619ZM15.1461 20.4978C14.2861 20.7767 13.3723 20.8482 12.4795 20.7064C11.5866 20.5646 10.7399 20.2136 10.0086 19.6821C9.27736 19.1505 8.68222 18.4534 8.27186 17.6479C7.86149 16.8423 7.64753 15.9511 7.64746 15.047C7.64746 12.2557 12.1721 6.02036 13.3778 4.40859C14.5835 6.02015 19.1079 12.2555 19.1079 15.047C19.1079 15.1782 19.1031 15.3096 19.0942 15.4406C18.4417 15.3107 17.7659 15.3646 17.1422 15.5963C16.5185 15.828 15.9715 16.2284 15.5621 16.7529C15.1527 17.2773 14.897 17.9052 14.8235 18.5664C14.7501 19.2277 14.8617 19.8963 15.1461 20.4978ZM18.4006 21.832C17.8348 21.8319 17.2817 21.664 16.8113 21.3495C16.3409 21.0351 15.9743 20.5882 15.7579 20.0654C15.5415 19.5426 15.4849 18.9674 15.5954 18.4125C15.7059 17.8575 15.9784 17.3478 16.3786 16.9478C16.7787 16.5478 17.2885 16.2754 17.8435 16.165C18.3985 16.0547 18.9737 16.1114 19.4964 16.328C20.0191 16.5446 20.4659 16.9114 20.7802 17.3818C21.0945 17.8523 21.2623 18.4055 21.2622 18.9713C21.2613 19.7299 20.9595 20.4571 20.423 20.9934C19.8866 21.5298 19.1592 21.8314 18.4006 21.832Z" fill="black"/>
<path d="M18.7695 18.8293V17.2617C18.7695 17.1638 18.7306 17.0699 18.6614 17.0006C18.5922 16.9314 18.4983 16.8925 18.4004 16.8925C18.3025 16.8925 18.2086 16.9314 18.1394 17.0006C18.0701 17.0699 18.0312 17.1638 18.0312 17.2617V18.9713C18.0313 19.0626 18.0652 19.1506 18.1264 19.2183L18.6934 19.8469C18.7589 19.9196 18.8507 19.9633 18.9485 19.9684C19.0463 19.9735 19.1421 19.9395 19.2148 19.8739C19.2875 19.8083 19.3312 19.7166 19.3363 19.6188C19.3414 19.521 19.3074 19.4252 19.2418 19.3525L18.7695 18.8293Z" fill="black"/>
</svg>
