<svg width="14" height="14" viewBox="0 0 14 14" fill="none" xmlns="http://www.w3.org/2000/svg">
<path d="M3.87678 10.0683C4.84849 10.5461 5.91716 10.7936 6.99995 10.7917C8.30166 10.7748 9.57599 10.4155 10.6948 9.7499C11.8136 9.08431 12.7374 8.13589 13.3735 7C13.0224 6.38977 12.5907 5.82959 12.0901 5.33458C12.0598 5.30853 12.0352 5.27653 12.0178 5.24057C12.0004 5.20461 11.9906 5.16546 11.989 5.12555C11.9873 5.08564 11.9939 5.04581 12.0083 5.00854C12.0226 4.97127 12.0445 4.93735 12.0725 4.90889C12.1006 4.88042 12.1341 4.85802 12.1712 4.84306C12.2082 4.8281 12.2479 4.82092 12.2879 4.82194C12.3278 4.82297 12.3671 4.83219 12.4033 4.84903C12.4395 4.86587 12.4719 4.88997 12.4985 4.91983C13.0768 5.49257 13.5693 6.14584 13.9609 6.85942C13.9846 6.90249 13.997 6.95084 13.997 7C13.997 7.04916 13.9846 7.09751 13.9609 7.14058C13.2855 8.40457 12.2834 9.46421 11.059 10.209C9.83468 10.9538 8.43293 11.3565 6.99995 11.375C5.82838 11.3769 4.6721 11.109 3.6207 10.5922C3.58623 10.5754 3.55541 10.5519 3.52999 10.5232C3.50458 10.4945 3.48507 10.461 3.47259 10.4247C3.4601 10.3885 3.45488 10.3501 3.45722 10.3118C3.45957 10.2735 3.46943 10.2361 3.48624 10.2016C3.50306 10.1672 3.5265 10.1363 3.55522 10.1109C3.58395 10.0855 3.6174 10.066 3.65367 10.0535C3.68993 10.041 3.7283 10.0358 3.76658 10.0381C3.80487 10.0405 3.84231 10.0504 3.87678 10.0672V10.0683ZM6.99995 9.33333C7.59804 9.33417 8.17362 9.1053 8.60783 8.69399C9.04204 8.28268 9.30173 7.72034 9.33328 7.12308C9.33525 7.08482 9.32965 7.04654 9.31682 7.01043C9.30399 6.97433 9.28417 6.94111 9.25849 6.91267C9.23281 6.88423 9.20178 6.86113 9.16717 6.84468C9.13256 6.82824 9.09505 6.81878 9.05678 6.81683C9.01835 6.8139 8.97972 6.81879 8.94324 6.83123C8.90676 6.84367 8.87318 6.86338 8.84455 6.88918C8.81591 6.91498 8.79281 6.94633 8.77665 6.98132C8.76049 7.01631 8.75161 7.05422 8.75053 7.09275C8.73556 7.37693 8.65151 7.65317 8.50567 7.89753C8.35983 8.14189 8.1566 8.347 7.91359 8.49508C7.67058 8.64316 7.39513 8.72975 7.1111 8.74733C6.82707 8.76492 6.54304 8.71297 6.28362 8.596C6.24851 8.5787 6.21028 8.56864 6.17121 8.56643C6.13213 8.56421 6.09301 8.56988 6.05617 8.5831C6.01934 8.59632 5.98554 8.61682 5.95679 8.64338C5.92804 8.66994 5.90493 8.70201 5.88883 8.73768C5.87274 8.77336 5.86399 8.81191 5.8631 8.85103C5.86222 8.89016 5.86922 8.92907 5.88368 8.96543C5.89815 9.0018 5.91979 9.03488 5.94731 9.06271C5.97483 9.09054 6.00767 9.11255 6.04387 9.12742C6.34425 9.2634 6.67022 9.33361 6.99995 9.33333ZM13.9574 2.765C13.9976 2.83106 14.0099 2.91039 13.9916 2.98555C13.9734 3.0607 13.926 3.12552 13.86 3.16575L5.40803 8.31017L0.443283 11.3324C0.397677 11.3605 0.34515 11.3752 0.291617 11.375C0.228006 11.375 0.166145 11.3542 0.11546 11.3157C0.0647749 11.2773 0.0280447 11.2233 0.0108665 11.1621C-0.00631181 11.1009 -0.00299632 11.0357 0.0203077 10.9765C0.0436118 10.9173 0.0856266 10.8673 0.13995 10.8343L2.12678 9.625C1.2758 8.93984 0.565799 8.09612 0.0361167 7.14058C0.0124236 7.09751 0 7.04916 0 7C0 6.95084 0.0124236 6.90249 0.0361167 6.85942C0.711714 5.595 1.71428 4.53508 2.9392 3.79026C4.16411 3.04544 5.56648 2.64302 6.99995 2.625C8.56358 2.62694 10.0896 3.10488 11.375 3.99525L13.5566 2.66758C13.6227 2.62737 13.702 2.61504 13.7772 2.63331C13.8523 2.65158 13.9171 2.69895 13.9574 2.765ZM8.31128 5.86017C8.1498 5.66972 7.94894 5.51655 7.72256 5.41122C7.49617 5.30588 7.24964 5.25088 6.99995 5.25C6.71308 5.24417 6.42933 5.31037 6.17465 5.44252C5.91996 5.57468 5.70248 5.76858 5.54209 6.0065C5.3817 6.24441 5.28353 6.51875 5.25654 6.8044C5.22955 7.09006 5.27462 7.37792 5.38762 7.64167L8.31128 5.86017ZM10.8266 4.3295C9.68411 3.59843 8.35633 3.20941 6.99995 3.20833C5.69824 3.22521 4.42391 3.58451 3.30511 4.2501C2.1863 4.91569 1.26245 5.86411 0.62645 7C1.14356 7.89425 1.83272 8.67718 2.65412 9.30358L4.87078 7.95375C4.63908 7.43524 4.60443 6.85003 4.77334 6.30781C4.94225 5.76559 5.30312 5.30358 5.7883 5.0084C6.27348 4.71321 6.84966 4.60511 7.40885 4.70435C7.96803 4.8036 8.47182 5.10338 8.82578 5.5475L10.8266 4.3295Z" fill="#9C9C9C"/>
</svg>
