<svg width="14" height="14" viewBox="0 0 14 14" fill="none" xmlns="http://www.w3.org/2000/svg">
<g clip-path="url(#clip0_129_3266)">
<path d="M13.9608 6.85398C13.2668 5.65445 12.2689 4.64836 11.075 3.94456C9.84485 3.21937 8.43571 2.83606 6.99997 2.83606C5.56424 2.83606 4.15507 3.21937 2.92489 3.94456C1.73099 4.64839 0.733127 5.65445 0.0391938 6.85398C0.0135187 6.89838 0 6.94876 0 7.00004C0 7.05133 0.0135187 7.10171 0.0391938 7.14611C0.733127 8.34567 1.73099 9.35176 2.92489 10.0555C4.1551 10.7807 5.56424 11.1641 6.99997 11.1641C8.43571 11.1641 9.84485 10.7807 11.075 10.0555C12.2689 9.35173 13.2668 8.34567 13.9608 7.14611C13.9864 7.10171 13.9999 7.05133 13.9999 7.00004C13.9999 6.94876 13.9864 6.89838 13.9608 6.85398ZM10.7788 9.55302C9.63826 10.2253 8.33159 10.5807 6.99994 10.5807C5.6683 10.5807 4.3616 10.2253 3.22111 9.55302C2.16235 8.92887 1.26977 8.0485 0.630841 7.00002C1.26977 5.95156 2.16235 5.07118 3.22111 4.44704C4.3616 3.77473 5.6683 3.41935 6.99994 3.41935C8.33159 3.41935 9.63826 3.77473 10.7788 4.44704C11.8375 5.07118 12.7301 5.95153 13.369 7.00002C12.7301 8.0485 11.8375 8.92887 10.7788 9.55302Z" fill="#9C9C9C"/>
<path d="M6.99974 4.37915C5.55459 4.37915 4.37891 5.55483 4.37891 6.99999C4.37891 8.44515 5.55459 9.62086 6.99974 9.62086C8.4449 9.62086 9.62061 8.44515 9.62061 6.99999C9.62061 5.55486 8.44487 4.37915 6.99974 4.37915ZM6.99974 9.03753C5.87626 9.03753 4.96223 8.12351 4.96223 6.99999C4.96223 5.8765 5.87626 4.96247 6.99974 4.96247C8.12326 4.96247 9.03729 5.8765 9.03729 6.99999C9.03729 8.12351 8.12326 9.03753 6.99974 9.03753Z" fill="#9C9C9C"/>
</g>
<defs>
<clipPath id="clip0_129_3266">
<rect width="14" height="14" fill="white"/>
</clipPath>
</defs>
</svg>
