<svg width="16" height="16" viewBox="0 0 16 16" fill="none" xmlns="http://www.w3.org/2000/svg">
<path d="M13.915 3.01257C13.2165 2.3149 12.2697 1.92302 11.2825 1.92302C10.2953 1.92302 9.34842 2.3149 8.64997 3.01257L7.99997 3.66257L7.34997 3.01257C7.00646 2.65783 6.59579 2.37499 6.1419 2.1805C5.688 1.98602 5.19995 1.88379 4.70616 1.87976C4.21237 1.87574 3.72272 1.97 3.26571 2.15705C2.80871 2.34411 2.39348 2.62022 2.04423 2.96931C1.69497 3.3184 1.41866 3.73349 1.23139 4.19041C1.04412 4.64732 0.949626 5.13693 0.953418 5.63072C0.95721 6.12451 1.05921 6.61262 1.25348 7.0666C1.44774 7.52059 1.7304 7.93139 2.08497 8.27507L7.81497 14.0001C7.84891 14.0341 7.89259 14.0569 7.93997 14.0651H8.00747C8.04037 14.0653 8.07299 14.059 8.10345 14.0465C8.13391 14.0341 8.16161 14.0157 8.18497 13.9926L13.915 8.27507C14.6093 7.57788 14.9991 6.63402 14.9991 5.65007C14.9991 4.66613 14.6093 3.72226 13.915 3.02507V3.01257ZM13.56 7.92257L7.99997 13.4826L2.43997 7.92257C1.83561 7.31788 1.49621 6.49787 1.49645 5.64294C1.49668 4.78801 1.83653 3.96818 2.44122 3.36382C3.04592 2.75946 3.86592 2.42007 4.72086 2.4203C5.57579 2.42053 6.39561 2.76038 6.99997 3.36507L7.82497 4.19257C7.84821 4.216 7.87586 4.2346 7.90633 4.2473C7.93679 4.25999 7.96947 4.26652 8.00247 4.26652C8.03547 4.26652 8.06815 4.25999 8.09862 4.2473C8.12908 4.2346 8.15673 4.216 8.17997 4.19257L8.99997 3.36507C9.60433 2.76038 10.4242 2.42053 11.2791 2.4203C12.134 2.42007 12.954 2.75946 13.5587 3.36382C14.1634 3.96818 14.5033 4.78801 14.5035 5.64294C14.5037 6.49787 14.1643 7.31788 13.56 7.92257Z" fill="black" stroke="black" stroke-width="0.3"/>
</svg>
