<svg width="17" height="9" viewBox="0 0 17 9" fill="none" xmlns="http://www.w3.org/2000/svg">
<path d="M1 4.00342C0.723858 4.00342 0.5 4.22728 0.5 4.50342C0.5 4.77956 0.723858 5.00342 1 5.00342L1 4.00342ZM16.3536 4.85697C16.5488 4.66171 16.5488 4.34513 16.3536 4.14986L13.1716 0.967883C12.9763 0.772621 12.6597 0.772621 12.4645 0.967883C12.2692 1.16315 12.2692 1.47973 12.4645 1.67499L15.2929 4.50342L12.4645 7.33184C12.2692 7.52711 12.2692 7.84369 12.4645 8.03895C12.6597 8.23421 12.9763 8.23421 13.1716 8.03895L16.3536 4.85697ZM1 5.00342L16 5.00342L16 4.00342L1 4.00342L1 5.00342Z" fill="#4E4E4E"/>
</svg>
