<svg viewBox="0 0 26 27" fill="none" xmlns="http://www.w3.org/2000/svg">
<g id="Frame">
<g id="Group">
<path id="Vector" d="M20.3522 23.7162H6.64784C6.55984 23.7172 6.47446 23.6864 6.40741 23.6294C6.34036 23.5724 6.29617 23.4931 6.28297 23.4061C5.07892 15.3791 7.03459 9.66528 8.88811 6.29028C10.9058 2.62338 13.1826 0.875682 13.2811 0.802709C13.3442 0.755342 13.4211 0.729736 13.5 0.729736C13.5789 0.729736 13.6558 0.755342 13.7189 0.802709C13.8138 0.875682 23.023 8.03068 20.7134 23.4243C20.6964 23.5074 20.6511 23.5819 20.5852 23.6352C20.5193 23.6884 20.4369 23.7171 20.3522 23.7162ZM6.96527 22.9865H20.0347C21.1293 15.3243 19.2539 9.90609 17.4807 6.67339C16.4606 4.75343 15.1135 3.02606 13.5 1.56893C12.1463 2.74379 5.07527 9.59595 6.96527 22.9865Z" fill="black"/>
<path id="Vector_2" d="M18.5648 26.2703H8.43615C8.33939 26.2703 8.24658 26.2318 8.17816 26.1634C8.10973 26.095 8.07129 26.0022 8.07129 25.9054V23.3514C8.07129 23.2546 8.10973 23.1618 8.17816 23.0934C8.24658 23.0249 8.33939 22.9865 8.43615 22.9865H18.5648C18.6616 22.9865 18.7544 23.0249 18.8228 23.0934C18.8912 23.1618 18.9297 23.2546 18.9297 23.3514V25.9054C18.9297 26.0022 18.8912 26.095 18.8228 26.1634C18.7544 26.2318 18.6616 26.2703 18.5648 26.2703ZM8.80102 25.5406H18.1999V23.7162H8.80102V25.5406ZM13.464 5.79772H13.3728C13.276 5.79772 13.1832 5.75928 13.1148 5.69086C13.0464 5.62243 13.0079 5.52963 13.0079 5.43286C13.0079 5.33609 13.0464 5.24328 13.1148 5.17486C13.1832 5.10643 13.276 5.06799 13.3728 5.06799H13.464C13.5608 5.06799 13.6536 5.10643 13.722 5.17486C13.7904 5.24328 13.8289 5.33609 13.8289 5.43286C13.8289 5.52963 13.7904 5.62243 13.722 5.69086C13.6536 5.75928 13.5608 5.79772 13.464 5.79772ZM14.7775 8.30799H14.6863C14.5895 8.30799 14.4967 8.26955 14.4283 8.20113C14.3599 8.1327 14.3214 8.0399 14.3214 7.94313C14.3214 7.84636 14.3599 7.75356 14.4283 7.68513C14.4967 7.6167 14.5895 7.57826 14.6863 7.57826H14.7775C14.8743 7.57826 14.9671 7.6167 15.0355 7.68513C15.1039 7.75356 15.1424 7.84636 15.1424 7.94313C15.1424 8.0399 15.1039 8.1327 15.0355 8.20113C14.9671 8.26955 14.8743 8.30799 14.7775 8.30799ZM12.1468 8.30799H12.041C11.9443 8.30799 11.8514 8.26955 11.783 8.20113C11.7146 8.1327 11.6762 8.0399 11.6762 7.94313C11.6762 7.84636 11.7146 7.75356 11.783 7.68513C11.8514 7.6167 11.9443 7.57826 12.041 7.57826H12.1322C12.229 7.57826 12.3218 7.6167 12.3902 7.68513C12.4587 7.75356 12.4971 7.84636 12.4971 7.94313C12.4971 8.0399 12.4587 8.1327 12.3902 8.20113C12.3218 8.26955 12.229 8.30799 12.1322 8.30799H12.1468ZM16.1385 10.946H16.0545C15.9578 10.946 15.865 10.9075 15.7965 10.8391C15.7281 10.7707 15.6897 10.6779 15.6897 10.5811C15.6897 10.4843 15.7281 10.3915 15.7965 10.3231C15.865 10.2547 15.9578 10.2162 16.0545 10.2162H16.1457C16.2425 10.2162 16.3353 10.2547 16.4037 10.3231C16.4722 10.3915 16.5106 10.4843 16.5106 10.5811C16.5106 10.6779 16.4722 10.7707 16.4037 10.8391C16.3353 10.9075 16.2425 10.946 16.1457 10.946H16.1385ZM13.5005 10.946H13.4093C13.3125 10.946 13.2197 10.9075 13.1513 10.8391C13.0828 10.7707 13.0444 10.6779 13.0444 10.5811C13.0444 10.4843 13.0828 10.3915 13.1513 10.3231C13.2197 10.2547 13.3125 10.2162 13.4093 10.2162H13.5005C13.5972 10.2162 13.6901 10.2547 13.7585 10.3231C13.8269 10.3915 13.8653 10.4843 13.8653 10.5811C13.8653 10.6779 13.8269 10.7707 13.7585 10.8391C13.6901 10.9075 13.5972 10.946 13.5005 10.946ZM10.9464 10.946H10.8552C10.7584 10.946 10.6656 10.9075 10.5972 10.8391C10.5288 10.7707 10.4903 10.6779 10.4903 10.5811C10.4903 10.4843 10.5288 10.3915 10.5972 10.3231C10.6656 10.2547 10.7584 10.2162 10.8552 10.2162H10.9464C11.0432 10.2162 11.136 10.2547 11.2044 10.3231C11.2728 10.3915 11.3113 10.4843 11.3113 10.5811C11.3113 10.6779 11.2728 10.7707 11.2044 10.8391C11.136 10.9075 11.0432 10.946 10.9464 10.946ZM17.4191 13.4781H17.3279C17.2311 13.4781 17.1383 13.4397 17.0699 13.3713C17.0015 13.3028 16.963 13.21 16.963 13.1133C16.963 13.0165 17.0015 12.9237 17.0699 12.8553C17.1383 12.7868 17.2311 12.7484 17.3279 12.7484H17.4191C17.5159 12.7484 17.6087 12.7868 17.6771 12.8553C17.7456 12.9237 17.784 13.0165 17.784 13.1133C17.784 13.21 17.7456 13.3028 17.6771 13.3713C17.6087 13.4397 17.5159 13.4781 17.4191 13.4781ZM14.7885 13.4781H14.6972C14.6005 13.4781 14.5077 13.4397 14.4392 13.3713C14.3708 13.3028 14.3324 13.21 14.3324 13.1133C14.3324 13.0165 14.3708 12.9237 14.4392 12.8553C14.5077 12.7868 14.6005 12.7484 14.6972 12.7484H14.7885C14.8852 12.7484 14.978 12.7868 15.0464 12.8553C15.1149 12.9237 15.1533 13.0165 15.1533 13.1133C15.1533 13.21 15.1149 13.3028 15.0464 13.3713C14.978 13.4397 14.8852 13.4781 14.7885 13.4781ZM12.2271 13.4781H12.1359C12.0391 13.4781 11.9463 13.4397 11.8779 13.3713C11.8095 13.3028 11.771 13.21 11.771 13.1133C11.771 13.0165 11.8095 12.9237 11.8779 12.8553C11.9463 12.7868 12.0391 12.7484 12.1359 12.7484H12.2271C12.3239 12.7484 12.4167 12.7868 12.4851 12.8553C12.5535 12.9237 12.592 13.0165 12.592 13.1133C12.592 13.21 12.5535 13.3028 12.4851 13.3713C12.4167 13.4397 12.3239 13.4781 12.2271 13.4781ZM9.67305 13.4781H9.58183C9.48506 13.4781 9.39226 13.4397 9.32383 13.3713C9.25541 13.3028 9.21696 13.21 9.21696 13.1133C9.21696 13.0165 9.25541 12.9237 9.32383 12.8553C9.39226 12.7868 9.48506 12.7484 9.58183 12.7484H9.67305C9.76981 12.7484 9.86262 12.7868 9.93104 12.8553C9.99947 12.9237 10.0379 13.0165 10.0379 13.1133C10.0379 13.21 9.99947 13.3028 9.93104 13.3713C9.86262 13.4397 9.76981 13.4781 9.67305 13.4781Z" fill="black"/>
</g>
</g>
</svg>
