<svg viewBox="0 0 16 17" fill="none" xmlns="http://www.w3.org/2000/svg">
<g id="Frame">
<g id="Group">
<path id="Vector" d="M14.2296 12.8108H2.77095C2.49978 12.8104 2.23981 12.7025 2.04806 12.5108C1.85631 12.319 1.74842 12.0591 1.74805 11.7879V4.14464C1.74834 3.89137 1.84911 3.64856 2.02822 3.46949C2.20734 3.29043 2.45018 3.18974 2.70345 3.18951H14.2969C14.5501 3.18981 14.7928 3.29054 14.9719 3.46959C15.151 3.64865 15.2517 3.89142 15.252 4.14464V11.7882C15.2517 12.0592 15.1439 12.3191 14.9522 12.5108C14.7606 12.7026 14.5007 12.8104 14.2296 12.8108ZM2.70373 3.75173C2.48689 3.75173 2.31083 3.9278 2.31083 4.14436V11.7879C2.31083 12.0416 2.51727 12.2483 2.77123 12.2483H14.2299C14.4836 12.2483 14.69 12.0419 14.69 11.7879V4.14464C14.69 3.9278 14.514 3.75201 14.2974 3.75201L2.70373 3.75173Z" fill="currentColor"/>
<path id="Vector_2" d="M8.50078 9.26732C8.20672 9.26801 7.92243 9.16175 7.70091 8.96835L3.13903 4.97657C3.08331 4.92736 3.04933 4.8581 3.04453 4.78391C3.03973 4.70973 3.0645 4.63666 3.11341 4.58068C3.16233 4.52471 3.23142 4.49037 3.30557 4.48518C3.37973 4.48 3.45293 4.50438 3.50916 4.553L8.07131 8.54451C8.19044 8.64816 8.34302 8.70525 8.50092 8.70525C8.65883 8.70525 8.81141 8.64816 8.93053 8.54451L13.4924 4.553C13.5486 4.50438 13.6218 4.48 13.696 4.48518C13.7701 4.49037 13.8392 4.52471 13.8882 4.58068C13.9371 4.63666 13.9618 4.70973 13.957 4.78391C13.9522 4.8581 13.9183 4.92736 13.8625 4.97657L9.30066 8.96807C9.07911 9.16146 8.79486 9.2678 8.50078 9.26732Z" fill="currentColor"/>
</g>
</g>
</svg>
