<svg width="34" height="28" viewBox="0 0 34 28" fill="none" xmlns="http://www.w3.org/2000/svg">
<mask id="path-1-inside-1_66_38" fill="white">
<path d="M31.875 9.91615C31.3844 9.67164 30.8664 9.12134 31.218 7.01871C31.3798 6.05138 31.333 5.3905 31.071 4.939C30.8109 4.49076 30.4013 4.33218 30.0401 4.1922C29.9907 4.17307 29.941 4.15382 29.8913 4.13363L29.8871 4.13184C29.8621 4.07121 29.8728 3.8775 29.8792 3.75996C29.9036 3.31504 29.9543 2.38993 28.737 2.22644C28.1464 2.14722 27.7467 2.23972 27.5145 2.5094C27.2 2.87463 27.3444 3.37268 27.4399 3.70212C27.4628 3.77364 27.4814 3.84644 27.4957 3.92013C27.5062 4.00427 27.4828 4.05959 27.4139 4.2084C27.2744 4.47861 27.2016 4.77833 27.2018 5.08244C27.2018 5.48971 27.1645 5.62246 26.2609 6.25836C26.016 6.42005 25.757 6.55927 25.487 6.67433C24.835 6.97529 24.0961 7.31641 23.9796 8.38529C23.9016 9.10161 23.4948 9.66374 23.2999 9.77285C23.2966 9.76621 23.2933 9.7583 23.2892 9.74934C23.1623 9.44766 22.9638 9.24465 22.6989 9.14624C22.161 8.94642 21.5526 9.2481 20.9645 9.54016C20.8889 9.57755 20.8141 9.6148 20.7404 9.6502C20.3924 9.81652 20.0192 9.92407 19.6361 9.96848C19.6767 9.91306 19.7183 9.85832 19.7607 9.80426C19.9985 9.49786 20.3578 9.03494 20.0212 8.56518C19.6733 8.07982 19.2626 8.2629 18.9907 8.38409C18.7691 8.48923 18.5358 8.56768 18.2957 8.61778C17.6746 8.74521 17.4109 9.07425 17.2185 9.31451C17.0692 9.50085 17.0219 9.54594 16.8997 9.56114C16.1971 9.6488 16.2264 10.358 16.2403 10.6988C16.2458 10.8282 16.2568 11.0973 16.2109 11.1487C15.9066 11.3706 15.6079 11.7925 15.6265 12.2347C15.6277 12.2636 15.6218 12.2924 15.6094 12.3186C15.5969 12.3448 15.5782 12.3675 15.555 12.3848C15.5362 12.3998 15.514 12.4098 15.4904 12.4139C15.4668 12.418 15.4425 12.4161 15.4198 12.4082C15.3412 12.3817 15.3382 12.3653 15.3382 12.3015C15.3359 12.1994 15.3394 12.0973 15.3488 11.9956L15.3664 11.9801C15.5356 11.8308 15.6822 11.6576 15.8015 11.4661C16.4035 10.5485 15.8065 9.79204 15.7808 9.7603C15.7287 9.69608 15.6579 9.64966 15.5783 9.62748C15.0574 9.48185 14.7562 9.9303 14.5361 10.2577C14.2671 10.6582 13.9889 11.0724 13.3631 11.1398C12.4827 11.2346 12.4078 11.156 12.2946 11.0368C12.0976 10.8186 11.8482 10.6544 11.5699 10.5597C10.9566 10.3304 9.93187 10.5088 8.94076 10.6814C8.46263 10.7646 7.75043 10.8886 7.54078 10.847C7.53102 10.7847 7.53799 10.6216 7.64597 10.3269L7.64637 10.3273C8.0624 10.5525 8.50301 10.5655 8.88617 10.3639C9.25327 10.171 9.44491 9.78042 9.39896 9.31936C9.33999 8.72794 8.86107 8.00637 8.06061 7.77163C7.36281 7.56723 6.93449 8.11256 6.55624 8.59374C6.1171 9.15235 5.61932 9.78553 4.58657 9.95254C4.2299 10.0045 3.88833 10.1315 3.58445 10.3253C3.28057 10.5191 3.0213 10.7752 2.82381 11.0767C2.46768 11.6024 2.2413 12.3072 2.16931 13.1149C2.11089 13.7807 2.15284 14.4514 2.29376 15.1047C2.45127 15.8112 2.33221 16.0656 2.29197 16.1267C2.27889 16.1495 2.25943 16.1679 2.23599 16.1798C2.012 16.1681 1.24069 16.1698 0.859981 16.6942C0.604516 17.0461 0.59761 17.5119 0.839462 18.0791C2.06525 20.9531 2.66291 21.477 3.08565 21.6103C3.18078 21.6418 3.28167 21.6521 3.3812 21.6403C3.48072 21.6286 3.57644 21.5951 3.66159 21.5422C3.94196 21.3675 4.0771 20.9553 4.30082 20.2724C4.58238 19.4132 5.00785 18.1147 5.71713 17.9052C6.06543 17.8023 6.51089 17.9615 7.04134 18.3786C7.47152 19.0493 8.08731 19.7963 8.6499 19.6895C9.08997 19.606 9.23932 19.1986 9.33813 18.9291C9.39923 18.7624 9.46245 18.5904 9.55116 18.5478C9.7108 18.4684 9.86011 18.3698 9.99576 18.2541C10.036 18.2201 10.0781 18.1883 10.1219 18.159C10.1507 18.1697 10.1782 18.1834 10.204 18.1999C10.2567 18.2319 10.3049 18.2618 10.3501 18.2898C10.7598 18.5435 10.9876 18.669 11.6849 18.7484C11.7936 18.7609 11.8298 18.8042 11.9433 19.0573C12.0555 19.3075 12.2886 19.8281 12.9537 19.711C13.3072 19.6489 13.3958 19.7509 13.7344 20.3518L13.7961 20.461C14.3031 21.3528 15.1367 21.8024 16.2797 21.8024C16.5224 21.8014 16.7648 21.7833 17.0049 21.7481C18.0403 21.6005 18.4274 21.3416 18.6585 21.187C18.694 21.1613 18.7315 21.1383 18.7705 21.1182C18.8149 21.1182 18.859 21.126 18.9008 21.1413C19.3291 21.2613 19.6662 21.0844 19.9373 20.942C20.2511 20.7774 20.4239 20.6868 20.7592 20.8918C21.4132 21.2919 21.8655 21.1162 22.2289 20.975C22.4935 20.8722 22.7223 20.7834 23.0976 20.877C23.8131 21.0553 24.1323 20.8662 24.475 20.6003C24.7034 20.4012 24.9881 20.2781 25.2896 20.248C26.2153 20.1207 26.2365 19.2866 26.2491 18.7883C26.2654 18.1482 26.3303 18.1135 26.5526 18.0916C27.0378 18.0441 27.1145 18.1509 27.2539 18.3449C27.3997 18.5476 27.62 18.854 28.1633 18.854C28.3877 18.854 29.0706 18.854 29.3081 19.1256C29.3408 19.163 29.4402 19.2769 29.3973 19.5943C29.3347 20.0592 29.3898 20.4534 29.5612 20.7665C29.6476 20.9226 29.7784 21.0497 29.937 21.1316C30.0957 21.2135 30.275 21.2466 30.4524 21.2267C30.6298 21.2068 30.7973 21.1348 30.9338 21.0198C31.0704 20.9048 31.1698 20.752 31.2195 20.5805C31.9157 18.1726 31.5322 17.2362 31.1614 16.3305C31.0381 16.0502 30.9374 15.7606 30.8601 15.4643C30.7217 14.8883 30.6216 14.4721 29.9613 14.6083C29.768 14.6523 29.5689 14.6652 29.3715 14.6465C29.3448 14.6466 29.3185 14.6401 29.2949 14.6275C29.2714 14.6149 29.2514 14.5966 29.2367 14.5743C29.0458 14.3081 29.12 13.5281 29.2301 13.0848C29.2501 13.0238 29.2507 12.9582 29.2318 12.8969C29.2255 12.8429 29.1996 12.4713 29.5675 11.8344C29.8526 11.341 29.8828 10.7648 29.9049 10.3441L29.906 10.3225C30.0305 10.4967 30.1416 10.6801 30.2386 10.8711C30.4171 11.2146 30.6217 11.5439 30.8504 11.8562C31.3286 12.4919 32.0764 13.1389 32.6683 13.1511C32.7677 13.1563 32.867 13.1384 32.9583 13.0988C33.0497 13.0592 33.1306 12.999 33.1948 12.923C33.3435 12.7419 33.3741 12.477 33.2913 12.0893C33.1455 11.4074 32.6098 10.2822 31.875 9.91615ZM31.487 11.3771C31.2819 11.0954 31.0983 10.7986 30.9379 10.4893C30.684 10.0241 30.4647 9.62224 30.0235 9.39188C29.7599 9.25428 29.5638 9.30595 29.4457 9.37341C29.15 9.54215 29.1314 9.89457 29.11 10.3025C29.0911 10.6615 29.0678 11.1083 28.8784 11.436C28.4307 12.2111 28.4141 12.7399 28.4388 12.9718C28.3558 13.3371 28.1565 14.4333 28.5892 15.038C28.671 15.1545 28.7779 15.2511 28.902 15.3208C29.0261 15.3906 29.1643 15.4316 29.3064 15.4408C29.5465 15.4631 29.7885 15.4521 30.0256 15.4083C30.0476 15.4904 30.0704 15.5857 30.0861 15.6507C30.1726 15.9866 30.2858 16.315 30.4248 16.6327C30.7586 17.448 31.074 18.218 30.4549 20.3594C30.4495 20.3802 30.4377 20.3987 30.4211 20.4123C30.4045 20.4259 30.3841 20.4339 30.3627 20.4351C30.3425 20.4387 30.3216 20.4357 30.3033 20.4265C30.285 20.4172 30.2701 20.4023 30.261 20.3839C30.1743 20.2254 30.149 19.9893 30.188 19.701C30.2485 19.2524 30.1548 18.8824 29.9091 18.6012C29.4876 18.119 28.7553 18.0572 28.1643 18.0572C28.0295 18.0572 28.015 18.0372 27.9019 17.8797C27.657 17.5389 27.3449 17.2133 26.4759 17.2986C25.4884 17.3954 25.4665 18.2549 25.4535 18.7681C25.4377 19.3936 25.3756 19.4322 25.1821 19.4587C24.742 19.5074 24.3263 19.6856 23.9876 19.9709C23.7699 20.1398 23.6888 20.2033 23.2913 20.1037C22.6703 19.9489 22.2491 20.1126 21.9413 20.2322C21.6335 20.3517 21.4935 20.4061 21.176 20.2122C20.4549 19.7712 19.9213 20.0513 19.5681 20.2365C19.3351 20.3588 19.2294 20.4056 19.1169 20.374C18.6765 20.2506 18.4572 20.3637 18.2165 20.5246C18.0306 20.6491 17.749 20.8373 16.8933 20.9592C15.1385 21.2097 14.6501 20.3499 14.4894 20.0675L14.4291 19.9609C14.147 19.4602 13.8314 18.9001 13.1035 18.9001C13.0072 18.9005 12.911 18.9094 12.8162 18.9266C12.8021 18.9293 12.7879 18.9308 12.7735 18.931C12.7334 18.8679 12.699 18.8012 12.671 18.7318C12.5521 18.4667 12.3532 18.023 11.7756 17.9573C11.2245 17.8945 11.1101 17.8235 10.7701 17.6129C10.7229 17.5837 10.6726 17.5525 10.6173 17.5192C10.0582 17.1801 9.70582 17.4645 9.49505 17.6344C9.40764 17.7108 9.31121 17.7761 9.20791 17.8291C8.82581 18.0112 8.68928 18.3835 8.58967 18.6552C8.56369 18.7304 8.53376 18.8041 8.50002 18.8761C8.31282 18.7546 7.94965 18.3254 7.67897 17.8963C7.65566 17.8593 7.62638 17.8263 7.59231 17.7988C6.82393 17.1775 6.11683 16.9561 5.49129 17.141C4.38077 17.4689 3.89681 18.9459 3.54339 20.0243C3.46225 20.2921 3.36646 20.5552 3.25645 20.8124C3.07563 20.681 2.57771 20.1239 1.57252 17.766C1.45365 17.4871 1.42882 17.2673 1.50432 17.1625C1.61721 17.0054 1.99779 16.9587 2.21839 16.9765C2.23085 16.9778 2.24338 16.9783 2.25591 16.9781C2.38214 16.9724 2.50558 16.9391 2.61753 16.8805C2.72947 16.8219 2.82718 16.7394 2.90377 16.6389C3.18818 16.282 3.24463 15.7074 3.07158 14.9311C2.8454 13.9165 2.8778 12.4174 3.48329 11.5236C3.62004 11.3121 3.80072 11.1326 4.01305 10.9972C4.22539 10.8618 4.46439 10.7737 4.7138 10.7389C6.05368 10.5223 6.70632 9.6921 7.18285 9.08594C7.5441 8.62634 7.68176 8.49061 7.83656 8.53603C8.29396 8.67017 8.57446 9.08056 8.6062 9.39818C8.61948 9.53212 8.58907 9.61965 8.51549 9.6583C8.42173 9.70757 8.26906 9.75791 8.02581 9.62629C7.92494 9.57165 7.81349 9.53933 7.69903 9.53153C7.58457 9.52372 7.46977 9.54062 7.36241 9.58107C7.25656 9.62089 7.16051 9.683 7.08078 9.76321C7.00104 9.84341 6.93949 9.93983 6.90029 10.0459C6.50704 11.1129 6.9335 11.4656 7.22243 11.5809C7.569 11.7191 8.12482 11.632 9.07749 11.4661C9.83837 11.3337 10.8803 11.1523 11.2911 11.3058C11.4559 11.3582 11.6032 11.4548 11.7168 11.5851C12.0555 11.9422 12.3686 12.0483 13.4487 11.9318C14.4435 11.8247 14.8975 11.1489 15.1978 10.7017C15.2203 10.6685 15.245 10.6315 15.2702 10.595C15.2716 10.7502 15.2245 10.9019 15.1353 11.029C15.0542 11.1623 14.9533 11.2825 14.836 11.3855C14.5781 11.6156 14.5415 11.7875 14.5415 12.3015C14.5353 12.4935 14.5929 12.6821 14.7053 12.8379C14.8177 12.9937 14.9786 13.1078 15.1628 13.1624C15.3081 13.2117 15.4633 13.2247 15.6148 13.2004C15.7663 13.1761 15.9096 13.1152 16.0323 13.023C16.1593 12.9281 16.2613 12.8036 16.3294 12.6604C16.3975 12.5172 16.4296 12.3596 16.4229 12.2011C16.4186 12.1001 16.528 11.9038 16.6807 11.7925C17.0714 11.5074 17.0514 11.0211 17.0367 10.6659C17.0297 10.5595 17.0299 10.4528 17.0375 10.3464C17.4671 10.2789 17.6822 10.0104 17.8406 9.81262C17.9949 9.62005 18.1168 9.46798 18.456 9.39832C18.7361 9.34057 19.0087 9.25147 19.2688 9.13269C19.2239 9.19651 19.1711 9.26457 19.1315 9.31571C18.9854 9.50364 18.8202 9.71667 18.7382 9.96191C18.6975 10.0693 18.6905 10.1864 18.7179 10.2979C18.7453 10.4094 18.806 10.5099 18.8918 10.5861C19.3942 11.0288 20.6765 10.5657 21.0861 10.3686C21.1627 10.3317 21.2405 10.2931 21.319 10.2542C21.6935 10.0682 22.2063 9.81349 22.4213 9.89344C22.44 9.90008 22.4971 9.92166 22.5547 10.0587C22.7135 10.436 23.0184 10.6306 23.3708 10.5794C23.9456 10.4955 24.6458 9.62875 24.772 8.47195C24.8368 7.87761 25.1584 7.70416 25.8212 7.39809C26.135 7.2634 26.4358 7.10013 26.7197 6.91034C27.6287 6.27065 27.999 5.92627 27.999 5.08271C27.9994 4.89454 28.0468 4.70945 28.1369 4.54428C28.2213 4.36273 28.3262 4.13675 28.2866 3.82119C28.2683 3.7057 28.2412 3.59179 28.2055 3.48046C28.1707 3.3602 28.0993 3.11462 28.1215 3.02962C28.1499 3.01515 28.2738 2.96853 28.6311 3.01634C29.1184 3.08175 29.1097 3.24166 29.0837 3.7164C29.0646 4.06377 29.0328 4.64509 29.5915 4.87187C29.6453 4.89371 29.699 4.91457 29.7523 4.93522C30.3416 5.16346 30.6974 5.30132 30.4321 6.88723C30.0952 8.90246 30.4407 10.0915 31.5196 10.6293C32.0059 10.8716 32.4421 11.8411 32.5265 12.305C32.2953 12.1965 31.8843 11.9045 31.4872 11.3769L31.487 11.3771Z"/>
</mask>
<path d="M31.875 9.91615C31.3844 9.67164 30.8664 9.12134 31.218 7.01871C31.3798 6.05138 31.333 5.3905 31.071 4.939C30.8109 4.49076 30.4013 4.33218 30.0401 4.1922C29.9907 4.17307 29.941 4.15382 29.8913 4.13363L29.8871 4.13184C29.8621 4.07121 29.8728 3.8775 29.8792 3.75996C29.9036 3.31504 29.9543 2.38993 28.737 2.22644C28.1464 2.14722 27.7467 2.23972 27.5145 2.5094C27.2 2.87463 27.3444 3.37268 27.4399 3.70212C27.4628 3.77364 27.4814 3.84644 27.4957 3.92013C27.5062 4.00427 27.4828 4.05959 27.4139 4.2084C27.2744 4.47861 27.2016 4.77833 27.2018 5.08244C27.2018 5.48971 27.1645 5.62246 26.2609 6.25836C26.016 6.42005 25.757 6.55927 25.487 6.67433C24.835 6.97529 24.0961 7.31641 23.9796 8.38529C23.9016 9.10161 23.4948 9.66374 23.2999 9.77285C23.2966 9.76621 23.2933 9.7583 23.2892 9.74934C23.1623 9.44766 22.9638 9.24465 22.6989 9.14624C22.161 8.94642 21.5526 9.2481 20.9645 9.54016C20.8889 9.57755 20.8141 9.6148 20.7404 9.6502C20.3924 9.81652 20.0192 9.92407 19.6361 9.96848C19.6767 9.91306 19.7183 9.85832 19.7607 9.80426C19.9985 9.49786 20.3578 9.03494 20.0212 8.56518C19.6733 8.07982 19.2626 8.2629 18.9907 8.38409C18.7691 8.48923 18.5358 8.56768 18.2957 8.61778C17.6746 8.74521 17.4109 9.07425 17.2185 9.31451C17.0692 9.50085 17.0219 9.54594 16.8997 9.56114C16.1971 9.6488 16.2264 10.358 16.2403 10.6988C16.2458 10.8282 16.2568 11.0973 16.2109 11.1487C15.9066 11.3706 15.6079 11.7925 15.6265 12.2347C15.6277 12.2636 15.6218 12.2924 15.6094 12.3186C15.5969 12.3448 15.5782 12.3675 15.555 12.3848C15.5362 12.3998 15.514 12.4098 15.4904 12.4139C15.4668 12.418 15.4425 12.4161 15.4198 12.4082C15.3412 12.3817 15.3382 12.3653 15.3382 12.3015C15.3359 12.1994 15.3394 12.0973 15.3488 11.9956L15.3664 11.9801C15.5356 11.8308 15.6822 11.6576 15.8015 11.4661C16.4035 10.5485 15.8065 9.79204 15.7808 9.7603C15.7287 9.69608 15.6579 9.64966 15.5783 9.62748C15.0574 9.48185 14.7562 9.9303 14.5361 10.2577C14.2671 10.6582 13.9889 11.0724 13.3631 11.1398C12.4827 11.2346 12.4078 11.156 12.2946 11.0368C12.0976 10.8186 11.8482 10.6544 11.5699 10.5597C10.9566 10.3304 9.93187 10.5088 8.94076 10.6814C8.46263 10.7646 7.75043 10.8886 7.54078 10.847C7.53102 10.7847 7.53799 10.6216 7.64597 10.3269L7.64637 10.3273C8.0624 10.5525 8.50301 10.5655 8.88617 10.3639C9.25327 10.171 9.44491 9.78042 9.39896 9.31936C9.33999 8.72794 8.86107 8.00637 8.06061 7.77163C7.36281 7.56723 6.93449 8.11256 6.55624 8.59374C6.1171 9.15235 5.61932 9.78553 4.58657 9.95254C4.2299 10.0045 3.88833 10.1315 3.58445 10.3253C3.28057 10.5191 3.0213 10.7752 2.82381 11.0767C2.46768 11.6024 2.2413 12.3072 2.16931 13.1149C2.11089 13.7807 2.15284 14.4514 2.29376 15.1047C2.45127 15.8112 2.33221 16.0656 2.29197 16.1267C2.27889 16.1495 2.25943 16.1679 2.23599 16.1798C2.012 16.1681 1.24069 16.1698 0.859981 16.6942C0.604516 17.0461 0.59761 17.5119 0.839462 18.0791C2.06525 20.9531 2.66291 21.477 3.08565 21.6103C3.18078 21.6418 3.28167 21.6521 3.3812 21.6403C3.48072 21.6286 3.57644 21.5951 3.66159 21.5422C3.94196 21.3675 4.0771 20.9553 4.30082 20.2724C4.58238 19.4132 5.00785 18.1147 5.71713 17.9052C6.06543 17.8023 6.51089 17.9615 7.04134 18.3786C7.47152 19.0493 8.08731 19.7963 8.6499 19.6895C9.08997 19.606 9.23932 19.1986 9.33813 18.9291C9.39923 18.7624 9.46245 18.5904 9.55116 18.5478C9.7108 18.4684 9.86011 18.3698 9.99576 18.2541C10.036 18.2201 10.0781 18.1883 10.1219 18.159C10.1507 18.1697 10.1782 18.1834 10.204 18.1999C10.2567 18.2319 10.3049 18.2618 10.3501 18.2898C10.7598 18.5435 10.9876 18.669 11.6849 18.7484C11.7936 18.7609 11.8298 18.8042 11.9433 19.0573C12.0555 19.3075 12.2886 19.8281 12.9537 19.711C13.3072 19.6489 13.3958 19.7509 13.7344 20.3518L13.7961 20.461C14.3031 21.3528 15.1367 21.8024 16.2797 21.8024C16.5224 21.8014 16.7648 21.7833 17.0049 21.7481C18.0403 21.6005 18.4274 21.3416 18.6585 21.187C18.694 21.1613 18.7315 21.1383 18.7705 21.1182C18.8149 21.1182 18.859 21.126 18.9008 21.1413C19.3291 21.2613 19.6662 21.0844 19.9373 20.942C20.2511 20.7774 20.4239 20.6868 20.7592 20.8918C21.4132 21.2919 21.8655 21.1162 22.2289 20.975C22.4935 20.8722 22.7223 20.7834 23.0976 20.877C23.8131 21.0553 24.1323 20.8662 24.475 20.6003C24.7034 20.4012 24.9881 20.2781 25.2896 20.248C26.2153 20.1207 26.2365 19.2866 26.2491 18.7883C26.2654 18.1482 26.3303 18.1135 26.5526 18.0916C27.0378 18.0441 27.1145 18.1509 27.2539 18.3449C27.3997 18.5476 27.62 18.854 28.1633 18.854C28.3877 18.854 29.0706 18.854 29.3081 19.1256C29.3408 19.163 29.4402 19.2769 29.3973 19.5943C29.3347 20.0592 29.3898 20.4534 29.5612 20.7665C29.6476 20.9226 29.7784 21.0497 29.937 21.1316C30.0957 21.2135 30.275 21.2466 30.4524 21.2267C30.6298 21.2068 30.7973 21.1348 30.9338 21.0198C31.0704 20.9048 31.1698 20.752 31.2195 20.5805C31.9157 18.1726 31.5322 17.2362 31.1614 16.3305C31.0381 16.0502 30.9374 15.7606 30.8601 15.4643C30.7217 14.8883 30.6216 14.4721 29.9613 14.6083C29.768 14.6523 29.5689 14.6652 29.3715 14.6465C29.3448 14.6466 29.3185 14.6401 29.2949 14.6275C29.2714 14.6149 29.2514 14.5966 29.2367 14.5743C29.0458 14.3081 29.12 13.5281 29.2301 13.0848C29.2501 13.0238 29.2507 12.9582 29.2318 12.8969C29.2255 12.8429 29.1996 12.4713 29.5675 11.8344C29.8526 11.341 29.8828 10.7648 29.9049 10.3441L29.906 10.3225C30.0305 10.4967 30.1416 10.6801 30.2386 10.8711C30.4171 11.2146 30.6217 11.5439 30.8504 11.8562C31.3286 12.4919 32.0764 13.1389 32.6683 13.1511C32.7677 13.1563 32.867 13.1384 32.9583 13.0988C33.0497 13.0592 33.1306 12.999 33.1948 12.923C33.3435 12.7419 33.3741 12.477 33.2913 12.0893C33.1455 11.4074 32.6098 10.2822 31.875 9.91615ZM31.487 11.3771C31.2819 11.0954 31.0983 10.7986 30.9379 10.4893C30.684 10.0241 30.4647 9.62224 30.0235 9.39188C29.7599 9.25428 29.5638 9.30595 29.4457 9.37341C29.15 9.54215 29.1314 9.89457 29.11 10.3025C29.0911 10.6615 29.0678 11.1083 28.8784 11.436C28.4307 12.2111 28.4141 12.7399 28.4388 12.9718C28.3558 13.3371 28.1565 14.4333 28.5892 15.038C28.671 15.1545 28.7779 15.2511 28.902 15.3208C29.0261 15.3906 29.1643 15.4316 29.3064 15.4408C29.5465 15.4631 29.7885 15.4521 30.0256 15.4083C30.0476 15.4904 30.0704 15.5857 30.0861 15.6507C30.1726 15.9866 30.2858 16.315 30.4248 16.6327C30.7586 17.448 31.074 18.218 30.4549 20.3594C30.4495 20.3802 30.4377 20.3987 30.4211 20.4123C30.4045 20.4259 30.3841 20.4339 30.3627 20.4351C30.3425 20.4387 30.3216 20.4357 30.3033 20.4265C30.285 20.4172 30.2701 20.4023 30.261 20.3839C30.1743 20.2254 30.149 19.9893 30.188 19.701C30.2485 19.2524 30.1548 18.8824 29.9091 18.6012C29.4876 18.119 28.7553 18.0572 28.1643 18.0572C28.0295 18.0572 28.015 18.0372 27.9019 17.8797C27.657 17.5389 27.3449 17.2133 26.4759 17.2986C25.4884 17.3954 25.4665 18.2549 25.4535 18.7681C25.4377 19.3936 25.3756 19.4322 25.1821 19.4587C24.742 19.5074 24.3263 19.6856 23.9876 19.9709C23.7699 20.1398 23.6888 20.2033 23.2913 20.1037C22.6703 19.9489 22.2491 20.1126 21.9413 20.2322C21.6335 20.3517 21.4935 20.4061 21.176 20.2122C20.4549 19.7712 19.9213 20.0513 19.5681 20.2365C19.3351 20.3588 19.2294 20.4056 19.1169 20.374C18.6765 20.2506 18.4572 20.3637 18.2165 20.5246C18.0306 20.6491 17.749 20.8373 16.8933 20.9592C15.1385 21.2097 14.6501 20.3499 14.4894 20.0675L14.4291 19.9609C14.147 19.4602 13.8314 18.9001 13.1035 18.9001C13.0072 18.9005 12.911 18.9094 12.8162 18.9266C12.8021 18.9293 12.7879 18.9308 12.7735 18.931C12.7334 18.8679 12.699 18.8012 12.671 18.7318C12.5521 18.4667 12.3532 18.023 11.7756 17.9573C11.2245 17.8945 11.1101 17.8235 10.7701 17.6129C10.7229 17.5837 10.6726 17.5525 10.6173 17.5192C10.0582 17.1801 9.70582 17.4645 9.49505 17.6344C9.40764 17.7108 9.31121 17.7761 9.20791 17.8291C8.82581 18.0112 8.68928 18.3835 8.58967 18.6552C8.56369 18.7304 8.53376 18.8041 8.50002 18.8761C8.31282 18.7546 7.94965 18.3254 7.67897 17.8963C7.65566 17.8593 7.62638 17.8263 7.59231 17.7988C6.82393 17.1775 6.11683 16.9561 5.49129 17.141C4.38077 17.4689 3.89681 18.9459 3.54339 20.0243C3.46225 20.2921 3.36646 20.5552 3.25645 20.8124C3.07563 20.681 2.57771 20.1239 1.57252 17.766C1.45365 17.4871 1.42882 17.2673 1.50432 17.1625C1.61721 17.0054 1.99779 16.9587 2.21839 16.9765C2.23085 16.9778 2.24338 16.9783 2.25591 16.9781C2.38214 16.9724 2.50558 16.9391 2.61753 16.8805C2.72947 16.8219 2.82718 16.7394 2.90377 16.6389C3.18818 16.282 3.24463 15.7074 3.07158 14.9311C2.8454 13.9165 2.8778 12.4174 3.48329 11.5236C3.62004 11.3121 3.80072 11.1326 4.01305 10.9972C4.22539 10.8618 4.46439 10.7737 4.7138 10.7389C6.05368 10.5223 6.70632 9.6921 7.18285 9.08594C7.5441 8.62634 7.68176 8.49061 7.83656 8.53603C8.29396 8.67017 8.57446 9.08056 8.6062 9.39818C8.61948 9.53212 8.58907 9.61965 8.51549 9.6583C8.42173 9.70757 8.26906 9.75791 8.02581 9.62629C7.92494 9.57165 7.81349 9.53933 7.69903 9.53153C7.58457 9.52372 7.46977 9.54062 7.36241 9.58107C7.25656 9.62089 7.16051 9.683 7.08078 9.76321C7.00104 9.84341 6.93949 9.93983 6.90029 10.0459C6.50704 11.1129 6.9335 11.4656 7.22243 11.5809C7.569 11.7191 8.12482 11.632 9.07749 11.4661C9.83837 11.3337 10.8803 11.1523 11.2911 11.3058C11.4559 11.3582 11.6032 11.4548 11.7168 11.5851C12.0555 11.9422 12.3686 12.0483 13.4487 11.9318C14.4435 11.8247 14.8975 11.1489 15.1978 10.7017C15.2203 10.6685 15.245 10.6315 15.2702 10.595C15.2716 10.7502 15.2245 10.9019 15.1353 11.029C15.0542 11.1623 14.9533 11.2825 14.836 11.3855C14.5781 11.6156 14.5415 11.7875 14.5415 12.3015C14.5353 12.4935 14.5929 12.6821 14.7053 12.8379C14.8177 12.9937 14.9786 13.1078 15.1628 13.1624C15.3081 13.2117 15.4633 13.2247 15.6148 13.2004C15.7663 13.1761 15.9096 13.1152 16.0323 13.023C16.1593 12.9281 16.2613 12.8036 16.3294 12.6604C16.3975 12.5172 16.4296 12.3596 16.4229 12.2011C16.4186 12.1001 16.528 11.9038 16.6807 11.7925C17.0714 11.5074 17.0514 11.0211 17.0367 10.6659C17.0297 10.5595 17.0299 10.4528 17.0375 10.3464C17.4671 10.2789 17.6822 10.0104 17.8406 9.81262C17.9949 9.62005 18.1168 9.46798 18.456 9.39832C18.7361 9.34057 19.0087 9.25147 19.2688 9.13269C19.2239 9.19651 19.1711 9.26457 19.1315 9.31571C18.9854 9.50364 18.8202 9.71667 18.7382 9.96191C18.6975 10.0693 18.6905 10.1864 18.7179 10.2979C18.7453 10.4094 18.806 10.5099 18.8918 10.5861C19.3942 11.0288 20.6765 10.5657 21.0861 10.3686C21.1627 10.3317 21.2405 10.2931 21.319 10.2542C21.6935 10.0682 22.2063 9.81349 22.4213 9.89344C22.44 9.90008 22.4971 9.92166 22.5547 10.0587C22.7135 10.436 23.0184 10.6306 23.3708 10.5794C23.9456 10.4955 24.6458 9.62875 24.772 8.47195C24.8368 7.87761 25.1584 7.70416 25.8212 7.39809C26.135 7.2634 26.4358 7.10013 26.7197 6.91034C27.6287 6.27065 27.999 5.92627 27.999 5.08271C27.9994 4.89454 28.0468 4.70945 28.1369 4.54428C28.2213 4.36273 28.3262 4.13675 28.2866 3.82119C28.2683 3.7057 28.2412 3.59179 28.2055 3.48046C28.1707 3.3602 28.0993 3.11462 28.1215 3.02962C28.1499 3.01515 28.2738 2.96853 28.6311 3.01634C29.1184 3.08175 29.1097 3.24166 29.0837 3.7164C29.0646 4.06377 29.0328 4.64509 29.5915 4.87187C29.6453 4.89371 29.699 4.91457 29.7523 4.93522C30.3416 5.16346 30.6974 5.30132 30.4321 6.88723C30.0952 8.90246 30.4407 10.0915 31.5196 10.6293C32.0059 10.8716 32.4421 11.8411 32.5265 12.305C32.2953 12.1965 31.8843 11.9045 31.4872 11.3769L31.487 11.3771Z" stroke="black" stroke-width="0.8" mask="url(#path-1-inside-1_66_38)"/>
</svg>
