<svg viewBox="0 0 26 25" fill="none" xmlns="http://www.w3.org/2000/svg">
<path d="M21.2281 15.3075L22.8177 18.0607L22.2507 18.388C22.1973 18.4187 22.1533 18.4634 22.1234 18.5173C22.0935 18.5712 22.0789 18.6322 22.0811 18.6938C22.0832 18.7554 22.102 18.8152 22.1356 18.8669C22.1691 18.9186 22.2161 18.9601 22.2715 18.987L23.6507 19.6597C23.697 19.6824 23.7479 19.6941 23.7995 19.6941C23.8591 19.6941 23.9176 19.6784 23.9692 19.6486C24.0173 19.6209 24.0579 19.5817 24.0874 19.5346C24.1168 19.4874 24.1343 19.4338 24.1381 19.3783L24.2452 17.8476C24.2496 17.7861 24.2371 17.7246 24.2092 17.6697C24.1812 17.6148 24.1388 17.5686 24.0865 17.536C24.0343 17.5033 23.9741 17.4855 23.9125 17.4844C23.8509 17.4833 23.7902 17.4991 23.7368 17.5299L23.1698 17.8574L21.5802 15.1042C21.3124 14.6404 20.8329 14.3635 20.2973 14.3635C19.7618 14.3635 19.2822 14.6404 19.0144 15.1042L18.1002 16.6877C18.0441 16.7849 18.0774 16.9093 18.1746 16.9654C18.2719 17.0215 18.3962 16.9882 18.4523 16.891L19.3665 15.3075C19.5608 14.971 19.9088 14.7701 20.2973 14.7701C20.6859 14.7701 21.0338 14.971 21.2281 15.3075ZM23.8308 17.9452L23.7395 19.2506L22.5633 18.677L23.197 18.3112L23.1971 18.3112L23.1971 18.3112L23.8308 17.9452ZM25.2561 21.4711L24.7523 20.5984C24.6962 20.5011 24.5718 20.4678 24.4746 20.524C24.3774 20.5801 24.344 20.7044 24.4002 20.8017L24.904 21.6744C25.0983 22.0109 25.0983 22.4127 24.904 22.7491C24.7098 23.0856 24.3618 23.2865 23.9732 23.2865H21.635V22.6318C21.635 22.506 21.566 22.3911 21.4549 22.3321C21.3438 22.273 21.21 22.28 21.1057 22.3504L19.8336 23.2084C19.7875 23.2395 19.7497 23.2814 19.7236 23.3304C19.6975 23.3795 19.6839 23.4342 19.6839 23.4898C19.6839 23.5454 19.6975 23.6001 19.7236 23.6492C19.7497 23.6983 19.7875 23.7402 19.8336 23.7712L21.1057 24.6294C21.1618 24.6673 21.2278 24.6876 21.2955 24.6876C21.3511 24.6876 21.4058 24.6739 21.4549 24.6477C21.5093 24.6189 21.5549 24.5757 21.5866 24.5229C21.6183 24.4701 21.6351 24.4096 21.635 24.348V23.6931H23.9732C24.5088 23.6931 24.9884 23.4162 25.2561 22.9525C25.5239 22.4887 25.5239 21.9349 25.2561 21.4711ZM21.2284 24.2217L20.1435 23.4898L21.2284 22.7581V24.2217ZM18.561 23.2865H16.6214C16.2329 23.2865 15.8849 23.0856 15.6906 22.7491C15.4964 22.4127 15.4964 22.0109 15.6906 21.6744L16.821 19.7165L17.3881 20.0439C17.4397 20.0737 17.4982 20.0894 17.5578 20.0894C17.6203 20.0894 17.6826 20.0721 17.7377 20.0377C17.79 20.0051 17.8324 19.9589 17.8603 19.904C17.8883 19.8491 17.9008 19.7877 17.8964 19.7262L17.7894 18.1954C17.7856 18.14 17.7682 18.0863 17.7387 18.0392C17.7093 17.992 17.6687 17.9529 17.6205 17.9251C17.5724 17.8973 17.5182 17.8817 17.4627 17.8798C17.4071 17.8778 17.352 17.8896 17.302 17.914L15.9227 18.5866C15.8673 18.6136 15.8203 18.6551 15.7867 18.7068C15.7532 18.7584 15.7343 18.8183 15.7322 18.8798C15.73 18.9414 15.7446 19.0024 15.7745 19.0563C15.8043 19.1102 15.8483 19.1549 15.9017 19.1857L16.4689 19.5133L15.3385 21.4711C15.0708 21.9349 15.0708 22.4887 15.3385 22.9525C15.6063 23.4162 16.0859 23.6931 16.6214 23.6931H18.561C18.6733 23.6931 18.7643 23.6021 18.7643 23.4898C18.7643 23.3776 18.6733 23.2865 18.561 23.2865ZM17.3907 18.3231L17.482 19.6286L16.8483 19.2628L16.8482 19.2628L16.8481 19.2628L16.2144 18.8967L17.3907 18.3231Z" stroke="black" stroke-width="0.4"/>
<path d="M14.0925 22.1539L13.3361 22.908C13.2032 23.0404 12.987 23.0404 12.8541 22.908L11.9892 22.0454C11.698 21.7551 11.2243 21.7551 10.9331 22.0454L10.0677 22.9081C9.93485 23.0405 9.71869 23.0405 9.58583 22.9081L8.71986 22.0452C8.42873 21.755 7.95506 21.7551 7.66397 22.0452L6.79832 22.9082C6.66551 23.0405 6.44937 23.0406 6.31652 22.9082L5.44981 22.0449C5.15878 21.7549 4.68523 21.7549 4.3942 22.0449L3.52794 22.9078C3.39493 23.0403 3.17866 23.0401 3.04586 22.9074L2.04998 21.9123C1.91701 21.7794 1.91681 21.563 2.04953 21.4299L2.91135 20.5655C3.20163 20.2744 3.20164 19.8006 2.91137 19.5095L2.04873 18.6442C1.91628 18.5113 1.91627 18.2952 2.04871 18.1623L2.91146 17.2967C3.20167 17.0056 3.20165 16.5319 2.91142 16.2408L2.04874 15.3754C1.91629 15.2426 1.91628 15.0264 2.04873 14.8935L2.91146 14.0281C3.20167 13.737 3.20168 13.2633 2.91147 12.9721L2.04876 12.1067C1.91631 11.9738 1.91632 11.7576 2.04879 11.6247L2.9113 10.7598C3.20161 10.4686 3.20164 9.99487 2.91137 9.70369L2.04866 8.83828C1.91623 8.70545 1.91621 8.48928 2.04861 8.35643L2.91158 7.49047C3.2017 7.19932 3.20167 6.72566 2.91149 6.43457L2.04857 5.56893C1.91619 5.43612 1.91614 5.21998 2.04849 5.08712L2.91187 4.22042C3.2018 3.92938 3.2018 3.45583 2.91187 3.1648L2.04894 2.29854C1.91644 2.16553 1.9166 1.94926 2.04932 1.81645L3.04579 0.819238C3.17865 0.686279 3.39505 0.686075 3.52816 0.818794L4.39253 1.68062C4.53813 1.82578 4.72932 1.89835 4.92058 1.89834C5.11177 1.89833 5.30303 1.82577 5.44859 1.68064L6.31389 0.817998C6.44674 0.685538 6.66291 0.685548 6.79578 0.817971L7.66132 1.68073C7.95248 1.97094 8.4262 1.97092 8.71731 1.68068L9.58263 0.818008C9.71549 0.685548 9.93166 0.685557 10.0645 0.817998L10.93 1.68073C11.0756 1.82585 11.2667 1.89841 11.458 1.89839C11.6492 1.89837 11.8404 1.82582 11.986 1.68074L12.8514 0.818026C12.9843 0.685575 13.2005 0.685584 13.3333 0.818072L14.1983 1.68058C14.4895 1.9709 14.9632 1.97092 15.2544 1.68064L16.1198 0.817934C16.2526 0.685511 16.4688 0.685492 16.6016 0.817897L17.4676 1.68087C17.6132 1.82593 17.8043 1.89845 17.9955 1.89844C18.1867 1.89842 18.378 1.82587 18.5235 1.68077L19.3891 0.81786C19.5219 0.685465 19.7381 0.685428 19.8709 0.817767L20.7376 1.68115C21.0287 1.97108 21.5022 1.97108 21.7933 1.68115L22.6592 0.818517C22.7923 0.685918 23.0087 0.686158 23.1415 0.819071L24.138 1.81629C24.2707 1.94915 24.2708 2.16546 24.1382 2.29848L23.2761 3.16314C22.9858 3.45429 22.9858 3.92803 23.2761 4.2192L24.1387 5.0845C24.2712 5.21734 24.2712 5.43352 24.1388 5.56638L23.276 6.43193C22.9858 6.72308 22.9858 7.19679 23.2761 7.48791L24.1387 8.35322C24.2712 8.48608 24.2712 8.70226 24.1387 8.83512L23.276 9.70058C22.9858 9.99171 22.9858 10.4654 23.276 10.7566L24.1387 11.622C24.2712 11.7549 24.2711 11.9711 24.1387 12.1039L23.2762 12.9689C22.9859 13.2601 22.9858 13.7338 23.2761 14.025L24.1388 14.8904C24.2713 15.0232 24.2713 15.2394 24.1389 15.3722L23.2572 16.2569C23.178 16.3365 23.1782 16.4652 23.2577 16.5444C23.3373 16.6237 23.466 16.6235 23.5452 16.5439L24.4269 15.6593C24.717 15.3681 24.717 14.8944 24.4268 14.6033L23.5641 13.7379C23.4316 13.6051 23.4316 13.3889 23.5641 13.256L24.4266 12.391C24.7169 12.0999 24.7169 11.6262 24.4267 11.335L23.564 10.4695C23.4315 10.3367 23.4316 10.1205 23.564 9.98765L24.4267 9.1222C24.7169 8.83105 24.7169 8.35732 24.4267 8.06618L23.564 7.20087C23.4316 7.06802 23.4316 6.85185 23.564 6.71898L24.4267 5.85343C24.7169 5.56229 24.7169 5.08858 24.4267 4.79744L23.5641 3.93214C23.4316 3.79926 23.4316 3.58309 23.5641 3.45022L24.4262 2.58557C24.7168 2.29409 24.7165 1.82006 24.4256 1.5289L23.4291 0.531683C23.1381 0.240428 22.664 0.239873 22.3723 0.530471L21.5063 1.39311C21.3735 1.52541 21.1574 1.52541 21.0246 1.39311L20.1579 0.529713C19.8668 0.239698 19.3932 0.239781 19.1021 0.529898L18.2365 1.39282C18.1036 1.52524 17.8875 1.52525 17.7546 1.39287L16.8887 0.529898C16.5975 0.239753 16.1238 0.2398 15.8327 0.529981L14.9673 1.39269C14.8345 1.52515 14.6183 1.52514 14.4854 1.39266L13.6204 0.530157C13.3293 0.239855 12.8556 0.239818 12.5644 0.530074L11.6989 1.39277C11.5661 1.52521 11.3499 1.52521 11.217 1.39277L10.3516 0.530046C10.0604 0.239808 9.58671 0.239827 9.29558 0.530074L8.43027 1.39275C8.29741 1.52519 8.08124 1.52519 7.94838 1.39277L7.08284 0.530009C6.79168 0.239799 6.31797 0.239818 6.02685 0.530055L5.16155 1.3927C5.02868 1.52516 4.81249 1.52515 4.67963 1.39268L3.81526 0.530869C3.52356 0.240022 3.04937 0.240456 2.75819 0.53185L1.76171 1.52906C1.47089 1.8201 1.47052 2.29401 1.76089 2.5855L2.62382 3.45175C2.75612 3.58456 2.75612 3.80066 2.62382 3.93346L1.76043 4.80018C1.47041 5.09131 1.47049 5.56494 1.76061 5.85598L2.62353 6.72163C2.75595 6.85447 2.75596 7.07062 2.62357 7.20348L1.76061 8.06944C1.47047 8.36058 1.47051 8.83425 1.7607 9.12535L2.62342 9.99076C2.75588 10.1236 2.75586 10.3398 2.62339 10.4727L1.76088 11.3377C1.47059 11.6288 1.47055 12.1025 1.76079 12.3937L2.62351 13.2592C2.75594 13.392 2.75594 13.6082 2.62351 13.7411L1.76078 14.6065C1.47054 14.8977 1.47056 15.3714 1.7608 15.6625L2.62348 16.5278C2.75592 16.6607 2.75593 16.8769 2.6235 17.0097L1.76075 17.8753C1.47053 18.1664 1.47055 18.6401 1.76079 18.9313L2.62343 19.7965C2.75589 19.9294 2.75588 20.1456 2.62341 20.2785L1.7616 21.1428C1.47075 21.4345 1.4712 21.9087 1.76257 22.1999L2.75845 23.195C2.90413 23.3406 3.09558 23.4134 3.28709 23.4134C3.47817 23.4134 3.66931 23.3409 3.8149 23.1958L4.68114 22.3329C4.81395 22.2006 5.03005 22.2006 5.16285 22.3329L6.02957 23.1963C6.17513 23.3413 6.36622 23.4138 6.55738 23.4138C6.74858 23.4138 6.93984 23.3412 7.08537 23.1961L7.95101 22.3332C8.08385 22.2008 8.30001 22.2008 8.43286 22.3332L9.29882 23.1961C9.44439 23.3412 9.63553 23.4137 9.82673 23.4137C10.0179 23.4137 10.2092 23.3411 10.3547 23.1961L11.2201 22.3333C11.353 22.2009 11.5692 22.2009 11.7021 22.3334L12.5671 23.1959C12.8582 23.4862 13.3319 23.4862 13.6231 23.196L14.3795 22.4419C14.4591 22.3627 14.4593 22.2339 14.38 22.1544C14.3008 22.0749 14.172 22.0747 14.0925 22.1539Z" stroke="black" stroke-width="0.4"/>
<path d="M15.5681 13.5158C15.7034 13.5333 15.8396 13.5421 15.976 13.5421C16.402 13.5421 16.8154 13.4587 17.2046 13.294C17.5805 13.135 17.918 12.9075 18.2078 12.6177C18.4976 12.3279 18.7252 11.9904 18.8841 11.6145C19.0488 11.2252 19.1322 10.8119 19.1322 10.3859C19.1322 9.95986 19.0488 9.54649 18.8841 9.15724C18.7252 8.78137 18.4976 8.44384 18.2078 8.15404C17.918 7.86424 17.5805 7.63669 17.2046 7.47771C16.8536 7.32924 16.483 7.24677 16.1012 7.232C16.1531 7.00352 16.1793 6.76995 16.1793 6.53565C16.1793 6.10964 16.0958 5.69628 15.9312 5.30703C15.7722 4.93116 15.5447 4.59363 15.2548 4.30384C14.965 4.01404 14.6275 3.78649 14.2516 3.62751C13.8624 3.46287 13.449 3.37939 13.023 3.37939C12.597 3.37939 12.1836 3.46288 11.7944 3.62751C11.4185 3.78649 11.081 4.01404 10.7912 4.30384C10.5014 4.59364 10.2739 4.93117 10.1149 5.30704C9.95025 5.69629 9.86677 6.10965 9.86677 6.53566C9.86677 6.77009 9.89298 7.00329 9.9449 7.23201C9.56309 7.24678 9.19244 7.32926 8.84144 7.47772C8.46557 7.6367 8.12806 7.86425 7.83825 8.15405C7.54846 8.44385 7.32091 8.78138 7.16193 9.15725C6.99729 9.5465 6.91382 9.95987 6.91382 10.3859C6.91382 10.8119 6.9973 11.2252 7.16193 11.6145C7.3209 11.9904 7.54845 12.3279 7.83825 12.6177C8.12806 12.9075 8.46558 13.135 8.84144 13.294C9.23069 13.4587 9.64406 13.5421 10.0701 13.5421C10.1917 13.5421 10.3137 13.5351 10.4342 13.5213C10.5934 13.6855 10.7623 13.8208 10.9403 13.9262C11.3162 14.1487 11.6683 14.2212 11.9677 14.2212C12.1671 14.2212 12.3431 14.189 12.487 14.1476C12.6039 14.1139 12.7075 14.0721 12.7957 14.0298V18.7085L11.7286 17.9523C11.7567 17.7959 11.7864 17.527 11.7443 17.2074C11.7056 16.9137 11.6145 16.636 11.4734 16.382C11.298 16.0663 11.0455 15.7882 10.7229 15.5554C10.4315 15.3451 10.0755 15.1815 9.66484 15.0692C9.34189 14.9808 8.98404 14.9237 8.60125 14.8993C7.95269 14.858 7.45895 14.9243 7.43826 14.9272C7.411 14.9309 7.38479 14.9402 7.36121 14.9543C7.33763 14.9685 7.31718 14.9873 7.30108 15.0096C7.28498 15.0319 7.27358 15.0573 7.26757 15.0841C7.26155 15.111 7.26105 15.1387 7.26609 15.1658C7.26991 15.1863 7.36255 15.6758 7.60621 16.2783C7.75002 16.6339 7.91707 16.9555 8.10273 17.2341C8.33879 17.5884 8.60626 17.8747 8.89773 18.085C9.22032 18.3177 9.56382 18.4697 9.91873 18.5366C10.0586 18.563 10.2006 18.5762 10.3429 18.5762C10.4907 18.5762 10.6393 18.562 10.7875 18.5335C11.1058 18.4724 11.3525 18.3585 11.4916 18.2826L12.7957 19.2068V20.4779C12.7957 20.5902 12.8868 20.6812 12.999 20.6812C13.1113 20.6812 13.2023 20.5902 13.2023 20.4779V14.0298C13.2906 14.0721 13.3942 14.1139 13.5111 14.1476C13.655 14.189 13.831 14.2212 14.0304 14.2212C14.3297 14.2212 14.6819 14.1487 15.0578 13.9262C15.2357 13.8208 15.407 13.683 15.5681 13.5158ZM10.6946 18.1372C10.1501 18.2372 9.62552 18.1087 9.13563 17.7552C8.56177 17.3412 8.19385 16.6448 7.98625 16.1335C7.85114 15.8008 7.76443 15.5006 7.71573 15.3088C7.91311 15.2946 8.22534 15.2822 8.58368 15.3056C9.13433 15.3414 9.91117 15.4711 10.485 15.8851C10.9749 16.2386 11.2622 16.6959 11.339 17.2442C11.3625 17.4121 11.3619 17.5641 11.3527 17.6858L9.39259 16.2968C9.30098 16.2319 9.17409 16.2535 9.10918 16.3451C9.04426 16.4367 9.0659 16.5636 9.1575 16.6285L11.1119 18.0135C11.0002 18.0599 10.8584 18.1072 10.6946 18.1372ZM10.07 13.1355C8.55388 13.1355 7.32039 11.902 7.32039 10.3859C7.32039 8.86968 8.55388 7.63618 10.07 7.63618C10.0944 7.63618 10.1209 7.63797 10.149 7.63987C10.1668 7.64108 10.1847 7.64228 10.2027 7.64315C10.2355 7.64474 10.2683 7.63834 10.2981 7.6245C10.3279 7.61066 10.3539 7.5898 10.3738 7.5637C10.3938 7.53762 10.4072 7.50708 10.4128 7.47471C10.4183 7.44234 10.416 7.40909 10.406 7.37782C10.318 7.10426 10.2733 6.8209 10.2733 6.53565C10.2733 5.01948 11.5068 3.78598 13.023 3.78598C14.5392 3.78598 15.7727 5.01948 15.7727 6.53565C15.7727 6.82077 15.7281 7.10413 15.6401 7.37785C15.63 7.40912 15.6277 7.44236 15.6333 7.47473C15.6389 7.5071 15.6523 7.53762 15.6722 7.5637C15.6922 7.58977 15.7182 7.61062 15.748 7.62446C15.7778 7.63829 15.8105 7.6447 15.8433 7.64314C15.8613 7.64228 15.8792 7.64107 15.8971 7.63986C15.9251 7.63797 15.9516 7.63617 15.976 7.63617C17.4922 7.63617 18.7257 8.86967 18.7257 10.3858C18.7257 11.902 17.4922 13.1355 15.976 13.1355C15.945 13.1355 15.9141 13.1349 15.8831 13.1338C16.3476 12.4822 16.5536 11.7642 16.5635 11.7293C16.5709 11.7028 16.5729 11.6751 16.5694 11.6478C16.5658 11.6205 16.5567 11.5943 16.5427 11.5706C16.5287 11.5469 16.51 11.5263 16.4878 11.5101C16.4656 11.4939 16.4404 11.4823 16.4136 11.4761C16.3614 11.464 15.2219 11.2076 14.2341 11.5296C14.1633 11.083 13.9777 10.6089 13.6802 10.116C13.4159 9.67809 13.1611 9.39217 13.1504 9.38021C13.1313 9.35894 13.108 9.34192 13.0819 9.33027C13.0558 9.31861 13.0276 9.31259 12.999 9.31259C12.9705 9.31259 12.9422 9.31861 12.9161 9.33027C12.89 9.34192 12.8667 9.35894 12.8476 9.38021C12.8369 9.39217 12.5821 9.67808 12.3178 10.116C12.0203 10.6089 11.8347 11.083 11.764 11.5296C10.7762 11.2076 9.63667 11.464 9.58452 11.4761C9.55772 11.4823 9.53246 11.4939 9.51025 11.5101C9.48805 11.5263 9.46938 11.5469 9.45537 11.5706C9.44135 11.5943 9.43229 11.6205 9.42872 11.6478C9.42515 11.6751 9.42716 11.7028 9.43462 11.7293C9.43912 11.7453 9.54767 12.1263 9.7834 12.5849C9.8871 12.7866 9.99784 12.9701 10.1152 13.1351C10.1001 13.1354 10.0851 13.1355 10.07 13.1355ZM14.8506 13.5763C14.4534 13.8115 14.0458 13.8737 13.6391 13.7612C13.3337 13.6768 13.1387 13.5202 13.1298 13.5129C13.1296 13.5128 13.1294 13.5126 13.1292 13.5125C13.1259 13.5097 13.1225 13.5071 13.1191 13.5046C13.0473 13.4509 12.9507 13.4509 12.879 13.5046C12.8755 13.5071 12.8722 13.5097 12.8689 13.5125C12.8687 13.5126 12.8685 13.5128 12.8683 13.5129C12.8594 13.5202 12.6643 13.6768 12.359 13.7613C11.9523 13.8737 11.5447 13.8115 11.1474 13.5763C10.9687 13.4705 10.8095 13.3314 10.6689 13.1761C10.6655 13.1721 10.6621 13.1683 10.6584 13.1646C10.2577 12.7169 10.0102 12.139 9.89763 11.8323C10.3002 11.771 11.1728 11.6911 11.854 11.9996C11.9152 12.0273 11.9861 12.023 12.0435 11.9881C12.1009 11.9532 12.1373 11.8922 12.1409 11.8251C12.1844 11.0002 12.7283 10.1925 12.9992 9.83837C13.2702 10.192 13.8136 10.9982 13.8572 11.8251C13.8607 11.8922 13.8972 11.9532 13.9546 11.9881C14.012 12.023 14.0829 12.0273 14.1441 11.9996C14.8234 11.6919 15.6974 11.7716 16.1004 11.8325C15.9881 12.1391 15.741 12.7162 15.3404 13.1638C15.1855 13.3368 15.0207 13.4756 14.8506 13.5763Z" stroke="black" stroke-width="0.4"/>
</svg>
