<svg viewBox="0 0 15 17" fill="none" xmlns="http://www.w3.org/2000/svg">
<g clip-path="url(#clip0_192_2)">
<path d="M7.50007 0.95H7.5C6.00675 0.95 4.54704 1.3928 3.30545 2.2224C2.06386 3.05201 1.09615 4.23116 0.524713 5.61074C-0.0467287 6.99032 -0.196244 8.50837 0.0950745 9.97293C0.386393 11.4375 1.10546 12.7828 2.16135 13.8387C3.21723 14.8945 4.56251 15.6136 6.02707 15.9049C7.49163 16.1962 9.00968 16.0467 10.3893 15.4753C11.7688 14.9038 12.948 13.9361 13.7776 12.6946C14.6072 11.453 15.05 9.99325 15.05 8.5V8.49993C15.0474 6.49836 14.2511 4.57951 12.8358 3.16419C11.4205 1.74886 9.50164 0.952592 7.50007 0.95ZM7.49994 15.5446C6.10668 15.5446 4.7447 15.1314 3.58624 14.3574C2.42776 13.5833 1.52483 12.4831 0.991646 11.1958C0.458458 9.90862 0.318951 8.49218 0.590769 7.12567C0.862586 5.75915 1.53352 4.50392 2.51872 3.51872C3.50393 2.53351 4.75915 1.86258 6.12567 1.59077C7.49219 1.31895 8.90862 1.45845 10.1959 1.99164C11.4831 2.52483 12.5833 3.42775 13.3574 4.58623C14.1314 5.74469 14.5446 7.10667 14.5446 8.49994C14.5425 10.3676 13.7996 12.1582 12.4789 13.4789C11.1582 14.7996 9.36765 15.5425 7.49994 15.5446Z" fill="currentColor" stroke="currentColor" stroke-width="0.1"/>
<path d="M12.1797 10.7313L9.74731 9.90264C9.70315 9.88763 9.65517 9.8883 9.61145 9.90455C9.56773 9.92079 9.53095 9.95162 9.50731 9.99183L9.08082 10.7167C9.04753 10.757 9.00599 10.7897 8.959 10.8127C8.91201 10.8356 8.86066 10.8482 8.80839 10.8497C8.52623 10.8805 7.86623 10.7426 6.61758 9.49399C5.36893 8.24534 5.23109 7.58372 5.26677 7.30318C5.26741 7.25141 5.27902 7.20037 5.30082 7.15341C5.32262 7.10646 5.35413 7.06465 5.39326 7.03075L6.11812 6.60264C6.15856 6.57923 6.18957 6.54247 6.20585 6.49867C6.22213 6.45488 6.22264 6.40678 6.20731 6.36264L5.39326 3.93832C5.38141 3.90287 5.36 3.87139 5.33138 3.84735C5.30276 3.82331 5.26805 3.80765 5.23109 3.8021C5.19704 3.8021 4.38947 3.70318 3.46515 4.37616L3.45218 4.38751C3.17299 4.66469 2.95857 5.0002 2.82428 5.36998C2.68999 5.73977 2.63916 6.13469 2.67542 6.52643V6.55075C2.69326 6.64643 3.14245 8.91507 5.17596 10.9486C7.20947 12.9821 9.47001 13.4313 9.56569 13.4491H9.79434C10.1534 13.4573 10.5104 13.3921 10.8433 13.2574C11.1763 13.1227 11.4782 12.9214 11.7306 12.6659L11.7403 12.6529C12.4149 11.7432 12.3192 10.9324 12.3143 10.8967C12.3097 10.8593 12.2946 10.8239 12.2708 10.7947C12.247 10.7654 12.2154 10.7435 12.1797 10.7313ZM11.4192 12.4162C11.1849 12.6437 10.9042 12.818 10.5964 12.9271C10.2885 13.0363 9.96074 13.0777 9.63542 13.0486C8.05165 12.6457 6.60684 11.8207 5.45488 10.6616C4.29771 9.51065 3.47298 8.06849 3.06785 6.48751C3.03875 6.16219 3.08018 5.83442 3.18933 5.52657C3.29847 5.21873 3.47276 4.93806 3.70028 4.70372C4.0895 4.4066 4.55895 4.23317 5.04785 4.20589L5.77758 6.34318L5.19704 6.68372C5.10491 6.74522 5.02788 6.82677 4.97171 6.92224C4.91555 7.01772 4.88171 7.12467 4.87272 7.23507C4.78677 7.86589 5.28136 8.72372 6.3419 9.78426C7.40245 10.8448 8.25542 11.3345 8.88623 11.2567C8.99623 11.247 9.10269 11.2129 9.1978 11.1567C9.29291 11.1006 9.37428 11.024 9.43596 10.9324L9.77974 10.3502L11.917 11.0799C11.8892 11.5653 11.7157 12.0309 11.4192 12.4162Z" fill="currentColor" stroke="currentColor" stroke-width="0.1"/>
</g>
</svg>
