<svg viewBox="0 0 15 16" fill="none" xmlns="http://www.w3.org/2000/svg">
<g id="Frame" clip-path="url(#clip0_37_4180)">
<g id="Group">
<path id="Vector" d="M7.50011 0.5C4.53034 0.5 2.11426 2.91608 2.11426 5.88585C2.11426 7.47693 2.98933 9.56674 4.71521 12.0973C5.50588 13.2519 6.36611 14.3573 7.29113 15.4073C7.31756 15.4365 7.34981 15.4598 7.3858 15.4758C7.42179 15.4918 7.46073 15.5 7.50011 15.5C7.53948 15.5 7.57842 15.4918 7.61441 15.4758C7.65041 15.4598 7.68266 15.4365 7.70908 15.4073C8.6341 14.3573 9.49432 13.2519 10.285 12.0973C12.0109 9.56674 12.886 7.47693 12.886 5.88585C12.886 2.91608 10.4699 0.5 7.50011 0.5ZM7.50011 14.7905C6.5486 13.6882 2.67816 9.01153 2.67816 5.88585C2.67816 3.22704 4.84127 1.06391 7.50011 1.06391C10.1589 1.06391 12.3221 3.22704 12.3221 5.88585C12.3221 9.01153 8.45161 13.6882 7.50011 14.7905Z" fill="#4E4E4E"/>
<path id="Vector_2" d="M7.50032 3.19699C7.0118 3.19699 6.53424 3.34184 6.12805 3.61325C5.72185 3.88466 5.40526 4.27042 5.2183 4.72175C5.03135 5.17309 4.98243 5.66973 5.07773 6.14887C5.17303 6.62801 5.40828 7.06813 5.75372 7.41357C6.09915 7.75901 6.53927 7.99426 7.01841 8.08957C7.49754 8.18488 7.99418 8.13596 8.44552 7.94901C8.89686 7.76206 9.28263 7.44548 9.55404 7.03928C9.82545 6.63309 9.97031 6.15554 9.97031 5.66701C9.96957 5.01215 9.7091 4.38433 9.24605 3.92128C8.783 3.45822 8.15518 3.19774 7.50032 3.19699ZM7.50032 7.57309C7.12333 7.5731 6.7548 7.46131 6.44133 7.25187C6.12787 7.04242 5.88355 6.74473 5.73928 6.39643C5.59501 6.04814 5.55726 5.66488 5.6308 5.29512C5.70435 4.92537 5.88589 4.58573 6.15247 4.31916C6.41905 4.05258 6.75868 3.87104 7.12844 3.79749C7.49819 3.72395 7.88145 3.7617 8.22975 3.90597C8.57804 4.05024 8.87574 4.29456 9.08518 4.60802C9.29463 4.92148 9.40641 5.29001 9.40641 5.66701C9.40584 6.17236 9.20484 6.65685 8.8475 7.01419C8.49017 7.37153 8.00567 7.57253 7.50032 7.57309Z" fill="#4E4E4E"/>
</g>
</g>
<defs>
<clipPath id="clip0_37_4180">
<rect width="15" height="15" fill="white" transform="translate(0 0.5)"/>
</clipPath>
</defs>
</svg>
