<svg viewBox="0 0 22 22" fill="none" xmlns="http://www.w3.org/2000/svg">
<path d="M20.334 19.6549L14.9902 14.2811C16.3124 12.7748 16.9971 10.8134 16.8994 8.81147C16.8017 6.80955 15.9294 4.92405 14.4669 3.5536C13.0043 2.18314 11.0662 1.43512 9.06212 1.46769C7.05808 1.50025 5.14524 2.31085 3.72799 3.7281C2.31073 5.14536 1.50014 7.05819 1.46757 9.06223C1.43501 11.0663 2.18302 13.0044 3.55348 14.467C4.92394 15.9295 6.80943 16.8019 8.81135 16.8995C10.8133 16.9972 12.7747 16.3125 14.281 14.9903L19.6548 20.3541C19.6996 20.4019 19.7538 20.4399 19.8139 20.466C19.874 20.492 19.9388 20.5054 20.0044 20.5054C20.0699 20.5054 20.1347 20.492 20.1948 20.466C20.255 20.4399 20.3091 20.4019 20.354 20.3541C20.4005 20.3079 20.437 20.2526 20.4614 20.1918C20.4857 20.1309 20.4973 20.0657 20.4954 20.0002C20.4935 19.9346 20.4782 19.8702 20.4505 19.8108C20.4227 19.7514 20.3831 19.6983 20.334 19.6549ZM9.19695 15.9092C7.87336 15.9092 6.57948 15.5168 5.47896 14.7814C4.37843 14.0461 3.52067 13.0009 3.01415 11.778C2.50764 10.5552 2.37511 9.20962 2.63333 7.91146C2.89155 6.61329 3.52892 5.42086 4.46484 4.48493C5.40076 3.54901 6.5932 2.91164 7.89136 2.65342C9.18953 2.3952 10.5351 2.52773 11.7579 3.03425C12.9808 3.54076 14.026 4.39852 14.7613 5.49905C15.4967 6.59958 15.8892 7.89345 15.8892 9.21704C15.8865 10.9911 15.1806 12.6918 13.9261 13.9462C12.6717 15.2007 10.971 15.9066 9.19695 15.9092Z" fill="currentColor"/>
</svg>
