<svg width="24" height="24" viewBox="0 0 24 24" fill="none" xmlns="http://www.w3.org/2000/svg">
<path d="M15.3144 10.0364H8.77663C7.81208 10.0364 7.02734 10.8194 7.02734 11.7818C7.02734 12.7443 7.81208 13.5273 8.77663 13.5273H15.3144C16.279 13.5273 17.0637 12.7443 17.0637 11.7818C17.0637 10.8194 16.279 10.0364 15.3144 10.0364ZM15.3144 12.6546H8.77663C8.29339 12.6546 7.90006 12.2632 7.90006 11.7819C7.90006 11.3005 8.29339 10.9091 8.77663 10.9091H15.3144C15.7977 10.9091 16.191 11.3005 16.191 11.7819C16.191 12.2632 15.7977 12.6546 15.3144 12.6546Z" fill="black"/>
<path d="M23.6088 2.18176H0.481547C0.240563 2.18176 0 2.34789 0 2.58892V7.38892C0 7.6299 0.240563 7.85453 0.481547 7.85453H1.30908V21.3525C1.30908 21.5935 1.54964 21.8181 1.79063 21.8181H22.2997C22.5407 21.8181 22.6909 21.5935 22.6909 21.3525V7.85453H23.6088C23.8498 7.85453 24 7.6299 24 7.38892V2.58892C24 2.34789 23.8498 2.18176 23.6088 2.18176ZM21.8182 20.9454H2.1818V7.85453H21.8182L21.8182 20.9454ZM23.1273 6.98176H0.872719V3.05453H23.1273V6.98176Z" fill="black"/>
</svg>
