<svg viewBox="0 0 21 21" fill="none" xmlns="http://www.w3.org/2000/svg">
<g id="Frame">
<g id="Group">
<path id="Vector" d="M18.7702 15.2895L11.9849 2.90361C11.8344 2.62888 11.618 2.40074 11.3573 2.24212C11.0966 2.08351 10.8009 2 10.4999 2C10.1989 2 9.90324 2.08351 9.64258 2.24212C9.38191 2.40074 9.16546 2.62888 9.01498 2.90361L2.22963 15.2895C2.07918 15.5642 1.99998 15.8758 2 16.193C2.00002 16.5101 2.07925 16.8217 2.22974 17.0964C2.38023 17.3711 2.59667 17.5992 2.85731 17.7578C3.11795 17.9164 3.41361 18 3.71458 18H17.2853C17.5863 18 17.882 17.9165 18.1426 17.7579C18.4033 17.5994 18.6198 17.3712 18.7703 17.0965C18.9208 16.8218 19 16.5102 19 16.193C19 15.8758 18.9207 15.5642 18.7702 15.2895ZM18.2183 16.7607C18.1245 16.9341 17.9887 17.078 17.8248 17.1778C17.6608 17.2775 17.4746 17.3295 17.2853 17.3283H3.71458C3.52549 17.3282 3.33975 17.2758 3.176 17.1761C3.01225 17.0765 2.87627 16.9331 2.78173 16.7606C2.68718 16.588 2.6374 16.3922 2.63738 16.193C2.63736 15.9937 2.6871 15.7979 2.78162 15.6253L9.56697 3.23948C9.6615 3.06686 9.79749 2.92351 9.96126 2.82384C10.125 2.72418 10.3108 2.67171 10.4999 2.67171C10.689 2.67171 10.8748 2.72418 11.0386 2.82384C11.2024 2.92351 11.3384 3.06686 11.4329 3.23948L18.2183 15.6253C18.3139 15.7976 18.3642 15.9935 18.3642 16.193C18.3642 16.3926 18.3139 16.5885 18.2183 16.7607Z" fill="#F84D4D"/>
<path id="Vector_2" d="M10.611 7H10.3895C10.0212 7.00034 9.66804 7.11745 9.4076 7.32565C9.14715 7.53386 9.00065 7.81614 9.00023 8.11058V11.891C9.00065 12.1854 9.14716 12.4677 9.40761 12.6759C9.66806 12.884 10.0212 13.0011 10.3895 13.0014H10.611C10.9793 13.0011 11.3323 12.884 11.5928 12.6759C11.8532 12.4677 11.9996 12.1854 12 11.891V8.11058C11.9996 7.81616 11.8532 7.53387 11.5928 7.32567C11.3324 7.11746 10.9793 7.00034 10.611 7ZM11.2008 11.891C11.2006 12.016 11.1384 12.1359 11.0278 12.2242C10.9173 12.3126 10.7673 12.3624 10.611 12.3625H10.3895C10.2331 12.3624 10.0831 12.3127 9.97247 12.2243C9.86185 12.1359 9.79962 12.016 9.79944 11.891V8.11058C9.79962 7.98552 9.86184 7.86563 9.97246 7.77721C10.0831 7.68878 10.233 7.63904 10.3895 7.63889H10.611C10.7674 7.63909 10.9173 7.68885 11.0279 7.77727C11.1384 7.86569 11.2006 7.98556 11.2008 8.11058V11.891ZM10.5002 13.6018C10.2036 13.6017 9.91353 13.672 9.66684 13.8038C9.42014 13.9355 9.22784 14.1227 9.11427 14.3418C9.0007 14.5609 8.97094 14.802 9.02878 15.0346C9.08661 15.2673 9.22943 15.4809 9.43918 15.6487C9.64893 15.8164 9.91618 15.9306 10.2071 15.9769C10.4981 16.0232 10.7997 15.9995 11.0738 15.9088C11.3479 15.8181 11.5822 15.6644 11.7471 15.4672C11.9119 15.2701 12 15.0382 12 14.8011C11.9996 14.4832 11.8414 14.1784 11.5603 13.9535C11.2791 13.7287 10.8979 13.6022 10.5002 13.6018ZM10.5002 15.3617C10.3616 15.3617 10.2261 15.3289 10.1108 15.2673C9.99552 15.2058 9.90567 15.1183 9.8526 15.0159C9.79953 14.9135 9.78563 14.8009 9.81266 14.6922C9.8397 14.5835 9.90644 14.4837 10.0045 14.4053C10.1025 14.3269 10.2274 14.2736 10.3633 14.252C10.4993 14.2304 10.6402 14.2415 10.7683 14.2839C10.8963 14.3263 11.0058 14.3982 11.0828 14.4903C11.1598 14.5825 11.2008 14.6908 11.2008 14.8016C11.2006 14.9501 11.1267 15.0924 10.9953 15.1974C10.864 15.3024 10.686 15.3615 10.5002 15.3617Z" fill="#F84D4D"/>
</g>
</g>
</svg>
