<svg viewBox="0 0 27 27" fill="none" xmlns="http://www.w3.org/2000/svg">
<path d="M10.2972 10.7453C7.21823 10.7453 4.71335 13.2503 4.71335 16.3294C4.71335 19.4084 7.21823 21.9135 10.2972 21.9135C13.3762 21.9135 15.8814 19.4084 15.8814 16.3294C15.8814 13.2503 13.3762 10.7453 10.2972 10.7453ZM6.50816 19.3556C8.24138 18.9447 8.80527 19.3641 9.6178 19.9773C10.0741 20.3217 10.6124 20.7263 11.4361 21.0432C11.0701 21.1317 10.69 21.1837 10.2972 21.1837C8.76488 21.1837 7.39847 20.4682 6.50816 19.3556ZM12.5583 20.6215C11.3063 20.3351 10.6431 19.8369 10.0573 19.3948C9.14636 18.7075 8.35044 18.1139 6.07363 18.7135C5.77093 18.1794 5.56828 17.5829 5.48696 16.9482C7.18137 16.0259 8.53052 16.4103 10.0867 16.8579C11.0485 17.1344 12.0928 17.4346 13.3054 17.4346C13.8544 17.4346 14.4407 17.3677 15.0669 17.2143C14.7929 18.6938 13.848 19.9392 12.5583 20.6215ZM15.146 16.4412C13.2043 16.9917 11.722 16.5684 10.2884 16.1567C8.73555 15.7099 7.26126 15.2889 5.45231 16.1463C5.54966 13.5549 7.68234 11.4751 10.2972 11.4751C12.9739 11.4751 15.1516 13.6527 15.1516 16.3294C15.1516 16.3671 15.1468 16.4036 15.146 16.4412ZM2.66857 4.55114C2.66858 4.45438 2.70703 4.36158 2.77545 4.29316C2.84388 4.22473 2.93667 4.18629 3.03344 4.18627H5.02643C5.12212 4.1879 5.21335 4.22706 5.28045 4.29531C5.34755 4.36356 5.38515 4.45543 5.38515 4.55114C5.38515 4.64685 5.34755 4.73873 5.28045 4.80698C5.21335 4.87523 5.12212 4.91439 5.02643 4.91601H3.03344C2.93667 4.916 2.84388 4.87755 2.77545 4.80913C2.70703 4.74071 2.66858 4.64791 2.66857 4.55114ZM27 21.3116C27 20.8084 26.7684 20.3585 26.4065 20.0623C26.7684 19.7661 27 19.3162 27 18.8131C27 17.9231 26.276 17.199 25.3859 17.199H20.5947V3.8098C20.5947 2.57777 19.5922 1.5755 18.3604 1.5755H2.2343C1.00243 1.57545 0 2.57777 0 3.8098V23.1903C0 24.4221 1.00243 25.4246 2.2343 25.4246H25.3859C26.276 25.4246 27 24.7003 27 23.8102C27 23.307 26.7684 22.8572 26.4064 22.5609C26.7684 22.2647 27 21.8147 27 21.3116ZM26.2703 18.813C26.2703 19.3007 25.8735 19.6974 25.3859 19.6974H18.7853C18.2976 19.6974 17.9009 19.3007 17.9009 18.813C17.9009 18.3254 18.2977 17.9287 18.7853 17.9287H25.3859C25.8736 17.9287 26.2703 18.3254 26.2703 18.813ZM2.2343 2.30519H18.3603C19.19 2.30519 19.8649 2.98019 19.8649 3.8098V6.7305H0.729738V3.8098C0.729738 2.98019 1.40458 2.30519 2.2343 2.30519ZM0.729738 23.1903V7.46024H19.8649V17.199H18.7853C18.3599 17.199 17.9736 17.3656 17.685 17.6354C17.7599 17.2109 17.8012 16.775 17.8012 16.3294C17.8012 12.1919 14.435 8.82563 10.2974 8.82563C6.15969 8.82563 2.7935 12.1918 2.7935 16.3294C2.7935 20.4669 6.15969 23.8331 10.2974 23.8331C13.4131 23.8331 16.0908 21.9238 17.2237 19.2141C17.3092 19.5472 17.4987 19.8444 17.7647 20.0624C17.4028 20.3586 17.1713 20.8085 17.1713 21.3116C17.1713 21.8148 17.4029 22.2647 17.7648 22.561C17.4029 22.8573 17.1713 23.3072 17.1713 23.8103C17.1711 24.1248 17.2635 24.4325 17.4368 24.6949H2.2343C1.40458 24.6948 0.729738 24.02 0.729738 23.1903ZM17.0714 16.3293C17.0714 20.0644 14.0326 23.1033 10.2974 23.1033C6.56211 23.1033 3.52324 20.0644 3.52324 16.3293C3.52324 12.5941 6.56211 9.55532 10.2974 9.55532C14.0326 9.55532 17.0714 12.5941 17.0714 16.3293ZM26.2703 23.8103C26.2703 24.298 25.8735 24.6949 25.3859 24.6949H18.7853C18.2976 24.6949 17.9009 24.298 17.9009 23.8103C17.9009 23.3226 18.2977 22.9259 18.7853 22.9259H25.3859C25.8736 22.9259 26.2703 23.3226 26.2703 23.8103ZM18.7853 22.1962C18.2976 22.1962 17.9009 21.7992 17.9009 21.3116C17.9009 20.8239 18.2977 20.4272 18.7853 20.4272H25.3859C25.8736 20.4272 26.2703 20.8239 26.2703 21.3116C26.2703 21.7992 25.8735 22.1962 25.3859 22.1962H18.7853Z" fill="black"/>
</svg>
