<?xml version="1.0" encoding="UTF-8"?><!DOCTYPE svg PUBLIC "-//W3C//DTD SVG 1.1//EN" "http://www.w3.org/Graphics/SVG/1.1/DTD/svg11.dtd"><svg xmlns="http://www.w3.org/2000/svg" xmlns:xlink="http://www.w3.org/1999/xlink"><defs>
<clipPath id="clip0_66_17">
<rect width="26" height="26" fill="white" transform="translate(0 0.5)"/>
</clipPath>

<clipPath id="clip0_34_2187">
<rect width="10" height="10" fill="white" transform="translate(0 10) rotate(-90)"/>
</clipPath>

<clipPath id="clip0_66_11">
<rect width="21" height="21" fill="white"/>
</clipPath>

<clipPath id="clip0_27_26">
<rect width="15" height="15" fill="white" transform="translate(0 0.503418)"/>
</clipPath>

<clipPath id="clip0_66_77">
<rect width="21" height="21" fill="white" transform="translate(0 0.5)"/>
</clipPath>

<clipPath id="clip0_27_61">
<rect width="22.8947" height="22.8947" fill="white" transform="translate(0.105225 0.503418)"/>
</clipPath>

<clipPath id="clip0_27_33">
<rect width="15" height="17" fill="white" transform="translate(0 0.503418)"/>
</clipPath>

<clipPath id="clip0_27_58">
<rect width="22.8947" height="22.8947" fill="white" transform="translate(0 0.503418)"/>
</clipPath>
</defs><symbol id="100" viewBox="0 0 26 27"><g fill="none">
<g clip-path="url(#clip0_66_17)">
<path d="M20.4409 10.6015L18.0081 16.3984" stroke="black" stroke-width="0.5" stroke-miterlimit="10" stroke-linecap="round" stroke-linejoin="round"/>
<mask id="mask0_66_17" style="mask-type:luminance" maskUnits="userSpaceOnUse" x="0" y="0" width="26" height="27">
<path d="M25.7499 26.25V0.750076H0.25V26.25H25.7499Z" fill="white" stroke="white" stroke-width="0.5"/>
</mask>
<g mask="url(#mask0_66_17)">
<path d="M18.7326 11.3828C18.7326 11.8143 18.4315 12.1641 18.0603 12.1641C17.689 12.1641 17.3879 11.8143 17.3879 11.3828C17.3879 10.9514 17.689 10.6016 18.0603 10.6016C18.4315 10.6016 18.7326 10.9514 18.7326 11.3828Z" stroke="black" stroke-width="0.5" stroke-miterlimit="10" stroke-linecap="round" stroke-linejoin="round"/>
<path d="M21.0609 15.6173C21.0609 16.0488 20.7599 16.3985 20.3887 16.3985C20.0173 16.3985 19.7163 16.0488 19.7163 15.6173C19.7163 15.1858 20.0173 14.8361 20.3887 14.8361C20.7599 14.8361 21.0609 15.1858 21.0609 15.6173Z" stroke="black" stroke-width="0.5" stroke-miterlimit="10" stroke-linecap="round" stroke-linejoin="round"/>
<path d="M4.93896 10.4107H6.25958V16.5894" stroke="black" stroke-width="0.5" stroke-miterlimit="10" stroke-linecap="round" stroke-linejoin="round"/>
<path d="M11.4081 14.9287C11.4081 15.9155 10.6082 16.7155 9.6214 16.7155C8.63462 16.7155 7.83472 15.9155 7.83472 14.9287V12.0713C7.83472 11.0845 8.63462 10.2846 9.6214 10.2846C10.6082 10.2846 11.4081 11.0845 11.4081 12.0713V14.9287Z" stroke="black" stroke-width="0.5" stroke-miterlimit="10" stroke-linecap="round" stroke-linejoin="round"/>
<path d="M16.1694 14.9287C16.1694 15.9155 15.3695 16.7155 14.3826 16.7155C13.3959 16.7155 12.5959 15.9155 12.5959 14.9287V12.0713C12.5959 11.0845 13.3959 10.2846 14.3826 10.2846C15.3695 10.2846 16.1694 11.0845 16.1694 12.0713V14.9287Z" stroke="black" stroke-width="0.5" stroke-miterlimit="10" stroke-linecap="round" stroke-linejoin="round"/>
<path d="M14.1575 26.0658C20.5841 25.4813 25.6191 20.0791 25.6191 13.5001C25.6191 6.53076 19.9693 0.881008 13 0.881008C6.03061 0.881008 0.380859 6.53076 0.380859 13.5001C0.380859 20.1816 5.57379 25.6493 12.1437 26.0897" stroke="black" stroke-width="0.5" stroke-miterlimit="10" stroke-linecap="round" stroke-linejoin="round"/>
<path d="M13.3501 7.64764C14.4726 7.15248 15.8944 6.49232 16.9557 7.44523" stroke="black" stroke-width="0.5" stroke-miterlimit="10" stroke-linecap="round" stroke-linejoin="round"/>
<path d="M16.9556 7.44519C16.6561 5.78135 15.6913 4.05479 13.9647 3.4962C12.6444 3.03917 11.0194 3.44542 10.3593 4.71494C10.3085 4.81651 10.2577 4.96885 10.2069 5.07041C9.95302 5.88291 10.1561 6.94931 10.9086 7.42569" stroke="black" stroke-width="0.5" stroke-miterlimit="10" stroke-linecap="round" stroke-linejoin="round"/>
<path d="M13.5578 5.33621C12.0476 4.99298 10.2254 5.76084 9.04419 7.48785" stroke="black" stroke-width="0.5" stroke-miterlimit="10" stroke-linecap="round" stroke-linejoin="round"/>
<path d="M9.04419 19.5549C9.30683 20.8744 9.95718 22.4667 11.5095 23.2666C12.8995 23.983 14.8456 23.7453 15.6033 22.3327C16.2873 21.0572 15.7759 19.6838 14.4612 19.2584C12.4348 18.6027 10.9378 21.0583 9.04419 19.5549Z" stroke="black" stroke-width="0.5" stroke-miterlimit="10" stroke-linecap="round" stroke-linejoin="round"/>
<path d="M12.4421 21.6639C13.9523 22.0072 15.7745 21.2393 16.9558 19.5123" stroke="black" stroke-width="0.5" stroke-miterlimit="10" stroke-linecap="round" stroke-linejoin="round"/>
</g>
</g>

</g></symbol><symbol id="arrow" viewBox="0 0 10 10"><g fill="none">
<g clip-path="url(#clip0_34_2187)">
<path d="M9.99999 6.79177C9.99999 6.84345 9.98087 6.89554 9.94222 6.93581C9.86267 7.01882 9.73083 7.02167 9.64762 6.94231L4.99994 2.49688L0.35228 6.94231C0.269076 7.02167 0.137239 7.01882 0.0576871 6.93581C-0.0220598 6.8528 -0.0184074 6.72096 0.064191 6.64122L4.8559 2.05783C4.93647 1.98092 5.06342 1.98092 5.14399 2.05783L9.93571 6.6412C9.95605 6.66065 9.97223 6.68402 9.98328 6.7099C9.99433 6.73578 10 6.76363 9.99999 6.79177Z" fill="black"/>
<path d="M9.99999 6.79177C9.99999 6.84345 9.98087 6.89554 9.94222 6.93581C9.86267 7.01882 9.73083 7.02167 9.64762 6.94231L4.99994 2.49688L0.35228 6.94231C0.269076 7.02167 0.137239 7.01882 0.0576871 6.93581C-0.0220598 6.8528 -0.0184074 6.72096 0.064191 6.64122L4.8559 2.05783C4.93647 1.98092 5.06342 1.98092 5.14399 2.05783L9.93571 6.6412C9.95605 6.66065 9.97223 6.68402 9.98328 6.7099C9.99433 6.73578 10 6.76363 9.99999 6.79177Z" fill="black"/>
</g>

</g></symbol><symbol id="burger" viewBox="0 0 20 20"><g fill="none">
<path d="M19.375 5H0.625C0.45924 5 0.300269 4.93415 0.183058 4.81694C0.065848 4.69973 0 4.54076 0 4.375C0 4.20924 0.065848 4.05027 0.183058 3.93306C0.300269 3.81585 0.45924 3.75 0.625 3.75H19.375C19.5408 3.75 19.6997 3.81585 19.8169 3.93306C19.9342 4.05027 20 4.20924 20 4.375C20 4.54076 19.9342 4.69973 19.8169 4.81694C19.6997 4.93415 19.5408 5 19.375 5ZM19.375 11.25H0.625C0.45924 11.25 0.300269 11.1842 0.183058 11.0669C0.065848 10.9497 0 10.7908 0 10.625C0 10.4592 0.065848 10.3003 0.183058 10.1831C0.300269 10.0658 0.45924 10 0.625 10H19.375C19.5408 10 19.6997 10.0658 19.8169 10.1831C19.9342 10.3003 20 10.4592 20 10.625C20 10.7908 19.9342 10.9497 19.8169 11.0669C19.6997 11.1842 19.5408 11.25 19.375 11.25ZM19.375 17.5H0.625C0.45924 17.5 0.300269 17.4342 0.183058 17.3169C0.065848 17.1997 0 17.0408 0 16.875C0 16.7092 0.065848 16.5503 0.183058 16.4331C0.300269 16.3158 0.45924 16.25 0.625 16.25H19.375C19.5408 16.25 19.6997 16.3158 19.8169 16.4331C19.9342 16.5503 20 16.7092 20 16.875C20 17.0408 19.9342 17.1997 19.8169 17.3169C19.6997 17.4342 19.5408 17.5 19.375 17.5Z" fill="black"/>
</g></symbol><symbol id="cart" viewBox="0 0 22 22"><g fill="none">
<path d="M17.3876 6.80432C17.3739 6.69982 17.3223 6.60394 17.2427 6.53476C17.163 6.46558 17.0607 6.42788 16.9551 6.42878H14.5722V5.56547C14.5722 4.61985 14.1959 3.71296 13.5259 3.0443C12.856 2.37565 11.9474 2 11 2C10.0526 2 9.14398 2.37565 8.47406 3.0443C7.80413 3.71296 7.42778 4.61985 7.42777 5.56547V6.42878H5.04053C4.93493 6.42788 4.83266 6.46558 4.753 6.53476C4.67333 6.60394 4.62178 6.69982 4.60805 6.80432L3.00358 18.9511C2.99541 19.014 3.00126 19.078 3.02069 19.1384C3.04013 19.1989 3.07268 19.2543 3.11602 19.3007C3.29766 19.495 3.4966 19.6935 3.71283 19.8878C3.79215 19.9597 3.89541 19.9997 4.00259 20H17.9974C18.1046 19.9997 18.2078 19.9597 18.2872 19.8878C18.4991 19.6935 18.7196 19.495 18.884 19.3007C18.9273 19.2543 18.9599 19.1989 18.9793 19.1384C18.9987 19.078 19.0046 19.014 18.9964 18.9511L17.3876 6.80432ZM8.3057 5.55683C8.3057 4.84018 8.59093 4.15287 9.09864 3.64612C9.60635 3.13937 10.295 2.85468 11.013 2.85468C11.731 2.85468 12.4196 3.13937 12.9273 3.64612C13.435 4.15287 13.7203 4.84018 13.7203 5.55683V6.42014H8.29272L8.3057 5.55683ZM17.8201 19.1367H4.17126L3.88582 18.8604L5.41678 7.29209H16.5789L18.1098 18.8604L17.8201 19.1367Z" fill="currentColor"/>
</g></symbol><symbol id="cert" viewBox="0 0 21 21"><g fill="none">
<g clip-path="url(#clip0_66_11)">
<path d="M20.904 16.7274L16.3758 12.1993C16.3983 12.1817 16.4218 12.1656 16.4464 12.1511L17.6532 11.5089C17.9619 11.3467 18.1949 11.0703 18.3026 10.7386C18.4103 10.407 18.3841 10.0464 18.2297 9.73378L17.6286 8.50429C17.5825 8.41058 17.5585 8.30753 17.5585 8.20307C17.5585 8.09862 17.5825 7.99556 17.6286 7.90186L18.2297 6.67237C18.3841 6.35974 18.4103 5.99915 18.3026 5.66752C18.1949 5.33589 17.9619 5.05947 17.6532 4.89721L16.4451 4.25573C16.3527 4.20707 16.2728 4.13781 16.2114 4.05332C16.1501 3.96883 16.109 3.87137 16.0914 3.76846L15.8548 2.42053C15.7959 2.07694 15.6052 1.76994 15.3232 1.56496C15.0413 1.35999 14.6904 1.27327 14.3454 1.32328L12.9902 1.51523C12.8869 1.52962 12.7816 1.52035 12.6824 1.48812C12.5831 1.4559 12.4925 1.40155 12.4173 1.32918L11.433 0.377621C11.1834 0.134144 10.8485 -0.00213623 10.4998 -0.00213623C10.1511 -0.00213623 9.8162 0.134144 9.56659 0.377621L8.58221 1.32918C8.50704 1.40155 8.41641 1.4559 8.31717 1.48812C8.21792 1.52035 8.11266 1.52962 8.00931 1.51523L6.65382 1.32328C6.30887 1.27344 5.95808 1.36023 5.67616 1.56517C5.39424 1.77012 5.20346 2.07702 5.14445 2.42053L4.90787 3.76846C4.89023 3.87141 4.84912 3.96892 4.78772 4.05342C4.72632 4.13792 4.64629 4.20715 4.55382 4.25573L3.34698 4.89721C3.03835 5.05947 2.80534 5.33589 2.69764 5.66752C2.58993 5.99915 2.61607 6.35974 2.77047 6.67237L3.37159 7.90186C3.41773 7.99556 3.44173 8.09862 3.44173 8.20307C3.44173 8.30753 3.41773 8.41058 3.37159 8.50429L2.76915 9.73378C2.61476 10.0464 2.58862 10.407 2.69632 10.7386C2.80403 11.0703 3.03704 11.3467 3.34567 11.5089L4.55514 12.1504C4.57953 12.165 4.60298 12.1811 4.62536 12.1987L0.0972313 16.7268C0.0557713 16.7682 0.0261556 16.8199 0.0114614 16.8767C-0.00323274 16.9334 -0.00246932 16.993 0.0136724 17.0493C0.0298141 17.1057 0.0607451 17.1566 0.103252 17.197C0.145758 17.2373 0.19829 17.2655 0.255388 17.2787L3.07168 17.9287L3.7217 20.745C3.73486 20.8021 3.76308 20.8546 3.80341 20.8971C3.84374 20.9396 3.89472 20.9706 3.95105 20.9867C4.00738 21.0029 4.067 21.0036 4.12372 20.9889C4.18045 20.9742 4.2322 20.9446 4.27361 20.9032L9.35396 15.8225L9.56692 16.0289C9.81657 16.2723 10.1514 16.4085 10.5001 16.4085C10.8488 16.4085 11.1836 16.2723 11.4333 16.0289L11.6462 15.8225L16.7276 20.9038C16.769 20.9453 16.8207 20.9749 16.8775 20.9896C16.9342 21.0043 16.9938 21.0035 17.0501 20.9874C17.1065 20.9712 17.1575 20.9403 17.1978 20.8978C17.2381 20.8553 17.2663 20.8028 17.2795 20.7457L17.9295 17.9294L20.7458 17.2793C20.8029 17.2662 20.8554 17.238 20.8979 17.1976C20.9405 17.1573 20.9714 17.1063 20.9875 17.05C21.0037 16.9937 21.0044 16.934 20.9897 16.8773C20.975 16.8206 20.9454 16.7688 20.904 16.7274ZM4.22701 20.0212L3.66428 17.5819C3.65046 17.5219 3.62006 17.467 3.57655 17.4235C3.53303 17.38 3.47815 17.3496 3.41818 17.3358L0.978903 16.773L4.9397 12.8122L5.14543 13.9856C5.2046 14.3291 5.39542 14.6359 5.6773 14.8408C5.95917 15.0457 6.30988 15.1325 6.65481 15.0829L8.00996 14.8909C8.11331 14.8767 8.21854 14.886 8.31776 14.9182C8.41698 14.9505 8.50761 15.0047 8.58287 15.077L8.88179 15.366L4.22701 20.0212ZM10.0233 15.557L9.58201 15.1305L9.03929 14.6055C8.79029 14.3631 8.45654 14.2275 8.10906 14.2275C8.04528 14.2276 7.98158 14.2321 7.91842 14.2409L6.56261 14.4329C6.38624 14.4588 6.20673 14.4146 6.06254 14.3098C5.91835 14.205 5.82094 14.0479 5.79118 13.8721L5.55461 12.5242C5.52558 12.3711 5.47006 12.2243 5.39054 12.0904C5.38312 12.0744 5.37445 12.059 5.36462 12.0444C5.24212 11.8451 5.06917 11.6817 4.86325 11.5706L3.65411 10.9291C3.49627 10.8464 3.37703 10.7052 3.32185 10.5358C3.26667 10.3663 3.27993 10.182 3.35879 10.0222L3.95992 8.7937C4.0501 8.61022 4.09699 8.4085 4.09699 8.20406C4.09699 7.99962 4.0501 7.7979 3.95992 7.61442L3.35879 6.38493C3.27993 6.22512 3.26667 6.04081 3.32185 5.87136C3.37703 5.7019 3.49627 5.56073 3.65411 5.478L4.86292 4.83651C5.04381 4.74135 5.20039 4.60586 5.32056 4.44052C5.44072 4.27518 5.52125 4.08441 5.55592 3.88298L5.7925 2.53504C5.82172 2.35921 5.91876 2.20186 6.06277 2.09681C6.20678 1.99177 6.38625 1.94742 6.56261 1.97329L7.91809 2.16525C8.12036 2.19429 8.3266 2.17652 8.52092 2.11332C8.71525 2.05012 8.89248 1.94317 9.03897 1.8007L10.0233 0.849136C10.1508 0.724674 10.3219 0.655002 10.5001 0.655002C10.6783 0.655002 10.8494 0.724674 10.9769 0.849136L11.9612 1.8007C12.1077 1.9432 12.2848 2.0502 12.4791 2.11346C12.6734 2.17671 12.8795 2.19454 13.0818 2.16557L14.4376 1.97329C14.614 1.94728 14.7935 1.99143 14.9377 2.09626C15.082 2.20109 15.1793 2.35826 15.209 2.53406L15.4456 3.882C15.4803 4.08338 15.5608 4.27411 15.6809 4.43944C15.801 4.60477 15.9575 4.74029 16.1383 4.83553L17.3474 5.47701C17.5053 5.55975 17.6245 5.70092 17.6797 5.87037C17.7348 6.03983 17.7216 6.22414 17.6427 6.38395L17.0403 7.61245C16.9501 7.79593 16.9032 7.99765 16.9032 8.20209C16.9032 8.40653 16.9501 8.60825 17.0403 8.79173L17.6414 10.0212C17.7203 10.181 17.7335 10.3653 17.6784 10.5348C17.6232 10.7042 17.5039 10.8454 17.3461 10.9282L16.1373 11.5696C15.9564 11.6648 15.7998 11.8003 15.6797 11.9656C15.5595 12.131 15.479 12.3217 15.4443 12.5232L15.2077 13.8711C15.1781 14.0467 15.081 14.2038 14.9371 14.3088C14.7932 14.4138 14.6139 14.4583 14.4376 14.4329L13.0815 14.2406C12.8792 14.2116 12.673 14.2293 12.4786 14.2925C12.2843 14.3557 12.1071 14.4627 11.9606 14.6051L10.9762 15.5567C10.8488 15.681 10.6779 15.7506 10.4998 15.7507C10.3218 15.7507 10.1508 15.6812 10.0233 15.557ZM17.582 17.3358C17.5221 17.3496 17.4672 17.38 17.4237 17.4235C17.3801 17.467 17.3497 17.5219 17.3359 17.5819L16.7732 20.0212L12.1181 15.366L12.4167 15.077C12.492 15.0048 12.5826 14.9506 12.6818 14.9184C12.781 14.8862 12.8862 14.8768 12.9896 14.8909L14.3451 15.0829C14.69 15.1326 15.0408 15.0458 15.3227 14.8409C15.6046 14.6359 15.7954 14.3291 15.8544 13.9856L16.0602 12.8122L20.0213 16.773L17.582 17.3358Z" fill="black"/>
<path d="M15.4219 8.20313C15.4221 7.02469 14.9992 5.88535 14.2301 4.99242C14.2032 4.95645 14.1692 4.9264 14.1301 4.90413C14.0911 4.88185 14.0479 4.86783 14.0033 4.86293C13.9586 4.85803 13.9134 4.86235 13.8705 4.87564C13.8276 4.88892 13.7878 4.91088 13.7537 4.94015C13.7196 4.96942 13.6919 5.00539 13.6723 5.04581C13.6527 5.08623 13.6416 5.13025 13.6397 5.17515C13.6377 5.22004 13.6451 5.26485 13.6612 5.30679C13.6773 5.34874 13.7019 5.38692 13.7334 5.41899C14.4375 6.23803 14.8043 7.29392 14.7595 8.3731C14.7147 9.45227 14.2618 10.4742 13.4923 11.2321C12.7228 11.99 11.6941 12.4274 10.6144 12.4558C9.53464 12.4842 8.48443 12.1014 7.67617 11.3849C6.86791 10.6685 6.36192 9.67175 6.26055 8.59642C6.15919 7.52109 6.47 6.44739 7.13014 5.5925C7.79028 4.7376 8.75046 4.16533 9.81647 3.99144C10.8825 3.81754 11.9748 4.05499 12.8724 4.65577C12.9081 4.68128 12.9485 4.69937 12.9914 4.70896C13.0342 4.71855 13.0785 4.71944 13.1217 4.71159C13.1649 4.70375 13.2061 4.68731 13.2428 4.66327C13.2795 4.63922 13.3111 4.60805 13.3355 4.5716C13.36 4.53515 13.3769 4.49417 13.3852 4.45107C13.3936 4.40797 13.3932 4.36364 13.3841 4.3207C13.3749 4.27776 13.3573 4.23708 13.3322 4.20107C13.3071 4.16507 13.275 4.13447 13.2379 4.11108C12.326 3.50066 11.2362 3.21249 10.1418 3.29236C9.04732 3.37223 8.01096 3.81555 7.19733 4.5519C6.38371 5.28825 5.83949 6.27539 5.65116 7.35646C5.46283 8.43754 5.64118 9.55055 6.15787 10.5187C6.67456 11.4868 7.49997 12.2544 8.50293 12.6997C9.5059 13.1449 10.6289 13.2423 11.6935 12.9762C12.7581 12.7101 13.7033 12.0958 14.3788 11.231C15.0543 10.3662 15.4214 9.30049 15.4219 8.20313Z" fill="black"/>
<path d="M12.3949 6.66489L9.83817 9.35748L8.61361 7.96229C8.58608 7.92713 8.55167 7.89795 8.51247 7.87655C8.47327 7.85515 8.43012 7.84198 8.38566 7.83783C8.34119 7.83369 8.29635 7.83867 8.25387 7.85246C8.2114 7.86626 8.17219 7.88858 8.13864 7.91805C8.10509 7.94753 8.07792 7.98355 8.05877 8.02389C8.03963 8.06424 8.02893 8.10807 8.02731 8.1527C8.0257 8.19733 8.03322 8.24181 8.0494 8.28344C8.06558 8.32506 8.09009 8.36294 8.12142 8.39476L9.58125 10.06C9.6113 10.0943 9.64819 10.122 9.68954 10.1413C9.7309 10.1605 9.77582 10.171 9.82143 10.1719H9.828C9.87252 10.1719 9.91657 10.1628 9.95747 10.1452C9.99837 10.1276 10.0353 10.1018 10.0659 10.0695L12.8697 7.11639C12.901 7.08548 12.9257 7.04859 12.9425 7.00793C12.9592 6.96726 12.9676 6.92365 12.9672 6.87967C12.9667 6.8357 12.9575 6.79226 12.9399 6.75195C12.9223 6.71163 12.8968 6.67525 12.8649 6.64498C12.833 6.61471 12.7954 6.59116 12.7542 6.57573C12.713 6.5603 12.6692 6.55331 12.6252 6.55516C12.5813 6.55702 12.5382 6.56769 12.4984 6.58654C12.4587 6.60539 12.4232 6.63203 12.3939 6.66489H12.3949Z" fill="black"/>
</g>

</g></symbol><symbol id="clock" viewBox="0 0 15 16"><g fill="none">
<g clip-path="url(#clip0_27_26)">
<path d="M7.5 15.5034C6.01664 15.5034 4.5666 15.0636 3.33323 14.2394C2.09986 13.4153 1.13856 12.244 0.570907 10.8735C0.00324961 9.5031 -0.145275 7.9951 0.144114 6.54024C0.433503 5.08539 1.14781 3.74901 2.1967 2.70012C3.2456 1.65123 4.58197 0.936921 6.03683 0.647532C7.49168 0.358143 8.99968 0.506668 10.3701 1.07432C11.7406 1.64198 12.9119 2.60328 13.736 3.83664C14.5601 5.07001 15 6.52006 15 8.00342C14.9978 9.99185 14.2069 11.8982 12.8008 13.3042C11.3948 14.7103 9.48844 15.5012 7.5 15.5034ZM7.5 1.08936C6.13253 1.08936 4.79577 1.49486 3.65876 2.25459C2.52174 3.01432 1.63555 4.09414 1.11224 5.35752C0.588934 6.6209 0.452012 8.01109 0.718793 9.35229C0.985573 10.6935 1.64407 11.9255 2.61102 12.8924C3.57797 13.8594 4.80994 14.5179 6.15114 14.7846C7.49233 15.0514 8.88252 14.9145 10.1459 14.3912C11.4093 13.8679 12.4891 12.9817 13.2488 11.8447C14.0086 10.7077 14.4141 9.37089 14.4141 8.00342C14.412 6.17034 13.6829 4.41292 12.3867 3.11674C11.0905 1.82055 9.33309 1.09144 7.5 1.08936Z" fill="#4E4E4E"/>
<path d="M7.5 2.47598C7.4223 2.47598 7.34778 2.44511 7.29284 2.39017C7.2379 2.33523 7.20703 2.26071 7.20703 2.18301V0.796387C7.20703 0.718687 7.2379 0.644169 7.29284 0.589227C7.34778 0.534284 7.4223 0.503418 7.5 0.503418C7.5777 0.503418 7.65222 0.534284 7.70716 0.589227C7.7621 0.644169 7.79297 0.718687 7.79297 0.796387V2.18301C7.79297 2.26071 7.7621 2.33523 7.70716 2.39017C7.65222 2.44511 7.5777 2.47598 7.5 2.47598ZM1.68164 8.29639H0.292969C0.215269 8.29639 0.140751 8.26552 0.0858086 8.21058C0.0308663 8.15564 0 8.08112 0 8.00342C0 7.92572 0.0308663 7.8512 0.0858086 7.79626C0.140751 7.74132 0.215269 7.71045 0.292969 7.71045H1.68164C1.75934 7.71045 1.83386 7.74132 1.8888 7.79626C1.94374 7.8512 1.97461 7.92572 1.97461 8.00342C1.97461 8.08112 1.94374 8.15564 1.8888 8.21058C1.83386 8.26552 1.75934 8.29639 1.68164 8.29639ZM7.5 15.5034C7.4223 15.5034 7.34778 15.4726 7.29284 15.4176C7.2379 15.3627 7.20703 15.2881 7.20703 15.2104V13.8238C7.20703 13.7461 7.2379 13.6716 7.29284 13.6167C7.34778 13.5617 7.4223 13.5309 7.5 13.5309C7.5777 13.5309 7.65222 13.5617 7.70716 13.6167C7.7621 13.6716 7.79297 13.7461 7.79297 13.8238V15.2104C7.79297 15.2881 7.7621 15.3627 7.70716 15.4176C7.65222 15.4726 7.5777 15.5034 7.5 15.5034ZM14.707 8.29639H13.3204C13.2427 8.29639 13.1682 8.26552 13.1132 8.21058C13.0583 8.15564 13.0274 8.08112 13.0274 8.00342C13.0274 7.92572 13.0583 7.8512 13.1132 7.79626C13.1682 7.74132 13.2427 7.71045 13.3204 7.71045H14.707C14.7847 7.71045 14.8592 7.74132 14.9142 7.79626C14.9691 7.8512 15 7.92572 15 8.00342C15 8.08112 14.9691 8.15564 14.9142 8.21058C14.8592 8.26552 14.7847 8.29639 14.707 8.29639ZM7.5 8.29639C7.46152 8.29639 7.42342 8.28881 7.38787 8.27408C7.35232 8.25935 7.32002 8.23776 7.29281 8.21055L4.37643 5.29422C4.34922 5.26701 4.32764 5.23471 4.31292 5.19916C4.2982 5.16361 4.29062 5.12552 4.29063 5.08704C4.29063 5.00934 4.32151 4.93481 4.37645 4.87987C4.4314 4.82493 4.50593 4.79407 4.58363 4.79407C4.62211 4.79408 4.66021 4.80166 4.69575 4.81638C4.7313 4.83111 4.7636 4.85269 4.7908 4.8799L7.58754 7.67664L9.35186 7.20385C9.42692 7.18374 9.5069 7.19427 9.5742 7.23313C9.6415 7.272 9.6906 7.336 9.71071 7.41106C9.73082 7.48613 9.72029 7.56611 9.68143 7.63341C9.64257 7.70071 9.57856 7.74981 9.5035 7.76992L7.57576 8.28643C7.55105 8.29303 7.52558 8.29637 7.5 8.29639Z" fill="#4E4E4E"/>
</g>

</g></symbol><symbol id="cloth" viewBox="0 0 21 22"><g fill="none">
<g clip-path="url(#clip0_66_77)">
<path d="M20.4206 14.2812C20.5827 14.101 20.6722 13.8673 20.672 13.625C20.672 13.0822 20.2303 12.6406 19.6876 12.6406H12.4689C12.3566 12.6406 12.2467 12.6521 12.1407 12.6737V10.8992L14.5528 9.99458C14.6001 9.97684 14.6427 9.9484 14.6772 9.91149C14.7117 9.87458 14.7373 9.83019 14.7518 9.78179C14.7664 9.73338 14.7695 9.68227 14.7611 9.63245C14.7526 9.58262 14.7328 9.53541 14.7031 9.49452L12.0781 5.88515L12.0731 5.88876C12.063 5.87497 12.0571 5.85857 12.0446 5.8461L11.6604 5.46154C11.3364 5.13586 10.951 4.87766 10.5265 4.70188C10.1021 4.52609 9.64701 4.43622 9.18761 4.43746H7.87511V3.78121C8.59896 3.78121 9.18761 3.19255 9.18761 2.46871C9.18761 1.74486 8.59896 1.15621 7.87511 1.15621C7.15127 1.15621 6.56261 1.74486 6.56261 2.46871H7.21886C7.21886 2.10679 7.51319 1.81246 7.87511 1.81246C8.23703 1.81246 8.53136 2.10679 8.53136 2.46871C8.53136 2.83063 8.23703 3.12496 7.87511 3.12496C7.51319 3.12496 7.21886 3.41929 7.21886 3.78121V4.43746H5.90636C5.44696 4.43622 4.99188 4.52609 4.56744 4.70188C4.14299 4.87766 3.75762 5.13586 3.43361 5.46154L3.04938 5.8461C3.03691 5.85857 3.031 5.87465 3.02083 5.88876L3.01591 5.88515L0.390908 9.49452C0.361005 9.53535 0.340983 9.58256 0.332416 9.63244C0.323849 9.68232 0.326971 9.7335 0.341537 9.78197C0.356102 9.83044 0.381714 9.87487 0.416358 9.91176C0.451002 9.94865 0.493732 9.977 0.541189 9.99458L2.95324 10.8992V16.5781C2.95324 16.6651 2.98781 16.7486 3.04934 16.8101C3.11088 16.8716 3.19434 16.9062 3.28136 16.9062H10.8282C10.8282 17.4447 11.0927 17.9195 11.4947 18.2187C11.0927 18.518 10.8282 18.9928 10.8282 19.5312C10.8282 20.4358 11.5642 21.1718 12.4689 21.1718H19.6876C20.2303 21.1718 20.672 20.7302 20.672 20.1875C20.672 19.9355 20.5768 19.7054 20.4206 19.5312C20.5827 19.351 20.6722 19.1173 20.672 18.875C20.6712 18.632 20.5799 18.3981 20.4161 18.2187C20.5797 18.0396 20.6709 17.806 20.6717 17.5633C20.6726 17.3207 20.5831 17.0865 20.4206 16.9062C20.5827 16.726 20.6722 16.4923 20.672 16.25C20.6712 16.007 20.5799 15.7731 20.4161 15.5937C20.5797 15.4146 20.6709 15.181 20.6717 14.9383C20.6726 14.6957 20.5831 14.4615 20.4206 14.2812ZM19.6876 13.2968C19.7721 13.3006 19.8519 13.3368 19.9103 13.398C19.9688 13.4591 20.0014 13.5404 20.0014 13.625C20.0014 13.7095 19.9688 13.7908 19.9103 13.852C19.8519 13.9131 19.7721 13.9493 19.6876 13.9531H12.4689C12.3818 13.9531 12.2984 13.9877 12.2368 14.0492C12.1753 14.1107 12.1407 14.1942 12.1407 14.2812C12.1407 14.3682 12.1753 14.4517 12.2368 14.5132C12.2984 14.5748 12.3818 14.6093 12.4689 14.6093H19.6876C19.7721 14.6131 19.8519 14.6493 19.9103 14.7105C19.9688 14.7716 20.0014 14.8529 20.0014 14.9375C20.0014 15.022 19.9688 15.1033 19.9103 15.1645C19.8519 15.2256 19.7721 15.2618 19.6876 15.2656H12.4689C11.9261 15.2656 11.4845 14.8239 11.4845 14.2812C11.4845 13.7385 11.9261 13.2968 12.4689 13.2968H19.6876ZM12.1407 10.1983V7.08707L13.9185 9.5316L12.1407 10.1983ZM8.85949 5.09371C8.85949 5.81755 8.27083 6.40621 7.54699 6.40621C6.82314 6.40621 6.23449 5.81755 6.23449 5.09371H8.85949ZM1.17545 9.5316L2.95324 7.08707V10.1983L1.17545 9.5316ZM10.9674 16.25H3.60949V15.5937H10.172V14.9375H3.60949V6.21393L3.89758 5.92551C4.34925 5.47149 4.94194 5.18463 5.57824 5.11208C5.58841 6.18932 6.46746 7.06246 7.54699 7.06246C8.62652 7.06246 9.50557 6.18932 9.51574 5.11241C10.1521 5.18481 10.7448 5.47169 11.1964 5.92583L11.4845 6.21393V12.9772C11.0884 13.2771 10.8282 13.7477 10.8282 14.2812C10.8282 14.8197 11.0927 15.2945 11.4947 15.5937C11.265 15.7631 11.0833 15.9892 10.9674 16.25ZM11.4845 16.9062C11.4845 16.3635 11.9261 15.9218 12.4689 15.9218H19.6876C19.7721 15.9256 19.8519 15.9618 19.9103 16.023C19.9688 16.0841 20.0014 16.1654 20.0014 16.25C20.0014 16.3345 19.9688 16.4158 19.9103 16.477C19.8519 16.5381 19.7721 16.5743 19.6876 16.5781H12.4689C12.3818 16.5781 12.2984 16.6127 12.2368 16.6742C12.1753 16.7357 12.1407 16.8192 12.1407 16.9062C12.1407 16.9932 12.1753 17.0767 12.2368 17.1382C12.2984 17.1998 12.3818 17.2343 12.4689 17.2343H19.6876C19.7721 17.2381 19.8519 17.2743 19.9103 17.3355C19.9688 17.3966 20.0014 17.4779 20.0014 17.5625C20.0014 17.647 19.9688 17.7283 19.9103 17.7895C19.8519 17.8506 19.7721 17.8868 19.6876 17.8906H12.4689C11.9261 17.8906 11.4845 17.4489 11.4845 16.9062ZM12.4689 19.8593H19.6876C19.7721 19.8631 19.8519 19.8993 19.9103 19.9605C19.9688 20.0216 20.0014 20.1029 20.0014 20.1875C20.0014 20.272 19.9688 20.3533 19.9103 20.4145C19.8519 20.4756 19.7721 20.5118 19.6876 20.5156H12.4689C11.9261 20.5156 11.4845 20.0739 11.4845 19.5312C11.4845 18.9885 11.9261 18.5468 12.4689 18.5468H19.6876C19.7721 18.5506 19.8519 18.5868 19.9103 18.648C19.9688 18.7091 20.0014 18.7904 20.0014 18.875C20.0014 18.9595 19.9688 19.0408 19.9103 19.102C19.8519 19.1631 19.7721 19.1993 19.6876 19.2031H12.4689C12.3818 19.2031 12.2984 19.2377 12.2368 19.2992C12.1753 19.3607 12.1407 19.4442 12.1407 19.5312C12.1407 19.6182 12.1753 19.7017 12.2368 19.7632C12.2984 19.8248 12.3818 19.8593 12.4689 19.8593ZM13.3495 2.77977C13.6066 2.86618 13.8401 3.01092 14.0318 3.20265C14.2235 3.39437 14.3683 3.62789 14.4547 3.8849C14.4761 3.95051 14.5178 4.00766 14.5737 4.04818C14.6296 4.08869 14.6969 4.11051 14.7659 4.11051C14.8349 4.11051 14.9022 4.08869 14.9581 4.04818C15.014 4.00766 15.0557 3.95051 15.0771 3.8849C15.1635 3.62789 15.3083 3.39437 15.5 3.20265C15.6917 3.01092 15.9252 2.86618 16.1823 2.77977C16.2477 2.75819 16.3047 2.71649 16.3451 2.66061C16.3855 2.60474 16.4072 2.53754 16.4072 2.46859C16.4072 2.39964 16.3854 2.33247 16.3449 2.27663C16.3045 2.2208 16.2474 2.17916 16.1819 2.15765C15.9249 2.07124 15.6914 1.9265 15.4997 1.73477C15.3079 1.54304 15.1632 1.30953 15.0768 1.05252C15.0553 0.986909 15.0137 0.929761 14.9578 0.889242C14.9019 0.848722 14.8346 0.826904 14.7656 0.826904C14.6965 0.826904 14.6293 0.848722 14.5734 0.889242C14.5175 0.929761 14.4758 0.986909 14.4543 1.05252C14.3679 1.30953 14.2232 1.54304 14.0315 1.73477C13.8397 1.9265 13.6062 2.07124 13.3492 2.15765C13.2837 2.17923 13.2267 2.22093 13.1864 2.27681C13.146 2.33268 13.1242 2.39988 13.1243 2.46883C13.1243 2.53777 13.1461 2.60495 13.1866 2.66078C13.227 2.71662 13.284 2.75826 13.3495 2.77977ZM14.7657 1.87677C14.9274 2.10674 15.1277 2.307 15.3577 2.46871C15.1277 2.63042 14.9274 2.83068 14.7657 3.06065C14.604 2.83068 14.4038 2.63042 14.1738 2.46871C14.4038 2.307 14.604 2.10674 14.7657 1.87677ZM3.38505 18.2358C3.12804 18.1494 2.89453 18.0046 2.7028 17.8129C2.51107 17.6212 2.36633 17.3877 2.27992 17.1306C2.25845 17.065 2.21679 17.0079 2.1609 16.9674C2.105 16.9268 2.03773 16.905 1.9687 16.905C1.89966 16.905 1.83239 16.9268 1.7765 16.9674C1.7206 17.0079 1.67894 17.065 1.65747 17.1306C1.57106 17.3877 1.42632 17.6212 1.2346 17.8129C1.04287 18.0046 0.809354 18.1494 0.552346 18.2358C0.486865 18.2574 0.429867 18.2991 0.389475 18.3549C0.349082 18.4108 0.327356 18.478 0.327393 18.547C0.327429 18.6159 0.349226 18.6831 0.389677 18.7389C0.430128 18.7947 0.48717 18.8364 0.552674 18.8579C0.809682 18.9443 1.0432 19.089 1.23492 19.2808C1.42665 19.4725 1.57139 19.706 1.6578 19.963C1.67927 20.0286 1.72093 20.0858 1.77682 20.1263C1.83272 20.1668 1.89999 20.1886 1.96903 20.1886C2.03806 20.1886 2.10533 20.1668 2.16123 20.1263C2.21712 20.0858 2.25878 20.0286 2.28025 19.963C2.36666 19.706 2.5114 19.4725 2.70313 19.2808C2.89486 19.089 3.12837 18.9443 3.38538 18.8579C3.45086 18.8363 3.50786 18.7946 3.54825 18.7387C3.58864 18.6829 3.61037 18.6157 3.61033 18.5467C3.61029 18.4778 3.5885 18.4106 3.54805 18.3548C3.50759 18.2989 3.45055 18.2573 3.38505 18.2358ZM1.96886 19.1388C1.80715 18.9088 1.60689 18.7085 1.37692 18.5468C1.60689 18.3851 1.80715 18.1849 1.96886 17.9549C2.13057 18.1849 2.33083 18.3851 2.5608 18.5468C2.33083 18.7085 2.13057 18.9088 1.96886 19.1388Z" fill="black"/>
</g>

</g></symbol><symbol id="heart" viewBox="0 0 16 16"><g fill="none">
<path d="M13.915 3.01257C13.2165 2.3149 12.2697 1.92302 11.2825 1.92302C10.2953 1.92302 9.34842 2.3149 8.64997 3.01257L7.99997 3.66257L7.34997 3.01257C7.00646 2.65783 6.59579 2.37499 6.1419 2.1805C5.688 1.98602 5.19995 1.88379 4.70616 1.87976C4.21237 1.87574 3.72272 1.97 3.26571 2.15705C2.80871 2.34411 2.39348 2.62022 2.04423 2.96931C1.69497 3.3184 1.41866 3.73349 1.23139 4.19041C1.04412 4.64732 0.949626 5.13693 0.953418 5.63072C0.95721 6.12451 1.05921 6.61262 1.25348 7.0666C1.44774 7.52059 1.7304 7.93139 2.08497 8.27507L7.81497 14.0001C7.84891 14.0341 7.89259 14.0569 7.93997 14.0651H8.00747C8.04037 14.0653 8.07299 14.059 8.10345 14.0465C8.13391 14.0341 8.16161 14.0157 8.18497 13.9926L13.915 8.27507C14.6093 7.57788 14.9991 6.63402 14.9991 5.65007C14.9991 4.66613 14.6093 3.72226 13.915 3.02507V3.01257ZM13.56 7.92257L7.99997 13.4826L2.43997 7.92257C1.83561 7.31788 1.49621 6.49787 1.49645 5.64294C1.49668 4.78801 1.83653 3.96818 2.44122 3.36382C3.04592 2.75946 3.86592 2.42007 4.72086 2.4203C5.57579 2.42053 6.39561 2.76038 6.99997 3.36507L7.82497 4.19257C7.84821 4.216 7.87586 4.2346 7.90633 4.2473C7.93679 4.25999 7.96947 4.26652 8.00247 4.26652C8.03547 4.26652 8.06815 4.25999 8.09862 4.2473C8.12908 4.2346 8.15673 4.216 8.17997 4.19257L8.99997 3.36507C9.60433 2.76038 10.4242 2.42053 11.2791 2.4203C12.134 2.42007 12.954 2.75946 13.5587 3.36382C14.1634 3.96818 14.5033 4.78801 14.5035 5.64294C14.5037 6.49787 14.1643 7.31788 13.56 7.92257Z" fill="black" stroke="black" stroke-width="0.3"/>
</g></symbol><symbol id="horizontalArrow" viewBox="0 0 17 9"><g fill="none">
<path d="M1 4.00342C0.723858 4.00342 0.5 4.22728 0.5 4.50342C0.5 4.77956 0.723858 5.00342 1 5.00342L1 4.00342ZM16.3536 4.85697C16.5488 4.66171 16.5488 4.34513 16.3536 4.14986L13.1716 0.967883C12.9763 0.772621 12.6597 0.772621 12.4645 0.967883C12.2692 1.16315 12.2692 1.47973 12.4645 1.67499L15.2929 4.50342L12.4645 7.33184C12.2692 7.52711 12.2692 7.84369 12.4645 8.03895C12.6597 8.23421 12.9763 8.23421 13.1716 8.03895L16.3536 4.85697ZM1 5.00342L16 5.00342L16 4.00342L1 4.00342L1 5.00342Z" fill="#4E4E4E"/>
</g></symbol><symbol id="inst" viewBox="0 0 23 24"><g fill="none">
<g clip-path="url(#clip0_27_61)">
<path d="M16.6768 8.07418C16.5715 7.78866 16.4034 7.53039 16.1851 7.31834C15.9731 7.09999 15.7148 6.93197 15.4293 6.82664C15.1976 6.73672 14.8498 6.62962 14.2088 6.60047C13.5156 6.56885 13.3077 6.56201 11.5526 6.56201C9.79731 6.56201 9.58947 6.56867 8.89637 6.60029C8.25549 6.62962 7.90733 6.73667 7.67592 6.82664C7.39036 6.93192 7.13207 7.09995 6.92008 7.31834C6.70174 7.53039 6.53366 7.78866 6.42821 8.07418C6.33828 8.30581 6.23119 8.65393 6.20203 9.2948C6.17042 9.98791 6.16357 10.1957 6.16357 11.951C6.16357 13.7062 6.17042 13.914 6.20203 14.6073C6.23119 15.2481 6.33828 15.5961 6.42821 15.8277C6.5336 16.1132 6.70161 16.3715 6.91991 16.5836C7.13192 16.8019 7.3902 16.9699 7.67574 17.0753C7.90738 17.1654 8.25549 17.2725 8.89637 17.3016C9.58947 17.3332 9.79713 17.3399 11.5524 17.3399C13.3079 17.3399 13.5157 17.3332 14.2087 17.3016C14.8495 17.2725 15.1977 17.1654 15.4293 17.0753C15.7128 16.9659 15.9702 16.7984 16.1851 16.5835C16.4 16.3687 16.5675 16.1112 16.6768 15.8277C16.7667 15.5961 16.8738 15.2482 16.9032 14.6073C16.9348 13.914 16.9415 13.7062 16.9415 11.951C16.9415 10.1957 16.9348 9.98791 16.9032 9.2948C16.874 8.65393 16.7669 8.30577 16.6768 8.07418ZM11.5526 15.3263C9.68834 15.3263 8.17706 13.8151 8.17706 11.9509C8.17706 10.0866 9.68834 8.5755 11.5526 8.5755C13.4167 8.5755 14.928 10.0866 14.928 11.9509C14.928 13.8151 13.4167 15.3263 11.5526 15.3263ZM15.0614 9.23086C14.6258 9.23086 14.2726 8.87764 14.2726 8.44206C14.2726 8.00648 14.6258 7.65322 15.0614 7.65322C15.4971 7.65322 15.8502 8.00639 15.8502 8.44202C15.8501 8.87764 15.4971 9.23086 15.0614 9.23086Z" fill="#4E4E4E"/>
<path d="M13.7438 11.9509C13.7438 13.161 12.7628 14.142 11.5527 14.142C10.3426 14.142 9.36157 13.161 9.36157 11.9509C9.36157 10.7408 10.3426 9.75977 11.5527 9.75977C12.7628 9.75977 13.7438 10.7408 13.7438 11.9509Z" fill="#4E4E4E"/>
<path d="M21.3488 0.503418H1.75642C0.844385 0.503418 0.105225 1.24262 0.105225 2.15461V21.747C0.105225 22.659 0.844429 23.3982 1.75642 23.3982H21.3488C22.2608 23.3982 23 22.659 23 21.747V2.15461C23 1.24258 22.2608 0.503418 21.3488 0.503418ZM18.0863 14.6608C18.0544 15.3606 17.9432 15.8383 17.7807 16.2565C17.6118 16.6931 17.3536 17.0897 17.0226 17.4207C16.6915 17.7518 16.2949 18.01 15.8583 18.1789C15.4403 18.3414 14.9624 18.4524 14.2628 18.4844C13.5619 18.5164 13.3379 18.5241 11.5528 18.5241C9.76743 18.5241 9.54367 18.5164 8.84252 18.4844C8.14298 18.4524 7.66509 18.3414 7.24704 18.1789C6.80838 18.0139 6.41103 17.7551 6.08272 17.4207C5.74836 17.0924 5.48966 16.6951 5.32464 16.2565C5.16219 15.8385 5.05093 15.3606 5.01914 14.661C4.98681 13.9598 4.9793 13.736 4.9793 11.9508C4.9793 10.1656 4.98681 9.94168 5.01896 9.24076C5.05071 8.54099 5.16183 8.06329 5.32429 7.6451C5.48935 7.20647 5.74817 6.80916 6.08267 6.48091C6.41094 6.14644 6.80827 5.88767 7.24691 5.72266C7.66509 5.5602 8.1428 5.44913 8.84256 5.41716C9.54349 5.38518 9.76743 5.37749 11.5526 5.37749C13.3378 5.37749 13.5617 5.38518 14.2626 5.41729C14.9624 5.44913 15.4401 5.5602 15.8583 5.72248C16.297 5.88758 16.6943 6.14639 17.0227 6.48087C17.3571 6.80918 17.6157 7.2065 17.7807 7.6451C17.9434 8.06329 18.0544 8.54099 18.0864 9.24076C18.1184 9.94168 18.1259 10.1656 18.1259 11.9508C18.1259 13.736 18.1184 13.9599 18.0862 14.6608H18.0863Z" fill="#4E4E4E"/>
</g>

</g></symbol><symbol id="map" viewBox="0 0 34 28"><g fill="none">
<mask id="path-1-inside-1_66_38" fill="white">
<path d="M31.875 9.91615C31.3844 9.67164 30.8664 9.12134 31.218 7.01871C31.3798 6.05138 31.333 5.3905 31.071 4.939C30.8109 4.49076 30.4013 4.33218 30.0401 4.1922C29.9907 4.17307 29.941 4.15382 29.8913 4.13363L29.8871 4.13184C29.8621 4.07121 29.8728 3.8775 29.8792 3.75996C29.9036 3.31504 29.9543 2.38993 28.737 2.22644C28.1464 2.14722 27.7467 2.23972 27.5145 2.5094C27.2 2.87463 27.3444 3.37268 27.4399 3.70212C27.4628 3.77364 27.4814 3.84644 27.4957 3.92013C27.5062 4.00427 27.4828 4.05959 27.4139 4.2084C27.2744 4.47861 27.2016 4.77833 27.2018 5.08244C27.2018 5.48971 27.1645 5.62246 26.2609 6.25836C26.016 6.42005 25.757 6.55927 25.487 6.67433C24.835 6.97529 24.0961 7.31641 23.9796 8.38529C23.9016 9.10161 23.4948 9.66374 23.2999 9.77285C23.2966 9.76621 23.2933 9.7583 23.2892 9.74934C23.1623 9.44766 22.9638 9.24465 22.6989 9.14624C22.161 8.94642 21.5526 9.2481 20.9645 9.54016C20.8889 9.57755 20.8141 9.6148 20.7404 9.6502C20.3924 9.81652 20.0192 9.92407 19.6361 9.96848C19.6767 9.91306 19.7183 9.85832 19.7607 9.80426C19.9985 9.49786 20.3578 9.03494 20.0212 8.56518C19.6733 8.07982 19.2626 8.2629 18.9907 8.38409C18.7691 8.48923 18.5358 8.56768 18.2957 8.61778C17.6746 8.74521 17.4109 9.07425 17.2185 9.31451C17.0692 9.50085 17.0219 9.54594 16.8997 9.56114C16.1971 9.6488 16.2264 10.358 16.2403 10.6988C16.2458 10.8282 16.2568 11.0973 16.2109 11.1487C15.9066 11.3706 15.6079 11.7925 15.6265 12.2347C15.6277 12.2636 15.6218 12.2924 15.6094 12.3186C15.5969 12.3448 15.5782 12.3675 15.555 12.3848C15.5362 12.3998 15.514 12.4098 15.4904 12.4139C15.4668 12.418 15.4425 12.4161 15.4198 12.4082C15.3412 12.3817 15.3382 12.3653 15.3382 12.3015C15.3359 12.1994 15.3394 12.0973 15.3488 11.9956L15.3664 11.9801C15.5356 11.8308 15.6822 11.6576 15.8015 11.4661C16.4035 10.5485 15.8065 9.79204 15.7808 9.7603C15.7287 9.69608 15.6579 9.64966 15.5783 9.62748C15.0574 9.48185 14.7562 9.9303 14.5361 10.2577C14.2671 10.6582 13.9889 11.0724 13.3631 11.1398C12.4827 11.2346 12.4078 11.156 12.2946 11.0368C12.0976 10.8186 11.8482 10.6544 11.5699 10.5597C10.9566 10.3304 9.93187 10.5088 8.94076 10.6814C8.46263 10.7646 7.75043 10.8886 7.54078 10.847C7.53102 10.7847 7.53799 10.6216 7.64597 10.3269L7.64637 10.3273C8.0624 10.5525 8.50301 10.5655 8.88617 10.3639C9.25327 10.171 9.44491 9.78042 9.39896 9.31936C9.33999 8.72794 8.86107 8.00637 8.06061 7.77163C7.36281 7.56723 6.93449 8.11256 6.55624 8.59374C6.1171 9.15235 5.61932 9.78553 4.58657 9.95254C4.2299 10.0045 3.88833 10.1315 3.58445 10.3253C3.28057 10.5191 3.0213 10.7752 2.82381 11.0767C2.46768 11.6024 2.2413 12.3072 2.16931 13.1149C2.11089 13.7807 2.15284 14.4514 2.29376 15.1047C2.45127 15.8112 2.33221 16.0656 2.29197 16.1267C2.27889 16.1495 2.25943 16.1679 2.23599 16.1798C2.012 16.1681 1.24069 16.1698 0.859981 16.6942C0.604516 17.0461 0.59761 17.5119 0.839462 18.0791C2.06525 20.9531 2.66291 21.477 3.08565 21.6103C3.18078 21.6418 3.28167 21.6521 3.3812 21.6403C3.48072 21.6286 3.57644 21.5951 3.66159 21.5422C3.94196 21.3675 4.0771 20.9553 4.30082 20.2724C4.58238 19.4132 5.00785 18.1147 5.71713 17.9052C6.06543 17.8023 6.51089 17.9615 7.04134 18.3786C7.47152 19.0493 8.08731 19.7963 8.6499 19.6895C9.08997 19.606 9.23932 19.1986 9.33813 18.9291C9.39923 18.7624 9.46245 18.5904 9.55116 18.5478C9.7108 18.4684 9.86011 18.3698 9.99576 18.2541C10.036 18.2201 10.0781 18.1883 10.1219 18.159C10.1507 18.1697 10.1782 18.1834 10.204 18.1999C10.2567 18.2319 10.3049 18.2618 10.3501 18.2898C10.7598 18.5435 10.9876 18.669 11.6849 18.7484C11.7936 18.7609 11.8298 18.8042 11.9433 19.0573C12.0555 19.3075 12.2886 19.8281 12.9537 19.711C13.3072 19.6489 13.3958 19.7509 13.7344 20.3518L13.7961 20.461C14.3031 21.3528 15.1367 21.8024 16.2797 21.8024C16.5224 21.8014 16.7648 21.7833 17.0049 21.7481C18.0403 21.6005 18.4274 21.3416 18.6585 21.187C18.694 21.1613 18.7315 21.1383 18.7705 21.1182C18.8149 21.1182 18.859 21.126 18.9008 21.1413C19.3291 21.2613 19.6662 21.0844 19.9373 20.942C20.2511 20.7774 20.4239 20.6868 20.7592 20.8918C21.4132 21.2919 21.8655 21.1162 22.2289 20.975C22.4935 20.8722 22.7223 20.7834 23.0976 20.877C23.8131 21.0553 24.1323 20.8662 24.475 20.6003C24.7034 20.4012 24.9881 20.2781 25.2896 20.248C26.2153 20.1207 26.2365 19.2866 26.2491 18.7883C26.2654 18.1482 26.3303 18.1135 26.5526 18.0916C27.0378 18.0441 27.1145 18.1509 27.2539 18.3449C27.3997 18.5476 27.62 18.854 28.1633 18.854C28.3877 18.854 29.0706 18.854 29.3081 19.1256C29.3408 19.163 29.4402 19.2769 29.3973 19.5943C29.3347 20.0592 29.3898 20.4534 29.5612 20.7665C29.6476 20.9226 29.7784 21.0497 29.937 21.1316C30.0957 21.2135 30.275 21.2466 30.4524 21.2267C30.6298 21.2068 30.7973 21.1348 30.9338 21.0198C31.0704 20.9048 31.1698 20.752 31.2195 20.5805C31.9157 18.1726 31.5322 17.2362 31.1614 16.3305C31.0381 16.0502 30.9374 15.7606 30.8601 15.4643C30.7217 14.8883 30.6216 14.4721 29.9613 14.6083C29.768 14.6523 29.5689 14.6652 29.3715 14.6465C29.3448 14.6466 29.3185 14.6401 29.2949 14.6275C29.2714 14.6149 29.2514 14.5966 29.2367 14.5743C29.0458 14.3081 29.12 13.5281 29.2301 13.0848C29.2501 13.0238 29.2507 12.9582 29.2318 12.8969C29.2255 12.8429 29.1996 12.4713 29.5675 11.8344C29.8526 11.341 29.8828 10.7648 29.9049 10.3441L29.906 10.3225C30.0305 10.4967 30.1416 10.6801 30.2386 10.8711C30.4171 11.2146 30.6217 11.5439 30.8504 11.8562C31.3286 12.4919 32.0764 13.1389 32.6683 13.1511C32.7677 13.1563 32.867 13.1384 32.9583 13.0988C33.0497 13.0592 33.1306 12.999 33.1948 12.923C33.3435 12.7419 33.3741 12.477 33.2913 12.0893C33.1455 11.4074 32.6098 10.2822 31.875 9.91615ZM31.487 11.3771C31.2819 11.0954 31.0983 10.7986 30.9379 10.4893C30.684 10.0241 30.4647 9.62224 30.0235 9.39188C29.7599 9.25428 29.5638 9.30595 29.4457 9.37341C29.15 9.54215 29.1314 9.89457 29.11 10.3025C29.0911 10.6615 29.0678 11.1083 28.8784 11.436C28.4307 12.2111 28.4141 12.7399 28.4388 12.9718C28.3558 13.3371 28.1565 14.4333 28.5892 15.038C28.671 15.1545 28.7779 15.2511 28.902 15.3208C29.0261 15.3906 29.1643 15.4316 29.3064 15.4408C29.5465 15.4631 29.7885 15.4521 30.0256 15.4083C30.0476 15.4904 30.0704 15.5857 30.0861 15.6507C30.1726 15.9866 30.2858 16.315 30.4248 16.6327C30.7586 17.448 31.074 18.218 30.4549 20.3594C30.4495 20.3802 30.4377 20.3987 30.4211 20.4123C30.4045 20.4259 30.3841 20.4339 30.3627 20.4351C30.3425 20.4387 30.3216 20.4357 30.3033 20.4265C30.285 20.4172 30.2701 20.4023 30.261 20.3839C30.1743 20.2254 30.149 19.9893 30.188 19.701C30.2485 19.2524 30.1548 18.8824 29.9091 18.6012C29.4876 18.119 28.7553 18.0572 28.1643 18.0572C28.0295 18.0572 28.015 18.0372 27.9019 17.8797C27.657 17.5389 27.3449 17.2133 26.4759 17.2986C25.4884 17.3954 25.4665 18.2549 25.4535 18.7681C25.4377 19.3936 25.3756 19.4322 25.1821 19.4587C24.742 19.5074 24.3263 19.6856 23.9876 19.9709C23.7699 20.1398 23.6888 20.2033 23.2913 20.1037C22.6703 19.9489 22.2491 20.1126 21.9413 20.2322C21.6335 20.3517 21.4935 20.4061 21.176 20.2122C20.4549 19.7712 19.9213 20.0513 19.5681 20.2365C19.3351 20.3588 19.2294 20.4056 19.1169 20.374C18.6765 20.2506 18.4572 20.3637 18.2165 20.5246C18.0306 20.6491 17.749 20.8373 16.8933 20.9592C15.1385 21.2097 14.6501 20.3499 14.4894 20.0675L14.4291 19.9609C14.147 19.4602 13.8314 18.9001 13.1035 18.9001C13.0072 18.9005 12.911 18.9094 12.8162 18.9266C12.8021 18.9293 12.7879 18.9308 12.7735 18.931C12.7334 18.8679 12.699 18.8012 12.671 18.7318C12.5521 18.4667 12.3532 18.023 11.7756 17.9573C11.2245 17.8945 11.1101 17.8235 10.7701 17.6129C10.7229 17.5837 10.6726 17.5525 10.6173 17.5192C10.0582 17.1801 9.70582 17.4645 9.49505 17.6344C9.40764 17.7108 9.31121 17.7761 9.20791 17.8291C8.82581 18.0112 8.68928 18.3835 8.58967 18.6552C8.56369 18.7304 8.53376 18.8041 8.50002 18.8761C8.31282 18.7546 7.94965 18.3254 7.67897 17.8963C7.65566 17.8593 7.62638 17.8263 7.59231 17.7988C6.82393 17.1775 6.11683 16.9561 5.49129 17.141C4.38077 17.4689 3.89681 18.9459 3.54339 20.0243C3.46225 20.2921 3.36646 20.5552 3.25645 20.8124C3.07563 20.681 2.57771 20.1239 1.57252 17.766C1.45365 17.4871 1.42882 17.2673 1.50432 17.1625C1.61721 17.0054 1.99779 16.9587 2.21839 16.9765C2.23085 16.9778 2.24338 16.9783 2.25591 16.9781C2.38214 16.9724 2.50558 16.9391 2.61753 16.8805C2.72947 16.8219 2.82718 16.7394 2.90377 16.6389C3.18818 16.282 3.24463 15.7074 3.07158 14.9311C2.8454 13.9165 2.8778 12.4174 3.48329 11.5236C3.62004 11.3121 3.80072 11.1326 4.01305 10.9972C4.22539 10.8618 4.46439 10.7737 4.7138 10.7389C6.05368 10.5223 6.70632 9.6921 7.18285 9.08594C7.5441 8.62634 7.68176 8.49061 7.83656 8.53603C8.29396 8.67017 8.57446 9.08056 8.6062 9.39818C8.61948 9.53212 8.58907 9.61965 8.51549 9.6583C8.42173 9.70757 8.26906 9.75791 8.02581 9.62629C7.92494 9.57165 7.81349 9.53933 7.69903 9.53153C7.58457 9.52372 7.46977 9.54062 7.36241 9.58107C7.25656 9.62089 7.16051 9.683 7.08078 9.76321C7.00104 9.84341 6.93949 9.93983 6.90029 10.0459C6.50704 11.1129 6.9335 11.4656 7.22243 11.5809C7.569 11.7191 8.12482 11.632 9.07749 11.4661C9.83837 11.3337 10.8803 11.1523 11.2911 11.3058C11.4559 11.3582 11.6032 11.4548 11.7168 11.5851C12.0555 11.9422 12.3686 12.0483 13.4487 11.9318C14.4435 11.8247 14.8975 11.1489 15.1978 10.7017C15.2203 10.6685 15.245 10.6315 15.2702 10.595C15.2716 10.7502 15.2245 10.9019 15.1353 11.029C15.0542 11.1623 14.9533 11.2825 14.836 11.3855C14.5781 11.6156 14.5415 11.7875 14.5415 12.3015C14.5353 12.4935 14.5929 12.6821 14.7053 12.8379C14.8177 12.9937 14.9786 13.1078 15.1628 13.1624C15.3081 13.2117 15.4633 13.2247 15.6148 13.2004C15.7663 13.1761 15.9096 13.1152 16.0323 13.023C16.1593 12.9281 16.2613 12.8036 16.3294 12.6604C16.3975 12.5172 16.4296 12.3596 16.4229 12.2011C16.4186 12.1001 16.528 11.9038 16.6807 11.7925C17.0714 11.5074 17.0514 11.0211 17.0367 10.6659C17.0297 10.5595 17.0299 10.4528 17.0375 10.3464C17.4671 10.2789 17.6822 10.0104 17.8406 9.81262C17.9949 9.62005 18.1168 9.46798 18.456 9.39832C18.7361 9.34057 19.0087 9.25147 19.2688 9.13269C19.2239 9.19651 19.1711 9.26457 19.1315 9.31571C18.9854 9.50364 18.8202 9.71667 18.7382 9.96191C18.6975 10.0693 18.6905 10.1864 18.7179 10.2979C18.7453 10.4094 18.806 10.5099 18.8918 10.5861C19.3942 11.0288 20.6765 10.5657 21.0861 10.3686C21.1627 10.3317 21.2405 10.2931 21.319 10.2542C21.6935 10.0682 22.2063 9.81349 22.4213 9.89344C22.44 9.90008 22.4971 9.92166 22.5547 10.0587C22.7135 10.436 23.0184 10.6306 23.3708 10.5794C23.9456 10.4955 24.6458 9.62875 24.772 8.47195C24.8368 7.87761 25.1584 7.70416 25.8212 7.39809C26.135 7.2634 26.4358 7.10013 26.7197 6.91034C27.6287 6.27065 27.999 5.92627 27.999 5.08271C27.9994 4.89454 28.0468 4.70945 28.1369 4.54428C28.2213 4.36273 28.3262 4.13675 28.2866 3.82119C28.2683 3.7057 28.2412 3.59179 28.2055 3.48046C28.1707 3.3602 28.0993 3.11462 28.1215 3.02962C28.1499 3.01515 28.2738 2.96853 28.6311 3.01634C29.1184 3.08175 29.1097 3.24166 29.0837 3.7164C29.0646 4.06377 29.0328 4.64509 29.5915 4.87187C29.6453 4.89371 29.699 4.91457 29.7523 4.93522C30.3416 5.16346 30.6974 5.30132 30.4321 6.88723C30.0952 8.90246 30.4407 10.0915 31.5196 10.6293C32.0059 10.8716 32.4421 11.8411 32.5265 12.305C32.2953 12.1965 31.8843 11.9045 31.4872 11.3769L31.487 11.3771Z"/>
</mask>
<path d="M31.875 9.91615C31.3844 9.67164 30.8664 9.12134 31.218 7.01871C31.3798 6.05138 31.333 5.3905 31.071 4.939C30.8109 4.49076 30.4013 4.33218 30.0401 4.1922C29.9907 4.17307 29.941 4.15382 29.8913 4.13363L29.8871 4.13184C29.8621 4.07121 29.8728 3.8775 29.8792 3.75996C29.9036 3.31504 29.9543 2.38993 28.737 2.22644C28.1464 2.14722 27.7467 2.23972 27.5145 2.5094C27.2 2.87463 27.3444 3.37268 27.4399 3.70212C27.4628 3.77364 27.4814 3.84644 27.4957 3.92013C27.5062 4.00427 27.4828 4.05959 27.4139 4.2084C27.2744 4.47861 27.2016 4.77833 27.2018 5.08244C27.2018 5.48971 27.1645 5.62246 26.2609 6.25836C26.016 6.42005 25.757 6.55927 25.487 6.67433C24.835 6.97529 24.0961 7.31641 23.9796 8.38529C23.9016 9.10161 23.4948 9.66374 23.2999 9.77285C23.2966 9.76621 23.2933 9.7583 23.2892 9.74934C23.1623 9.44766 22.9638 9.24465 22.6989 9.14624C22.161 8.94642 21.5526 9.2481 20.9645 9.54016C20.8889 9.57755 20.8141 9.6148 20.7404 9.6502C20.3924 9.81652 20.0192 9.92407 19.6361 9.96848C19.6767 9.91306 19.7183 9.85832 19.7607 9.80426C19.9985 9.49786 20.3578 9.03494 20.0212 8.56518C19.6733 8.07982 19.2626 8.2629 18.9907 8.38409C18.7691 8.48923 18.5358 8.56768 18.2957 8.61778C17.6746 8.74521 17.4109 9.07425 17.2185 9.31451C17.0692 9.50085 17.0219 9.54594 16.8997 9.56114C16.1971 9.6488 16.2264 10.358 16.2403 10.6988C16.2458 10.8282 16.2568 11.0973 16.2109 11.1487C15.9066 11.3706 15.6079 11.7925 15.6265 12.2347C15.6277 12.2636 15.6218 12.2924 15.6094 12.3186C15.5969 12.3448 15.5782 12.3675 15.555 12.3848C15.5362 12.3998 15.514 12.4098 15.4904 12.4139C15.4668 12.418 15.4425 12.4161 15.4198 12.4082C15.3412 12.3817 15.3382 12.3653 15.3382 12.3015C15.3359 12.1994 15.3394 12.0973 15.3488 11.9956L15.3664 11.9801C15.5356 11.8308 15.6822 11.6576 15.8015 11.4661C16.4035 10.5485 15.8065 9.79204 15.7808 9.7603C15.7287 9.69608 15.6579 9.64966 15.5783 9.62748C15.0574 9.48185 14.7562 9.9303 14.5361 10.2577C14.2671 10.6582 13.9889 11.0724 13.3631 11.1398C12.4827 11.2346 12.4078 11.156 12.2946 11.0368C12.0976 10.8186 11.8482 10.6544 11.5699 10.5597C10.9566 10.3304 9.93187 10.5088 8.94076 10.6814C8.46263 10.7646 7.75043 10.8886 7.54078 10.847C7.53102 10.7847 7.53799 10.6216 7.64597 10.3269L7.64637 10.3273C8.0624 10.5525 8.50301 10.5655 8.88617 10.3639C9.25327 10.171 9.44491 9.78042 9.39896 9.31936C9.33999 8.72794 8.86107 8.00637 8.06061 7.77163C7.36281 7.56723 6.93449 8.11256 6.55624 8.59374C6.1171 9.15235 5.61932 9.78553 4.58657 9.95254C4.2299 10.0045 3.88833 10.1315 3.58445 10.3253C3.28057 10.5191 3.0213 10.7752 2.82381 11.0767C2.46768 11.6024 2.2413 12.3072 2.16931 13.1149C2.11089 13.7807 2.15284 14.4514 2.29376 15.1047C2.45127 15.8112 2.33221 16.0656 2.29197 16.1267C2.27889 16.1495 2.25943 16.1679 2.23599 16.1798C2.012 16.1681 1.24069 16.1698 0.859981 16.6942C0.604516 17.0461 0.59761 17.5119 0.839462 18.0791C2.06525 20.9531 2.66291 21.477 3.08565 21.6103C3.18078 21.6418 3.28167 21.6521 3.3812 21.6403C3.48072 21.6286 3.57644 21.5951 3.66159 21.5422C3.94196 21.3675 4.0771 20.9553 4.30082 20.2724C4.58238 19.4132 5.00785 18.1147 5.71713 17.9052C6.06543 17.8023 6.51089 17.9615 7.04134 18.3786C7.47152 19.0493 8.08731 19.7963 8.6499 19.6895C9.08997 19.606 9.23932 19.1986 9.33813 18.9291C9.39923 18.7624 9.46245 18.5904 9.55116 18.5478C9.7108 18.4684 9.86011 18.3698 9.99576 18.2541C10.036 18.2201 10.0781 18.1883 10.1219 18.159C10.1507 18.1697 10.1782 18.1834 10.204 18.1999C10.2567 18.2319 10.3049 18.2618 10.3501 18.2898C10.7598 18.5435 10.9876 18.669 11.6849 18.7484C11.7936 18.7609 11.8298 18.8042 11.9433 19.0573C12.0555 19.3075 12.2886 19.8281 12.9537 19.711C13.3072 19.6489 13.3958 19.7509 13.7344 20.3518L13.7961 20.461C14.3031 21.3528 15.1367 21.8024 16.2797 21.8024C16.5224 21.8014 16.7648 21.7833 17.0049 21.7481C18.0403 21.6005 18.4274 21.3416 18.6585 21.187C18.694 21.1613 18.7315 21.1383 18.7705 21.1182C18.8149 21.1182 18.859 21.126 18.9008 21.1413C19.3291 21.2613 19.6662 21.0844 19.9373 20.942C20.2511 20.7774 20.4239 20.6868 20.7592 20.8918C21.4132 21.2919 21.8655 21.1162 22.2289 20.975C22.4935 20.8722 22.7223 20.7834 23.0976 20.877C23.8131 21.0553 24.1323 20.8662 24.475 20.6003C24.7034 20.4012 24.9881 20.2781 25.2896 20.248C26.2153 20.1207 26.2365 19.2866 26.2491 18.7883C26.2654 18.1482 26.3303 18.1135 26.5526 18.0916C27.0378 18.0441 27.1145 18.1509 27.2539 18.3449C27.3997 18.5476 27.62 18.854 28.1633 18.854C28.3877 18.854 29.0706 18.854 29.3081 19.1256C29.3408 19.163 29.4402 19.2769 29.3973 19.5943C29.3347 20.0592 29.3898 20.4534 29.5612 20.7665C29.6476 20.9226 29.7784 21.0497 29.937 21.1316C30.0957 21.2135 30.275 21.2466 30.4524 21.2267C30.6298 21.2068 30.7973 21.1348 30.9338 21.0198C31.0704 20.9048 31.1698 20.752 31.2195 20.5805C31.9157 18.1726 31.5322 17.2362 31.1614 16.3305C31.0381 16.0502 30.9374 15.7606 30.8601 15.4643C30.7217 14.8883 30.6216 14.4721 29.9613 14.6083C29.768 14.6523 29.5689 14.6652 29.3715 14.6465C29.3448 14.6466 29.3185 14.6401 29.2949 14.6275C29.2714 14.6149 29.2514 14.5966 29.2367 14.5743C29.0458 14.3081 29.12 13.5281 29.2301 13.0848C29.2501 13.0238 29.2507 12.9582 29.2318 12.8969C29.2255 12.8429 29.1996 12.4713 29.5675 11.8344C29.8526 11.341 29.8828 10.7648 29.9049 10.3441L29.906 10.3225C30.0305 10.4967 30.1416 10.6801 30.2386 10.8711C30.4171 11.2146 30.6217 11.5439 30.8504 11.8562C31.3286 12.4919 32.0764 13.1389 32.6683 13.1511C32.7677 13.1563 32.867 13.1384 32.9583 13.0988C33.0497 13.0592 33.1306 12.999 33.1948 12.923C33.3435 12.7419 33.3741 12.477 33.2913 12.0893C33.1455 11.4074 32.6098 10.2822 31.875 9.91615ZM31.487 11.3771C31.2819 11.0954 31.0983 10.7986 30.9379 10.4893C30.684 10.0241 30.4647 9.62224 30.0235 9.39188C29.7599 9.25428 29.5638 9.30595 29.4457 9.37341C29.15 9.54215 29.1314 9.89457 29.11 10.3025C29.0911 10.6615 29.0678 11.1083 28.8784 11.436C28.4307 12.2111 28.4141 12.7399 28.4388 12.9718C28.3558 13.3371 28.1565 14.4333 28.5892 15.038C28.671 15.1545 28.7779 15.2511 28.902 15.3208C29.0261 15.3906 29.1643 15.4316 29.3064 15.4408C29.5465 15.4631 29.7885 15.4521 30.0256 15.4083C30.0476 15.4904 30.0704 15.5857 30.0861 15.6507C30.1726 15.9866 30.2858 16.315 30.4248 16.6327C30.7586 17.448 31.074 18.218 30.4549 20.3594C30.4495 20.3802 30.4377 20.3987 30.4211 20.4123C30.4045 20.4259 30.3841 20.4339 30.3627 20.4351C30.3425 20.4387 30.3216 20.4357 30.3033 20.4265C30.285 20.4172 30.2701 20.4023 30.261 20.3839C30.1743 20.2254 30.149 19.9893 30.188 19.701C30.2485 19.2524 30.1548 18.8824 29.9091 18.6012C29.4876 18.119 28.7553 18.0572 28.1643 18.0572C28.0295 18.0572 28.015 18.0372 27.9019 17.8797C27.657 17.5389 27.3449 17.2133 26.4759 17.2986C25.4884 17.3954 25.4665 18.2549 25.4535 18.7681C25.4377 19.3936 25.3756 19.4322 25.1821 19.4587C24.742 19.5074 24.3263 19.6856 23.9876 19.9709C23.7699 20.1398 23.6888 20.2033 23.2913 20.1037C22.6703 19.9489 22.2491 20.1126 21.9413 20.2322C21.6335 20.3517 21.4935 20.4061 21.176 20.2122C20.4549 19.7712 19.9213 20.0513 19.5681 20.2365C19.3351 20.3588 19.2294 20.4056 19.1169 20.374C18.6765 20.2506 18.4572 20.3637 18.2165 20.5246C18.0306 20.6491 17.749 20.8373 16.8933 20.9592C15.1385 21.2097 14.6501 20.3499 14.4894 20.0675L14.4291 19.9609C14.147 19.4602 13.8314 18.9001 13.1035 18.9001C13.0072 18.9005 12.911 18.9094 12.8162 18.9266C12.8021 18.9293 12.7879 18.9308 12.7735 18.931C12.7334 18.8679 12.699 18.8012 12.671 18.7318C12.5521 18.4667 12.3532 18.023 11.7756 17.9573C11.2245 17.8945 11.1101 17.8235 10.7701 17.6129C10.7229 17.5837 10.6726 17.5525 10.6173 17.5192C10.0582 17.1801 9.70582 17.4645 9.49505 17.6344C9.40764 17.7108 9.31121 17.7761 9.20791 17.8291C8.82581 18.0112 8.68928 18.3835 8.58967 18.6552C8.56369 18.7304 8.53376 18.8041 8.50002 18.8761C8.31282 18.7546 7.94965 18.3254 7.67897 17.8963C7.65566 17.8593 7.62638 17.8263 7.59231 17.7988C6.82393 17.1775 6.11683 16.9561 5.49129 17.141C4.38077 17.4689 3.89681 18.9459 3.54339 20.0243C3.46225 20.2921 3.36646 20.5552 3.25645 20.8124C3.07563 20.681 2.57771 20.1239 1.57252 17.766C1.45365 17.4871 1.42882 17.2673 1.50432 17.1625C1.61721 17.0054 1.99779 16.9587 2.21839 16.9765C2.23085 16.9778 2.24338 16.9783 2.25591 16.9781C2.38214 16.9724 2.50558 16.9391 2.61753 16.8805C2.72947 16.8219 2.82718 16.7394 2.90377 16.6389C3.18818 16.282 3.24463 15.7074 3.07158 14.9311C2.8454 13.9165 2.8778 12.4174 3.48329 11.5236C3.62004 11.3121 3.80072 11.1326 4.01305 10.9972C4.22539 10.8618 4.46439 10.7737 4.7138 10.7389C6.05368 10.5223 6.70632 9.6921 7.18285 9.08594C7.5441 8.62634 7.68176 8.49061 7.83656 8.53603C8.29396 8.67017 8.57446 9.08056 8.6062 9.39818C8.61948 9.53212 8.58907 9.61965 8.51549 9.6583C8.42173 9.70757 8.26906 9.75791 8.02581 9.62629C7.92494 9.57165 7.81349 9.53933 7.69903 9.53153C7.58457 9.52372 7.46977 9.54062 7.36241 9.58107C7.25656 9.62089 7.16051 9.683 7.08078 9.76321C7.00104 9.84341 6.93949 9.93983 6.90029 10.0459C6.50704 11.1129 6.9335 11.4656 7.22243 11.5809C7.569 11.7191 8.12482 11.632 9.07749 11.4661C9.83837 11.3337 10.8803 11.1523 11.2911 11.3058C11.4559 11.3582 11.6032 11.4548 11.7168 11.5851C12.0555 11.9422 12.3686 12.0483 13.4487 11.9318C14.4435 11.8247 14.8975 11.1489 15.1978 10.7017C15.2203 10.6685 15.245 10.6315 15.2702 10.595C15.2716 10.7502 15.2245 10.9019 15.1353 11.029C15.0542 11.1623 14.9533 11.2825 14.836 11.3855C14.5781 11.6156 14.5415 11.7875 14.5415 12.3015C14.5353 12.4935 14.5929 12.6821 14.7053 12.8379C14.8177 12.9937 14.9786 13.1078 15.1628 13.1624C15.3081 13.2117 15.4633 13.2247 15.6148 13.2004C15.7663 13.1761 15.9096 13.1152 16.0323 13.023C16.1593 12.9281 16.2613 12.8036 16.3294 12.6604C16.3975 12.5172 16.4296 12.3596 16.4229 12.2011C16.4186 12.1001 16.528 11.9038 16.6807 11.7925C17.0714 11.5074 17.0514 11.0211 17.0367 10.6659C17.0297 10.5595 17.0299 10.4528 17.0375 10.3464C17.4671 10.2789 17.6822 10.0104 17.8406 9.81262C17.9949 9.62005 18.1168 9.46798 18.456 9.39832C18.7361 9.34057 19.0087 9.25147 19.2688 9.13269C19.2239 9.19651 19.1711 9.26457 19.1315 9.31571C18.9854 9.50364 18.8202 9.71667 18.7382 9.96191C18.6975 10.0693 18.6905 10.1864 18.7179 10.2979C18.7453 10.4094 18.806 10.5099 18.8918 10.5861C19.3942 11.0288 20.6765 10.5657 21.0861 10.3686C21.1627 10.3317 21.2405 10.2931 21.319 10.2542C21.6935 10.0682 22.2063 9.81349 22.4213 9.89344C22.44 9.90008 22.4971 9.92166 22.5547 10.0587C22.7135 10.436 23.0184 10.6306 23.3708 10.5794C23.9456 10.4955 24.6458 9.62875 24.772 8.47195C24.8368 7.87761 25.1584 7.70416 25.8212 7.39809C26.135 7.2634 26.4358 7.10013 26.7197 6.91034C27.6287 6.27065 27.999 5.92627 27.999 5.08271C27.9994 4.89454 28.0468 4.70945 28.1369 4.54428C28.2213 4.36273 28.3262 4.13675 28.2866 3.82119C28.2683 3.7057 28.2412 3.59179 28.2055 3.48046C28.1707 3.3602 28.0993 3.11462 28.1215 3.02962C28.1499 3.01515 28.2738 2.96853 28.6311 3.01634C29.1184 3.08175 29.1097 3.24166 29.0837 3.7164C29.0646 4.06377 29.0328 4.64509 29.5915 4.87187C29.6453 4.89371 29.699 4.91457 29.7523 4.93522C30.3416 5.16346 30.6974 5.30132 30.4321 6.88723C30.0952 8.90246 30.4407 10.0915 31.5196 10.6293C32.0059 10.8716 32.4421 11.8411 32.5265 12.305C32.2953 12.1965 31.8843 11.9045 31.4872 11.3769L31.487 11.3771Z" stroke="black" stroke-width="0.8" mask="url(#path-1-inside-1_66_38)"/>
</g></symbol><symbol id="material" viewBox="0 0 26 25"><g fill="none">
<path d="M21.2281 15.3075L22.8177 18.0607L22.2507 18.388C22.1973 18.4187 22.1533 18.4634 22.1234 18.5173C22.0935 18.5712 22.0789 18.6322 22.0811 18.6938C22.0832 18.7554 22.102 18.8152 22.1356 18.8669C22.1691 18.9186 22.2161 18.9601 22.2715 18.987L23.6507 19.6597C23.697 19.6824 23.7479 19.6941 23.7995 19.6941C23.8591 19.6941 23.9176 19.6784 23.9692 19.6486C24.0173 19.6209 24.0579 19.5817 24.0874 19.5346C24.1168 19.4874 24.1343 19.4338 24.1381 19.3783L24.2452 17.8476C24.2496 17.7861 24.2371 17.7246 24.2092 17.6697C24.1812 17.6148 24.1388 17.5686 24.0865 17.536C24.0343 17.5033 23.9741 17.4855 23.9125 17.4844C23.8509 17.4833 23.7902 17.4991 23.7368 17.5299L23.1698 17.8574L21.5802 15.1042C21.3124 14.6404 20.8329 14.3635 20.2973 14.3635C19.7618 14.3635 19.2822 14.6404 19.0144 15.1042L18.1002 16.6877C18.0441 16.7849 18.0774 16.9093 18.1746 16.9654C18.2719 17.0215 18.3962 16.9882 18.4523 16.891L19.3665 15.3075C19.5608 14.971 19.9088 14.7701 20.2973 14.7701C20.6859 14.7701 21.0338 14.971 21.2281 15.3075ZM23.8308 17.9452L23.7395 19.2506L22.5633 18.677L23.197 18.3112L23.1971 18.3112L23.1971 18.3112L23.8308 17.9452ZM25.2561 21.4711L24.7523 20.5984C24.6962 20.5011 24.5718 20.4678 24.4746 20.524C24.3774 20.5801 24.344 20.7044 24.4002 20.8017L24.904 21.6744C25.0983 22.0109 25.0983 22.4127 24.904 22.7491C24.7098 23.0856 24.3618 23.2865 23.9732 23.2865H21.635V22.6318C21.635 22.506 21.566 22.3911 21.4549 22.3321C21.3438 22.273 21.21 22.28 21.1057 22.3504L19.8336 23.2084C19.7875 23.2395 19.7497 23.2814 19.7236 23.3304C19.6975 23.3795 19.6839 23.4342 19.6839 23.4898C19.6839 23.5454 19.6975 23.6001 19.7236 23.6492C19.7497 23.6983 19.7875 23.7402 19.8336 23.7712L21.1057 24.6294C21.1618 24.6673 21.2278 24.6876 21.2955 24.6876C21.3511 24.6876 21.4058 24.6739 21.4549 24.6477C21.5093 24.6189 21.5549 24.5757 21.5866 24.5229C21.6183 24.4701 21.6351 24.4096 21.635 24.348V23.6931H23.9732C24.5088 23.6931 24.9884 23.4162 25.2561 22.9525C25.5239 22.4887 25.5239 21.9349 25.2561 21.4711ZM21.2284 24.2217L20.1435 23.4898L21.2284 22.7581V24.2217ZM18.561 23.2865H16.6214C16.2329 23.2865 15.8849 23.0856 15.6906 22.7491C15.4964 22.4127 15.4964 22.0109 15.6906 21.6744L16.821 19.7165L17.3881 20.0439C17.4397 20.0737 17.4982 20.0894 17.5578 20.0894C17.6203 20.0894 17.6826 20.0721 17.7377 20.0377C17.79 20.0051 17.8324 19.9589 17.8603 19.904C17.8883 19.8491 17.9008 19.7877 17.8964 19.7262L17.7894 18.1954C17.7856 18.14 17.7682 18.0863 17.7387 18.0392C17.7093 17.992 17.6687 17.9529 17.6205 17.9251C17.5724 17.8973 17.5182 17.8817 17.4627 17.8798C17.4071 17.8778 17.352 17.8896 17.302 17.914L15.9227 18.5866C15.8673 18.6136 15.8203 18.6551 15.7867 18.7068C15.7532 18.7584 15.7343 18.8183 15.7322 18.8798C15.73 18.9414 15.7446 19.0024 15.7745 19.0563C15.8043 19.1102 15.8483 19.1549 15.9017 19.1857L16.4689 19.5133L15.3385 21.4711C15.0708 21.9349 15.0708 22.4887 15.3385 22.9525C15.6063 23.4162 16.0859 23.6931 16.6214 23.6931H18.561C18.6733 23.6931 18.7643 23.6021 18.7643 23.4898C18.7643 23.3776 18.6733 23.2865 18.561 23.2865ZM17.3907 18.3231L17.482 19.6286L16.8483 19.2628L16.8482 19.2628L16.8481 19.2628L16.2144 18.8967L17.3907 18.3231Z" stroke="black" stroke-width="0.4"/>
<path d="M14.0925 22.1539L13.3361 22.908C13.2032 23.0404 12.987 23.0404 12.8541 22.908L11.9892 22.0454C11.698 21.7551 11.2243 21.7551 10.9331 22.0454L10.0677 22.9081C9.93485 23.0405 9.71869 23.0405 9.58583 22.9081L8.71986 22.0452C8.42873 21.755 7.95506 21.7551 7.66397 22.0452L6.79832 22.9082C6.66551 23.0405 6.44937 23.0406 6.31652 22.9082L5.44981 22.0449C5.15878 21.7549 4.68523 21.7549 4.3942 22.0449L3.52794 22.9078C3.39493 23.0403 3.17866 23.0401 3.04586 22.9074L2.04998 21.9123C1.91701 21.7794 1.91681 21.563 2.04953 21.4299L2.91135 20.5655C3.20163 20.2744 3.20164 19.8006 2.91137 19.5095L2.04873 18.6442C1.91628 18.5113 1.91627 18.2952 2.04871 18.1623L2.91146 17.2967C3.20167 17.0056 3.20165 16.5319 2.91142 16.2408L2.04874 15.3754C1.91629 15.2426 1.91628 15.0264 2.04873 14.8935L2.91146 14.0281C3.20167 13.737 3.20168 13.2633 2.91147 12.9721L2.04876 12.1067C1.91631 11.9738 1.91632 11.7576 2.04879 11.6247L2.9113 10.7598C3.20161 10.4686 3.20164 9.99487 2.91137 9.70369L2.04866 8.83828C1.91623 8.70545 1.91621 8.48928 2.04861 8.35643L2.91158 7.49047C3.2017 7.19932 3.20167 6.72566 2.91149 6.43457L2.04857 5.56893C1.91619 5.43612 1.91614 5.21998 2.04849 5.08712L2.91187 4.22042C3.2018 3.92938 3.2018 3.45583 2.91187 3.1648L2.04894 2.29854C1.91644 2.16553 1.9166 1.94926 2.04932 1.81645L3.04579 0.819238C3.17865 0.686279 3.39505 0.686075 3.52816 0.818794L4.39253 1.68062C4.53813 1.82578 4.72932 1.89835 4.92058 1.89834C5.11177 1.89833 5.30303 1.82577 5.44859 1.68064L6.31389 0.817998C6.44674 0.685538 6.66291 0.685548 6.79578 0.817971L7.66132 1.68073C7.95248 1.97094 8.4262 1.97092 8.71731 1.68068L9.58263 0.818008C9.71549 0.685548 9.93166 0.685557 10.0645 0.817998L10.93 1.68073C11.0756 1.82585 11.2667 1.89841 11.458 1.89839C11.6492 1.89837 11.8404 1.82582 11.986 1.68074L12.8514 0.818026C12.9843 0.685575 13.2005 0.685584 13.3333 0.818072L14.1983 1.68058C14.4895 1.9709 14.9632 1.97092 15.2544 1.68064L16.1198 0.817934C16.2526 0.685511 16.4688 0.685492 16.6016 0.817897L17.4676 1.68087C17.6132 1.82593 17.8043 1.89845 17.9955 1.89844C18.1867 1.89842 18.378 1.82587 18.5235 1.68077L19.3891 0.81786C19.5219 0.685465 19.7381 0.685428 19.8709 0.817767L20.7376 1.68115C21.0287 1.97108 21.5022 1.97108 21.7933 1.68115L22.6592 0.818517C22.7923 0.685918 23.0087 0.686158 23.1415 0.819071L24.138 1.81629C24.2707 1.94915 24.2708 2.16546 24.1382 2.29848L23.2761 3.16314C22.9858 3.45429 22.9858 3.92803 23.2761 4.2192L24.1387 5.0845C24.2712 5.21734 24.2712 5.43352 24.1388 5.56638L23.276 6.43193C22.9858 6.72308 22.9858 7.19679 23.2761 7.48791L24.1387 8.35322C24.2712 8.48608 24.2712 8.70226 24.1387 8.83512L23.276 9.70058C22.9858 9.99171 22.9858 10.4654 23.276 10.7566L24.1387 11.622C24.2712 11.7549 24.2711 11.9711 24.1387 12.1039L23.2762 12.9689C22.9859 13.2601 22.9858 13.7338 23.2761 14.025L24.1388 14.8904C24.2713 15.0232 24.2713 15.2394 24.1389 15.3722L23.2572 16.2569C23.178 16.3365 23.1782 16.4652 23.2577 16.5444C23.3373 16.6237 23.466 16.6235 23.5452 16.5439L24.4269 15.6593C24.717 15.3681 24.717 14.8944 24.4268 14.6033L23.5641 13.7379C23.4316 13.6051 23.4316 13.3889 23.5641 13.256L24.4266 12.391C24.7169 12.0999 24.7169 11.6262 24.4267 11.335L23.564 10.4695C23.4315 10.3367 23.4316 10.1205 23.564 9.98765L24.4267 9.1222C24.7169 8.83105 24.7169 8.35732 24.4267 8.06618L23.564 7.20087C23.4316 7.06802 23.4316 6.85185 23.564 6.71898L24.4267 5.85343C24.7169 5.56229 24.7169 5.08858 24.4267 4.79744L23.5641 3.93214C23.4316 3.79926 23.4316 3.58309 23.5641 3.45022L24.4262 2.58557C24.7168 2.29409 24.7165 1.82006 24.4256 1.5289L23.4291 0.531683C23.1381 0.240428 22.664 0.239873 22.3723 0.530471L21.5063 1.39311C21.3735 1.52541 21.1574 1.52541 21.0246 1.39311L20.1579 0.529713C19.8668 0.239698 19.3932 0.239781 19.1021 0.529898L18.2365 1.39282C18.1036 1.52524 17.8875 1.52525 17.7546 1.39287L16.8887 0.529898C16.5975 0.239753 16.1238 0.2398 15.8327 0.529981L14.9673 1.39269C14.8345 1.52515 14.6183 1.52514 14.4854 1.39266L13.6204 0.530157C13.3293 0.239855 12.8556 0.239818 12.5644 0.530074L11.6989 1.39277C11.5661 1.52521 11.3499 1.52521 11.217 1.39277L10.3516 0.530046C10.0604 0.239808 9.58671 0.239827 9.29558 0.530074L8.43027 1.39275C8.29741 1.52519 8.08124 1.52519 7.94838 1.39277L7.08284 0.530009C6.79168 0.239799 6.31797 0.239818 6.02685 0.530055L5.16155 1.3927C5.02868 1.52516 4.81249 1.52515 4.67963 1.39268L3.81526 0.530869C3.52356 0.240022 3.04937 0.240456 2.75819 0.53185L1.76171 1.52906C1.47089 1.8201 1.47052 2.29401 1.76089 2.5855L2.62382 3.45175C2.75612 3.58456 2.75612 3.80066 2.62382 3.93346L1.76043 4.80018C1.47041 5.09131 1.47049 5.56494 1.76061 5.85598L2.62353 6.72163C2.75595 6.85447 2.75596 7.07062 2.62357 7.20348L1.76061 8.06944C1.47047 8.36058 1.47051 8.83425 1.7607 9.12535L2.62342 9.99076C2.75588 10.1236 2.75586 10.3398 2.62339 10.4727L1.76088 11.3377C1.47059 11.6288 1.47055 12.1025 1.76079 12.3937L2.62351 13.2592C2.75594 13.392 2.75594 13.6082 2.62351 13.7411L1.76078 14.6065C1.47054 14.8977 1.47056 15.3714 1.7608 15.6625L2.62348 16.5278C2.75592 16.6607 2.75593 16.8769 2.6235 17.0097L1.76075 17.8753C1.47053 18.1664 1.47055 18.6401 1.76079 18.9313L2.62343 19.7965C2.75589 19.9294 2.75588 20.1456 2.62341 20.2785L1.7616 21.1428C1.47075 21.4345 1.4712 21.9087 1.76257 22.1999L2.75845 23.195C2.90413 23.3406 3.09558 23.4134 3.28709 23.4134C3.47817 23.4134 3.66931 23.3409 3.8149 23.1958L4.68114 22.3329C4.81395 22.2006 5.03005 22.2006 5.16285 22.3329L6.02957 23.1963C6.17513 23.3413 6.36622 23.4138 6.55738 23.4138C6.74858 23.4138 6.93984 23.3412 7.08537 23.1961L7.95101 22.3332C8.08385 22.2008 8.30001 22.2008 8.43286 22.3332L9.29882 23.1961C9.44439 23.3412 9.63553 23.4137 9.82673 23.4137C10.0179 23.4137 10.2092 23.3411 10.3547 23.1961L11.2201 22.3333C11.353 22.2009 11.5692 22.2009 11.7021 22.3334L12.5671 23.1959C12.8582 23.4862 13.3319 23.4862 13.6231 23.196L14.3795 22.4419C14.4591 22.3627 14.4593 22.2339 14.38 22.1544C14.3008 22.0749 14.172 22.0747 14.0925 22.1539Z" stroke="black" stroke-width="0.4"/>
<path d="M15.5681 13.5158C15.7034 13.5333 15.8396 13.5421 15.976 13.5421C16.402 13.5421 16.8154 13.4587 17.2046 13.294C17.5805 13.135 17.918 12.9075 18.2078 12.6177C18.4976 12.3279 18.7252 11.9904 18.8841 11.6145C19.0488 11.2252 19.1322 10.8119 19.1322 10.3859C19.1322 9.95986 19.0488 9.54649 18.8841 9.15724C18.7252 8.78137 18.4976 8.44384 18.2078 8.15404C17.918 7.86424 17.5805 7.63669 17.2046 7.47771C16.8536 7.32924 16.483 7.24677 16.1012 7.232C16.1531 7.00352 16.1793 6.76995 16.1793 6.53565C16.1793 6.10964 16.0958 5.69628 15.9312 5.30703C15.7722 4.93116 15.5447 4.59363 15.2548 4.30384C14.965 4.01404 14.6275 3.78649 14.2516 3.62751C13.8624 3.46287 13.449 3.37939 13.023 3.37939C12.597 3.37939 12.1836 3.46288 11.7944 3.62751C11.4185 3.78649 11.081 4.01404 10.7912 4.30384C10.5014 4.59364 10.2739 4.93117 10.1149 5.30704C9.95025 5.69629 9.86677 6.10965 9.86677 6.53566C9.86677 6.77009 9.89298 7.00329 9.9449 7.23201C9.56309 7.24678 9.19244 7.32926 8.84144 7.47772C8.46557 7.6367 8.12806 7.86425 7.83825 8.15405C7.54846 8.44385 7.32091 8.78138 7.16193 9.15725C6.99729 9.5465 6.91382 9.95987 6.91382 10.3859C6.91382 10.8119 6.9973 11.2252 7.16193 11.6145C7.3209 11.9904 7.54845 12.3279 7.83825 12.6177C8.12806 12.9075 8.46558 13.135 8.84144 13.294C9.23069 13.4587 9.64406 13.5421 10.0701 13.5421C10.1917 13.5421 10.3137 13.5351 10.4342 13.5213C10.5934 13.6855 10.7623 13.8208 10.9403 13.9262C11.3162 14.1487 11.6683 14.2212 11.9677 14.2212C12.1671 14.2212 12.3431 14.189 12.487 14.1476C12.6039 14.1139 12.7075 14.0721 12.7957 14.0298V18.7085L11.7286 17.9523C11.7567 17.7959 11.7864 17.527 11.7443 17.2074C11.7056 16.9137 11.6145 16.636 11.4734 16.382C11.298 16.0663 11.0455 15.7882 10.7229 15.5554C10.4315 15.3451 10.0755 15.1815 9.66484 15.0692C9.34189 14.9808 8.98404 14.9237 8.60125 14.8993C7.95269 14.858 7.45895 14.9243 7.43826 14.9272C7.411 14.9309 7.38479 14.9402 7.36121 14.9543C7.33763 14.9685 7.31718 14.9873 7.30108 15.0096C7.28498 15.0319 7.27358 15.0573 7.26757 15.0841C7.26155 15.111 7.26105 15.1387 7.26609 15.1658C7.26991 15.1863 7.36255 15.6758 7.60621 16.2783C7.75002 16.6339 7.91707 16.9555 8.10273 17.2341C8.33879 17.5884 8.60626 17.8747 8.89773 18.085C9.22032 18.3177 9.56382 18.4697 9.91873 18.5366C10.0586 18.563 10.2006 18.5762 10.3429 18.5762C10.4907 18.5762 10.6393 18.562 10.7875 18.5335C11.1058 18.4724 11.3525 18.3585 11.4916 18.2826L12.7957 19.2068V20.4779C12.7957 20.5902 12.8868 20.6812 12.999 20.6812C13.1113 20.6812 13.2023 20.5902 13.2023 20.4779V14.0298C13.2906 14.0721 13.3942 14.1139 13.5111 14.1476C13.655 14.189 13.831 14.2212 14.0304 14.2212C14.3297 14.2212 14.6819 14.1487 15.0578 13.9262C15.2357 13.8208 15.407 13.683 15.5681 13.5158ZM10.6946 18.1372C10.1501 18.2372 9.62552 18.1087 9.13563 17.7552C8.56177 17.3412 8.19385 16.6448 7.98625 16.1335C7.85114 15.8008 7.76443 15.5006 7.71573 15.3088C7.91311 15.2946 8.22534 15.2822 8.58368 15.3056C9.13433 15.3414 9.91117 15.4711 10.485 15.8851C10.9749 16.2386 11.2622 16.6959 11.339 17.2442C11.3625 17.4121 11.3619 17.5641 11.3527 17.6858L9.39259 16.2968C9.30098 16.2319 9.17409 16.2535 9.10918 16.3451C9.04426 16.4367 9.0659 16.5636 9.1575 16.6285L11.1119 18.0135C11.0002 18.0599 10.8584 18.1072 10.6946 18.1372ZM10.07 13.1355C8.55388 13.1355 7.32039 11.902 7.32039 10.3859C7.32039 8.86968 8.55388 7.63618 10.07 7.63618C10.0944 7.63618 10.1209 7.63797 10.149 7.63987C10.1668 7.64108 10.1847 7.64228 10.2027 7.64315C10.2355 7.64474 10.2683 7.63834 10.2981 7.6245C10.3279 7.61066 10.3539 7.5898 10.3738 7.5637C10.3938 7.53762 10.4072 7.50708 10.4128 7.47471C10.4183 7.44234 10.416 7.40909 10.406 7.37782C10.318 7.10426 10.2733 6.8209 10.2733 6.53565C10.2733 5.01948 11.5068 3.78598 13.023 3.78598C14.5392 3.78598 15.7727 5.01948 15.7727 6.53565C15.7727 6.82077 15.7281 7.10413 15.6401 7.37785C15.63 7.40912 15.6277 7.44236 15.6333 7.47473C15.6389 7.5071 15.6523 7.53762 15.6722 7.5637C15.6922 7.58977 15.7182 7.61062 15.748 7.62446C15.7778 7.63829 15.8105 7.6447 15.8433 7.64314C15.8613 7.64228 15.8792 7.64107 15.8971 7.63986C15.9251 7.63797 15.9516 7.63617 15.976 7.63617C17.4922 7.63617 18.7257 8.86967 18.7257 10.3858C18.7257 11.902 17.4922 13.1355 15.976 13.1355C15.945 13.1355 15.9141 13.1349 15.8831 13.1338C16.3476 12.4822 16.5536 11.7642 16.5635 11.7293C16.5709 11.7028 16.5729 11.6751 16.5694 11.6478C16.5658 11.6205 16.5567 11.5943 16.5427 11.5706C16.5287 11.5469 16.51 11.5263 16.4878 11.5101C16.4656 11.4939 16.4404 11.4823 16.4136 11.4761C16.3614 11.464 15.2219 11.2076 14.2341 11.5296C14.1633 11.083 13.9777 10.6089 13.6802 10.116C13.4159 9.67809 13.1611 9.39217 13.1504 9.38021C13.1313 9.35894 13.108 9.34192 13.0819 9.33027C13.0558 9.31861 13.0276 9.31259 12.999 9.31259C12.9705 9.31259 12.9422 9.31861 12.9161 9.33027C12.89 9.34192 12.8667 9.35894 12.8476 9.38021C12.8369 9.39217 12.5821 9.67808 12.3178 10.116C12.0203 10.6089 11.8347 11.083 11.764 11.5296C10.7762 11.2076 9.63667 11.464 9.58452 11.4761C9.55772 11.4823 9.53246 11.4939 9.51025 11.5101C9.48805 11.5263 9.46938 11.5469 9.45537 11.5706C9.44135 11.5943 9.43229 11.6205 9.42872 11.6478C9.42515 11.6751 9.42716 11.7028 9.43462 11.7293C9.43912 11.7453 9.54767 12.1263 9.7834 12.5849C9.8871 12.7866 9.99784 12.9701 10.1152 13.1351C10.1001 13.1354 10.0851 13.1355 10.07 13.1355ZM14.8506 13.5763C14.4534 13.8115 14.0458 13.8737 13.6391 13.7612C13.3337 13.6768 13.1387 13.5202 13.1298 13.5129C13.1296 13.5128 13.1294 13.5126 13.1292 13.5125C13.1259 13.5097 13.1225 13.5071 13.1191 13.5046C13.0473 13.4509 12.9507 13.4509 12.879 13.5046C12.8755 13.5071 12.8722 13.5097 12.8689 13.5125C12.8687 13.5126 12.8685 13.5128 12.8683 13.5129C12.8594 13.5202 12.6643 13.6768 12.359 13.7613C11.9523 13.8737 11.5447 13.8115 11.1474 13.5763C10.9687 13.4705 10.8095 13.3314 10.6689 13.1761C10.6655 13.1721 10.6621 13.1683 10.6584 13.1646C10.2577 12.7169 10.0102 12.139 9.89763 11.8323C10.3002 11.771 11.1728 11.6911 11.854 11.9996C11.9152 12.0273 11.9861 12.023 12.0435 11.9881C12.1009 11.9532 12.1373 11.8922 12.1409 11.8251C12.1844 11.0002 12.7283 10.1925 12.9992 9.83837C13.2702 10.192 13.8136 10.9982 13.8572 11.8251C13.8607 11.8922 13.8972 11.9532 13.9546 11.9881C14.012 12.023 14.0829 12.0273 14.1441 11.9996C14.8234 11.6919 15.6974 11.7716 16.1004 11.8325C15.9881 12.1391 15.741 12.7162 15.3404 13.1638C15.1855 13.3368 15.0207 13.4756 14.8506 13.5763Z" stroke="black" stroke-width="0.4"/>
</g></symbol><symbol id="phone" viewBox="0 0 15 18"><g fill="none">
<g clip-path="url(#clip0_27_33)">
<path d="M7.50007 1.45342H7.5C6.00675 1.45342 4.54704 1.89622 3.30545 2.72582C2.06386 3.55543 1.09615 4.73458 0.524713 6.11416C-0.0467287 7.49374 -0.196244 9.01179 0.0950745 10.4763C0.386393 11.9409 1.10546 13.2862 2.16135 14.3421C3.21723 15.398 4.56251 16.117 6.02707 16.4083C7.49163 16.6997 9.00968 16.5501 10.3893 15.9787C11.7688 15.4073 12.948 14.4396 13.7776 13.198C14.6072 11.9564 15.05 10.4967 15.05 9.00342V9.00335C15.0474 7.00178 14.2511 5.08293 12.8358 3.6676C11.4205 2.25228 9.50164 1.45601 7.50007 1.45342ZM7.49994 16.048C6.10668 16.048 4.7447 15.6348 3.58624 14.8608C2.42776 14.0867 1.52483 12.9865 0.991646 11.6993C0.458458 10.412 0.318951 8.9956 0.590769 7.62908C0.862586 6.26257 1.53352 5.00734 2.51872 4.02214C3.50393 3.03693 4.75915 2.366 6.12567 2.09418C7.49219 1.82237 8.90862 1.96187 10.1959 2.49506C11.4831 3.02825 12.5833 3.93117 13.3574 5.08965C14.1314 6.24811 14.5446 7.61009 14.5446 9.00336C14.5425 10.8711 13.7996 12.6617 12.4789 13.9823C11.1582 15.303 9.36765 16.0459 7.49994 16.048Z" fill="#4E4E4E" stroke="#4E4E4E" stroke-width="0.1"/>
<path d="M12.3625 11.3938C12.3566 11.3471 12.3377 11.3031 12.3081 11.2667C12.2784 11.2301 12.239 11.2027 12.1944 11.1875L12.1944 11.1875L5.43919 4.42594C5.42442 4.38178 5.39773 4.34256 5.36207 4.3126C5.3264 4.28264 5.28313 4.26311 5.23705 4.2562L5.23714 4.25564H5.22963C5.22972 4.25564 5.22913 4.2556 5.22707 4.25546C5.22528 4.25534 5.22237 4.25514 5.21783 4.25482C5.20968 4.25425 5.19846 4.25349 5.18444 4.25277C5.1564 4.25134 5.11736 4.25007 5.06866 4.25071C4.97128 4.25198 4.83541 4.26086 4.67143 4.29114C4.34332 4.35171 3.90318 4.49786 3.43425 4.83928L3.43414 4.83911L3.43076 4.84207L3.41779 4.85342L3.41772 4.85334L3.41548 4.85557C3.13106 5.13795 2.91262 5.47974 2.77582 5.85646C2.63928 6.23245 2.58742 6.63394 2.62395 7.03227V7.05429H2.62309L2.6248 7.06345C2.64352 7.16386 3.09549 9.44384 5.13914 11.4875C7.18275 13.5311 9.45458 13.9831 9.55506 14.0018L9.5549 14.0027H9.56422H9.79232C10.158 14.0109 10.5215 13.9445 10.8606 13.8073C11.1999 13.67 11.5075 13.4649 11.7647 13.2046L11.765 13.2049L11.7691 13.1994L11.7788 13.1864L11.779 13.1862C12.4625 12.2644 12.3687 11.4404 12.3625 11.3938ZM12.3625 11.3938C12.3625 11.3939 12.3625 11.3939 12.3625 11.394L12.3129 11.4002L12.3624 11.3935C12.3624 11.3936 12.3624 11.3937 12.3625 11.3938ZM5.48867 11.1296L5.48888 11.1299C6.63352 12.2816 8.06891 13.1016 9.64238 13.5027C9.95923 13.5305 10.2784 13.4898 10.5782 13.3835C10.8781 13.2772 11.1517 13.1076 11.3803 12.8863C11.6616 12.5197 11.8294 12.0789 11.8632 11.6184L9.80064 10.9142L9.47755 11.4613L9.47604 11.4639L9.47597 11.4638C9.41013 11.5616 9.32327 11.6435 9.22174 11.7034C9.12046 11.7631 9.00713 11.7995 8.89001 11.81C8.88972 11.81 8.88944 11.81 8.88915 11.81L8.88476 11.7602L5.48867 11.1296ZM5.48867 11.1296C4.33885 9.98605 3.51908 8.55329 3.11583 6.98258C3.08807 6.66574 3.1287 6.34662 3.23499 6.04682C3.34132 5.74692 3.51086 5.47339 3.73211 5.24476C4.10275 4.96273 4.54736 4.79501 5.01142 4.76175L5.71561 6.82425L5.17028 7.14414L5.17023 7.14406M5.48867 11.1296L5.17023 7.14406M5.17023 7.14406L5.16782 7.14568M5.17023 7.14406L5.16782 7.14568M5.16782 7.14568C5.06941 7.21136 4.98714 7.29846 4.92715 7.40043M5.16782 7.14568L4.92715 7.40043M4.92715 7.40043C4.8674 7.50202 4.8313 7.61576 4.82153 7.7332L4.92715 7.40043ZM6.25308 6.84978L5.43921 4.42601L9.50584 10.4954L9.46275 10.47L9.46274 10.47L9.03835 11.1913C9.01002 11.2248 8.97504 11.252 8.9356 11.2713C8.89503 11.2911 8.85068 11.302 8.80554 11.3032L8.80554 11.3031L8.8015 11.3035C8.54338 11.3317 7.89805 11.2088 6.65147 9.96218C5.40461 8.71531 5.28238 8.06883 5.31491 7.81303L5.31523 7.81307L5.3153 7.80734C5.31586 7.76264 5.32588 7.71856 5.34471 7.67801C5.36292 7.63878 5.38898 7.60371 5.42126 7.57496L6.14171 7.14945C6.14178 7.14941 6.14185 7.14937 6.14192 7.14933C6.19231 7.12009 6.23096 7.07424 6.25125 7.01963C6.27155 6.96503 6.27222 6.90507 6.25317 6.85003C6.25314 6.84995 6.25311 6.84986 6.25308 6.84978Z" fill="#4E4E4E" stroke="#4E4E4E" stroke-width="0.1"/>
</g>

</g></symbol><symbol id="search" viewBox="0 0 22 22"><g fill="none">
<path d="M20.334 19.6549L14.9902 14.2811C16.3124 12.7748 16.9971 10.8134 16.8994 8.81147C16.8017 6.80955 15.9294 4.92405 14.4669 3.5536C13.0043 2.18314 11.0662 1.43512 9.06212 1.46769C7.05808 1.50025 5.14524 2.31085 3.72799 3.7281C2.31073 5.14536 1.50014 7.05819 1.46757 9.06223C1.43501 11.0663 2.18302 13.0044 3.55348 14.467C4.92394 15.9295 6.80943 16.8019 8.81135 16.8995C10.8133 16.9972 12.7747 16.3125 14.281 14.9903L19.6548 20.3541C19.6996 20.4019 19.7538 20.4399 19.8139 20.466C19.874 20.492 19.9388 20.5054 20.0044 20.5054C20.0699 20.5054 20.1347 20.492 20.1948 20.466C20.255 20.4399 20.3091 20.4019 20.354 20.3541C20.4005 20.3079 20.437 20.2526 20.4614 20.1918C20.4857 20.1309 20.4973 20.0657 20.4954 20.0002C20.4935 19.9346 20.4782 19.8702 20.4505 19.8108C20.4227 19.7514 20.3831 19.6983 20.334 19.6549ZM9.19695 15.9092C7.87336 15.9092 6.57948 15.5168 5.47896 14.7814C4.37843 14.0461 3.52067 13.0009 3.01415 11.778C2.50764 10.5552 2.37511 9.20962 2.63333 7.91146C2.89155 6.61329 3.52892 5.42086 4.46484 4.48493C5.40076 3.54901 6.5932 2.91164 7.89136 2.65342C9.18953 2.3952 10.5351 2.52773 11.7579 3.03425C12.9808 3.54076 14.026 4.39852 14.7613 5.49905C15.4967 6.59958 15.8892 7.89345 15.8892 9.21704C15.8865 10.9911 15.1806 12.6918 13.9261 13.9462C12.6717 15.2007 10.971 15.9066 9.19695 15.9092Z" fill="currentColor"/>
</g></symbol><symbol id="star" viewBox="0 0 12 11"><g fill="none">
<path d="M6 1.61803L6.87156 4.30041L6.98381 4.6459H7.34708H10.1675L7.88573 6.3037L7.59184 6.51722L7.7041 6.86271L8.57565 9.54508L6.29389 7.88729L6 7.67376L5.70611 7.88729L3.42435 9.54508L4.2959 6.86271L4.40816 6.51722L4.11426 6.3037L1.8325 4.6459H4.65292H5.01619L5.12844 4.30041L6 1.61803Z" stroke="#BDBDBD"/>
</g></symbol><symbol id="triangle" viewBox="0 0 8 4"><g fill="none">
<path d="M4 4L0.102887 0.249999L7.89711 0.25L4 4Z" fill="black"/>
</g></symbol><symbol id="user" viewBox="0 0 22 22"><g fill="none">
<g clip-path="url(#clip0_29_155)">
<path d="M11 0C4.9346 0 0 4.9346 0 11C0 13.6565 0.946733 16.0959 2.52047 17.9989C2.5245 18.0044 2.52487 18.0114 2.52927 18.0165C3.66557 19.3868 5.09263 20.4373 6.68287 21.116C6.7012 21.1237 6.71917 21.1321 6.7375 21.1398C6.8662 21.1941 6.99637 21.2443 7.1269 21.2934C7.17823 21.3129 7.22957 21.3327 7.28163 21.3514C7.3942 21.3917 7.5075 21.4298 7.62153 21.4665C7.6945 21.49 7.76747 21.5131 7.84117 21.5351C7.942 21.5651 8.0432 21.5941 8.14513 21.6216C8.2346 21.6458 8.3248 21.6682 8.415 21.6898C8.5063 21.7118 8.59797 21.7338 8.69 21.7532C8.79267 21.7752 8.89643 21.7947 9.00057 21.8137C9.08417 21.8291 9.1674 21.8453 9.25173 21.8588C9.36723 21.8775 9.48347 21.8922 9.60007 21.9072C9.67523 21.9168 9.75003 21.9278 9.82557 21.9358C9.95757 21.9498 10.0907 21.9597 10.2241 21.9688C10.2861 21.9732 10.3477 21.9798 10.41 21.9831C10.6047 21.9941 10.8016 22 11 22C11.1984 22 11.3953 21.9941 11.5907 21.9839C11.653 21.9806 11.7146 21.974 11.7766 21.9696C11.9101 21.96 12.0432 21.9505 12.1752 21.9366C12.2507 21.9285 12.3255 21.9175 12.4007 21.908C12.5173 21.8929 12.6335 21.8783 12.749 21.8596C12.833 21.846 12.9166 21.8299 13.0002 21.8145C13.1039 21.7954 13.2077 21.776 13.3107 21.754C13.4028 21.7342 13.4941 21.7125 13.5857 21.6905C13.6759 21.6685 13.7661 21.6462 13.8556 21.6223C14.0314 21.5751 14.206 21.5234 14.3792 21.4672C14.4932 21.4306 14.6065 21.3924 14.7191 21.3521C14.7708 21.3334 14.8221 21.3136 14.8738 21.2942C15.0046 21.2454 15.1344 21.1942 15.2632 21.1405C15.2816 21.1328 15.2995 21.1244 15.3179 21.1167C16.9295 20.4291 18.3535 19.3665 19.4715 18.0173C19.4759 18.0121 19.4762 18.0048 19.4803 17.9997C21.0533 16.0959 22 13.6565 22 11C22 4.9346 17.0654 0 11 0ZM15.4576 20.2473C15.4521 20.2499 15.4469 20.2528 15.4414 20.2554C15.3105 20.3185 15.1774 20.3779 15.0432 20.4358C15.0128 20.4486 14.9827 20.4618 14.9523 20.4747C14.8347 20.5238 14.7161 20.5706 14.5966 20.6151C14.5468 20.6339 14.4969 20.6521 14.4467 20.6697C14.3407 20.7076 14.2341 20.7438 14.1269 20.7783C14.0602 20.7995 13.9931 20.8197 13.926 20.8395C13.8305 20.8683 13.7345 20.8956 13.6382 20.9213C13.5568 20.9429 13.4746 20.9627 13.3925 20.9821C13.3063 21.0027 13.2205 21.0236 13.1336 21.0419C13.0387 21.0621 12.943 21.0793 12.8476 21.0965C12.7703 21.1108 12.6933 21.1259 12.6152 21.1383C12.5077 21.1552 12.3992 21.1688 12.291 21.1823C12.2225 21.1911 12.1543 21.2014 12.085 21.2087C11.9614 21.2219 11.8367 21.2304 11.7124 21.2392C11.6571 21.2428 11.6021 21.2491 11.546 21.252C11.3645 21.2615 11.1826 21.2667 11 21.2667C10.8174 21.2667 10.6355 21.2615 10.4544 21.252C10.3987 21.2491 10.3437 21.2432 10.2879 21.2392C10.1633 21.2307 10.039 21.2219 9.9154 21.2087C9.8461 21.2014 9.7779 21.1911 9.70933 21.1823C9.60117 21.1688 9.49263 21.1552 9.3852 21.1383C9.3071 21.1259 9.2301 21.1108 9.15273 21.0965C9.05703 21.0793 8.96133 21.0617 8.86673 21.0419C8.77983 21.0236 8.69367 21.0027 8.60787 20.9821C8.52573 20.9623 8.4436 20.9429 8.3622 20.9213C8.26577 20.8956 8.1697 20.8677 8.07437 20.8395C8.00717 20.8198 7.94019 20.7994 7.87343 20.7783C7.76627 20.7439 7.65967 20.7077 7.5537 20.6697C7.38342 20.6093 7.21481 20.5443 7.04807 20.4747C7.01763 20.4622 6.98793 20.449 6.9575 20.4362C6.82338 20.3789 6.69049 20.3187 6.55893 20.2558C6.55348 20.2532 6.5481 20.2505 6.5428 20.2477C5.2635 19.6288 4.13343 18.7502 3.2164 17.6832C3.92517 15.0733 5.93157 12.9694 8.5129 12.1323C8.56387 12.1634 8.61703 12.1913 8.66947 12.2206C8.70027 12.2379 8.7307 12.2562 8.76187 12.2727C8.87074 12.3308 8.98194 12.3845 9.09517 12.4337C9.18207 12.4718 9.2719 12.5041 9.36137 12.5371C9.37897 12.5433 9.39657 12.5503 9.41417 12.5565C9.91137 12.7325 10.4434 12.8333 11 12.8333C11.5566 12.8333 12.0886 12.7325 12.5855 12.5565C12.6031 12.5503 12.6207 12.5433 12.6383 12.5371C12.7277 12.5041 12.8176 12.4718 12.9045 12.4337C13.0177 12.3845 13.1289 12.3308 13.2378 12.2727C13.2689 12.2558 13.2994 12.2379 13.3302 12.2206C13.3826 12.1913 13.4361 12.1634 13.4875 12.1319C16.0688 12.9694 18.0748 15.0733 18.784 17.6829C17.8669 18.7495 16.7369 19.628 15.4576 20.2473ZM6.96667 8.06667C6.96667 5.84283 8.77617 4.03333 11 4.03333C13.2238 4.03333 15.0333 5.84283 15.0333 8.06667C15.0333 9.48127 14.2996 10.7261 13.1941 11.4462C13.0501 11.5398 12.9001 11.6237 12.745 11.6974C12.7266 11.7062 12.7087 11.7154 12.6903 11.7238C11.6285 12.2067 10.3715 12.2067 9.30967 11.7238C9.29133 11.7154 9.273 11.7062 9.25503 11.6974C9.09988 11.6238 8.94983 11.5399 8.80587 11.4462C7.70037 10.7261 6.96667 9.48127 6.96667 8.06667ZM19.334 16.9851C18.5027 14.5306 16.6063 12.547 14.1834 11.6046C15.1525 10.7316 15.7667 9.471 15.7667 8.06667C15.7667 5.4384 13.6283 3.3 11 3.3C8.37173 3.3 6.23333 5.4384 6.23333 8.06667C6.23333 9.471 6.8475 10.7316 7.81697 11.6046C5.39403 12.5473 3.49763 14.5306 2.6664 16.9851C1.45163 15.2988 0.733333 13.2323 0.733333 11C0.733333 5.33903 5.33903 0.733333 11 0.733333C16.661 0.733333 21.2667 5.33903 21.2667 11C21.2667 13.2323 20.5484 15.2988 19.334 16.9851Z" fill="currentColor"/>
</g>
</g></symbol><symbol id="vk" viewBox="0 0 23 24"><g fill="none">
<g clip-path="url(#clip0_27_58)">
<path d="M21.4358 0.503419H1.46212C0.65432 0.503419 0 1.15774 0 1.96393V21.9377C0 22.7438 0.65432 23.3982 1.46212 23.3982H21.4342C21.8216 23.3982 22.1931 23.2443 22.467 22.9704C22.7409 22.6965 22.8947 22.325 22.8947 21.9377V1.96393C22.8952 1.77215 22.8577 1.58217 22.7846 1.40488C22.7114 1.2276 22.604 1.0665 22.4685 0.930815C22.3329 0.79513 22.172 0.687533 21.9948 0.614191C21.8176 0.540849 21.6276 0.503206 21.4358 0.503419ZM18.9914 14.4542C19.4099 14.8807 20.3178 15.5964 20.1531 16.325C20.0012 16.9939 19.0027 16.7499 18.0334 16.7887C16.9267 16.8356 16.2708 16.8598 15.6051 16.325C15.2917 16.0714 15.1075 15.7709 14.807 15.4348C14.534 15.1311 14.1899 14.5866 13.7213 14.6076C12.8796 14.6497 13.1429 15.8226 12.8441 16.6223C8.16527 17.359 6.28632 14.4687 4.62871 11.664C3.82575 10.3053 2.66575 7.38751 2.66575 7.38751L5.97451 7.3762C5.97451 7.3762 7.03596 9.30685 7.31707 9.80446C7.55618 10.2277 7.81953 10.5638 8.09095 10.9418C8.31875 11.2553 8.67903 11.8692 9.07324 11.8191C9.71463 11.7367 9.83096 9.24869 9.43352 8.41504C9.27519 8.07737 8.89552 7.95944 8.50293 7.84473C8.63541 7.00784 12.214 6.83336 12.7924 7.48283C13.6325 8.42635 12.2107 11.0533 13.3611 11.8191C14.9767 10.9725 16.3564 7.4279 16.3564 7.4279L20.2306 7.45214C20.2306 7.45214 19.6248 9.36824 18.9898 10.2181C18.6198 10.7157 17.392 11.824 17.4405 12.6463C17.4792 13.2974 18.4777 13.9307 18.9914 14.4542Z" fill="#4E4E4E"/>
</g>

</g></symbol></svg>