<svg width="10" height="10" viewBox="0 0 10 10" fill="none" xmlns="http://www.w3.org/2000/svg">
<g clip-path="url(#clip0_34_2187)">
<path d="M9.99999 6.79177C9.99999 6.84345 9.98087 6.89554 9.94222 6.93581C9.86267 7.01882 9.73083 7.02167 9.64762 6.94231L4.99994 2.49688L0.35228 6.94231C0.269076 7.02167 0.137239 7.01882 0.0576871 6.93581C-0.0220598 6.8528 -0.0184074 6.72096 0.064191 6.64122L4.8559 2.05783C4.93647 1.98092 5.06342 1.98092 5.14399 2.05783L9.93571 6.6412C9.95605 6.66065 9.97223 6.68402 9.98328 6.7099C9.99433 6.73578 10 6.76363 9.99999 6.79177Z" fill="black"/>
<path d="M9.99999 6.79177C9.99999 6.84345 9.98087 6.89554 9.94222 6.93581C9.86267 7.01882 9.73083 7.02167 9.64762 6.94231L4.99994 2.49688L0.35228 6.94231C0.269076 7.02167 0.137239 7.01882 0.0576871 6.93581C-0.0220598 6.8528 -0.0184074 6.72096 0.064191 6.64122L4.8559 2.05783C4.93647 1.98092 5.06342 1.98092 5.14399 2.05783L9.93571 6.6412C9.95605 6.66065 9.97223 6.68402 9.98328 6.7099C9.99433 6.73578 10 6.76363 9.99999 6.79177Z" fill="black"/>
</g>
<defs>
<clipPath id="clip0_34_2187">
<rect width="10" height="10" fill="white" transform="translate(0 10) rotate(-90)"/>
</clipPath>
</defs>
</svg>
