<svg width="20" height="20" viewBox="0 0 20 20" fill="none" xmlns="http://www.w3.org/2000/svg">
<path d="M19.375 5H0.625C0.45924 5 0.300269 4.93415 0.183058 4.81694C0.065848 4.69973 0 4.54076 0 4.375C0 4.20924 0.065848 4.05027 0.183058 3.93306C0.300269 3.81585 0.45924 3.75 0.625 3.75H19.375C19.5408 3.75 19.6997 3.81585 19.8169 3.93306C19.9342 4.05027 20 4.20924 20 4.375C20 4.54076 19.9342 4.69973 19.8169 4.81694C19.6997 4.93415 19.5408 5 19.375 5ZM19.375 11.25H0.625C0.45924 11.25 0.300269 11.1842 0.183058 11.0669C0.065848 10.9497 0 10.7908 0 10.625C0 10.4592 0.065848 10.3003 0.183058 10.1831C0.300269 10.0658 0.45924 10 0.625 10H19.375C19.5408 10 19.6997 10.0658 19.8169 10.1831C19.9342 10.3003 20 10.4592 20 10.625C20 10.7908 19.9342 10.9497 19.8169 11.0669C19.6997 11.1842 19.5408 11.25 19.375 11.25ZM19.375 17.5H0.625C0.45924 17.5 0.300269 17.4342 0.183058 17.3169C0.065848 17.1997 0 17.0408 0 16.875C0 16.7092 0.065848 16.5503 0.183058 16.4331C0.300269 16.3158 0.45924 16.25 0.625 16.25H19.375C19.5408 16.25 19.6997 16.3158 19.8169 16.4331C19.9342 16.5503 20 16.7092 20 16.875C20 17.0408 19.9342 17.1997 19.8169 17.3169C19.6997 17.4342 19.5408 17.5 19.375 17.5Z" fill="black"/>
</svg>
