<svg width="15" height="16" viewBox="0 0 15 16" fill="none" xmlns="http://www.w3.org/2000/svg">
<g clip-path="url(#clip0_27_26)">
<path d="M7.5 15.5034C6.01664 15.5034 4.5666 15.0636 3.33323 14.2394C2.09986 13.4153 1.13856 12.244 0.570907 10.8735C0.00324961 9.5031 -0.145275 7.9951 0.144114 6.54024C0.433503 5.08539 1.14781 3.74901 2.1967 2.70012C3.2456 1.65123 4.58197 0.936921 6.03683 0.647532C7.49168 0.358143 8.99968 0.506668 10.3701 1.07432C11.7406 1.64198 12.9119 2.60328 13.736 3.83664C14.5601 5.07001 15 6.52006 15 8.00342C14.9978 9.99185 14.2069 11.8982 12.8008 13.3042C11.3948 14.7103 9.48844 15.5012 7.5 15.5034ZM7.5 1.08936C6.13253 1.08936 4.79577 1.49486 3.65876 2.25459C2.52174 3.01432 1.63555 4.09414 1.11224 5.35752C0.588934 6.6209 0.452012 8.01109 0.718793 9.35229C0.985573 10.6935 1.64407 11.9255 2.61102 12.8924C3.57797 13.8594 4.80994 14.5179 6.15114 14.7846C7.49233 15.0514 8.88252 14.9145 10.1459 14.3912C11.4093 13.8679 12.4891 12.9817 13.2488 11.8447C14.0086 10.7077 14.4141 9.37089 14.4141 8.00342C14.412 6.17034 13.6829 4.41292 12.3867 3.11674C11.0905 1.82055 9.33309 1.09144 7.5 1.08936Z" fill="#4E4E4E"/>
<path d="M7.5 2.47598C7.4223 2.47598 7.34778 2.44511 7.29284 2.39017C7.2379 2.33523 7.20703 2.26071 7.20703 2.18301V0.796387C7.20703 0.718687 7.2379 0.644169 7.29284 0.589227C7.34778 0.534284 7.4223 0.503418 7.5 0.503418C7.5777 0.503418 7.65222 0.534284 7.70716 0.589227C7.7621 0.644169 7.79297 0.718687 7.79297 0.796387V2.18301C7.79297 2.26071 7.7621 2.33523 7.70716 2.39017C7.65222 2.44511 7.5777 2.47598 7.5 2.47598ZM1.68164 8.29639H0.292969C0.215269 8.29639 0.140751 8.26552 0.0858086 8.21058C0.0308663 8.15564 0 8.08112 0 8.00342C0 7.92572 0.0308663 7.8512 0.0858086 7.79626C0.140751 7.74132 0.215269 7.71045 0.292969 7.71045H1.68164C1.75934 7.71045 1.83386 7.74132 1.8888 7.79626C1.94374 7.8512 1.97461 7.92572 1.97461 8.00342C1.97461 8.08112 1.94374 8.15564 1.8888 8.21058C1.83386 8.26552 1.75934 8.29639 1.68164 8.29639ZM7.5 15.5034C7.4223 15.5034 7.34778 15.4726 7.29284 15.4176C7.2379 15.3627 7.20703 15.2881 7.20703 15.2104V13.8238C7.20703 13.7461 7.2379 13.6716 7.29284 13.6167C7.34778 13.5617 7.4223 13.5309 7.5 13.5309C7.5777 13.5309 7.65222 13.5617 7.70716 13.6167C7.7621 13.6716 7.79297 13.7461 7.79297 13.8238V15.2104C7.79297 15.2881 7.7621 15.3627 7.70716 15.4176C7.65222 15.4726 7.5777 15.5034 7.5 15.5034ZM14.707 8.29639H13.3204C13.2427 8.29639 13.1682 8.26552 13.1132 8.21058C13.0583 8.15564 13.0274 8.08112 13.0274 8.00342C13.0274 7.92572 13.0583 7.8512 13.1132 7.79626C13.1682 7.74132 13.2427 7.71045 13.3204 7.71045H14.707C14.7847 7.71045 14.8592 7.74132 14.9142 7.79626C14.9691 7.8512 15 7.92572 15 8.00342C15 8.08112 14.9691 8.15564 14.9142 8.21058C14.8592 8.26552 14.7847 8.29639 14.707 8.29639ZM7.5 8.29639C7.46152 8.29639 7.42342 8.28881 7.38787 8.27408C7.35232 8.25935 7.32002 8.23776 7.29281 8.21055L4.37643 5.29422C4.34922 5.26701 4.32764 5.23471 4.31292 5.19916C4.2982 5.16361 4.29062 5.12552 4.29063 5.08704C4.29063 5.00934 4.32151 4.93481 4.37645 4.87987C4.4314 4.82493 4.50593 4.79407 4.58363 4.79407C4.62211 4.79408 4.66021 4.80166 4.69575 4.81638C4.7313 4.83111 4.7636 4.85269 4.7908 4.8799L7.58754 7.67664L9.35186 7.20385C9.42692 7.18374 9.5069 7.19427 9.5742 7.23313C9.6415 7.272 9.6906 7.336 9.71071 7.41106C9.73082 7.48613 9.72029 7.56611 9.68143 7.63341C9.64257 7.70071 9.57856 7.74981 9.5035 7.76992L7.57576 8.28643C7.55105 8.29303 7.52558 8.29637 7.5 8.29639Z" fill="#4E4E4E"/>
</g>
<defs>
<clipPath id="clip0_27_26">
<rect width="15" height="15" fill="white" transform="translate(0 0.503418)"/>
</clipPath>
</defs>
</svg>
