<svg width="21" height="22" viewBox="0 0 21 22" fill="none" xmlns="http://www.w3.org/2000/svg">
<g clip-path="url(#clip0_66_77)">
<path d="M20.4206 14.2812C20.5827 14.101 20.6722 13.8673 20.672 13.625C20.672 13.0822 20.2303 12.6406 19.6876 12.6406H12.4689C12.3566 12.6406 12.2467 12.6521 12.1407 12.6737V10.8992L14.5528 9.99458C14.6001 9.97684 14.6427 9.9484 14.6772 9.91149C14.7117 9.87458 14.7373 9.83019 14.7518 9.78179C14.7664 9.73338 14.7695 9.68227 14.7611 9.63245C14.7526 9.58262 14.7328 9.53541 14.7031 9.49452L12.0781 5.88515L12.0731 5.88876C12.063 5.87497 12.0571 5.85857 12.0446 5.8461L11.6604 5.46154C11.3364 5.13586 10.951 4.87766 10.5265 4.70188C10.1021 4.52609 9.64701 4.43622 9.18761 4.43746H7.87511V3.78121C8.59896 3.78121 9.18761 3.19255 9.18761 2.46871C9.18761 1.74486 8.59896 1.15621 7.87511 1.15621C7.15127 1.15621 6.56261 1.74486 6.56261 2.46871H7.21886C7.21886 2.10679 7.51319 1.81246 7.87511 1.81246C8.23703 1.81246 8.53136 2.10679 8.53136 2.46871C8.53136 2.83063 8.23703 3.12496 7.87511 3.12496C7.51319 3.12496 7.21886 3.41929 7.21886 3.78121V4.43746H5.90636C5.44696 4.43622 4.99188 4.52609 4.56744 4.70188C4.14299 4.87766 3.75762 5.13586 3.43361 5.46154L3.04938 5.8461C3.03691 5.85857 3.031 5.87465 3.02083 5.88876L3.01591 5.88515L0.390908 9.49452C0.361005 9.53535 0.340983 9.58256 0.332416 9.63244C0.323849 9.68232 0.326971 9.7335 0.341537 9.78197C0.356102 9.83044 0.381714 9.87487 0.416358 9.91176C0.451002 9.94865 0.493732 9.977 0.541189 9.99458L2.95324 10.8992V16.5781C2.95324 16.6651 2.98781 16.7486 3.04934 16.8101C3.11088 16.8716 3.19434 16.9062 3.28136 16.9062H10.8282C10.8282 17.4447 11.0927 17.9195 11.4947 18.2187C11.0927 18.518 10.8282 18.9928 10.8282 19.5312C10.8282 20.4358 11.5642 21.1718 12.4689 21.1718H19.6876C20.2303 21.1718 20.672 20.7302 20.672 20.1875C20.672 19.9355 20.5768 19.7054 20.4206 19.5312C20.5827 19.351 20.6722 19.1173 20.672 18.875C20.6712 18.632 20.5799 18.3981 20.4161 18.2187C20.5797 18.0396 20.6709 17.806 20.6717 17.5633C20.6726 17.3207 20.5831 17.0865 20.4206 16.9062C20.5827 16.726 20.6722 16.4923 20.672 16.25C20.6712 16.007 20.5799 15.7731 20.4161 15.5937C20.5797 15.4146 20.6709 15.181 20.6717 14.9383C20.6726 14.6957 20.5831 14.4615 20.4206 14.2812ZM19.6876 13.2968C19.7721 13.3006 19.8519 13.3368 19.9103 13.398C19.9688 13.4591 20.0014 13.5404 20.0014 13.625C20.0014 13.7095 19.9688 13.7908 19.9103 13.852C19.8519 13.9131 19.7721 13.9493 19.6876 13.9531H12.4689C12.3818 13.9531 12.2984 13.9877 12.2368 14.0492C12.1753 14.1107 12.1407 14.1942 12.1407 14.2812C12.1407 14.3682 12.1753 14.4517 12.2368 14.5132C12.2984 14.5748 12.3818 14.6093 12.4689 14.6093H19.6876C19.7721 14.6131 19.8519 14.6493 19.9103 14.7105C19.9688 14.7716 20.0014 14.8529 20.0014 14.9375C20.0014 15.022 19.9688 15.1033 19.9103 15.1645C19.8519 15.2256 19.7721 15.2618 19.6876 15.2656H12.4689C11.9261 15.2656 11.4845 14.8239 11.4845 14.2812C11.4845 13.7385 11.9261 13.2968 12.4689 13.2968H19.6876ZM12.1407 10.1983V7.08707L13.9185 9.5316L12.1407 10.1983ZM8.85949 5.09371C8.85949 5.81755 8.27083 6.40621 7.54699 6.40621C6.82314 6.40621 6.23449 5.81755 6.23449 5.09371H8.85949ZM1.17545 9.5316L2.95324 7.08707V10.1983L1.17545 9.5316ZM10.9674 16.25H3.60949V15.5937H10.172V14.9375H3.60949V6.21393L3.89758 5.92551C4.34925 5.47149 4.94194 5.18463 5.57824 5.11208C5.58841 6.18932 6.46746 7.06246 7.54699 7.06246C8.62652 7.06246 9.50557 6.18932 9.51574 5.11241C10.1521 5.18481 10.7448 5.47169 11.1964 5.92583L11.4845 6.21393V12.9772C11.0884 13.2771 10.8282 13.7477 10.8282 14.2812C10.8282 14.8197 11.0927 15.2945 11.4947 15.5937C11.265 15.7631 11.0833 15.9892 10.9674 16.25ZM11.4845 16.9062C11.4845 16.3635 11.9261 15.9218 12.4689 15.9218H19.6876C19.7721 15.9256 19.8519 15.9618 19.9103 16.023C19.9688 16.0841 20.0014 16.1654 20.0014 16.25C20.0014 16.3345 19.9688 16.4158 19.9103 16.477C19.8519 16.5381 19.7721 16.5743 19.6876 16.5781H12.4689C12.3818 16.5781 12.2984 16.6127 12.2368 16.6742C12.1753 16.7357 12.1407 16.8192 12.1407 16.9062C12.1407 16.9932 12.1753 17.0767 12.2368 17.1382C12.2984 17.1998 12.3818 17.2343 12.4689 17.2343H19.6876C19.7721 17.2381 19.8519 17.2743 19.9103 17.3355C19.9688 17.3966 20.0014 17.4779 20.0014 17.5625C20.0014 17.647 19.9688 17.7283 19.9103 17.7895C19.8519 17.8506 19.7721 17.8868 19.6876 17.8906H12.4689C11.9261 17.8906 11.4845 17.4489 11.4845 16.9062ZM12.4689 19.8593H19.6876C19.7721 19.8631 19.8519 19.8993 19.9103 19.9605C19.9688 20.0216 20.0014 20.1029 20.0014 20.1875C20.0014 20.272 19.9688 20.3533 19.9103 20.4145C19.8519 20.4756 19.7721 20.5118 19.6876 20.5156H12.4689C11.9261 20.5156 11.4845 20.0739 11.4845 19.5312C11.4845 18.9885 11.9261 18.5468 12.4689 18.5468H19.6876C19.7721 18.5506 19.8519 18.5868 19.9103 18.648C19.9688 18.7091 20.0014 18.7904 20.0014 18.875C20.0014 18.9595 19.9688 19.0408 19.9103 19.102C19.8519 19.1631 19.7721 19.1993 19.6876 19.2031H12.4689C12.3818 19.2031 12.2984 19.2377 12.2368 19.2992C12.1753 19.3607 12.1407 19.4442 12.1407 19.5312C12.1407 19.6182 12.1753 19.7017 12.2368 19.7632C12.2984 19.8248 12.3818 19.8593 12.4689 19.8593ZM13.3495 2.77977C13.6066 2.86618 13.8401 3.01092 14.0318 3.20265C14.2235 3.39437 14.3683 3.62789 14.4547 3.8849C14.4761 3.95051 14.5178 4.00766 14.5737 4.04818C14.6296 4.08869 14.6969 4.11051 14.7659 4.11051C14.8349 4.11051 14.9022 4.08869 14.9581 4.04818C15.014 4.00766 15.0557 3.95051 15.0771 3.8849C15.1635 3.62789 15.3083 3.39437 15.5 3.20265C15.6917 3.01092 15.9252 2.86618 16.1823 2.77977C16.2477 2.75819 16.3047 2.71649 16.3451 2.66061C16.3855 2.60474 16.4072 2.53754 16.4072 2.46859C16.4072 2.39964 16.3854 2.33247 16.3449 2.27663C16.3045 2.2208 16.2474 2.17916 16.1819 2.15765C15.9249 2.07124 15.6914 1.9265 15.4997 1.73477C15.3079 1.54304 15.1632 1.30953 15.0768 1.05252C15.0553 0.986909 15.0137 0.929761 14.9578 0.889242C14.9019 0.848722 14.8346 0.826904 14.7656 0.826904C14.6965 0.826904 14.6293 0.848722 14.5734 0.889242C14.5175 0.929761 14.4758 0.986909 14.4543 1.05252C14.3679 1.30953 14.2232 1.54304 14.0315 1.73477C13.8397 1.9265 13.6062 2.07124 13.3492 2.15765C13.2837 2.17923 13.2267 2.22093 13.1864 2.27681C13.146 2.33268 13.1242 2.39988 13.1243 2.46883C13.1243 2.53777 13.1461 2.60495 13.1866 2.66078C13.227 2.71662 13.284 2.75826 13.3495 2.77977ZM14.7657 1.87677C14.9274 2.10674 15.1277 2.307 15.3577 2.46871C15.1277 2.63042 14.9274 2.83068 14.7657 3.06065C14.604 2.83068 14.4038 2.63042 14.1738 2.46871C14.4038 2.307 14.604 2.10674 14.7657 1.87677ZM3.38505 18.2358C3.12804 18.1494 2.89453 18.0046 2.7028 17.8129C2.51107 17.6212 2.36633 17.3877 2.27992 17.1306C2.25845 17.065 2.21679 17.0079 2.1609 16.9674C2.105 16.9268 2.03773 16.905 1.9687 16.905C1.89966 16.905 1.83239 16.9268 1.7765 16.9674C1.7206 17.0079 1.67894 17.065 1.65747 17.1306C1.57106 17.3877 1.42632 17.6212 1.2346 17.8129C1.04287 18.0046 0.809354 18.1494 0.552346 18.2358C0.486865 18.2574 0.429867 18.2991 0.389475 18.3549C0.349082 18.4108 0.327356 18.478 0.327393 18.547C0.327429 18.6159 0.349226 18.6831 0.389677 18.7389C0.430128 18.7947 0.48717 18.8364 0.552674 18.8579C0.809682 18.9443 1.0432 19.089 1.23492 19.2808C1.42665 19.4725 1.57139 19.706 1.6578 19.963C1.67927 20.0286 1.72093 20.0858 1.77682 20.1263C1.83272 20.1668 1.89999 20.1886 1.96903 20.1886C2.03806 20.1886 2.10533 20.1668 2.16123 20.1263C2.21712 20.0858 2.25878 20.0286 2.28025 19.963C2.36666 19.706 2.5114 19.4725 2.70313 19.2808C2.89486 19.089 3.12837 18.9443 3.38538 18.8579C3.45086 18.8363 3.50786 18.7946 3.54825 18.7387C3.58864 18.6829 3.61037 18.6157 3.61033 18.5467C3.61029 18.4778 3.5885 18.4106 3.54805 18.3548C3.50759 18.2989 3.45055 18.2573 3.38505 18.2358ZM1.96886 19.1388C1.80715 18.9088 1.60689 18.7085 1.37692 18.5468C1.60689 18.3851 1.80715 18.1849 1.96886 17.9549C2.13057 18.1849 2.33083 18.3851 2.5608 18.5468C2.33083 18.7085 2.13057 18.9088 1.96886 19.1388Z" fill="black"/>
</g>
<defs>
<clipPath id="clip0_66_77">
<rect width="21" height="21" fill="white" transform="translate(0 0.5)"/>
</clipPath>
</defs>
</svg>
