<svg width="23" height="24" viewBox="0 0 23 24" fill="none" xmlns="http://www.w3.org/2000/svg">
<g clip-path="url(#clip0_27_61)">
<path d="M16.6768 8.07418C16.5715 7.78866 16.4034 7.53039 16.1851 7.31834C15.9731 7.09999 15.7148 6.93197 15.4293 6.82664C15.1976 6.73672 14.8498 6.62962 14.2088 6.60047C13.5156 6.56885 13.3077 6.56201 11.5526 6.56201C9.79731 6.56201 9.58947 6.56867 8.89637 6.60029C8.25549 6.62962 7.90733 6.73667 7.67592 6.82664C7.39036 6.93192 7.13207 7.09995 6.92008 7.31834C6.70174 7.53039 6.53366 7.78866 6.42821 8.07418C6.33828 8.30581 6.23119 8.65393 6.20203 9.2948C6.17042 9.98791 6.16357 10.1957 6.16357 11.951C6.16357 13.7062 6.17042 13.914 6.20203 14.6073C6.23119 15.2481 6.33828 15.5961 6.42821 15.8277C6.5336 16.1132 6.70161 16.3715 6.91991 16.5836C7.13192 16.8019 7.3902 16.9699 7.67574 17.0753C7.90738 17.1654 8.25549 17.2725 8.89637 17.3016C9.58947 17.3332 9.79713 17.3399 11.5524 17.3399C13.3079 17.3399 13.5157 17.3332 14.2087 17.3016C14.8495 17.2725 15.1977 17.1654 15.4293 17.0753C15.7128 16.9659 15.9702 16.7984 16.1851 16.5835C16.4 16.3687 16.5675 16.1112 16.6768 15.8277C16.7667 15.5961 16.8738 15.2482 16.9032 14.6073C16.9348 13.914 16.9415 13.7062 16.9415 11.951C16.9415 10.1957 16.9348 9.98791 16.9032 9.2948C16.874 8.65393 16.7669 8.30577 16.6768 8.07418ZM11.5526 15.3263C9.68834 15.3263 8.17706 13.8151 8.17706 11.9509C8.17706 10.0866 9.68834 8.5755 11.5526 8.5755C13.4167 8.5755 14.928 10.0866 14.928 11.9509C14.928 13.8151 13.4167 15.3263 11.5526 15.3263ZM15.0614 9.23086C14.6258 9.23086 14.2726 8.87764 14.2726 8.44206C14.2726 8.00648 14.6258 7.65322 15.0614 7.65322C15.4971 7.65322 15.8502 8.00639 15.8502 8.44202C15.8501 8.87764 15.4971 9.23086 15.0614 9.23086Z" fill="#4E4E4E"/>
<path d="M13.7438 11.9509C13.7438 13.161 12.7628 14.142 11.5527 14.142C10.3426 14.142 9.36157 13.161 9.36157 11.9509C9.36157 10.7408 10.3426 9.75977 11.5527 9.75977C12.7628 9.75977 13.7438 10.7408 13.7438 11.9509Z" fill="#4E4E4E"/>
<path d="M21.3488 0.503418H1.75642C0.844385 0.503418 0.105225 1.24262 0.105225 2.15461V21.747C0.105225 22.659 0.844429 23.3982 1.75642 23.3982H21.3488C22.2608 23.3982 23 22.659 23 21.747V2.15461C23 1.24258 22.2608 0.503418 21.3488 0.503418ZM18.0863 14.6608C18.0544 15.3606 17.9432 15.8383 17.7807 16.2565C17.6118 16.6931 17.3536 17.0897 17.0226 17.4207C16.6915 17.7518 16.2949 18.01 15.8583 18.1789C15.4403 18.3414 14.9624 18.4524 14.2628 18.4844C13.5619 18.5164 13.3379 18.5241 11.5528 18.5241C9.76743 18.5241 9.54367 18.5164 8.84252 18.4844C8.14298 18.4524 7.66509 18.3414 7.24704 18.1789C6.80838 18.0139 6.41103 17.7551 6.08272 17.4207C5.74836 17.0924 5.48966 16.6951 5.32464 16.2565C5.16219 15.8385 5.05093 15.3606 5.01914 14.661C4.98681 13.9598 4.9793 13.736 4.9793 11.9508C4.9793 10.1656 4.98681 9.94168 5.01896 9.24076C5.05071 8.54099 5.16183 8.06329 5.32429 7.6451C5.48935 7.20647 5.74817 6.80916 6.08267 6.48091C6.41094 6.14644 6.80827 5.88767 7.24691 5.72266C7.66509 5.5602 8.1428 5.44913 8.84256 5.41716C9.54349 5.38518 9.76743 5.37749 11.5526 5.37749C13.3378 5.37749 13.5617 5.38518 14.2626 5.41729C14.9624 5.44913 15.4401 5.5602 15.8583 5.72248C16.297 5.88758 16.6943 6.14639 17.0227 6.48087C17.3571 6.80918 17.6157 7.2065 17.7807 7.6451C17.9434 8.06329 18.0544 8.54099 18.0864 9.24076C18.1184 9.94168 18.1259 10.1656 18.1259 11.9508C18.1259 13.736 18.1184 13.9599 18.0862 14.6608H18.0863Z" fill="#4E4E4E"/>
</g>
<defs>
<clipPath id="clip0_27_61">
<rect width="22.8947" height="22.8947" fill="white" transform="translate(0.105225 0.503418)"/>
</clipPath>
</defs>
</svg>
