<svg width="15" height="18" viewBox="0 0 15 18" fill="none" xmlns="http://www.w3.org/2000/svg">
<g clip-path="url(#clip0_27_33)">
<path d="M7.50007 1.45342H7.5C6.00675 1.45342 4.54704 1.89622 3.30545 2.72582C2.06386 3.55543 1.09615 4.73458 0.524713 6.11416C-0.0467287 7.49374 -0.196244 9.01179 0.0950745 10.4763C0.386393 11.9409 1.10546 13.2862 2.16135 14.3421C3.21723 15.398 4.56251 16.117 6.02707 16.4083C7.49163 16.6997 9.00968 16.5501 10.3893 15.9787C11.7688 15.4073 12.948 14.4396 13.7776 13.198C14.6072 11.9564 15.05 10.4967 15.05 9.00342V9.00335C15.0474 7.00178 14.2511 5.08293 12.8358 3.6676C11.4205 2.25228 9.50164 1.45601 7.50007 1.45342ZM7.49994 16.048C6.10668 16.048 4.7447 15.6348 3.58624 14.8608C2.42776 14.0867 1.52483 12.9865 0.991646 11.6993C0.458458 10.412 0.318951 8.9956 0.590769 7.62908C0.862586 6.26257 1.53352 5.00734 2.51872 4.02214C3.50393 3.03693 4.75915 2.366 6.12567 2.09418C7.49219 1.82237 8.90862 1.96187 10.1959 2.49506C11.4831 3.02825 12.5833 3.93117 13.3574 5.08965C14.1314 6.24811 14.5446 7.61009 14.5446 9.00336C14.5425 10.8711 13.7996 12.6617 12.4789 13.9823C11.1582 15.303 9.36765 16.0459 7.49994 16.048Z" fill="#4E4E4E" stroke="#4E4E4E" stroke-width="0.1"/>
<path d="M12.3625 11.3938C12.3566 11.3471 12.3377 11.3031 12.3081 11.2667C12.2784 11.2301 12.239 11.2027 12.1944 11.1875L12.1944 11.1875L5.43919 4.42594C5.42442 4.38178 5.39773 4.34256 5.36207 4.3126C5.3264 4.28264 5.28313 4.26311 5.23705 4.2562L5.23714 4.25564H5.22963C5.22972 4.25564 5.22913 4.2556 5.22707 4.25546C5.22528 4.25534 5.22237 4.25514 5.21783 4.25482C5.20968 4.25425 5.19846 4.25349 5.18444 4.25277C5.1564 4.25134 5.11736 4.25007 5.06866 4.25071C4.97128 4.25198 4.83541 4.26086 4.67143 4.29114C4.34332 4.35171 3.90318 4.49786 3.43425 4.83928L3.43414 4.83911L3.43076 4.84207L3.41779 4.85342L3.41772 4.85334L3.41548 4.85557C3.13106 5.13795 2.91262 5.47974 2.77582 5.85646C2.63928 6.23245 2.58742 6.63394 2.62395 7.03227V7.05429H2.62309L2.6248 7.06345C2.64352 7.16386 3.09549 9.44384 5.13914 11.4875C7.18275 13.5311 9.45458 13.9831 9.55506 14.0018L9.5549 14.0027H9.56422H9.79232C10.158 14.0109 10.5215 13.9445 10.8606 13.8073C11.1999 13.67 11.5075 13.4649 11.7647 13.2046L11.765 13.2049L11.7691 13.1994L11.7788 13.1864L11.779 13.1862C12.4625 12.2644 12.3687 11.4404 12.3625 11.3938ZM12.3625 11.3938C12.3625 11.3939 12.3625 11.3939 12.3625 11.394L12.3129 11.4002L12.3624 11.3935C12.3624 11.3936 12.3624 11.3937 12.3625 11.3938ZM5.48867 11.1296L5.48888 11.1299C6.63352 12.2816 8.06891 13.1016 9.64238 13.5027C9.95923 13.5305 10.2784 13.4898 10.5782 13.3835C10.8781 13.2772 11.1517 13.1076 11.3803 12.8863C11.6616 12.5197 11.8294 12.0789 11.8632 11.6184L9.80064 10.9142L9.47755 11.4613L9.47604 11.4639L9.47597 11.4638C9.41013 11.5616 9.32327 11.6435 9.22174 11.7034C9.12046 11.7631 9.00713 11.7995 8.89001 11.81C8.88972 11.81 8.88944 11.81 8.88915 11.81L8.88476 11.7602L5.48867 11.1296ZM5.48867 11.1296C4.33885 9.98605 3.51908 8.55329 3.11583 6.98258C3.08807 6.66574 3.1287 6.34662 3.23499 6.04682C3.34132 5.74692 3.51086 5.47339 3.73211 5.24476C4.10275 4.96273 4.54736 4.79501 5.01142 4.76175L5.71561 6.82425L5.17028 7.14414L5.17023 7.14406M5.48867 11.1296L5.17023 7.14406M5.17023 7.14406L5.16782 7.14568M5.17023 7.14406L5.16782 7.14568M5.16782 7.14568C5.06941 7.21136 4.98714 7.29846 4.92715 7.40043M5.16782 7.14568L4.92715 7.40043M4.92715 7.40043C4.8674 7.50202 4.8313 7.61576 4.82153 7.7332L4.92715 7.40043ZM6.25308 6.84978L5.43921 4.42601L9.50584 10.4954L9.46275 10.47L9.46274 10.47L9.03835 11.1913C9.01002 11.2248 8.97504 11.252 8.9356 11.2713C8.89503 11.2911 8.85068 11.302 8.80554 11.3032L8.80554 11.3031L8.8015 11.3035C8.54338 11.3317 7.89805 11.2088 6.65147 9.96218C5.40461 8.71531 5.28238 8.06883 5.31491 7.81303L5.31523 7.81307L5.3153 7.80734C5.31586 7.76264 5.32588 7.71856 5.34471 7.67801C5.36292 7.63878 5.38898 7.60371 5.42126 7.57496L6.14171 7.14945C6.14178 7.14941 6.14185 7.14937 6.14192 7.14933C6.19231 7.12009 6.23096 7.07424 6.25125 7.01963C6.27155 6.96503 6.27222 6.90507 6.25317 6.85003C6.25314 6.84995 6.25311 6.84986 6.25308 6.84978Z" fill="#4E4E4E" stroke="#4E4E4E" stroke-width="0.1"/>
</g>
<defs>
<clipPath id="clip0_27_33">
<rect width="15" height="17" fill="white" transform="translate(0 0.503418)"/>
</clipPath>
</defs>
</svg>
