<svg width="23" height="24" viewBox="0 0 23 24" fill="none" xmlns="http://www.w3.org/2000/svg">
<g clip-path="url(#clip0_27_58)">
<path d="M21.4358 0.503419H1.46212C0.65432 0.503419 0 1.15774 0 1.96393V21.9377C0 22.7438 0.65432 23.3982 1.46212 23.3982H21.4342C21.8216 23.3982 22.1931 23.2443 22.467 22.9704C22.7409 22.6965 22.8947 22.325 22.8947 21.9377V1.96393C22.8952 1.77215 22.8577 1.58217 22.7846 1.40488C22.7114 1.2276 22.604 1.0665 22.4685 0.930815C22.3329 0.79513 22.172 0.687533 21.9948 0.614191C21.8176 0.540849 21.6276 0.503206 21.4358 0.503419ZM18.9914 14.4542C19.4099 14.8807 20.3178 15.5964 20.1531 16.325C20.0012 16.9939 19.0027 16.7499 18.0334 16.7887C16.9267 16.8356 16.2708 16.8598 15.6051 16.325C15.2917 16.0714 15.1075 15.7709 14.807 15.4348C14.534 15.1311 14.1899 14.5866 13.7213 14.6076C12.8796 14.6497 13.1429 15.8226 12.8441 16.6223C8.16527 17.359 6.28632 14.4687 4.62871 11.664C3.82575 10.3053 2.66575 7.38751 2.66575 7.38751L5.97451 7.3762C5.97451 7.3762 7.03596 9.30685 7.31707 9.80446C7.55618 10.2277 7.81953 10.5638 8.09095 10.9418C8.31875 11.2553 8.67903 11.8692 9.07324 11.8191C9.71463 11.7367 9.83096 9.24869 9.43352 8.41504C9.27519 8.07737 8.89552 7.95944 8.50293 7.84473C8.63541 7.00784 12.214 6.83336 12.7924 7.48283C13.6325 8.42635 12.2107 11.0533 13.3611 11.8191C14.9767 10.9725 16.3564 7.4279 16.3564 7.4279L20.2306 7.45214C20.2306 7.45214 19.6248 9.36824 18.9898 10.2181C18.6198 10.7157 17.392 11.824 17.4405 12.6463C17.4792 13.2974 18.4777 13.9307 18.9914 14.4542Z" fill="#4E4E4E"/>
</g>
<defs>
<clipPath id="clip0_27_58">
<rect width="22.8947" height="22.8947" fill="white" transform="translate(0 0.503418)"/>
</clipPath>
</defs>
</svg>
