<svg width="43" height="43" viewBox="0 0 43 43" fill="none" xmlns="http://www.w3.org/2000/svg">
<g clip-path="url(#clip0_3_46)">
<path d="M40.8635 16.7831C40.8749 16.5421 41.029 16.3411 41.0975 16.4392C40.9252 15.9313 41.1423 15.9313 40.778 15.855C40.6099 15.5441 40.8718 15.2099 41.0079 15.5663C41.0344 15.5621 40.75 14.6697 40.75 14.6697L40.7235 15.2063C40.4097 15.0745 40.7656 14.3488 40.404 14.2137L40.4853 15.158L40.3815 15.1132C40.5201 15.3227 40.4417 15.7458 40.3969 15.8891C40.3492 15.8645 40.2651 15.8766 40.2637 15.7114C40.1809 16.8391 40.8239 16.0399 40.8043 17.0242C40.8062 16.9597 40.8216 16.8853 40.8635 16.7831ZM39.9965 17.6551L40.2852 18.1201L40.0454 18.7624C40.1715 18.8018 40.1269 19.3165 40.3369 19.0181C40.3352 18.9473 40.3412 18.8115 40.3705 18.7098C40.6422 18.8563 40.2416 19.6448 40.5808 19.5287C40.6746 18.9648 40.763 18.8961 40.6047 18.506C40.7377 18.0135 40.8889 17.6641 41.0081 17.4385C40.9842 17.2809 40.8133 17.2361 40.8021 17.0427C40.8007 17.0853 40.7993 17.1247 40.7967 17.1716L40.3694 17.1358C40.4393 17.301 40.3791 17.4399 40.3679 17.6122L39.97 16.7715C39.5441 16.9678 39.687 17.7255 39.4363 17.9834C39.8719 17.6944 39.5481 18.3149 39.9965 17.6551ZM3.12515 10.4782C3.18677 10.2758 3.11401 10.1798 3.0768 10.1315C3.0768 10.1315 2.88269 10.7008 2.68929 11.2705C2.58998 11.5557 2.49542 11.8413 2.47219 12.0605C2.43522 12.2769 2.40796 12.4219 2.40796 12.4219C2.53263 12.3686 2.78694 11.7453 2.77224 12.1998C2.90165 12.029 2.98792 11.4296 2.88008 11.2992L2.98934 11.5087C2.95498 10.9259 3.48114 10.7235 3.49086 11.0925L3.50413 11.0492C3.50413 11.0492 3.42639 10.6261 3.35078 10.2016C3.30315 9.98025 3.3003 9.7667 3.3003 9.60483C3.29888 9.43963 3.29888 9.33108 3.29888 9.33108C2.97607 9.82406 3.3304 9.84302 3.12515 10.4782ZM42.1384 10.7297C42.004 10.4628 41.955 10.4453 41.9282 10.4915C41.9915 10.5785 42.0571 10.6605 42.1384 10.7297ZM3.3003 8.91205L3.31926 8.33066C3.27873 8.54918 3.27423 8.75443 3.3003 8.91205ZM6.04037 13.0007C6.05293 13.0035 6.06621 13.0104 6.08469 13.005L5.97899 12.8165V12.8215L6.04037 13.0007ZM12.6276 2.32151C12.6838 2.31156 12.7286 2.30326 12.7971 2.29141C12.7369 2.29141 12.6807 2.31037 12.6276 2.32151ZM7.47499 17.5101C7.45461 17.515 7.11355 16.8445 7.11355 16.8445C7.24533 16.9237 7.16333 16.5869 7.32307 16.7199C7.29558 16.6694 7.21499 16.4229 7.16333 16.4978L7.19058 16.6407C6.79193 16.2982 6.67153 16.5476 6.38285 15.9081C6.18258 16.3283 6.38712 16.5035 6.58241 16.6981C6.61678 16.7673 6.63574 16.8277 6.6566 16.8865C6.6566 16.8865 7.20931 17.4245 7.22613 17.4167L7.47499 17.5101ZM30.8598 6.30849L30.8527 6.33741C30.856 6.33346 30.8584 6.32879 30.8596 6.32378C30.8609 6.31876 30.8609 6.31353 30.8598 6.30849ZM30.8273 6.45283L30.8539 6.33717C30.8122 6.39903 30.6439 6.4744 30.8273 6.45283ZM3.41383 9.18034C3.36335 9.13697 3.32353 9.04382 3.30172 8.91062L3.29888 9.33108C3.32756 9.29411 3.37188 9.23485 3.41383 9.18034ZM3.73521 10.2289L3.50413 11.052L3.57689 11.4037C3.61481 11.0778 3.69184 10.7081 3.73521 10.2289Z" fill="#D4AC79"/>
<path d="M11.0556 2.27885C13.087 2.00344 10.6136 2.74031 11.5586 2.73889C12.1016 2.63176 12.2822 2.41797 12.6289 2.32151C11.0326 2.65001 12.8055 1.64911 11.1502 1.92997C11.3325 1.55881 12.3409 1.39338 12.9162 1.47823C13.5677 1.81384 12.3606 1.72899 12.2416 2.11081C12.8986 1.98733 12.7782 1.94893 13.052 1.75624C13.5732 1.80104 14.1126 1.70529 14.607 1.6631C15.0924 1.65457 15.5254 1.71074 15.7963 1.9833C16.5422 2.00652 16.5256 1.83256 16.9802 1.75624C17.1447 1.38935 15.9041 1.36328 15.6515 1.05659C15.7074 1.09522 15.8141 1.1713 15.7736 1.21704L15.1177 1.05659C15.7349 1.26326 14.9917 1.40807 14.6646 1.40049C14.4181 1.40049 13.9291 1.40665 13.9991 1.30735L14.378 1.23743C13.8934 1.10992 13.3105 1.4825 12.8012 1.28222C12.7711 1.20022 12.9631 1.16324 12.9918 1.11134C12.4251 1.35925 11.8586 1.43557 11.0383 1.69486L11.486 1.28009C11.163 1.50833 10.6236 1.64366 10.0156 1.8053C9.40699 1.94467 8.73175 2.01055 8.1608 2.15276C8.30087 2.16414 8.52769 2.12266 8.42269 2.23666C7.83633 2.55828 7.26988 2.52676 7.48342 2.23121C7.35733 2.3637 7.14497 2.47486 6.88236 2.5827C6.62948 2.70736 6.32966 2.8581 6.0187 3.01145C5.4001 3.307 4.76468 3.66986 4.54426 4.15384C4.54426 4.15384 4.41604 4.41573 4.22406 4.8094C4.03635 5.19336 3.81498 5.70246 3.69316 6.25517C3.56796 6.72685 3.4584 7.20256 3.36466 7.68149C3.322 8.07019 3.31916 8.32924 3.32058 8.32924C3.34641 8.18703 3.38505 8.04151 3.44667 7.90191C3.90671 7.80734 3.95861 7.65684 3.89699 8.27947C4.05887 7.73529 3.74506 7.76397 4.26269 7.08446C4.17382 7.44993 4.42102 7.72392 4.93722 7.15035C5.1593 6.69861 5.46173 6.36301 5.69163 5.95961C5.93527 5.57092 6.15403 5.15473 6.43892 4.82078C6.71148 4.46361 6.9985 4.09932 7.32154 3.73362C7.65431 3.40299 8.03874 3.10459 8.47744 2.80501C8.62652 2.9484 10.1074 2.48979 10.8575 2.39641C10.6207 2.71945 10.1088 2.91546 9.57503 3.10317C9.92391 3.02899 10.5143 2.90432 10.9563 2.81117L11.0556 2.27885Z" fill="#D4AC79"/>
<path d="M6.79471 4.689C6.84955 4.68008 6.90331 4.66555 6.95517 4.64563C6.9208 4.64421 6.87269 4.65393 6.79471 4.689ZM9.4068 3.13825C9.40253 3.1482 9.4068 3.15507 9.40822 3.16479L9.57508 3.10459L9.4068 3.13825ZM4.11058 9.05852C4.11911 9.18887 4.09802 9.26946 4.10916 9.39673L4.16248 9.16423C4.17102 9.0808 4.15964 9.03268 4.11058 9.05852ZM3.55313 9.17892L3.49411 9.07795C3.45904 9.12156 3.44079 9.14384 3.41211 9.18034C3.45501 9.21755 3.50265 9.22443 3.55313 9.17892ZM17.974 5.0476L18.1477 5.05187C18.0532 5.02319 18.0041 5.03006 17.974 5.0476Z" fill="#D4AC79"/>
<path d="M13.3336 2.52534C12.6479 2.56255 13.2601 2.8427 12.3047 2.93442L12.5863 2.93015C11.9117 3.13801 10.7167 3.19703 9.91613 3.45466C9.97064 3.29159 9.37954 3.40417 9.40821 3.16337C8.86191 3.37289 8.33717 3.67744 8.15301 3.99267C7.77901 4.03628 7.39173 4.48162 6.95516 4.64563C7.18767 4.66744 6.64278 5.37135 7.49602 4.67028C7.42871 4.73048 7.49033 4.73048 7.42586 4.79068C8.10039 4.5814 8.24331 4.26973 8.79744 4.01471C9.175 4.01044 8.33859 4.43374 8.66851 4.36003C9.29966 3.89289 10.8819 3.8872 10.7326 3.38355C11.2531 3.21267 11.3462 3.36886 11.5143 3.42764C11.8897 3.13351 12.6903 3.04178 13.3516 3.12924C14.0178 3.17972 14.5724 3.20982 14.5957 2.86782C14.2875 2.88251 13.781 2.86095 13.3307 3.00291V2.5251L13.3336 2.52534ZM4.65569 8.1401C4.68295 8.11 4.71471 8.07587 4.73912 8.04696L4.65569 8.1401ZM0.468437 15.6043L0.00816345 15.3073C-0.050615 13.5885 0.22882 12.9791 0.481709 11.4969C0.565137 11.398 0.569166 11.5872 0.57201 11.6825C0.603532 11.1629 0.905957 10.5029 1.08822 9.88734C1.18847 9.57899 1.28778 9.28202 1.37832 9.00258C1.49611 8.73144 1.59068 8.4814 1.64519 8.27188C1.82461 7.94339 2.41998 7.1833 2.35338 7.57081C2.41239 7.39969 2.45837 7.19325 2.60911 7.04251C2.76127 7.08446 2.3913 7.4459 2.50909 7.53336C2.59797 7.40087 2.65343 7.36532 2.62949 7.30512C2.61764 7.61039 3.21586 7.38001 2.62949 8.41243C2.06991 8.63522 2.9952 7.66229 2.50269 7.6841C2.29958 8.04127 2.46572 8.0799 2.49155 8.13584C2.2344 8.58071 2.1505 8.52311 2.07679 8.45248C2.11115 8.68926 1.59352 9.18437 1.71961 9.51855C1.42548 10.4481 1.44421 9.34909 1.23493 9.96058L1.51578 10.451L1.11002 11.4239C0.993651 12.8801 1.85589 11.4078 1.81252 13.0187C1.64495 12.7763 1.1169 13.3472 0.970661 14.103C0.960706 13.6539 0.876094 12.7708 1.09248 12.2015C0.613487 12.9699 1.2636 11.0463 0.815893 11.3895C0.91046 11.8526 0.810205 12.5426 0.621782 13.072L0.61325 12.8886C0.454453 13.4693 0.840305 13.9454 0.644772 14.7216C0.63624 15.1146 0.521527 15.0404 0.425538 14.9655C0.462748 15.3044 0.563004 15.6028 0.468437 15.6043ZM0.401126 14.7349L0.474599 14.2026C0.395438 14.3244 0.387142 14.5256 0.401126 14.7349ZM38.1345 22.7733L38.2213 22.6837C38.1921 22.6963 38.1613 22.734 38.1345 22.7733ZM11.8373 28.199L11.9921 28.3826C11.9462 28.3168 11.8944 28.2553 11.8373 28.199ZM16.7337 30.7866L17.0665 30.9267C16.9556 30.8454 16.8463 30.8092 16.7337 30.7866ZM36.588 25.1043L36.5781 25.1131L36.5615 25.169L36.588 25.1043ZM23.2892 35.9475C23.32 35.9712 23.3508 35.9921 23.3901 35.998C23.3731 35.9587 23.3354 35.9449 23.2892 35.9475ZM16.6711 30.7615C16.6775 30.7698 16.679 30.7741 16.683 30.7812L16.7337 30.7866L16.6711 30.7615ZM11.2133 25.6423C11.1713 25.6146 11.1355 25.589 11.0872 25.557C11.137 25.6032 11.1775 25.6269 11.2133 25.6423ZM10.4987 26.6736C10.4596 26.6403 10.4173 26.6107 10.3726 26.5854L10.4987 26.6736ZM7.15354 19.5848C7.15354 19.5848 6.99735 19.3369 7.00446 19.3355C7.04428 19.4687 7.10306 19.5372 7.15354 19.5848ZM10.1759 25.844C10.1486 25.844 10.1226 25.8412 10.1003 25.844C10.1387 25.8694 10.1719 25.8694 10.1759 25.844ZM40.1785 21.5153L40.1728 21.535L40.2136 21.5615L40.1785 21.5153ZM39.8984 20.5502L39.9657 20.2779C39.9285 20.3644 39.9058 20.4563 39.8984 20.5502ZM27.1403 34.2313C27.2453 34.2313 27.4584 34.1711 27.4191 34.2847C27.5061 34.1138 27.3698 33.9469 27.1403 34.2313ZM41.8188 24.2219C41.7963 24.1421 41.7923 24.0567 41.7895 23.9726C41.7812 24.1212 41.7672 24.2513 41.8188 24.2219ZM41.7909 23.9726L41.8006 23.7512C41.7909 23.8254 41.788 23.8984 41.7909 23.9726ZM27.2299 38.4468C27.1892 38.4343 27.1452 38.4372 27.1065 38.4551C27.1501 38.4944 27.1894 38.4833 27.2299 38.4468ZM40.1112 20.0899C40.0481 20.0053 40.1645 18.8032 39.8337 19.741C39.5452 19.6045 39.8758 19.0923 39.8773 18.8198C39.7514 18.9809 39.7092 18.6783 39.5831 18.7036C39.5831 18.8347 39.6267 19.0035 39.544 19.2002C39.3788 19.2507 39.3743 18.9207 39.4992 18.6994C39.2499 18.943 39.3675 18.2735 39.121 18.6434C38.9866 19.5344 38.8631 20.1684 39.0311 20.9676C39.1615 20.4324 39.3058 19.8503 39.5426 19.4701L39.7514 19.7327C39.3592 20.13 39.408 20.4774 39.2034 20.9334L39.7426 19.9394C40.1138 19.5099 40.0806 19.8645 39.9657 20.2779C40.0064 20.1816 40.0567 20.0982 40.1112 20.0899ZM42.0556 21.7087L42.071 21.6904C42.0694 21.6693 42.0724 21.6442 42.0653 21.6288L42.0556 21.7087ZM1.96942 21.4958L1.82721 21.4174C1.90709 21.4958 1.94904 21.5139 1.96942 21.4958ZM40.5428 21.8881C40.5414 21.8964 40.5414 21.8992 40.5428 21.8881V21.8881ZM3.15234 24.2456L3.12366 24.2428C3.13693 24.2485 3.14404 24.2442 3.15234 24.2456ZM8.66448 22.0616C8.67419 22.0505 8.68415 22.0436 8.6896 22.0294C8.65381 21.9931 8.65381 22.0196 8.66448 22.0616ZM3.17699 24.2359C3.17011 24.2388 3.16229 24.2442 3.15234 24.2456C3.16087 24.243 3.17272 24.2442 3.17699 24.2359ZM12.6996 34.0171C12.6996 34.0171 12.6981 33.9555 12.6752 33.8784C12.6408 33.8813 12.6408 33.9206 12.6996 34.0171ZM11.0192 31.9745C11.015 31.9566 11.0103 31.9389 11.0052 31.9212L11.0192 31.9745ZM25.9591 33.5589C25.8793 33.6106 25.8034 33.6682 25.7323 33.7313C25.8095 33.6907 25.888 33.6348 25.9591 33.5589ZM3.12366 24.2428C3.08384 24.2302 3.03597 24.2068 2.97174 24.1603C3.04308 24.2108 3.08929 24.2331 3.12366 24.2428ZM16.646 35.3704L16.5654 35.3479L16.5941 35.387L16.646 35.3704ZM17.6114 36.3104C17.5569 36.3104 17.5211 36.3232 17.4839 36.3315C17.9356 36.5149 18.5942 37.1063 18.8419 36.9226C18.7011 36.8413 18.1093 36.2277 18.3243 36.1689C18.0084 36.0454 17.7318 35.5915 17.5595 35.5302C17.9083 35.9712 17.4663 35.7655 17.1091 35.6311C16.8913 35.365 17.2969 35.4782 17.098 35.2654L16.4593 34.8381L16.9762 35.264L16.6477 35.369C16.6735 35.3744 16.6889 35.3801 16.719 35.387C17.7114 35.9546 16.5543 35.7809 17.6114 36.3104ZM17.4839 36.3315C17.4233 36.3058 17.3594 36.2888 17.294 36.281C17.3857 36.3412 17.436 36.3412 17.4839 36.3315ZM21.381 39.3813C21.4455 39.4079 21.5161 39.433 21.6038 39.4584C21.5576 39.4415 21.4687 39.4107 21.381 39.3813ZM3.34029 11.9543C3.25141 11.95 2.96771 12.6002 3.18125 12.6317L3.35474 12.0413C3.35474 12.0389 3.33744 11.9526 3.34029 11.9543ZM31.8585 32.4704C31.7976 32.5117 31.7399 32.5575 31.686 32.6076L31.6734 32.6609C31.7281 32.6526 31.8149 32.532 31.8585 32.4704Z" fill="#D4AC79"/>
<path d="M18.5491 36.1997C18.4302 36.1592 18.3669 36.1563 18.3242 36.1689C18.3984 36.1983 18.4747 36.2151 18.5491 36.1997ZM32.2227 32.829C32.332 32.8138 32.4972 32.7941 32.5659 32.8432C32.7143 32.7171 32.7408 32.5434 32.8615 32.3824C32.7157 32.5531 32.5083 32.7059 32.2227 32.829Z" fill="#D4AC79"/>
<path d="M3.56026 11.5886L3.57709 11.4023L3.60173 11.5087L3.81528 11.0835C3.82097 11.0252 3.82855 10.9629 3.84538 10.8887C3.84452 10.9195 3.85469 10.9496 3.87406 10.9736L3.94753 10.8399C3.80959 10.3938 4.13524 9.48182 4.1625 9.16588C4.25565 8.78762 4.43364 8.34701 4.65572 8.14176C4.46516 8.34417 4.3175 8.67267 4.4827 8.65086C4.90173 8.26785 5.35893 8.32948 5.69169 7.4068L5.3549 7.82701L5.56726 7.19183C5.7206 6.8977 5.87679 6.60547 5.87679 6.60547C6.35034 6.47179 5.54119 7.17642 5.58266 7.44187C5.81659 7.00815 6.25008 6.81285 6.56815 6.62656C6.88693 6.43055 7.16068 6.31134 7.2441 6.03546C7.43324 6.20776 7.73922 6.50047 8.22248 6.18406C7.71883 6.15823 8.44314 5.84229 7.99685 5.76029C8.10611 5.50669 8.63867 5.52351 8.5979 5.35334L8.58676 5.46829C9.6872 5.43464 9.78319 4.74612 10.1977 4.45958C11.4271 4.02585 12.0469 4.18702 13.0681 4.06946C13.1172 4.23418 13.3966 4.6909 13.7882 4.67881C13.9773 4.43777 14.8929 4.39653 15.0176 4.14933C14.2975 3.93152 14.3975 4.3259 13.9648 4.37639C13.6102 4.0723 13.9444 4.0806 13.4393 3.89431C13.646 3.95877 14.1096 3.91611 14.5784 3.92441C15.0434 3.96423 15.5141 4.02727 15.7132 4.19413L15.5527 4.21309C16.2412 4.45981 16.1972 5.21114 17.4047 5.05352C17.4076 5.03883 17.9771 5.04807 17.9771 5.04594C17.9442 5.0649 17.9316 5.095 17.9098 5.11515C18.7462 5.4562 18.4106 5.63278 19.4086 5.78186C19.3309 5.76787 19.3631 5.81622 19.2854 5.80082C19.7099 6.18691 20.3915 6.13216 20.7655 6.2682C20.8504 6.60286 20.6226 6.44596 20.3972 6.52512C20.7819 6.79768 21.218 6.98824 21.6195 7.08328C22.0124 7.19041 22.2893 7.23165 22.4914 7.2051C22.6007 7.3383 22.7078 7.4734 22.8171 7.55801L22.8761 7.58455L22.8171 7.66514C22.6007 7.62959 22.3106 7.67225 22.3682 7.8775C22.5888 8.00216 22.5846 7.88887 22.8171 8.08133C22.836 8.06805 22.8747 8.04269 22.9209 8.01259C22.8962 8.10967 22.8614 8.20389 22.8171 8.29369C22.7528 8.361 22.6476 8.40295 22.5215 8.4603C22.6552 8.61934 22.7528 8.71391 22.8171 8.7587C23.1534 8.4513 22.7758 8.1529 23.257 8.25505C23.5089 8.05549 23.6085 7.70519 23.5916 7.49449C23.5916 7.49449 24.0623 7.40988 24.082 7.42031C24.0666 7.15628 24.6212 6.79768 24.9715 6.5391C24.9672 6.4251 24.575 6.49217 24.4771 6.65808C24.446 6.46895 24.7404 6.16368 25.0191 6.02574C25.3455 6.40045 26.9299 5.05068 26.8095 5.76171C28.0747 5.0431 30.075 4.63331 31.025 4.34605C31.3542 4.44204 31.9998 4.46242 31.6229 4.69066C32.7634 4.64587 33.4176 4.20811 34.5815 4.51978C34.6699 4.58424 34.0532 4.42521 34.0717 4.60747C34.4682 4.52689 34.8003 4.71176 35.1771 4.84709C35.558 4.98716 35.9685 5.16492 36.5359 5.34931C36.3468 5.28295 36.2584 5.35642 36.2138 5.39363C36.2235 5.30902 36.7225 5.41544 37.0431 5.45952C37.1886 5.5631 36.8049 5.42658 36.8694 5.51972C37.8655 6.0876 38.7399 6.56541 39.5858 7.17405C40.4053 7.78625 41.2053 8.54184 41.7193 9.61644C41.3958 9.01135 40.9979 8.96229 40.8846 9.02889L41.1844 9.58918C41.4295 9.73423 41.7181 10.139 41.9298 10.4891C41.8907 10.5593 41.8921 10.7674 41.7563 10.6083C41.794 11.2618 42.1275 11.6547 42.4076 12.134C42.6641 12.6118 42.9513 13.1531 43.0004 13.9419L42.5154 13.0585C42.2744 12.6376 42.035 12.2171 42.035 12.2171L41.8881 12.7068C41.8881 12.7068 41.4733 12.0008 41.4397 12.0169C41.3949 12.4923 41.8293 12.8083 41.612 12.9118C41.5252 12.8298 41.5084 12.5959 41.378 12.6177C41.3572 13.0654 41.5435 13.0611 41.6473 13.3792C41.0531 12.5947 40.6217 11.0411 40.0726 10.3652C39.973 10.2663 40.2338 10.4097 40.2925 10.4097C40.1091 10.1113 40.1411 9.84587 39.8538 9.49699C39.5486 9.37232 39.823 9.7667 39.9057 9.96627C39.7322 10.0319 39.6929 9.93474 39.5583 9.74205C39.7685 9.54036 38.8496 8.68665 38.8608 8.24723C37.8395 7.46984 38.5707 8.83976 37.7399 7.9768C37.7497 7.96922 37.6307 7.52435 37.6165 7.5362C37.2439 7.4459 36.8559 7.31958 36.4719 7.17903C36.0574 7.09015 35.6609 6.96809 35.3049 6.78891L35.4618 6.84366C35.6035 6.77161 35.4563 6.63343 35.3976 6.54242C34.8162 6.29237 34.2208 6.45781 33.8916 6.14448C33.5093 6.26512 33.0329 6.31963 32.5525 6.4142C32.0678 6.54526 31.5874 6.62087 31.2034 6.73558C30.9527 6.35258 32.219 6.38955 32.5667 6.15301L31.8201 6.16771C32.2809 6.15799 32.4631 6.00583 32.7559 5.79916C32.0804 5.73682 31.8592 6.06248 31.2485 6.17458C31.2892 6.06745 31.2037 6.01697 30.9138 6.05276L30.8576 6.30683C30.8493 6.28787 30.8171 6.27318 30.7259 6.26915C30.7273 6.26915 29.6515 6.55072 29.6598 6.58508C29.9079 6.63201 29.957 6.83442 30.23 6.80716C30.108 6.67823 30.3379 6.62087 30.618 6.58935C30.3981 6.7799 30.9053 6.68818 30.9122 6.82186C30.3644 6.86878 29.6991 7.01241 29.3699 7.18614L29.2017 6.99416C28.661 7.03848 28.1733 7.36413 27.8121 7.42149L27.8794 7.27099C27.2293 7.39281 26.7389 7.82986 26.1155 7.87205L25.2652 8.84284C24.9374 9.2204 24.6515 9.52164 24.3602 9.94328C24.2173 10.2621 23.503 10.6633 22.8109 11.111C22.243 10.5808 21.6832 10.0983 21.2476 9.98949C21.2028 9.91318 21.8899 10.2184 22.1757 10.3033C21.6531 9.83757 21.1028 9.85155 21.0262 9.41735C22.2113 10.4701 21.0248 9.1 21.5832 9.42588C21.0291 8.96703 20.4953 8.75278 20.1844 8.65536C21.0423 9.2249 19.7094 8.85493 20.6418 9.31781C20.2531 9.21494 19.7999 9.01799 19.3439 8.76178C18.9796 8.61673 18.6981 8.50344 18.4186 8.30791C18.4788 8.18893 18.4312 8.0991 18.2309 7.94244L17.974 8.05028C17.6974 7.90949 18.6199 8.04743 18.0601 7.76729C17.6946 7.81919 17.2623 7.60541 16.8475 7.45917C16.4259 7.34849 16.0343 7.27857 15.8395 7.54402C15.4143 7.19372 16.7916 7.52364 16.1422 7.06503C16.6212 6.94866 17.1416 7.33332 17.3644 7.11338C16.9252 7.05507 17.2924 6.80384 17.017 6.72681L16.4901 6.79413L16.5925 6.82991C16.1576 6.8804 15.6511 6.76402 15.1034 6.72824C14.8322 6.69197 14.5542 6.65453 14.2795 6.61897H13.4824C13.0475 6.74364 12.7091 6.96643 12.3661 7.15699C12.0194 7.33072 11.6662 7.46392 11.2244 7.57863C11.457 7.33901 10.4181 7.59119 10.9175 7.13518C10.4181 7.05958 10.0813 7.435 10.1226 7.5554C10.4902 7.45657 10.2591 7.54 10.5758 7.48975C10.4224 7.71941 9.98678 7.89741 9.75404 7.86991C9.84434 7.84669 9.80025 7.8327 9.79812 7.77819C9.34069 7.84953 9.64904 7.9806 9.41985 8.20125C9.23214 8.06047 8.8041 8.49823 8.49883 8.55155L8.4 9.07061C8.42868 8.76652 8.06724 9.2569 7.88142 9.15664C7.73234 9.4292 7.84587 9.84113 7.52022 10.1106C7.5489 9.90962 7.13697 10.3087 6.95898 10.208C6.69068 10.505 6.65774 10.8707 6.6248 11.1963C6.57929 11.5192 6.64945 11.8877 6.36574 12.1818C6.32522 12.146 6.24179 11.9519 6.11712 12.1489C6.12897 12.3413 5.95951 12.6035 5.97065 12.817L5.96638 12.8099L5.97065 12.8218C5.96496 12.9206 5.9825 12.9862 6.03227 13.0012C6.18017 13.3766 6.36574 13.5861 6.42452 14.2241C6.67812 14.2059 6.67812 13.6876 6.63807 13.4465L6.43282 13.2026C6.81298 13.0891 6.46576 12.6277 6.65347 12.5385C6.77814 12.7521 6.80279 13.1242 6.80279 13.5226C6.8118 13.9198 6.72292 14.3289 6.86844 14.6588C7.22017 14.3059 7.43371 13.534 7.53326 12.8817C7.52425 12.8741 7.29933 13.1123 7.31331 13.124C7.29506 13.1107 7.40077 12.7864 7.40503 12.7907C7.40503 12.7907 7.03933 13.0336 7.05687 13.0491C7.16115 12.722 7.246 12.4577 7.33796 12.1728C7.23367 12.5013 6.86015 12.5343 6.98078 12.3563C7.33535 12.0579 6.9668 11.906 7.07535 11.6059C7.00377 11.7635 6.92746 11.982 6.84498 11.7882C7.31781 11.3217 7.29814 11.1558 7.77998 10.8385C7.37375 10.6346 8.13455 10.3348 7.91318 10.0608L7.73542 10.2277L7.87336 9.65673C8.41256 9.51737 7.85156 10.1855 8.49457 9.84444C9.01504 9.50623 8.66071 9.09146 9.13568 8.81487C9.08591 9.08388 8.92047 9.51334 8.62777 9.76528L8.88492 9.69963C8.87947 9.8845 8.45428 10.1843 8.31136 10.4168C8.37014 9.88734 8.12649 10.5232 7.80771 10.5505C7.97528 10.7124 8.1291 10.4811 8.06416 10.8382C8.26111 10.6064 8.27841 10.5588 8.57705 10.3109C8.28695 10.6093 8.31847 10.8726 8.37037 11.098C8.4474 11.358 8.54979 11.5841 8.29263 11.8294C8.35686 11.5042 7.93949 11.7704 7.80914 11.7649C7.72452 11.8924 7.71741 12.2904 7.71315 12.4316L8.0689 12.4274C8.099 12.8955 7.26686 12.7876 7.54368 13.4733C7.7314 13.5897 7.68731 12.9898 7.70912 13.1007C7.83236 13.9196 7.14811 14.0618 6.86915 14.8048C6.9687 14.8525 7.18367 14.8608 7.34697 15.1158C7.14954 15.0283 7.03459 15.2167 6.90281 14.9184C6.799 15.1634 6.92793 15.4647 7.0289 15.6782C7.12347 15.1677 7.33156 15.8849 7.4548 15.964C7.42755 16.2219 7.24955 15.8974 7.18509 15.7344C7.13887 15.9437 6.8483 16.2205 7.15499 16.3184C6.94547 16.3513 6.57076 15.7505 6.50487 15.3265C6.49491 15.3265 6.47761 15.6066 6.47761 15.6066C6.35721 15.4139 6.38447 15.3755 6.4404 15.0987C6.25696 15.367 6.07493 15.3426 5.92846 15.2724C5.96141 15.2362 5.97752 15.2935 6.01189 15.2592C6.08062 15.0281 6.03156 14.8472 5.9159 14.8963C5.64263 14.6664 5.71634 15.2177 5.56418 15.3796L5.63718 15.7488C5.63718 15.7488 5.87821 16.0458 6.11902 16.3406C6.37333 16.6265 6.6485 16.8865 6.6485 16.8865C6.80326 17.3669 6.64423 17.6219 6.59256 18.0338L6.85659 18.0829C6.90423 18.52 6.9988 18.952 6.59659 18.7567C6.67149 18.7181 6.63451 18.6664 6.6184 18.5662C6.58334 18.5622 6.55053 18.5469 6.52502 18.5226L6.47595 18.5114C6.69874 18.9603 6.83739 19.2398 6.85351 19.2699C6.26952 18.5659 6.41291 19.3602 5.95548 19.3575C5.95548 19.3575 6.05289 19.5628 6.15149 19.7666C6.26644 19.9662 6.38139 20.1639 6.38139 20.1639C6.31692 19.609 6.58095 20.0819 6.70277 20.2373C6.48638 20.3774 6.96135 20.9057 7.07535 21.1998H7.02013C7.05995 21.5023 7.30383 21.9604 7.5489 22.2517C7.61597 22.1984 8.18622 22.4228 8.50571 22.487C8.2905 21.9071 8.55192 22.1787 8.65905 22.0583C8.67801 22.1199 8.72826 22.2209 8.75978 22.2166C8.86004 22.2574 8.78704 22.0666 8.85008 22.0135C8.43674 21.5148 8.1208 20.9531 7.71409 20.8564C7.65532 21.1008 7.98784 21.096 7.98381 21.3382C7.65389 21.152 7.49557 20.7604 7.30928 20.27L7.44177 20.0333L7.15451 19.5841C7.33535 19.7522 7.49273 19.5569 7.72239 20.043C7.88284 19.9086 7.48443 19.5626 7.44153 19.2312L7.13389 19.157C7.29648 19.1682 7.12702 18.5 7.46523 18.9084C7.46523 18.9084 7.57449 19.0793 7.68376 19.2516C7.80842 19.4192 7.93309 19.5858 7.93309 19.5858L8.02908 19.3161L8.31491 19.9157L8.12862 19.8226C8.71356 20.7452 7.75249 20.3373 8.50831 21.2207C8.98731 21.3819 9.15535 21.6997 9.46228 22.337C9.13094 21.9407 9.23475 22.4112 8.96788 22.3441C9.12833 22.8679 9.45256 22.8793 9.70474 23.0362C9.64027 23.2419 9.55827 23.4088 9.33216 22.99C8.98328 23.1398 9.72655 23.4818 9.44427 23.7268C10.3982 25.0534 11.1472 24.0503 11.9784 25.7917L11.8165 25.8379C12.7636 26.6167 13.1046 27.2583 14.0145 27.9686C14.0145 27.9686 14.1077 28.1968 14.2037 28.4239C14.3037 28.6481 14.4061 28.8749 14.4061 28.8749C14.2148 28.7811 13.6137 28.6116 13.6713 28.924C13.627 28.3272 13.1867 28.1016 13.0058 27.6126C12.9008 27.6491 12.9786 27.8411 12.9954 27.9447C12.7965 27.7344 12.8252 27.5076 12.5133 27.2834C12.4678 27.3507 12.6844 27.7176 12.4334 27.5244L12.2514 26.9864C11.7098 26.5551 11.5999 27.1208 11.1405 26.443C11.406 26.415 11.8409 26.4373 12.0846 26.6335C11.8767 26.3309 12.5036 26.908 12.3773 26.5733C11.8001 26.3925 11.7959 26.0479 11.2124 25.6388C11.2984 25.6739 11.3603 25.6502 11.4821 25.7677L10.9498 24.9133C10.9526 25.2243 10.297 24.3867 10.1309 24.6246C10.6829 25.5506 10.6296 25.1908 11.2908 26.2413C11.0197 26.0142 10.5167 25.8462 10.1764 25.8407C10.1778 25.8267 10.1735 25.8071 10.1517 25.7736C9.81614 25.7973 9.88202 25.9936 9.50802 26.2906C10.1503 26.5273 10.1693 27.0163 10.7891 27.4029C11.0728 27.323 10.7675 26.8857 10.499 26.67L11.0284 27.0092L10.8576 27.0009C10.8576 27.0009 11.0986 27.3021 11.3366 27.6031C11.5873 27.9003 11.8374 28.1957 11.8374 28.1957C11.625 27.9928 11.4458 28.0248 11.2531 27.9928C11.3856 28.144 11.4731 28.3374 11.5662 28.5433C11.7153 28.3374 11.8632 28.2364 11.9935 28.3796C12.6505 29.1333 12.897 29.6836 12.9805 30.1446C13.012 30.1683 13.0492 30.1922 13.0779 30.2131C13.1312 29.9092 13.9143 30.3686 14.3262 30.3742C14.1385 30.5622 14.6106 30.8338 14.741 31.1282C15.0562 31.0007 15.1723 30.5454 15.0751 30.1278C14.3881 29.8952 14.6059 30.0915 14.1044 30.1726L13.1257 29.626L13.4696 29.6149C13.1426 29.1721 12.5605 29.0292 12.8055 28.833C13.1558 28.8835 13.3995 29.3037 13.7555 29.339L13.5746 29.0152C14.2444 29.2129 13.6047 29.4511 14.3103 29.8068C14.2864 29.4186 14.3691 29.8417 14.7384 29.9216C14.6606 29.6163 13.7064 29.0783 14.1814 28.9003C14.5919 29.0195 14.7943 30.1863 15.4885 30.1835L15.4366 30.206C15.9815 30.7509 16.3619 30.7186 16.6821 30.7762C16.8425 31.0943 17.3258 31.2118 17.6102 31.4192L17.5213 31.5171L17.9527 31.7778C17.6159 31.8269 17.491 31.4178 17.1367 31.1782L17.026 31.4024C16.8179 30.8672 16.2863 31.0073 15.8556 30.9206C16.4152 31.1208 17.0561 31.9655 17.454 31.67L17.5773 32.0776L17.765 32.1087C17.8567 32.414 17.4708 32.4869 17.0324 32.2234C17.0001 32.1196 16.9862 32.0679 17.0378 32.044C16.7864 31.9824 16.4986 31.9992 16.0881 31.5984L16.4083 31.6854C15.8675 31.2313 15.319 30.8869 14.9754 30.9149C15.6746 31.6354 16.4338 32.2953 17.2447 32.8873C17.8086 32.6197 18.2617 32.5692 18.6862 32.2371C19.2529 32.5372 19.9933 32.9783 20.3429 33.4449L20.2441 33.5009C20.4177 33.6756 20.6308 33.8059 20.8655 33.8806C21.0286 34.151 20.5496 33.9995 20.6757 34.1719L21.5379 34.529C21.363 34.6987 20.7165 34.2742 20.4019 34.0808C20.47 34.1045 20.6072 34.1508 20.5868 34.0989C20.2906 33.7808 19.4051 33.6578 19.4494 33.2696C19.2463 33.198 19.9376 33.3072 19.3752 32.8899C19.0685 32.5144 18.7699 32.6671 18.6692 32.7188C18.5815 32.8226 19.1603 33.3044 18.8562 33.2807C19.1685 33.481 19.3849 33.4248 19.698 33.8016C19.3906 33.6042 18.8289 33.5369 18.7881 33.2568C18.061 33.0297 17.7726 33.5886 18.0323 33.8227C18.0785 33.6222 19.2574 34.4027 18.6248 33.6433C19.1207 33.6881 19.7596 34.1337 20.31 34.3157L20.2631 34.3425L20.8738 34.6717C20.7549 34.6772 20.5453 34.6101 20.4676 34.7165L21.4649 34.9419C20.8821 34.8507 21.6555 35.2628 21.8088 35.4811C22.0058 35.365 22.3945 35.4306 22.1561 35.1479C21.8934 34.8115 21.8991 35.1168 21.5839 34.935L22.1907 34.9393L22.2125 34.9884C22.2125 34.9884 22.3111 34.9741 22.4135 34.9587C22.4962 34.9338 22.5137 34.8677 22.5206 34.8706C22.623 34.9559 22.1781 35.3763 22.4701 35.2531L22.5865 34.9054C22.6424 34.9713 22.704 35.1564 22.8176 35.3187C22.9121 35.3581 23.0363 35.3413 23.0823 35.2261C23.1074 35.4477 23.1399 35.8089 23.2925 35.9435C23.169 35.949 22.9773 36.0694 22.8176 36.1886L22.7889 36.1786C22.7806 36.1549 22.7931 36.117 22.8176 36.0762C22.8849 35.8971 22.9858 35.6378 23.0908 35.6435C22.9688 35.2638 22.9225 35.6155 22.8176 35.7444C22.7723 35.7556 22.7341 35.7051 22.7462 35.4797C22.5381 35.1225 22.3561 35.9181 22.1835 35.4083C22.0878 35.6603 21.8707 35.3661 21.7117 35.5425C21.7102 35.6686 21.8321 35.8058 21.907 35.876C21.9582 35.9347 22.0402 35.971 22.1248 35.9994C22.2999 36.0611 22.4779 36.0793 22.5983 36.2346C22.5696 36.2402 22.5094 36.2528 22.4905 36.299C22.6313 36.4474 22.7258 36.4784 22.8176 36.4671C22.8479 36.428 22.8808 36.3843 22.9164 36.3353L22.8981 36.3102C23.102 35.8971 23.0572 36.4488 23.2435 36.4784C23.2954 36.4028 23.5419 36.3467 23.4425 36.1784C23.4326 36.1838 23.818 36.2471 23.8277 36.2402L23.6739 35.9881C23.7732 35.9053 24.059 35.9601 24.2173 35.6463L24.0884 35.4152C24.0884 35.4152 23.8824 35.5176 23.6781 35.6181C23.5184 35.6911 23.4833 35.6854 23.4679 35.6937C23.5224 35.6084 23.5001 35.5468 23.4819 35.4892C23.4539 35.4358 23.4231 35.3913 23.6416 35.223C23.3153 35.7667 24.0592 35.1362 24.2372 35.31L24.4726 34.9822L24.429 35.0943C24.7525 35.0495 24.6686 34.8213 24.9739 34.6615C24.5565 34.7622 24.2358 34.7466 23.9035 35.181C24.1417 34.8561 24.6686 34.3152 24.8155 34.206C25.0803 33.9007 25.4138 33.909 25.7347 33.7296C25.2121 34.2114 26.3973 34.2565 25.1083 34.8898C25.1028 34.8324 25.2035 34.7791 25.2583 34.7805C24.9137 34.6039 24.5608 35.268 24.3659 35.5411C24.5382 35.6617 24.2903 35.876 24.8127 35.6714C24.5956 35.666 24.9656 35.0578 25.4882 34.9009L25.642 35.2988L26.3047 34.9094L26.257 34.9682C26.6479 35.027 26.9003 34.4596 27.4212 34.283C27.6483 33.9412 28.8867 33.1636 28.1218 33.1918C28.6511 33.1105 28.7874 32.6047 29.1471 32.239L28.5418 32.4969C28.9511 31.8048 28.8978 32.0821 29.0687 31.3427C29.1879 31.396 29.3503 31.3846 29.3306 31.5529C30.1236 30.9407 31.2864 30.0932 31.4724 29.4402C31.9979 28.9835 32.4155 29.2594 32.9812 28.4331C33.0836 28.2452 32.599 28.2777 33.1284 27.8963C33.1818 27.8866 32.9182 28.5604 33.3932 28.0184C33.5204 27.4341 34.3469 27.2633 34.5782 26.5811C34.8949 26.3963 35.2381 25.8988 35.3556 26.1581C34.9691 26.5546 34.4801 27.1722 34.4901 27.3445C34.4268 27.1848 34.1146 27.5408 34.2995 27.1571C33.6043 27.6543 34.0445 27.664 33.4323 28.1264C33.4671 28.2357 33.9044 28.0366 33.952 27.8574C34.2083 28.0897 33.026 29.0622 33.7966 28.8605C34.3934 28.2805 34.0376 27.6218 34.77 27.336C34.7392 27.6892 34.3161 27.9008 34.3218 28.409L34.8273 28.0743L34.9269 27.5882L34.948 27.6415C35.8823 27.0781 35.3037 26.6804 35.7521 25.8791C35.2326 26.1311 35.3599 25.4139 34.997 25.6198C35.3431 25.1394 35.6189 24.8145 35.9048 25.0216C35.4495 26.0808 36.1764 25.2992 35.7827 26.3313C35.9929 26.274 36.0126 26.8485 36.4525 26.3775C36.6919 25.6547 36.0979 26.3693 36.4371 25.7317C36.4861 25.7165 36.5381 25.7023 36.5632 25.7514C36.6165 25.3828 36.8488 25.4866 36.9218 25.0522L36.9246 25.1671C37.3742 24.891 37.0296 24.5955 37.4541 24.3824C37.1417 24.3741 37.4486 24.0406 37.4358 23.7354C37.1375 24.0352 36.6905 24.007 36.2563 24.6822C36.3601 24.8813 36.4888 24.8996 36.3627 25.2288L36.6611 24.7832C36.6345 24.887 36.6077 24.9989 36.5812 25.1081L36.1849 25.4572C36.4636 24.8493 36.1079 24.9586 36.102 24.6166C36.5084 24.1921 36.3276 24.1907 36.5909 23.9288C36.8263 24.1347 37.6373 23.2706 38.1374 22.7703C38.0772 22.8584 38.0196 22.9805 37.9722 23.0393C37.8755 23.5588 38.3642 22.8724 38.4344 22.8892L38.4751 22.4996C38.4609 22.5683 38.4766 22.6861 38.5872 22.5697C38.7678 22.109 38.5088 22.0038 38.6529 21.5485C38.8167 21.5833 38.8686 22.0654 39.0731 21.83C39.2383 21.7976 39.7469 21.6506 39.8716 20.983C39.8294 20.9149 39.8562 20.7436 39.901 20.5492C39.8996 20.5782 39.8927 20.6125 39.8996 20.6284L40.2245 20.2824C40.3466 20.7315 39.8422 20.9458 39.9444 21.3982L40.1754 21.5326C40.0496 21.807 39.9809 22.2261 40.0257 22.4614C40.2624 22.0595 40.2399 21.9391 40.408 21.4458C40.5942 21.4444 40.5537 21.8298 40.548 21.8857L40.4416 21.7525C39.9809 22.2232 40.2932 22.7153 39.8659 23.382C39.7986 23.4815 39.8169 23.4085 39.7832 23.3609C39.7187 24.0572 39.066 24.3907 39.0335 25.1008L39.0224 24.8543C38.8823 25.2619 38.6538 26.1095 38.336 26.9248L38.4145 26.9919C38.5209 26.9542 38.3263 27.2064 38.1919 27.3156V27.3128C38.0419 27.7328 37.8584 28.1082 37.7169 28.4277C37.8515 28.379 37.9739 28.3016 38.0755 28.2009C38.0701 28.0257 38.6335 27.4694 38.3448 27.3827C38.6922 27.1936 38.8617 26.5954 39.0928 26.4356C38.6752 26.73 39.0688 26.0069 38.9918 25.8542C39.2257 25.8194 39.38 25.2631 39.541 25.444C39.646 25.3994 39.2777 25.5518 39.2791 25.7983C39.1741 26.3392 39.9643 25.1415 39.7789 25.7774C40.0887 25.0152 40.6938 24.1314 40.8843 23.2907L40.5788 23.6536C40.7976 23.3538 41.1294 22.5468 41.2515 22.5302L40.9 23.414C41.1382 23.5581 41.2797 22.656 41.4366 22.6882C41.4366 22.6882 41.4435 22.4093 41.4517 22.132C41.459 21.9471 41.4581 21.762 41.4489 21.5771L41.264 21.9805C41.2292 21.6653 41.7573 20.8815 41.9954 20.2293C42.2419 20.7322 41.6537 21.2157 41.5274 21.9469C41.4307 22.4875 41.9869 21.7843 41.8551 22.2801C41.994 22.1962 42.1102 21.8796 42.0822 21.689L42.2166 21.5238C42.3735 22.0855 41.8691 23.0004 41.8103 23.7486C41.8075 23.6785 41.799 23.614 41.7741 23.5804C41.4029 23.9866 41.1716 24.4729 40.9756 24.9562C41.2093 24.7782 41.1981 24.6452 41.2418 24.4881C41.3257 24.5132 41.1142 24.9574 41.0889 25.1577C41.425 24.7936 41.3031 25.1802 41.5119 24.9448C41.4138 25.2558 41.2583 25.466 41.0256 25.7772C40.8156 25.881 40.9668 25.5447 40.8071 25.4942C40.6836 25.8839 40.2665 25.8277 40.0968 26.3977C40.5857 25.808 40.279 26.7606 40.2146 27.0464L40.2985 26.9454C40.3153 27.2564 40.2074 27.4384 39.9621 27.4678C40.0856 27.1694 40.297 26.944 40.0882 26.9061C39.9775 27.0827 39.8711 27.2592 39.773 27.4777L39.7884 27.2256L39.2042 28.0648C39.2419 28.2999 39.2684 28.6656 39.3694 28.9318C39.0921 29.0257 38.9729 29.3745 38.8664 29.5959L38.8818 29.4641C38.4896 29.7331 37.8985 30.5484 37.9558 30.7224C37.6489 30.8625 38.7418 28.3883 37.3437 30.1645C36.7708 30.7978 37.3354 30.8833 37.1197 31.3597C37.1197 31.3597 37.1014 31.3052 37.0455 31.319C36.7597 31.5683 36.8647 31.7252 36.7037 32.0027C36.9154 31.8935 37.1465 31.6536 37.1687 31.5292C37.2375 31.7532 36.607 32.0895 36.5091 32.4004C36.5582 31.9143 35.9024 32.8264 36.0005 32.5069C35.3279 32.888 34.9048 33.5997 34.7662 34.0382C34.1217 34.073 34.1388 34.6755 33.3849 35.0595C33.4887 34.9867 33.6271 34.7961 33.7899 34.7151C33.9845 34.2247 33.0557 35.1604 33.4579 34.5257C33.3669 34.6532 33.5363 34.6336 33.6304 34.502C33.8196 34.3001 33.9426 34.0465 33.8165 34.0074L33.1735 34.2721L33.3109 34.0789L32.3499 34.488C32.3596 34.5425 32.4717 34.53 32.5276 34.5243C31.5528 35.1576 30.618 36.0992 29.7736 36.6564C30.0411 37.3499 27.9187 38.3489 27.4592 39.1446C27.5348 38.8533 27.4381 38.4916 27.2449 38.4442C27.3821 38.3181 27.5362 37.8822 27.9059 37.6976C28.0237 37.755 28.5184 37.5729 28.3178 37.8642C29.213 37.1525 28.0166 37.699 28.147 37.2926C27.1548 38.0588 26.7529 38.7973 26.1618 39.3645L26.1016 39.3043C26.1618 39.2678 25.5356 39.8409 25.5145 39.8463C26.1364 39.5228 26.3284 39.8788 25.4332 40.2483L25.5256 40.1727C25.0016 40.2988 24.0995 41.0302 23.343 41.4042L22.8408 41.9351L22.8282 41.9406C22.066 41.495 22.085 41.0243 21.9015 40.632C21.372 40.3237 20.9328 40.1696 20.4998 40.0367C20.2889 39.9791 20.0675 39.9175 19.8497 39.8587C19.6184 39.7914 19.4063 39.7283 19.2669 39.7046C19.1178 39.3963 18.0207 38.6343 18.7393 38.8277C17.9816 38.5279 17.5528 39.4553 16.7164 38.2112L17.1151 38.2645C15.9992 37.5611 14.2677 36.7067 13.8979 36.1744C14.6767 35.967 13.007 34.6305 13.2464 33.9849C13.2051 34.1377 12.7961 33.8602 12.6882 33.8728C12.6539 33.7481 12.5678 33.5727 12.3386 33.5464C12.6425 33.9806 11.6312 33.8111 12.5479 34.2579C11.8895 34.2633 11.1616 34.1038 10.361 33.3248L10.5537 33.1425L11.1462 33.7926C11.2107 33.5907 11.5378 33.8965 11.7352 33.9495C10.625 32.7671 12.2934 33.6386 11.0588 32.554C10.8263 32.5723 10.9495 32.5905 10.5895 32.3497C10.7417 32.4787 10.8936 32.3708 10.6597 32.1492L10.2897 32.085C10.1833 31.3718 11.1723 32.5346 11.0344 31.97C11.6338 32.2516 12.5102 32.8877 12.5865 32.4983C11.9177 31.7349 11.4818 32.3583 10.8102 31.5093L10.8291 31.327C10.4935 31.135 10.2857 31.26 10.0377 31.2123C10.0832 31.1422 10.056 31.0329 9.90241 30.8423C9.21958 30.6127 8.86217 30.3659 8.19262 30.16C9.48219 31.1393 8.9373 31.3495 10.2885 32.3274C10.0299 32.2236 9.139 31.4756 8.83207 31.669L9.03448 31.4953C8.56377 31.1986 8.07767 30.9097 7.69039 30.3328L8.07933 30.543C7.33038 29.9924 7.38797 29.1589 6.59707 28.8813C6.74069 29.093 6.87863 29.2456 7.00899 29.3423C6.62029 29.055 6.25885 28.587 5.99056 28.1445L5.0008 27.5448C5.11291 27.4763 4.73109 26.9087 5.0911 27.0601C4.8157 26.3176 4.29191 26.2237 4.0011 25.8651C3.82192 25.033 4.46967 26.396 4.81997 26.256C4.33101 25.2795 3.68232 24.3281 3.18033 23.8714C3.23911 24.0954 3.25238 24.216 3.18863 24.2343C3.24456 24.1655 3.01419 23.7804 2.91749 23.545L2.68948 23.464C2.61601 23.0281 2.73499 23.0449 3.00328 23.314C2.87008 22.9371 2.35056 22.6401 2.43944 22.1483C2.87435 22.7143 3.09785 23.5576 3.36188 23.8252C2.60463 22.6051 3.20854 22.3415 2.41692 20.732C2.4885 20.6865 2.72788 20.9261 2.63047 20.5962C2.34037 19.8515 2.23111 20.4995 1.9749 20.3132C2.25576 20.8856 2.24177 21.193 2.17375 21.6063L1.98319 21.4956C2.03771 21.448 1.90545 21.074 1.94598 20.9346L1.64498 20.9235C1.95736 20.8675 2.00358 20.193 1.74927 19.7481C1.67224 20.2923 1.64617 20.1601 1.3409 20.3926C0.7953 19.7861 1.45798 19.5235 0.928974 18.8074C1.04037 18.8501 1.26316 19.5246 1.21125 18.9117C1.12237 18.4142 0.881335 18.5285 0.760934 18.1957C1.06762 18.5403 1.26174 18.4052 1.64474 18.7442C1.86682 19.5889 1.70068 19.0987 2.02301 19.8901C2.02301 19.8901 2.01875 19.7081 2.03913 19.5175C2.05596 19.3305 2.07065 19.1428 2.07065 19.1428C2.26547 19.8439 2.48257 19.5806 2.5897 19.6135C2.58686 18.3751 1.98722 18.8086 1.9173 18.0054C1.67769 17.6508 1.99789 18.7555 1.71205 18.1874C1.65185 17.4273 1.52008 18.0452 1.29729 17.2005L1.43523 17.3306C1.55871 17.054 1.32739 16.8187 1.29587 16.5106C1.20556 16.1681 0.397834 16.9737 0.329102 15.5061C0.404708 15.5782 0.452347 15.6043 0.481262 15.6043C0.485528 15.6555 2.7248 16.8749 2.74163 16.8215C2.64161 15.5452 2.72077 14.0417 3.19194 12.6314C3.67307 12.3861 3.36283 13.7115 3.57092 13.6485C3.57092 13.6485 3.52257 13.8046 3.47209 13.9615C3.42587 14.1177 3.40122 14.2796 3.40122 14.2796C3.1763 14.2237 3.55955 12.9227 3.13008 13.4622C3.08861 14.6271 2.87364 15.1748 3.29528 16.2598C3.5048 16.0783 3.46901 15.7289 3.42706 15.3267C3.41876 14.9281 3.3998 14.4723 3.58538 14.1395C3.54201 14.4287 3.57495 14.6804 3.62259 14.9212C3.68279 14.2697 3.85652 13.5925 4.06177 12.8884L3.98688 12.7063C3.85368 13.1839 3.75721 13.5195 3.73328 13.5622C3.88378 12.9199 3.74726 12.3188 3.45029 12.1934L3.41734 12.3112L3.36709 12.0422C3.4081 11.8842 3.49081 11.7377 3.56026 11.5886ZM41.1633 9.58018C41.1159 9.55695 41.0709 9.54581 41.0192 9.54581C41.0723 9.54605 41.0837 9.50742 41.1633 9.58018ZM6.64281 23.9333C6.23231 23.1658 5.90666 22.3517 5.60826 21.5854C5.62153 22.3908 5.686 23.0999 5.58859 23.3142C5.49971 23.5244 5.16837 23.2751 4.63889 22.073L4.52536 21.9343C4.61021 22.2721 4.81949 22.8352 5.13827 23.2959C5.5355 23.6169 6.96159 24.407 7.01705 24.3426C7.08625 24.1198 6.80753 24.0316 6.7087 23.7681L6.64281 23.9333ZM6.08181 25.0218C6.29109 25.4997 6.35555 25.316 6.5006 25.316C6.38281 25.1802 6.27995 25.0318 6.17211 24.8887C6.18064 24.9645 6.16239 25.0162 6.08181 25.0218ZM6.58687 25.2221C6.55677 25.1745 6.53521 25.1309 6.53355 25.1001L6.58687 25.2221ZM3.50977 15.9984C3.51404 16.0202 3.51523 16.0299 3.51973 16.0503C3.52613 15.9313 3.53016 15.8121 3.53585 15.6877C3.51665 15.7346 3.50551 15.8263 3.50977 15.9984ZM3.27869 17.05L3.52091 17.1443C3.51523 17.0322 3.50977 16.9197 3.50266 16.8033C3.40668 16.8502 3.32064 16.8993 3.27869 17.05ZM3.28485 20.5544C3.59865 20.6839 3.88591 21.3472 4.18976 21.2745C4.28148 21.2885 4.25707 21.137 4.22128 20.9718C4.16368 20.7941 4.09377 20.609 4.03902 20.4039C3.9928 20.4115 3.93947 20.3857 3.88141 20.3309C3.89966 20.5445 3.88283 20.7009 3.66715 20.6853C3.9025 20.0326 3.23721 20.3091 3.16421 19.6998C2.8926 19.5751 3.14549 20.408 3.28485 20.5544ZM36.1636 29.0188C36.193 29.0242 36.284 29.0299 36.4032 29.0299L36.2477 29.439C35.6943 29.9208 34.9826 30.0273 34.7894 30.753C34.5036 30.8961 34.2414 30.8625 34.0146 30.8457C34.1293 30.7518 34.2372 30.6662 34.3396 30.6046C35.2068 28.929 35.4421 30.3607 36.1636 29.0188ZM29.7181 34.1377C29.7655 34.0789 29.7529 34.0228 29.7529 34.0228C28.848 35.4517 27.8476 36.3569 27.1164 36.819C27.3854 36.9171 28.1306 36.623 28.4878 36.4829L28.3688 36.8863L28.0815 36.8358L27.7438 37.3568C27.9763 37.4115 28.3408 37.1217 28.6712 37.0487C28.667 36.9942 29.3017 36.1661 29.4252 35.8691L28.6786 36.1886C28.8942 36.1241 29.7107 35.46 29.994 35.149C29.9224 35.0426 29.2332 35.3088 29.3273 35.5887C29.1438 35.4809 29.8037 34.9948 29.2614 35.1334C29.6285 34.6025 30.5026 34.1458 30.9159 33.9341L31.1807 34.1429C31.6526 33.9301 31.1959 33.6258 31.7704 33.3935C31.2518 33.9104 32.0967 33.5909 31.6639 33.9832C31.8853 33.9607 31.8853 34.2494 32.3207 33.8514C32.4174 33.2113 32.9751 33.6609 33.0732 33.0669C33.3953 32.9631 32.9933 33.4814 33.4906 33.1229C33.8689 32.4924 33.7205 32.3914 33.5425 32.1307C33.0045 32.4993 33.2695 32.9195 32.8196 33.215L33.2538 32.1139C33.0578 32.1867 32.9457 32.2736 32.8687 32.3687C33.0059 32.2049 33.0886 32.0309 33.1265 31.8449C33.1531 31.7371 33.1754 31.643 33.195 31.5645C32.7637 31.9624 32.356 32.2928 32.202 32.2537L32.1626 32.084C31.9161 32.1137 31.7339 32.4218 31.6848 32.6052C31.2928 32.9513 31.0266 33.457 30.8095 33.3715L30.8766 33.139C30.3974 33.5744 30.3597 33.6417 29.7181 34.1377ZM12.9449 31.2125C12.8572 31.8793 12.8425 32.5642 14.3305 33.6668L14.1947 33.6026C14.699 34.4681 15.8926 34.37 16.5643 35.3479C15.9962 35.1938 16.0348 35.1953 15.2543 35.2078L15.8224 35.4418C15.5051 35.5887 16.0794 35.8158 16.4221 36.0848L15.8976 36.149C15.7435 35.9122 15.2245 35.4683 15.1915 35.5451C15.3323 35.6041 14.7538 34.6388 14.2501 34.3615C14.1416 34.5899 15.1467 35.2623 14.4784 35.2441C14.9574 35.4038 14.8559 35.6309 15.3034 35.866C14.8215 35.7093 15.0078 36.0594 14.6149 35.9866L15.3205 36.418C15.2875 36.5007 14.2565 35.8354 14.6108 36.4853C14.9479 36.5891 15.5691 37.2376 15.7366 37.0342L15.7065 37.1129C16.1732 37.526 16.146 36.9672 16.6752 37.5289C16.7593 37.4265 16.6949 37.267 16.4581 37.1323C16.2374 37.0496 16.1009 37.18 15.698 36.9278C15.6504 36.6353 16.1441 37.2866 16.0853 36.8088C16.0566 36.5721 14.9934 36.1952 15.5053 36.0831L15.9649 36.4908C16.1336 36.2862 16.4797 36.5578 16.5946 36.3772C16.9532 36.5104 17.0682 36.9586 17.5116 36.9866C17.738 36.9333 17.6939 36.5173 18.1293 36.9835C18.3058 37.5888 19.5625 38.3117 20.0521 38.5456L20.5852 38.676C20.5944 38.4925 19.758 38.1885 20.1348 38.1745L20.8326 38.529L20.733 38.5892C20.9601 38.749 21.241 38.7966 21.4664 38.8583C21.1924 38.9199 20.7029 38.5333 20.6875 38.8469C21.0146 39.1047 21.0357 39.2422 21.3844 39.3792C21.3059 39.3583 21.2353 39.3486 21.2339 39.3906C21.9539 39.9426 22.0098 39.4745 22.1892 39.4773C22.891 39.4607 21.5666 38.749 21.7429 38.5136C22.1001 38.6817 22.459 38.8469 22.8173 39.0517L23.4771 38.5795C23.3496 38.7575 23.2055 38.9424 23.274 39.0308C23.7407 38.9116 23.312 39.2562 23.9578 38.8696C23.8192 38.5165 24.6835 38.1745 24.9848 37.7263C25.2592 37.7377 25.3194 37.7348 24.8909 38.0079C25.0718 38.1844 25.597 37.7486 25.8115 37.6353C25.8968 37.5092 26.079 37.3523 26.1741 37.2236C25.9404 37.2319 25.9276 37.0553 26.2331 36.729L26.2246 36.6716C25.5984 37.0093 24.5072 37.3762 24.3181 37.7768L24.3626 37.6087C23.777 37.7431 23.2041 38.6679 22.8187 38.5935C22.7793 38.5407 22.7476 38.4826 22.7244 38.421C22.7545 38.2264 22.6009 38.3048 22.6284 38.0133C22.6284 38.0133 22.5163 38.0119 22.4059 38.009C22.2883 38.0022 22.1726 37.9948 22.1726 37.9948L22.2826 37.9195L21.5367 37.5523L21.574 37.5175C21.1495 37.544 20.7236 37.5061 20.3707 37.4753C20.3076 37.5734 20.3161 37.6194 20.1325 37.6028C19.9637 37.5635 19.853 37.5033 19.767 37.4291H19.7644C19.5662 37.2653 19.5165 37.0326 19.2937 36.8029L20.1147 37.3028C20.2849 37.1795 20.3256 36.9612 20.0069 36.5967C20.172 36.692 20.3228 36.6064 20.1355 36.4623C20.0872 36.4917 19.548 36.2241 19.6509 36.4791C18.8474 36.0404 17.9437 34.7952 16.6297 34.2683C17.5507 34.6802 16.1576 33.5862 17.0788 34.1759C16.6612 33.4684 16.3699 34.0304 15.7836 33.5146C15.8004 33.3874 16.1095 33.7862 16.3875 33.7192C15.4494 32.8365 14.3589 32.7664 13.4756 31.8643L13.596 31.6458C13.378 31.5028 13.1609 31.3584 12.9449 31.2125ZM10.9479 29.7163C10.7616 29.5622 10.5703 29.4025 10.3797 29.2428L10.4241 29.3015L9.78177 28.9022C10.01 29.3015 10.0271 29.6992 9.49878 29.3212C9.60946 29.2932 9.57794 29.069 9.76707 29.1951C9.59406 28.7775 9.08614 27.9958 8.96716 28.4191C9.77205 28.796 8.74153 28.873 9.36297 29.1814C8.95389 29.0847 8.80481 28.7555 8.505 28.5789C8.88397 28.705 8.79486 28.2231 8.55121 27.7676C8.36492 27.6346 8.026 27.1414 7.73305 26.9035C7.63422 27.1471 7.33583 26.9677 7.65745 27.4863C7.47661 27.346 7.22799 27.0966 7.08934 26.7212C7.214 26.8193 7.39745 27.0153 7.45078 26.9511C7.46831 26.6276 7.28558 26.4046 7.26164 26.2254L7.01586 25.9341C7.02084 25.9761 7.01728 26.018 7.00472 26.0545L6.60181 25.8192C7.00875 26.2254 6.66485 26.0953 6.55156 26.1652C6.77648 26.0265 6.37214 25.8443 6.25316 25.6862L6.2643 26.1948C6.03038 26.1038 6.01758 25.4802 5.84835 25.7215C6.27141 26.538 6.51103 26.807 7.07962 27.4052L7.05094 27.0087C7.72903 27.6474 7.09076 27.6965 7.76481 28.495C8.18077 28.7107 8.80221 29.6661 9.1089 29.4167C8.92806 29.4027 9.27978 30.1339 9.6616 30.2602C10.1863 30.2996 11.0529 31.077 10.9182 30.7113C10.6962 30.4928 10.2527 30.3304 10.2515 29.9801L10.7291 30.3624L10.5912 29.9393C10.681 30.1396 10.8042 29.9882 10.9479 29.7163ZM6.36906 17.9864L6.37048 17.9668L6.37333 17.9879L6.36906 17.9864Z" fill="#D4AC79"/>
<path d="M40.3466 21.214C40.3214 21.0221 40.4838 20.6433 40.2724 20.6495C40.4769 20.7168 40.0411 21.3472 40.3466 21.214ZM40.718 20.8239C40.6815 20.7784 40.5973 20.7687 40.6578 20.5921L40.5231 21.0922L40.718 20.8239ZM42.2884 20.8128C42.2325 20.4857 42.1903 20.2833 42.3374 19.8574C42.8838 19.8384 42.2701 20.6118 42.6553 20.965C42.9553 20.1586 42.6162 19.7875 42.7254 19.1101C42.4579 19.4042 41.9227 20.6566 42.2884 20.8128ZM42.7745 21.3866L42.8333 20.9005L42.7885 20.9349L42.7295 21.42L42.7745 21.3866ZM34.0201 26.8738C33.8731 26.7911 33.8255 27.0855 33.7636 27.2144C33.8451 27.1386 33.9795 27.0533 34.0201 26.8738ZM32.6108 8.02539C32.6108 8.02539 33.2398 8.05691 33.866 8.08962C34.4685 8.19462 35.0724 8.29914 35.0556 8.33066C34.3955 8.14437 33.7428 8.02539 32.6108 8.02539ZM26.7479 34.5745C27.3741 33.9455 27.5184 33.4933 28.1782 32.9076C27.0617 33.335 27.248 34.2313 26.2518 34.5172L26.7479 34.5745ZM26.2492 33.335C26.5433 33.5044 25.9174 34.0102 26.1468 34.1235C26.5784 33.7284 26.1987 33.7284 26.6429 33.4483L26.2492 33.335ZM32.5323 34.9334L32.4148 35.2358L32.5546 35.0455L32.5323 34.9334ZM23.3845 35.5524L23.3802 35.4754L23.2276 35.4517L23.3845 35.5524ZM32.6653 35.6745L33.0353 35.4572L33.108 35.2135L32.6653 35.6745ZM28.7305 36.5865L28.9741 36.2952C28.9251 36.3538 28.4418 36.5389 28.7305 36.5865ZM22.6433 35.6366L22.5061 35.6954L22.5116 35.7319L22.6509 35.6759L22.6433 35.6366ZM26.7998 38.9147C27.1458 38.9734 26.2058 39.37 26.7661 39.2593C27.1472 38.9734 26.9173 38.9734 26.7998 38.9147ZM21.1184 38.4525C21.0636 38.4171 21.0022 38.3933 20.9378 38.3823C21.0049 38.4103 21.0658 38.4314 21.1184 38.4525ZM21.1184 38.4525C21.2907 38.5563 21.4412 38.7495 21.5834 38.7523C21.3957 38.521 21.3097 38.5141 21.1184 38.4525ZM19.188 37.3035L19.3252 37.4144C19.1128 37.4144 19.192 37.4466 19.3771 37.4549C19.5361 37.5502 19.5691 37.48 19.6153 37.4495C19.6596 37.4452 19.7084 37.4383 19.7618 37.4329C19.6987 37.4298 19.6385 37.4272 19.5866 37.4243C19.3456 37.2672 19.1948 37.1776 19.188 37.3035ZM15.2991 29.3603C15.6878 29.8187 15.7769 29.9543 15.6319 30.0721C16.0263 30.4866 16.167 30.1842 16.4752 30.3479C15.9575 29.9656 15.9142 29.8156 15.2991 29.3603ZM16.4752 30.3479C16.5325 30.3887 16.5887 30.4307 16.656 30.4797C16.6022 30.4276 16.5413 30.3832 16.4752 30.3479ZM20.8214 40.6631L20.1749 40.6098L20.3941 40.6939L20.8214 40.6631ZM14.7106 28.7021C14.7834 28.786 14.9185 28.8981 14.937 29.002C15.0834 28.8868 14.6386 28.6192 14.7106 28.7021ZM14.1252 32.9707C14.1041 33.0982 14.4613 33.3113 14.5644 33.4497C14.3935 33.2774 14.4613 32.8937 14.1252 32.9707ZM12.9589 28.0703C13.0297 28.1556 13.0639 28.363 12.9044 28.4192C13.0835 28.4668 13.4651 28.3883 12.9589 28.0703ZM13.2585 32.186L13.2845 32.2912L13.6936 32.4929L13.2585 32.186ZM12.7311 35.2891C13.2641 35.4489 12.4398 34.3589 13.2376 34.7819C12.5097 33.8784 13.1065 35.0775 12.4839 34.5103C12.8124 34.8829 12.8243 35.2529 12.7311 35.2891ZM12.4825 34.5103C12.4312 34.4518 12.3757 34.3971 12.3166 34.3465C12.3839 34.4136 12.437 34.4667 12.4825 34.5103ZM8.34003 28.4962C8.4045 28.5381 8.45498 28.5592 8.50309 28.5789C8.45241 28.5446 8.39763 28.5168 8.34003 28.4962ZM10.3428 32.8486L11.1341 33.1345C10.6018 32.955 9.668 32.0376 9.50067 32.322C9.75711 32.6723 10.1892 32.9636 10.4399 32.9972L10.3428 32.8486ZM9.5175 22.7662L9.76896 22.9291L9.62415 22.6207C9.63363 22.7285 9.33808 22.706 9.5175 22.7662ZM9.59666 22.5619L9.62534 22.6221C9.62534 22.6051 9.61633 22.5844 9.59666 22.5619ZM9.40136 29.4584C9.54925 29.6544 9.69265 29.7862 9.88605 29.9069C9.86922 29.7976 9.49308 29.3255 9.40136 29.4584ZM8.15303 21.3361L8.41848 21.7061L8.16488 21.2856L8.15303 21.3361ZM7.87762 19.2635L7.90915 19.176L7.69963 18.8859L7.66242 18.9734C7.66266 18.9734 7.86791 19.2649 7.87762 19.2635ZM3.29883 24.7192C3.45928 25.0903 3.86552 25.2179 3.86694 25.0946L3.48938 24.4251C3.35618 24.7192 3.59722 24.6085 3.75341 25.033L3.29883 24.7192ZM11.1875 8.58782C11.1112 8.75088 10.6265 8.84 10.5466 8.70537C10.5824 8.61507 10.822 8.4385 10.6236 8.41124L10.4015 8.95637C9.79693 8.91489 10.5563 8.29084 10.8056 8.04435C10.239 8.22093 10.1472 8.49609 9.64074 8.78122C9.80049 8.71817 9.94198 8.7587 10.0714 8.8163C10.1904 9.04809 9.71682 9.2121 9.41155 9.40953C9.68127 9.40384 9.62083 9.56643 9.5502 9.7366C9.5331 9.75432 9.52336 9.77787 9.52295 9.80249L9.50043 9.86151L9.5348 9.84184C9.55163 9.87052 9.58172 9.89919 9.63766 9.93214C9.83604 9.72973 10.1385 9.83212 10.2757 9.74229C9.87704 9.36971 10.8026 9.4055 10.9628 9.17371C10.9531 9.15901 11.2185 9.03861 11.2242 9.04691L11.332 9.02226C11.3676 9.06847 11.3538 9.14147 11.2199 9.26448C11.3278 9.14906 11.7838 9.0725 11.7087 8.92911C11.6835 8.88218 12.8105 8.76723 12.8105 8.76723C12.847 8.7824 12.884 8.80278 12.9112 8.83431C12.947 8.79994 12.9527 8.77411 12.9456 8.74969C12.9456 8.74969 14.2205 8.68949 15.5394 8.95779C16.8717 9.18887 18.075 9.80605 18.075 9.80605C17.8503 9.66787 17.7024 9.43821 17.4559 9.3024C17.9735 9.14124 17.04 9.1 17.262 8.85469C17.4791 8.82317 17.7529 8.92342 17.8678 9.07961C17.9835 8.96822 17.8202 8.73429 17.9119 8.57952C17.2661 8.17186 16.9376 8.77292 16.3021 8.5006C16.3759 8.32948 16.6335 8.22661 16.1706 8.14176L16.2967 8.13205C15.5233 8.16902 15.8063 7.56251 15.2482 7.98984L15.3041 7.73008C14.9308 7.90499 14.2816 7.7616 13.9166 7.82322L13.9413 7.77345C12.9271 8.07611 13.353 7.77487 12.2685 8.02563L12.7475 7.66419C12.3474 7.58076 12.2957 7.92277 12.0191 7.91352C12.0317 7.86091 11.9357 7.67557 12.1983 7.60257C12.2026 7.61655 11.8523 7.72012 11.5686 7.93936C11.2842 8.12849 10.999 8.31691 10.999 8.31691C10.763 8.57028 11.1159 8.48898 11.1875 8.58782ZM9.63932 8.78098C9.57912 8.80279 9.51607 8.83431 9.44876 8.8874C9.52318 8.85185 9.58196 8.81748 9.63932 8.78098ZM18.4175 9.96058L18.0778 9.80439C18.1752 9.86886 18.2809 9.92361 18.4175 9.96058ZM8.7055 10.1729C8.93943 10.1582 8.7356 10.3879 8.81121 10.4974C8.77684 10.4595 9.27077 10.1044 9.2575 10.0895C9.19018 10.0139 9.16435 9.8845 9.09562 9.81979L8.7055 10.1729Z" fill="#D4AC79"/>
<path d="M9.50479 10.1225C9.47612 10.0537 9.4818 9.95797 9.50053 9.85985L9.25759 10.0881C9.30784 10.1469 9.38155 10.1758 9.50479 10.1225ZM6.07739 5.90083L6.24425 5.74607C6.24567 5.74607 6.46206 5.46308 6.47035 5.47493C6.45637 5.45312 6.07739 5.90083 6.07739 5.90083ZM9.29101 4.64421C9.00115 4.5923 8.58496 4.88525 8.45484 4.981C8.97223 4.76603 8.76722 4.9125 9.29101 4.64421ZM8.00097 3.37502L8.54941 3.06169L8.48494 3.05482L8.00097 3.37502ZM23.4038 11.4296C23.5076 11.3404 23.6097 11.2544 23.7135 11.1627C23.5706 11.2748 23.4794 11.3561 23.4038 11.4296Z" fill="#D4AC79"/>
<path d="M18.4505 9.10545C19.1447 9.76102 17.8004 9.0725 17.907 9.54178L18.3946 9.6335L18.3111 9.7065L18.5837 9.81434C18.6313 9.81979 18.756 9.90322 18.8534 9.97053C18.9458 10.0307 19.0075 10.0729 19.0075 10.0729C18.8871 9.77453 18.7477 9.66526 18.8766 9.53349C20.1003 10.4742 19.1693 10.0006 20.0302 10.8916C20.0441 10.9105 20.3658 11.0994 20.7945 11.4281C21.2226 11.7566 21.6497 12.0837 21.6497 12.0837L21.5018 12.0375C21.6482 12.1468 21.7141 12.1712 21.7686 12.1757C22.1179 12.4433 22.466 12.7125 22.8129 12.9832L25.1188 11.1039L26.1021 10.3825L26.5923 10.0224C26.7477 9.91033 26.9537 9.74988 27.0099 9.7366C27.4398 9.37801 26.5771 9.57354 26.8222 9.16304C26.7368 9.2121 26.6946 9.20286 26.556 9.29553C26.4228 9.38109 26.2856 9.46855 26.1467 9.55742C25.8824 9.7301 25.6177 9.90201 25.3525 10.0732C24.8872 10.3744 24.467 10.7674 24.4558 11.011C24.4824 10.9264 24.5274 10.7617 24.2975 10.8889L23.705 11.7393L24.3535 11.3492C24.079 11.7405 23.45 12.3165 22.8124 12.8298C22.0526 12.2401 21.3003 11.5635 21.1138 11.2845C22.1756 12.0152 21.9241 11.4736 22.8124 12.2181C23.0157 12.0704 23.2236 11.9293 23.436 11.795C23.349 11.7453 23.0478 11.7754 23.4035 11.4308C23.2075 11.5978 23.0109 11.7643 22.8138 11.9301L21.5987 10.9916C21.1986 10.6792 20.7841 10.3374 20.443 10.1315C19.7469 9.67214 18.8707 9.07795 18.4505 9.10545ZM32.4469 7.74572L32.4372 7.77866C32.4597 7.75994 32.4665 7.74714 32.4469 7.74572ZM32.0674 7.70803L31.5379 8.07303L32.3715 8.03108L32.4374 7.7789C32.3589 7.84479 32.0648 7.97989 31.9484 7.882L32.0674 7.70803ZM30.9381 8.36076C31.35 8.19746 31.3106 7.90333 31.0516 7.80308C31.4521 7.61821 31.2938 8.07279 31.5503 7.75686C31.5294 7.52293 31.0251 7.72391 30.9158 7.77701L30.9381 8.36076ZM27.7846 9.03411L27.852 8.86725L27.5607 8.97082L27.7846 9.03411ZM27.852 8.86725L28.1546 8.79852C28.1013 8.71936 28.0496 8.64517 27.9795 8.60298L27.852 8.86725ZM28.9377 8.61104C29.0624 8.57952 29.2081 8.57952 29.379 8.54302C29.3776 8.54278 28.9334 8.59469 28.9377 8.61104ZM28.5846 8.65773L28.6071 8.69068L28.9363 8.61081C28.8145 8.62763 28.7009 8.64233 28.5846 8.65773ZM28.1546 8.79852C28.275 8.97628 28.4054 9.16304 28.7879 8.96466L28.6071 8.69068L28.1546 8.79852ZM12.302 2.66897L12.8203 2.50638L12.7641 2.47343L12.2444 2.64313L12.302 2.66897ZM15.2599 2.92802C15.3682 2.9115 15.4752 2.88719 15.5801 2.85526C15.4435 2.85952 15.3364 2.88109 15.2599 2.92802ZM17.7333 1.94324C18.2986 2.29425 16.8177 2.00652 17.9329 2.37057C17.9784 2.58127 17.3963 2.69646 16.8955 2.48125C16.9746 2.31179 17.4347 2.48837 17.1512 2.22837C16.7533 2.35185 16.6504 2.18144 16.7175 2.47983C16.0991 2.51965 15.996 2.73888 15.5801 2.85383C16.3176 2.79363 17.68 3.40156 18.6299 3.35179C19.2035 3.20271 19.0705 2.67584 19.2196 2.22126C19.1992 2.15679 18.8679 1.99017 18.5178 1.89276C18.1618 1.81644 17.7963 1.79559 17.7333 1.94324ZM16.841 1.24288C16.5482 1.15258 16.4466 1.17557 16.2546 1.1841C16.2755 1.35759 16.5999 1.18955 16.841 1.24288ZM21.314 6.81C21.3771 6.76876 21.7385 6.89343 21.7027 6.73298L21.1733 6.50616C21.2866 6.58935 21.2965 6.69387 21.314 6.81ZM20.9365 6.40448L21.1718 6.50616C21.1199 6.46753 21.0498 6.43458 20.9365 6.40448ZM21.3238 6.86594L21.314 6.81C21.3008 6.81901 21.2965 6.83323 21.3238 6.86594ZM30.1803 8.42262C30.1986 8.54444 30.4043 8.43447 30.5122 8.38683C30.4214 8.39228 30.2813 8.3482 30.1803 8.42262ZM37.6696 9.87312L37.699 10.0798C37.7075 9.99092 37.7116 9.94446 37.6696 9.87312ZM42.4326 11.2613C42.4605 11.2613 42.4859 11.2748 42.5153 11.2942C42.4921 11.2745 42.463 11.2629 42.4326 11.2613ZM42.5139 11.2959C42.6904 11.4471 42.707 12.0536 42.8782 12.2259L42.8248 12.2112L42.99 12.5769C42.9523 12.3961 42.8936 12.1209 42.8372 11.8555C42.7438 11.6019 42.6246 11.3734 42.5139 11.2959Z" fill="#D4AC79"/>
</g>
<defs>
<clipPath id="clip0_3_46">
<rect width="43" height="43" fill="white"/>
</clipPath>
</defs>
</svg>
