<svg width="146" height="49" viewBox="0 0 146 49" fill="none" xmlns="http://www.w3.org/2000/svg">
<path d="M142.912 16.8961C142.366 16.8961 141.945 17.1209 141.648 17.5703C141.356 18.015 141.184 18.6674 141.131 19.5277H144.514C144.514 19.1362 144.485 18.7786 144.427 18.4548C144.37 18.1309 144.279 17.8531 144.154 17.6211C144.03 17.3891 143.865 17.2103 143.659 17.0846C143.458 16.959 143.209 16.8961 142.912 16.8961ZM143.092 24.3485C142.56 24.3485 142.082 24.2591 141.656 24.0803C141.234 23.8966 140.878 23.6308 140.586 23.2828C140.294 22.9349 140.069 22.5096 139.911 22.0069C139.758 21.4995 139.681 20.9244 139.681 20.2816C139.681 18.8945 139.963 17.8506 140.528 17.1499C141.093 16.4491 141.897 16.0987 142.941 16.0987C143.415 16.0987 143.841 16.1736 144.219 16.3234C144.597 16.4733 144.918 16.698 145.181 16.9976C145.445 17.2924 145.646 17.6622 145.784 18.1068C145.928 18.5466 146 19.0589 146 19.6436V20.3251H141.103C141.112 20.8664 141.165 21.3327 141.261 21.7242C141.361 22.1108 141.502 22.4298 141.684 22.6811C141.871 22.9324 142.098 23.1185 142.366 23.2393C142.635 23.3553 142.943 23.4133 143.293 23.4133C143.547 23.4133 143.781 23.3843 143.997 23.3263C144.217 23.2683 144.415 23.191 144.593 23.0943C144.77 22.9977 144.925 22.8889 145.059 22.7681C145.198 22.6425 145.311 22.512 145.397 22.3767C145.464 22.4057 145.526 22.4661 145.583 22.5579C145.646 22.6497 145.677 22.7585 145.677 22.8841C145.677 23.0339 145.624 23.1958 145.519 23.3698C145.413 23.539 145.253 23.696 145.038 23.841C144.822 23.986 144.552 24.1068 144.226 24.2035C143.906 24.3001 143.527 24.3485 143.092 24.3485Z" fill="black"/>
<path d="M135.796 24.3485C135.308 24.3485 134.858 24.2736 134.446 24.1237C134.035 23.9691 133.68 23.7275 133.384 23.3988C133.087 23.0702 132.855 22.6497 132.687 22.1374C132.524 21.6203 132.443 20.9969 132.443 20.2671C132.443 19.4745 132.524 18.8124 132.687 18.2808C132.855 17.7443 133.084 17.3142 133.376 16.9904C133.673 16.6666 134.02 16.437 134.418 16.3017C134.82 16.1664 135.253 16.0987 135.717 16.0987C136.024 16.0987 136.328 16.1301 136.629 16.193C136.936 16.2509 137.211 16.3428 137.455 16.4684C137.699 16.5941 137.898 16.7536 138.051 16.9469C138.204 17.1354 138.281 17.3577 138.281 17.6138C138.281 17.957 138.171 18.1986 137.95 18.3388C137.73 18.4789 137.402 18.549 136.967 18.549C136.967 18.317 136.948 18.0971 136.909 17.8893C136.871 17.6815 136.804 17.5003 136.708 17.3456C136.617 17.1861 136.49 17.0629 136.328 16.9759C136.17 16.8841 135.966 16.8381 135.717 16.8381C135.435 16.8381 135.179 16.8913 134.949 16.9976C134.724 17.104 134.53 17.2876 134.367 17.5486C134.205 17.8096 134.08 18.1599 133.994 18.5997C133.908 19.0395 133.865 19.5905 133.865 20.2526C133.865 21.3062 134.037 22.0915 134.382 22.6086C134.731 23.1258 135.301 23.3843 136.091 23.3843C136.545 23.3843 136.943 23.2877 137.283 23.0943C137.623 22.901 137.876 22.6521 138.044 22.3477C138.116 22.4057 138.175 22.483 138.223 22.5796C138.271 22.6763 138.295 22.7923 138.295 22.9276C138.295 23.0968 138.242 23.2659 138.137 23.4351C138.032 23.6042 137.874 23.7564 137.663 23.8918C137.457 24.0271 137.199 24.1358 136.888 24.218C136.577 24.305 136.213 24.3485 135.796 24.3485Z" fill="black"/>
<path d="M127.452 23.58C127.615 23.58 127.768 23.5704 127.912 23.551C128.06 23.5269 128.189 23.481 128.3 23.4133C128.41 23.3457 128.496 23.2466 128.558 23.1161C128.625 22.9808 128.659 22.8044 128.659 22.5869V17.8821C128.659 17.6646 128.625 17.4906 128.558 17.3601C128.496 17.2248 128.41 17.1209 128.3 17.0484C128.189 16.9759 128.06 16.9276 127.912 16.9034C127.768 16.8792 127.615 16.8671 127.452 16.8671H127.409V16.2437H130.037V22.5144C130.037 22.7464 130.068 22.9324 130.131 23.0726C130.198 23.2127 130.284 23.3215 130.389 23.3988C130.499 23.4713 130.628 23.5196 130.777 23.5438C130.925 23.568 131.081 23.58 131.244 23.58H131.437V24.2035H127.258V23.58H127.452ZM128.45 13.8369C128.45 13.6629 128.472 13.5179 128.515 13.402C128.558 13.286 128.618 13.1917 128.694 13.1192C128.771 13.0467 128.86 12.996 128.96 12.967C129.061 12.938 129.171 12.9235 129.29 12.9235C129.405 12.9235 129.513 12.938 129.614 12.967C129.714 12.996 129.8 13.0467 129.872 13.1192C129.949 13.1917 130.009 13.286 130.052 13.402C130.099 13.5179 130.123 13.6629 130.123 13.8369C130.123 14.0109 130.099 14.1559 130.052 14.2719C130.009 14.3879 129.949 14.4821 129.872 14.5546C129.8 14.6271 129.714 14.6803 129.614 14.7141C129.513 14.7431 129.405 14.7576 129.29 14.7576C129.171 14.7576 129.061 14.7431 128.96 14.7141C128.86 14.6803 128.771 14.6271 128.694 14.5546C128.618 14.4821 128.558 14.3879 128.515 14.2719C128.472 14.1559 128.45 14.0109 128.45 13.8369Z" fill="black"/>
<path d="M126.109 20.2091C126.109 21.6058 125.815 22.6449 125.226 23.3263C124.642 24.0078 123.785 24.3485 122.655 24.3485C122.124 24.3485 121.648 24.2639 121.227 24.0948C120.805 23.9256 120.446 23.6695 120.149 23.3263C119.857 22.9832 119.632 22.5531 119.474 22.0359C119.321 21.514 119.245 20.905 119.245 20.2091C119.245 18.8221 119.534 17.7902 120.113 17.1136C120.698 16.437 121.559 16.0987 122.699 16.0987C123.23 16.0987 123.706 16.1833 124.128 16.3524C124.549 16.5168 124.905 16.7705 125.197 17.1136C125.494 17.4519 125.719 17.8796 125.872 18.3968C126.03 18.909 126.109 19.5132 126.109 20.2091ZM120.666 20.2091C120.666 20.76 120.702 21.2458 120.774 21.6662C120.846 22.0867 120.961 22.4395 121.119 22.7246C121.282 23.0049 121.49 23.2176 121.744 23.3626C122.002 23.5076 122.316 23.58 122.684 23.58C123.053 23.58 123.364 23.5076 123.618 23.3626C123.871 23.2176 124.077 23.0049 124.235 22.7246C124.393 22.4395 124.506 22.0867 124.573 21.6662C124.645 21.2458 124.68 20.76 124.68 20.2091C124.68 19.6581 124.645 19.1749 124.573 18.7592C124.501 18.3436 124.386 17.998 124.228 17.7226C124.07 17.4423 123.862 17.232 123.603 17.0919C123.35 16.9517 123.038 16.8816 122.67 16.8816C122.301 16.8816 121.99 16.9517 121.736 17.0919C121.483 17.232 121.277 17.4423 121.119 17.7226C120.961 17.998 120.846 18.3436 120.774 18.7592C120.702 19.1749 120.666 19.6581 120.666 20.2091Z" fill="black"/>
<path d="M113.321 23.58V24.2035H109.364V23.58H109.479C109.646 23.58 109.802 23.568 109.946 23.5438C110.094 23.5196 110.221 23.4713 110.326 23.3988C110.436 23.3215 110.523 23.2127 110.585 23.0726C110.652 22.9324 110.685 22.7464 110.685 22.5144V14.5546C110.685 14.3371 110.652 14.1631 110.585 14.0326C110.523 13.8973 110.436 13.7934 110.326 13.7209C110.216 13.6484 110.087 13.6025 109.938 13.5832C109.795 13.559 109.642 13.5469 109.479 13.5469H109.364V12.9235H112.071V16.1857C112.071 16.321 112.069 16.4636 112.064 16.6134C112.059 16.7584 112.052 16.8937 112.042 17.0194C112.033 17.1644 112.023 17.3069 112.014 17.4471H112.085C112.526 16.5482 113.246 16.0987 114.247 16.0987C114.663 16.0987 115.032 16.1567 115.353 16.2727C115.678 16.3839 115.951 16.5578 116.171 16.7947C116.392 17.0266 116.559 17.3263 116.674 17.6936C116.789 18.0609 116.846 18.4982 116.846 19.0057V22.5144C116.846 22.7464 116.875 22.9324 116.932 23.0726C116.99 23.2127 117.069 23.3215 117.169 23.3988C117.27 23.4713 117.39 23.5196 117.528 23.5438C117.667 23.568 117.818 23.58 117.981 23.58H118.024V24.2035H115.468V19.0782C115.468 18.7544 115.439 18.4668 115.381 18.2155C115.324 17.9642 115.231 17.7516 115.101 17.5776C114.977 17.4036 114.812 17.2731 114.606 17.1861C114.4 17.0943 114.149 17.0484 113.852 17.0484C113.546 17.0484 113.28 17.1064 113.055 17.2224C112.835 17.3335 112.65 17.4954 112.502 17.7081C112.358 17.9159 112.251 18.1696 112.179 18.4693C112.107 18.7641 112.071 19.0927 112.071 19.4552V22.5869C112.071 22.8044 112.102 22.9808 112.164 23.1161C112.232 23.2466 112.32 23.3457 112.43 23.4133C112.54 23.481 112.667 23.5269 112.811 23.551C112.959 23.5704 113.115 23.58 113.277 23.58H113.321Z" fill="black"/>
<path d="M105.623 13.4527C106.126 13.4527 106.561 13.4962 106.93 13.5832C107.303 13.6653 107.612 13.7813 107.856 13.9312C108.105 14.081 108.289 14.2574 108.409 14.4604C108.534 14.6633 108.596 14.8832 108.596 15.1201C108.596 15.2795 108.562 15.4245 108.495 15.555C108.433 15.6807 108.344 15.7894 108.23 15.8812C108.115 15.9682 107.978 16.0359 107.82 16.0842C107.667 16.1325 107.5 16.1567 107.318 16.1567C107.318 15.9247 107.287 15.6952 107.224 15.468C107.167 15.2409 107.069 15.0379 106.93 14.8591C106.796 14.6754 106.619 14.528 106.399 14.4169C106.183 14.3009 105.915 14.2429 105.594 14.2429C105.039 14.2429 104.567 14.3468 104.18 14.5546C103.792 14.7576 103.476 15.0572 103.232 15.4535C102.988 15.845 102.811 16.3307 102.7 16.9106C102.59 17.4858 102.535 18.1454 102.535 18.8897C102.535 19.5518 102.593 20.1584 102.708 20.7093C102.823 21.2603 103.004 21.7339 103.253 22.1302C103.502 22.5216 103.818 22.8261 104.201 23.0436C104.589 23.2611 105.053 23.3698 105.594 23.3698C105.953 23.3698 106.269 23.336 106.542 23.2683C106.82 23.1958 107.064 23.1016 107.275 22.9856C107.485 22.8696 107.669 22.7367 107.827 22.5869C107.99 22.4322 108.134 22.2727 108.258 22.1084C108.34 22.1616 108.407 22.2341 108.459 22.3259C108.512 22.4177 108.538 22.5386 108.538 22.6884C108.538 22.8769 108.474 23.0702 108.344 23.2683C108.22 23.4616 108.029 23.638 107.77 23.7975C107.512 23.957 107.184 24.0899 106.786 24.1962C106.389 24.2977 105.917 24.3485 105.372 24.3485C104.639 24.3485 103.995 24.218 103.44 23.957C102.885 23.696 102.418 23.3263 102.04 22.8479C101.666 22.3694 101.384 21.7943 101.193 21.1225C101.001 20.4507 100.905 19.7065 100.905 18.8897C100.905 18.0875 101.006 17.3529 101.207 16.6859C101.408 16.019 101.705 15.4463 102.097 14.9678C102.495 14.4894 102.988 14.1172 103.576 13.8514C104.165 13.5856 104.847 13.4527 105.623 13.4527Z" fill="black"/>
<path d="M100.058 16.2437V16.8671H100.015C99.8713 16.8671 99.7468 16.8841 99.6415 16.9179C99.541 16.9469 99.4476 17.0049 99.3615 17.0919C99.2801 17.1789 99.2035 17.2973 99.1317 17.4471C99.0599 17.5969 98.9809 17.7902 98.8947 18.027L96.6615 24.2615C96.4892 24.7399 96.3264 25.1604 96.1732 25.5229C96.02 25.8853 95.8597 26.1946 95.6921 26.4508C95.5246 26.7118 95.3403 26.9268 95.1392 27.096C94.9429 27.2651 94.7179 27.4005 94.4642 27.5019C94.2105 27.6034 93.9185 27.6735 93.5882 27.7122C93.2579 27.7508 92.8749 27.7702 92.4393 27.7702H92.31V27.067C92.8079 27.067 93.2363 26.9921 93.5954 26.8423C93.9544 26.6924 94.2632 26.487 94.5217 26.2261C94.785 25.9651 95.0028 25.6558 95.1751 25.2981C95.3522 24.9453 95.5006 24.5611 95.6203 24.1455L92.8988 17.6573C92.8318 17.5027 92.7672 17.377 92.705 17.2804C92.6427 17.1789 92.5709 17.0967 92.4895 17.0339C92.4129 16.9711 92.322 16.9276 92.2167 16.9034C92.1161 16.8792 91.9941 16.8671 91.8505 16.8671H91.8074V16.2437H95.3403V16.8671H95.2972C95.0004 16.8671 94.7778 16.9251 94.6294 17.0411C94.4858 17.1571 94.414 17.3384 94.414 17.5848C94.414 17.667 94.4211 17.7516 94.4355 17.8386C94.4547 17.9207 94.4858 18.0174 94.5289 18.1285L95.606 20.7745C95.673 20.9437 95.7424 21.1298 95.8142 21.3327C95.8908 21.5309 95.9602 21.729 96.0224 21.9272C96.0895 22.1205 96.1493 22.3042 96.202 22.4781C96.2546 22.6521 96.2905 22.8019 96.3097 22.9276H96.3528C96.4054 22.7101 96.4772 22.4467 96.5682 22.1374C96.6639 21.8233 96.774 21.4874 96.8985 21.1298L97.8822 18.2373C97.9253 18.1164 97.9564 18.0005 97.9756 17.8893C97.9995 17.7781 98.0115 17.6815 98.0115 17.5993C98.0115 17.3432 97.9301 17.1571 97.7674 17.0411C97.6094 16.9251 97.3676 16.8671 97.0421 16.8671H96.999V16.2437H100.058Z" fill="black"/>
<path d="M87.9871 17.0484C87.6041 17.0484 87.2834 17.1136 87.0249 17.2441C86.7711 17.3698 86.5677 17.5631 86.4145 17.8241C86.2613 18.085 86.1512 18.4137 86.0842 18.81C86.022 19.2063 85.9908 19.6726 85.9908 20.2091C85.9908 20.7262 86.022 21.1829 86.0842 21.5792C86.1512 21.9755 86.2613 22.309 86.4145 22.5796C86.5725 22.8503 86.7783 23.0557 87.032 23.1958C87.2905 23.3312 87.6137 23.3988 88.0014 23.3988C88.327 23.3988 88.6022 23.3312 88.8272 23.1958C89.057 23.0557 89.2437 22.8503 89.3873 22.5796C89.5357 22.309 89.6434 21.9755 89.7104 21.5792C89.7775 21.1781 89.811 20.7166 89.811 20.1946C89.811 19.6678 89.7775 19.2087 89.7104 18.8172C89.6434 18.4209 89.5357 18.0923 89.3873 17.8313C89.2437 17.5703 89.0546 17.3746 88.82 17.2441C88.5903 17.1136 88.3126 17.0484 87.9871 17.0484ZM91.2399 20.2091C91.2399 20.9244 91.1729 21.543 91.0389 22.0649C90.9096 22.5869 90.7181 23.017 90.4644 23.3553C90.2107 23.6936 89.8971 23.9449 89.5237 24.1093C89.1503 24.2687 88.7219 24.3485 88.2384 24.3485C87.956 24.3485 87.6998 24.3171 87.4701 24.2542C87.2403 24.1914 87.032 24.102 86.8453 23.986C86.6634 23.87 86.5007 23.7323 86.3571 23.5728C86.2182 23.4133 86.0962 23.2369 85.9908 23.0436H85.9334C85.943 23.2997 85.9525 23.539 85.9621 23.7613C85.9669 23.8531 85.9693 23.9498 85.9693 24.0513C85.9741 24.1479 85.9765 24.2397 85.9765 24.3267C85.9813 24.4137 85.9837 24.491 85.9837 24.5587C85.9884 24.6312 85.9908 24.6868 85.9908 24.7254V26.1463C85.9908 26.3638 86.022 26.5378 86.0842 26.6683C86.1512 26.8036 86.2398 26.9051 86.3499 26.9727C86.46 27.0452 86.5868 27.0912 86.7305 27.1105C86.8789 27.1346 87.0344 27.1467 87.1972 27.1467H87.2403V27.7702H83.2837V27.1467H83.3986C83.5662 27.1467 83.7217 27.1346 83.8654 27.1105C84.0138 27.0863 84.1406 27.0356 84.2459 26.9582C84.356 26.8858 84.4422 26.777 84.5044 26.632C84.5715 26.4919 84.605 26.3058 84.605 26.0738V17.8821C84.605 17.6646 84.5715 17.4906 84.5044 17.3601C84.4422 17.2248 84.356 17.1209 84.2459 17.0484C84.1358 16.9759 84.0066 16.9276 83.8582 16.9034C83.7146 16.8792 83.5614 16.8671 83.3986 16.8671H83.2119V16.2437H85.7826L85.9334 17.5848H85.9908C86.1009 17.3577 86.2254 17.1523 86.3642 16.9686C86.5031 16.785 86.6634 16.6303 86.8453 16.5047C87.0273 16.3742 87.2331 16.2751 87.4629 16.2075C87.6927 16.135 87.9512 16.0987 88.2384 16.0987C88.7219 16.0987 89.1503 16.1809 89.5237 16.3452C89.8971 16.5047 90.2107 16.7536 90.4644 17.0919C90.7181 17.4253 90.9096 17.8506 91.0389 18.3678C91.1729 18.8849 91.2399 19.4987 91.2399 20.2091Z" fill="black"/>
<path d="M78.9539 17.0484C78.5709 17.0484 78.2502 17.1136 77.9917 17.2441C77.7379 17.3698 77.5345 17.5631 77.3813 17.8241C77.2281 18.085 77.118 18.4137 77.051 18.81C76.9888 19.2063 76.9576 19.6726 76.9576 20.2091C76.9576 20.7262 76.9888 21.1829 77.051 21.5792C77.118 21.9755 77.2281 22.309 77.3813 22.5796C77.5393 22.8503 77.7451 23.0557 77.9988 23.1958C78.2573 23.3312 78.5805 23.3988 78.9682 23.3988C79.2938 23.3988 79.569 23.3312 79.794 23.1958C80.0238 23.0557 80.2105 22.8503 80.3541 22.5796C80.5025 22.309 80.6102 21.9755 80.6772 21.5792C80.7443 21.1781 80.7778 20.7166 80.7778 20.1946C80.7778 19.6678 80.7443 19.2087 80.6772 18.8172C80.6102 18.4209 80.5025 18.0923 80.3541 17.8313C80.2105 17.5703 80.0214 17.3746 79.7868 17.2441C79.5571 17.1136 79.2794 17.0484 78.9539 17.0484ZM82.2067 20.2091C82.2067 20.9244 82.1397 21.543 82.0057 22.0649C81.8764 22.5869 81.6849 23.017 81.4312 23.3553C81.1775 23.6936 80.8639 23.9449 80.4905 24.1093C80.1171 24.2687 79.6887 24.3485 79.2052 24.3485C78.9228 24.3485 78.6666 24.3171 78.4369 24.2542C78.2071 24.1914 77.9988 24.102 77.8121 23.986C77.6302 23.87 77.4675 23.7323 77.3239 23.5728C77.185 23.4133 77.063 23.2369 76.9576 23.0436H76.9002C76.9098 23.2997 76.9193 23.539 76.9289 23.7613C76.9337 23.8531 76.9361 23.9498 76.9361 24.0513C76.9409 24.1479 76.9433 24.2397 76.9433 24.3267C76.9481 24.4137 76.9505 24.491 76.9505 24.5587C76.9552 24.6312 76.9576 24.6868 76.9576 24.7254V26.1463C76.9576 26.3638 76.9888 26.5378 77.051 26.6683C77.118 26.8036 77.2066 26.9051 77.3167 26.9727C77.4268 27.0452 77.5536 27.0912 77.6973 27.1105C77.8457 27.1346 78.0012 27.1467 78.164 27.1467H78.2071V27.7702H74.2505V27.1467H74.3654C74.533 27.1467 74.6885 27.1346 74.8322 27.1105C74.9806 27.0863 75.1074 27.0356 75.2127 26.9582C75.3228 26.8858 75.409 26.777 75.4712 26.632C75.5383 26.4919 75.5718 26.3058 75.5718 26.0738V17.8821C75.5718 17.6646 75.5383 17.4906 75.4712 17.3601C75.409 17.2248 75.3228 17.1209 75.2127 17.0484C75.1026 16.9759 74.9734 16.9276 74.825 16.9034C74.6814 16.8792 74.5282 16.8671 74.3654 16.8671H74.1787V16.2437H76.7494L76.9002 17.5848H76.9576C77.0677 17.3577 77.1922 17.1523 77.331 16.9686C77.4699 16.785 77.6302 16.6303 77.8121 16.5047C77.9941 16.3742 78.1999 16.2751 78.4297 16.2075C78.6595 16.135 78.918 16.0987 79.2052 16.0987C79.6887 16.0987 80.1171 16.1809 80.4905 16.3452C80.8639 16.5047 81.1775 16.7536 81.4312 17.0919C81.6849 17.4253 81.8764 17.8506 82.0057 18.3678C82.1397 18.8849 82.2067 19.4987 82.2067 20.2091Z" fill="black"/>
<path d="M67.8596 22.0504C67.8596 22.5144 67.9554 22.8624 68.1468 23.0943C68.3431 23.3215 68.6447 23.4351 69.0516 23.4351C69.3484 23.4351 69.6165 23.3867 69.8559 23.2901C70.1 23.1934 70.3058 23.0557 70.4734 22.8769C70.6457 22.698 70.7774 22.4806 70.8683 22.2244C70.9593 21.9683 71.0048 21.6831 71.0048 21.369V20.1656L70.0641 20.2091C69.6476 20.2284 69.2982 20.2816 69.0157 20.3686C68.7381 20.4507 68.5131 20.5691 68.3407 20.7238C68.1684 20.8736 68.0439 21.0597 67.9673 21.282C67.8955 21.5043 67.8596 21.7605 67.8596 22.0504ZM69.6404 16.8381C69.358 16.8381 69.1282 16.8792 68.9511 16.9614C68.7788 17.0387 68.6423 17.1499 68.5418 17.2949C68.446 17.4398 68.3814 17.6114 68.3479 17.8096C68.3144 18.0077 68.2976 18.2228 68.2976 18.4548C67.8907 18.4548 67.5796 18.3847 67.3642 18.2445C67.1535 18.1044 67.0482 17.8627 67.0482 17.5196C67.0482 17.2634 67.1176 17.046 67.2564 16.8671C67.3953 16.6883 67.5844 16.5433 67.8237 16.4322C68.0679 16.3162 68.3503 16.2316 68.671 16.1785C68.9918 16.1253 69.3341 16.0987 69.6979 16.0987C70.1479 16.0987 70.5404 16.1446 70.8755 16.2365C71.2106 16.3234 71.4907 16.4684 71.7157 16.6714C71.9407 16.8744 72.1082 17.1402 72.2183 17.4688C72.3332 17.7926 72.3906 18.1914 72.3906 18.665V22.5144C72.3906 22.7222 72.4074 22.8938 72.4409 23.0291C72.4744 23.1644 72.5271 23.2732 72.5989 23.3553C72.6707 23.4375 72.764 23.4955 72.8789 23.5293C72.9986 23.5631 73.1398 23.58 73.3026 23.58H73.3457V24.2035H71.3566L71.1268 22.9276H71.0048C70.8516 23.1354 70.7032 23.3263 70.5596 23.5003C70.4159 23.6743 70.258 23.8241 70.0856 23.9498C69.9133 24.0754 69.717 24.1721 69.4968 24.2397C69.2814 24.3122 69.0205 24.3485 68.7141 24.3485C68.3886 24.3485 68.0846 24.3001 67.8022 24.2035C67.5245 24.1117 67.2828 23.9691 67.0769 23.7758C66.8759 23.5776 66.7179 23.3312 66.603 23.0363C66.4881 22.7367 66.4307 22.3839 66.4307 21.9779C66.4307 21.1902 66.7083 20.6054 67.2636 20.2236C67.8189 19.8418 68.6591 19.634 69.784 19.6002L71.0048 19.5567V18.665C71.0048 18.3992 70.9904 18.1551 70.9617 17.9328C70.933 17.7057 70.8707 17.5123 70.775 17.3529C70.6792 17.1885 70.5404 17.0629 70.3585 16.9759C70.1814 16.8841 69.942 16.8381 69.6404 16.8381Z" fill="black"/>
<path d="M60.8585 24.2035V23.58H61.0524C61.2199 23.58 61.3755 23.568 61.5191 23.5438C61.6675 23.5196 61.7944 23.4713 61.8997 23.3988C62.0098 23.3215 62.096 23.2127 62.1582 23.0726C62.2252 22.9324 62.2587 22.7464 62.2587 22.5144V19.0347H57.4764V22.5144C57.4764 22.7464 57.5075 22.9324 57.5697 23.0726C57.6368 23.2127 57.7229 23.3215 57.8282 23.3988C57.9383 23.4713 58.0676 23.5196 58.216 23.5438C58.3644 23.568 58.52 23.58 58.6827 23.58H58.8766V24.2035H54.5969V23.58H54.7836C54.9512 23.58 55.1068 23.568 55.2504 23.5438C55.3988 23.5196 55.528 23.4713 55.6381 23.3988C55.7482 23.3215 55.8344 23.2127 55.8966 23.0726C55.9589 22.9324 55.99 22.7464 55.99 22.5144V15.236C55.99 15.0186 55.9565 14.8446 55.8894 14.7141C55.8272 14.5788 55.741 14.4749 55.6309 14.4024C55.5208 14.3299 55.3916 14.284 55.2432 14.2646C55.0996 14.2405 54.9464 14.2284 54.7836 14.2284H54.5969V13.6049H58.8766V14.2284H58.6827C58.52 14.2284 58.3644 14.2405 58.216 14.2646C58.0676 14.2888 57.9383 14.3395 57.8282 14.4169C57.7229 14.4894 57.6368 14.5957 57.5697 14.7358C57.5075 14.876 57.4764 15.0621 57.4764 15.294V18.2953H62.2587V15.294C62.2587 15.0621 62.2252 14.876 62.1582 14.7358C62.096 14.5957 62.0098 14.4894 61.8997 14.4169C61.7944 14.3395 61.6675 14.2888 61.5191 14.2646C61.3755 14.2405 61.2199 14.2284 61.0524 14.2284H60.8585V13.6049H65.1382V14.2284H64.9515C64.7839 14.2284 64.626 14.2405 64.4776 14.2646C64.3339 14.2888 64.2071 14.3395 64.097 14.4169C63.9869 14.4894 63.9007 14.5957 63.8385 14.7358C63.7762 14.876 63.7451 15.0621 63.7451 15.294V22.5869C63.7451 22.8044 63.7762 22.9808 63.8385 23.1161C63.9055 23.2466 63.9941 23.3457 64.1042 23.4133C64.2143 23.481 64.3411 23.5269 64.4847 23.551C64.6331 23.5704 64.7887 23.58 64.9515 23.58H65.1382V24.2035H60.8585Z" fill="black"/>
<path d="M145.108 33.38H143.216V33.1021H143.236C143.31 33.1021 143.38 33.0967 143.444 33.086C143.51 33.0752 143.566 33.0537 143.613 33.0214C143.662 32.9869 143.701 32.9384 143.728 32.876C143.758 32.8135 143.773 32.7306 143.773 32.6272V30.5625C143.773 30.4655 143.758 30.388 143.728 30.3298C143.701 30.2695 143.662 30.2232 143.613 30.1909C143.564 30.1586 143.506 30.1371 143.44 30.1263C143.376 30.1155 143.308 30.1101 143.236 30.1101H143.216V29.8323H144.224L144.349 30.4882H144.381C144.424 30.3891 144.468 30.2965 144.513 30.2103C144.557 30.122 144.612 30.0455 144.676 29.9809C144.742 29.9141 144.823 29.8624 144.919 29.8258C145.015 29.787 145.136 29.7676 145.281 29.7676C145.52 29.7676 145.697 29.8096 145.812 29.8936C145.929 29.9777 145.988 30.0961 145.988 30.2491C145.988 30.318 145.976 30.3815 145.953 30.4397C145.931 30.4979 145.896 30.5485 145.847 30.5916C145.798 30.6325 145.735 30.6648 145.658 30.6885C145.581 30.71 145.488 30.7208 145.377 30.7208C145.377 30.5377 145.351 30.4063 145.3 30.3266C145.249 30.2448 145.159 30.2038 145.031 30.2038C144.95 30.2038 144.877 30.2275 144.813 30.2749C144.749 30.3201 144.693 30.3815 144.644 30.4591C144.597 30.5345 144.556 30.6217 144.522 30.7208C144.49 30.8199 144.463 30.9222 144.442 31.0278C144.423 31.1312 144.409 31.2346 144.4 31.3379C144.392 31.4413 144.388 31.535 144.388 31.6191V32.6595C144.388 32.7564 144.402 32.835 144.429 32.8953C144.459 32.9535 144.499 32.9977 144.548 33.0278C144.597 33.058 144.653 33.0784 144.717 33.0892C144.783 33.0978 144.853 33.1021 144.925 33.1021H145.108V33.38Z" fill="#D4AC79"/>
<path d="M140.269 32.4204C140.269 32.6272 140.311 32.7823 140.397 32.8856C140.484 32.9869 140.619 33.0375 140.8 33.0375C140.932 33.0375 141.052 33.016 141.158 32.9729C141.267 32.9298 141.359 32.8684 141.434 32.7887C141.511 32.709 141.569 32.6121 141.61 32.4979C141.65 32.3837 141.671 32.2567 141.671 32.1166V31.5803L141.251 31.5997C141.066 31.6083 140.91 31.632 140.784 31.6708C140.66 31.7074 140.56 31.7601 140.483 31.8291C140.406 31.8959 140.351 31.9788 140.317 32.0779C140.285 32.177 140.269 32.2911 140.269 32.4204ZM141.062 30.0972C140.937 30.0972 140.834 30.1155 140.755 30.1521C140.678 30.1866 140.618 30.2361 140.573 30.3008C140.53 30.3654 140.501 30.4419 140.486 30.5302C140.471 30.6185 140.464 30.7143 140.464 30.8177C140.283 30.8177 140.144 30.7865 140.048 30.724C139.954 30.6616 139.907 30.5539 139.907 30.4009C139.907 30.2868 139.938 30.1898 140 30.1101C140.062 30.0304 140.146 29.9658 140.253 29.9163C140.362 29.8646 140.487 29.8269 140.63 29.8032C140.773 29.7795 140.926 29.7676 141.088 29.7676C141.289 29.7676 141.464 29.7881 141.613 29.829C141.762 29.8678 141.887 29.9324 141.987 30.0229C142.088 30.1134 142.162 30.2318 142.211 30.3783C142.263 30.5226 142.288 30.7003 142.288 30.9114V32.6272C142.288 32.7198 142.296 32.7963 142.311 32.8566C142.326 32.9169 142.349 32.9653 142.381 33.002C142.413 33.0386 142.455 33.0644 142.506 33.0795C142.559 33.0946 142.622 33.1021 142.695 33.1021H142.714V33.38H141.827L141.725 32.8113H141.671C141.602 32.904 141.536 32.989 141.472 33.0666C141.408 33.1441 141.338 33.2109 141.261 33.2669C141.184 33.3229 141.097 33.366 140.998 33.3962C140.902 33.4285 140.786 33.4446 140.65 33.4446C140.505 33.4446 140.369 33.4231 140.243 33.38C140.119 33.3391 140.012 33.2755 139.92 33.1894C139.83 33.1011 139.76 32.9912 139.709 32.8598C139.657 32.7262 139.632 32.569 139.632 32.3881C139.632 32.0369 139.756 31.7763 140.003 31.6061C140.251 31.436 140.625 31.3433 141.126 31.3283L141.671 31.3089V30.9114C141.671 30.793 141.664 30.6842 141.651 30.5851C141.639 30.4839 141.611 30.3977 141.568 30.3266C141.525 30.2534 141.464 30.1974 141.383 30.1586C141.304 30.1177 141.197 30.0972 141.062 30.0972Z" fill="#D4AC79"/>
<path d="M137.599 30.1231C137.356 30.1231 137.168 30.2232 137.036 30.4235C136.906 30.6217 136.829 30.9125 136.806 31.2959H138.313C138.313 31.1215 138.3 30.9621 138.275 30.8177C138.249 30.6734 138.209 30.5496 138.153 30.4462C138.098 30.3428 138.024 30.2631 137.932 30.2071C137.843 30.1511 137.732 30.1231 137.599 30.1231ZM137.679 33.4446C137.443 33.4446 137.229 33.4048 137.039 33.3251C136.852 33.2432 136.693 33.1248 136.562 32.9697C136.432 32.8146 136.332 32.625 136.262 32.401C136.193 32.1748 136.159 31.9185 136.159 31.632C136.159 31.0138 136.285 30.5485 136.537 30.2361C136.789 29.9238 137.147 29.7676 137.612 29.7676C137.823 29.7676 138.013 29.801 138.182 29.8678C138.35 29.9346 138.493 30.0347 138.611 30.1683C138.728 30.2997 138.818 30.4645 138.88 30.6626C138.944 30.8587 138.976 31.087 138.976 31.3476V31.6514H136.793C136.797 31.8926 136.821 32.1005 136.863 32.275C136.908 32.4473 136.971 32.5895 137.052 32.7015C137.135 32.8135 137.237 32.8964 137.356 32.9503C137.476 33.002 137.613 33.0278 137.769 33.0278C137.882 33.0278 137.987 33.0149 138.083 32.989C138.181 32.9632 138.269 32.9287 138.348 32.8856C138.427 32.8426 138.497 32.7941 138.556 32.7402C138.618 32.6842 138.668 32.6261 138.707 32.5658C138.737 32.5787 138.764 32.6056 138.79 32.6465C138.818 32.6875 138.832 32.7359 138.832 32.7919C138.832 32.8587 138.808 32.9309 138.761 33.0084C138.714 33.0838 138.643 33.1538 138.547 33.2185C138.451 33.2831 138.33 33.3369 138.185 33.38C138.042 33.4231 137.874 33.4446 137.679 33.4446Z" fill="#D4AC79"/>
<path d="M133.266 29.8516L133.922 31.8129C133.948 31.8926 133.974 31.9788 134.002 32.0714C134.032 32.1619 134.06 32.2524 134.085 32.3428C134.111 32.4311 134.134 32.5151 134.156 32.5948C134.177 32.6745 134.193 32.7424 134.204 32.7984H134.223C134.242 32.6885 134.273 32.5539 134.316 32.3945C134.358 32.233 134.413 32.0456 134.479 31.8323L134.805 30.766C134.822 30.71 134.836 30.6508 134.847 30.5883C134.86 30.5237 134.866 30.4731 134.866 30.4365C134.866 30.3223 134.83 30.2394 134.757 30.1877C134.687 30.136 134.578 30.1101 134.431 30.1101H134.386V29.8322H135.788V30.1101H135.705C135.641 30.1101 135.585 30.1166 135.538 30.1295C135.491 30.1424 135.449 30.1683 135.41 30.2071C135.374 30.2437 135.34 30.2954 135.308 30.3622C135.276 30.4289 135.244 30.5172 135.212 30.6271L134.367 33.38H133.842L133.061 31.0504L132.943 30.6142L132.015 33.38H131.496L130.638 30.4623C130.613 30.3934 130.586 30.3363 130.558 30.2911C130.531 30.2458 130.499 30.2103 130.462 30.1844C130.426 30.1564 130.384 30.1371 130.337 30.1263C130.291 30.1155 130.235 30.1101 130.171 30.1101H130.152V29.8322H131.771V30.1101H131.685C131.555 30.1101 131.457 30.1295 131.39 30.1683C131.324 30.2071 131.291 30.2803 131.291 30.388C131.291 30.4246 131.297 30.4688 131.307 30.5205C131.32 30.5722 131.333 30.6228 131.346 30.6723L131.653 31.7838C131.674 31.8635 131.697 31.9508 131.72 32.0456C131.744 32.1403 131.765 32.2351 131.784 32.3299C131.805 32.4225 131.825 32.5098 131.842 32.5916C131.859 32.6735 131.873 32.7424 131.883 32.7984H131.903C131.913 32.7424 131.927 32.6778 131.944 32.6045C131.963 32.5291 131.985 32.4494 132.008 32.3654C132.034 32.2793 132.06 32.192 132.088 32.1037C132.116 32.0154 132.144 31.9314 132.171 31.8517L132.853 29.8516H133.266Z" fill="#D4AC79"/>
<path d="M129.573 33.0957C129.651 33.0957 129.724 33.0914 129.79 33.0827C129.856 33.0741 129.924 33.0634 129.992 33.0504V33.3412C129.964 33.3542 129.928 33.3671 129.883 33.38C129.838 33.3929 129.789 33.4037 129.736 33.4123C129.685 33.4231 129.63 33.4306 129.573 33.4349C129.515 33.4414 129.461 33.4446 129.409 33.4446C129.243 33.4446 129.1 33.4263 128.98 33.3897C128.861 33.3552 128.763 33.2982 128.686 33.2185C128.609 33.1388 128.552 33.0332 128.513 32.9018C128.477 32.7704 128.459 32.6099 128.459 32.4204V30.2103H127.959V29.9453C128.038 29.9453 128.125 29.9292 128.219 29.8969C128.315 29.8646 128.399 29.8107 128.472 29.7353C128.546 29.6535 128.606 29.5565 128.651 29.4445C128.698 29.3304 128.738 29.1882 128.772 29.018H129.073V29.8323H129.931V30.2103H129.073V32.4398C129.073 32.6659 129.118 32.8318 129.208 32.9373C129.299 33.0429 129.421 33.0957 129.573 33.0957Z" fill="#D4AC79"/>
<path d="M125.972 33.1021C126.045 33.1021 126.113 33.0978 126.177 33.0892C126.243 33.0784 126.301 33.058 126.35 33.0278C126.399 32.9977 126.437 32.9535 126.465 32.8953C126.495 32.835 126.51 32.7564 126.51 32.6595V30.5625C126.51 30.4655 126.495 30.388 126.465 30.3298C126.437 30.2695 126.399 30.2232 126.35 30.1909C126.301 30.1586 126.243 30.1371 126.177 30.1263C126.113 30.1155 126.045 30.1101 125.972 30.1101H125.953V29.8322H127.124V32.6272C127.124 32.7306 127.138 32.8135 127.166 32.876C127.196 32.9384 127.234 32.9869 127.281 33.0214C127.33 33.0537 127.388 33.0752 127.454 33.086C127.52 33.0967 127.589 33.1021 127.662 33.1021H127.748V33.38H125.886V33.1021H125.972ZM126.417 28.7595C126.417 28.682 126.427 28.6174 126.446 28.5657C126.465 28.514 126.492 28.472 126.526 28.4396C126.56 28.4073 126.599 28.3847 126.644 28.3718C126.689 28.3589 126.738 28.3524 126.791 28.3524C126.843 28.3524 126.891 28.3589 126.936 28.3718C126.98 28.3847 127.019 28.4073 127.051 28.4396C127.085 28.472 127.112 28.514 127.131 28.5657C127.152 28.6174 127.163 28.682 127.163 28.7595C127.163 28.8371 127.152 28.9017 127.131 28.9534C127.112 29.0051 127.085 29.0471 127.051 29.0794C127.019 29.1117 126.98 29.1354 126.936 29.1505C126.891 29.1634 126.843 29.1699 126.791 29.1699C126.738 29.1699 126.689 29.1634 126.644 29.1505C126.599 29.1354 126.56 29.1117 126.526 29.0794C126.492 29.0471 126.465 29.0051 126.446 28.9534C126.427 28.9017 126.417 28.8371 126.417 28.7595Z" fill="#D4AC79"/>
<path d="M123.45 33.1021V33.38H121.687V33.1021H121.741C121.816 33.1021 121.885 33.0967 121.949 33.086C122.015 33.0752 122.072 33.0537 122.119 33.0214C122.168 32.9869 122.206 32.9384 122.234 32.876C122.264 32.8135 122.279 32.7306 122.279 32.6272V30.5625C122.279 30.4655 122.264 30.388 122.234 30.3298C122.206 30.2695 122.168 30.2232 122.119 30.1909C122.07 30.1586 122.012 30.1371 121.946 30.1263C121.882 30.1155 121.813 30.1101 121.741 30.1101H121.722V29.8323H122.781L122.868 30.3686H122.9C122.968 30.2458 123.039 30.1457 123.114 30.0681C123.191 29.9884 123.271 29.927 123.354 29.8839C123.439 29.8387 123.529 29.8086 123.623 29.7935C123.719 29.7762 123.819 29.7676 123.924 29.7676C124.097 29.7676 124.25 29.7935 124.385 29.8452C124.521 29.8947 124.636 29.9723 124.73 30.0778C124.826 30.1812 124.899 30.3148 124.948 30.4785C124.999 30.6422 125.025 30.8371 125.025 31.0633V32.6272C125.025 32.7306 125.036 32.8135 125.06 32.876C125.085 32.9384 125.121 32.9869 125.165 33.0214C125.21 33.0537 125.264 33.0752 125.325 33.086C125.387 33.0967 125.455 33.1021 125.527 33.1021H125.55V33.38H124.407V31.0956C124.407 30.9513 124.394 30.8231 124.369 30.7111C124.343 30.5991 124.301 30.5043 124.244 30.4268C124.188 30.3492 124.115 30.2911 124.023 30.2523C123.931 30.2114 123.819 30.1909 123.687 30.1909C123.537 30.1909 123.412 30.22 123.309 30.2781C123.209 30.3363 123.128 30.4149 123.066 30.514C123.004 30.6131 122.959 30.7273 122.932 30.8565C122.906 30.9858 122.893 31.1215 122.893 31.2636V32.6595C122.893 32.7564 122.907 32.835 122.935 32.8953C122.965 32.9535 123.004 32.9977 123.053 33.0278C123.102 33.058 123.159 33.0784 123.223 33.0892C123.289 33.0978 123.358 33.1021 123.431 33.1021H123.45Z" fill="#D4AC79"/>
<path d="M119.891 31.2507L120.765 32.5593C120.878 32.7359 120.99 32.8706 121.101 32.9632C121.214 33.0558 121.344 33.1021 121.491 33.1021H121.511V33.38H121.418C121.228 33.38 121.071 33.3746 120.947 33.3639C120.826 33.3509 120.72 33.3229 120.63 33.2798C120.541 33.2346 120.459 33.17 120.384 33.086C120.309 32.9998 120.226 32.8835 120.134 32.737L119.478 31.6998L118.995 32.0617V32.6595C118.995 32.7564 119.009 32.835 119.037 32.8953C119.066 32.9535 119.106 32.9977 119.155 33.0278C119.204 33.058 119.261 33.0784 119.325 33.0892C119.391 33.0978 119.46 33.1021 119.533 33.1021H119.552V33.38H117.788V33.1021H117.84C117.914 33.1021 117.984 33.0967 118.048 33.086C118.114 33.0752 118.17 33.0537 118.217 33.0214C118.266 32.9869 118.305 32.9384 118.332 32.876C118.362 32.8135 118.377 32.7306 118.377 32.6272V29.0794C118.377 28.9825 118.362 28.9049 118.332 28.8468C118.305 28.7864 118.266 28.7401 118.217 28.7078C118.168 28.6755 118.111 28.655 118.044 28.6464C117.98 28.6357 117.912 28.6303 117.84 28.6303H117.788V28.3524H118.995V30.905C118.995 30.9653 118.994 31.0428 118.992 31.1376C118.99 31.2302 118.986 31.3218 118.982 31.4123C118.978 31.5157 118.974 31.6244 118.969 31.7386L119.789 30.8339C119.859 30.7542 119.917 30.6842 119.961 30.6239C120.008 30.5636 120.046 30.5108 120.073 30.4655C120.101 30.4203 120.12 30.3805 120.131 30.346C120.142 30.3094 120.147 30.2749 120.147 30.2426C120.147 30.1866 120.12 30.1511 120.067 30.136C120.016 30.1187 119.936 30.1101 119.827 30.1101V29.8322H121.274V30.1101C121.122 30.1101 120.973 30.164 120.826 30.2717C120.681 30.3794 120.523 30.5312 120.352 30.7273L119.891 31.2507Z" fill="#D4AC79"/>
<path fill-rule="evenodd" clip-rule="evenodd" d="M25.2724 27.3883C25.2724 27.3883 24.3561 36.0022 27.2274 38.8935C30.0988 41.7848 36.9341 48.6667 36.9341 48.6667C36.9341 48.6667 37.4602 39.6604 34.8623 37.0445C32.2643 34.4287 25.2724 27.3883 25.2724 27.3883Z" fill="#D4AC79"/>
<path fill-rule="evenodd" clip-rule="evenodd" d="M22.95 21.2784C22.95 21.2784 23.8664 12.6645 20.995 9.77317C18.1237 6.88186 11.2884 0 11.2884 0C11.2884 0 10.7622 9.00626 13.3602 11.6221C15.958 14.238 22.95 21.2784 22.95 21.2784Z" fill="#D4AC79"/>
<path fill-rule="evenodd" clip-rule="evenodd" d="M27.1289 23.161C27.1289 23.161 35.6612 24.0862 38.5251 21.1874C41.3891 18.2886 48.2057 11.3879 48.2057 11.3879C48.2057 11.3879 39.2848 10.8567 36.6937 13.4795C34.1026 16.1022 27.1289 23.161 27.1289 23.161Z" fill="#D4AC79"/>
<path fill-rule="evenodd" clip-rule="evenodd" d="M21.0768 25.5055C21.0768 25.5055 12.5445 24.5805 9.68061 27.4793C6.81667 30.3781 0 37.2788 0 37.2788C0 37.2788 8.92095 37.8099 11.5121 35.1871C14.1031 32.5643 21.0768 25.5055 21.0768 25.5055Z" fill="#D4AC79"/>
<path d="M24.1032 25.6854C24.8133 25.6854 25.389 25.08 25.389 24.3332C25.389 23.5864 24.8133 22.981 24.1032 22.981C23.393 22.981 22.8174 23.5864 22.8174 24.3332C22.8174 25.08 23.393 25.6854 24.1032 25.6854Z" fill="black"/>
<path fill-rule="evenodd" clip-rule="evenodd" d="M22.95 27.3883C22.95 27.3883 23.8664 36.0022 20.995 38.8935C18.1237 41.7848 11.2884 48.6667 11.2884 48.6667C11.2884 48.6667 10.7622 39.6604 13.3602 37.0445C15.958 34.4287 22.95 27.3883 22.95 27.3883Z" fill="black"/>
<path fill-rule="evenodd" clip-rule="evenodd" d="M25.2724 21.2784C25.2724 21.2784 24.3561 12.6645 27.2274 9.77317C30.0988 6.88186 36.9341 0 36.9341 0C36.9341 0 37.4602 9.00626 34.8623 11.6221C32.2643 14.238 25.2724 21.2784 25.2724 21.2784Z" fill="black"/>
<path fill-rule="evenodd" clip-rule="evenodd" d="M27.1289 25.5055C27.1289 25.5055 35.6612 24.5805 38.5251 27.4793C41.3891 30.3781 48.2057 37.2788 48.2057 37.2788C48.2057 37.2788 39.2848 37.8099 36.6937 35.1871C34.1026 32.5643 27.1289 25.5055 27.1289 25.5055Z" fill="black"/>
<path fill-rule="evenodd" clip-rule="evenodd" d="M21.0768 23.161C21.0768 23.161 12.5445 24.0862 9.68061 21.1874C6.81667 18.2886 0 11.3879 0 11.3879C0 11.3879 8.92095 10.8567 11.5121 13.4795C14.1031 16.1022 21.0768 23.161 21.0768 23.161Z" fill="black"/>
<path fill-rule="evenodd" clip-rule="evenodd" d="M9.23284 24.3335C9.23284 24.3335 2.3833 32.365 2.3833 30.0208V29.3292V29.261V29.236V29.1366V29.1162V29.0306V28.9671V28.919V28.8136V28.8014V28.6782V28.6557V28.5494V28.4941V28.4156V28.3284V28.2768V28.1593V28.133V27.9866V27.9849V27.8319V27.8107V27.675V27.6318V27.514V27.4502V27.3489V27.2658V27.1804V27.0791V27.0084V26.8899V26.833V26.6989V26.6549V26.506V26.4735V26.3115V26.2897V26.1155V26.1034V25.9182V25.9145V25.7238V25.7198V25.5312V25.5206V25.337V25.3205V25.1414V25.1204V24.9441V24.9197V24.7459V24.719V24.547V24.5182V24.3472V24.3178V24.1469V24.1181V23.9461V23.9192V23.7454V23.721V23.5447V23.5237V23.3446V23.328V23.1445V23.1338V22.9453V22.9412V22.7505V22.7468V22.5617V22.5496V22.3754V22.3536V22.1916V22.1591V22.0102V21.9662V21.8321V21.7752V21.6566V21.586V21.4847V21.3993V21.3161V21.2149V21.1511V21.0333V20.9901V20.8544V20.8332V20.6802V20.6783V20.5321V20.5058V20.3883V20.3367V20.2494V20.171V20.1157V20.0094V19.9868V19.8636V19.8514V19.7461V19.6979V19.6345V19.5488V19.5285V19.4291V19.4041V19.3359V18.6443C2.3833 16.3001 9.23284 24.3316 9.23284 24.3316L9.23185 24.3325L9.23284 24.3335Z" fill="black"/>
<path fill-rule="evenodd" clip-rule="evenodd" d="M38.9734 24.3335C38.9734 24.3335 45.8228 32.365 45.8228 30.0208V29.3292V29.261V29.236V29.1366V29.1162V29.0306V28.9671V28.919V28.8136V28.8014V28.6782V28.6557V28.5494V28.4941V28.4156V28.3284V28.2768V28.1593V28.133V27.9866V27.9849V27.8319V27.8107V27.675V27.6318V27.514V27.4502V27.3489V27.2658V27.1804V27.0791V27.0084V26.8899V26.833V26.6989V26.6549V26.506V26.4735V26.3115V26.2897V26.1155V26.1034V25.9182V25.9145V25.7238V25.7198V25.5312V25.5206V25.337V25.3205V25.1414V25.1204V24.9441V24.9197V24.7459V24.719V24.547V24.5182V24.3472V24.3178V24.1469V24.1181V23.9461V23.9192V23.7454V23.721V23.5447V23.5237V23.3446V23.328V23.1445V23.1338V22.9453V22.9412V22.7505V22.7468V22.5617V22.5496V22.3754V22.3536V22.1916V22.1591V22.0102V21.9662V21.8321V21.7752V21.6566V21.586V21.4847V21.3993V21.3161V21.2149V21.1511V21.0333V20.9901V20.8544V20.8332V20.6802V20.6783V20.5321V20.5058V20.3883V20.3367V20.2494V20.171V20.1157V20.0094V19.9868V19.8636V19.8514V19.7461V19.6979V19.6345V19.5488V19.5285V19.4291V19.4041V19.3359V18.6443C45.8228 16.3001 38.9734 24.3316 38.9734 24.3316L38.9743 24.3325L38.9734 24.3335Z" fill="black"/>
<path fill-rule="evenodd" clip-rule="evenodd" d="M24.1021 39.3862C24.1021 39.3862 16.1467 46.3013 18.4687 46.3013H19.1537H19.2212H19.246H19.3445H19.3646H19.4494H19.5123H19.56H19.6644H19.6764H19.7985H19.8207H19.926H19.9809H20.0586H20.145H20.1961H20.3125H20.3386H20.4835H20.4853H20.6367H20.6578H20.7923H20.835H20.9518H21.0149H21.1152H21.1976H21.2822H21.3825H21.4524H21.5698H21.6262H21.7591H21.8027H21.9502H21.9823H22.1427H22.1644H22.3369H22.349H22.5324H22.536H22.7249H22.729H22.9157H22.9263H23.108H23.1244H23.3019H23.3226H23.4973H23.5215H23.6936H23.7203H23.8906H23.919H24.0885H24.1176H24.287H24.3155H24.4858H24.5124H24.6846H24.7088H24.8834H24.9042H25.0817H25.098H25.2798H25.2903H25.477H25.4811H25.67H25.6737H25.857H25.8691H26.0417H26.0633H26.2238H26.2559H26.4033H26.447H26.5798H26.6362H26.7535H26.8235H26.9239H27.0085H27.0908H27.1912H27.2543H27.3711H27.4138H27.5482H27.5693H27.7207H27.7225H27.8675H27.8935H28.0099H28.0611H28.1474H28.2252H28.28H28.3853H28.4076H28.5296H28.5417H28.646H28.6937H28.7566H28.8414H28.8616H28.9601H28.9848H29.0524H29.7373C32.0593 46.3013 24.104 39.3862 24.104 39.3862L24.103 39.3871L24.1021 39.3862Z" fill="black"/>
<path fill-rule="evenodd" clip-rule="evenodd" d="M24.1021 9.28046C24.1021 9.28046 16.1467 2.36543 18.4687 2.36543H19.1537H19.2212H19.246H19.3445H19.3646H19.4494H19.5123H19.56H19.6644H19.6764H19.7985H19.8207H19.926H19.9809H20.0586H20.145H20.1961H20.3125H20.3386H20.4835H20.4853H20.6367H20.6578H20.7923H20.835H20.9518H21.0149H21.1152H21.1976H21.2822H21.3825H21.4524H21.5698H21.6262H21.7591H21.8027H21.9502H21.9823H22.1427H22.1644H22.3369H22.349H22.5324H22.536H22.7249H22.729H22.9157H22.9263H23.108H23.1244H23.3019H23.3226H23.4973H23.5215H23.6936H23.7203H23.8906H23.919H24.0885H24.1176H24.287H24.3155H24.4858H24.5124H24.6846H24.7088H24.8834H24.9042H25.0817H25.098H25.2798H25.2903H25.477H25.4811H25.67H25.6737H25.857H25.8691H26.0417H26.0633H26.2238H26.2559H26.4033H26.447H26.5798H26.6362H26.7535H26.8235H26.9239H27.0085H27.0908H27.1912H27.2543H27.3711H27.4138H27.5482H27.5693H27.7207H27.7225H27.8675H27.8935H28.0099H28.0611H28.1474H28.2252H28.28H28.3853H28.4076H28.5296H28.5417H28.646H28.6937H28.7566H28.8414H28.8616H28.9601H28.9848H29.0524H29.7373C32.0593 2.36543 24.104 9.28046 24.104 9.28046L24.103 9.27946L24.1021 9.28046Z" fill="black"/>
</svg>
